<?xml version="1.0" encoding="utf-8"?>
<!-- Generator: Adobe Illustrator 27.1.1, SVG Export Plug-In . SVG Version: 6.00 Build 0)  -->
<svg version="1.1"
	 id="svg150" xmlns:inkscape="http://www.inkscape.org/namespaces/inkscape" xmlns:sodipodi="http://sodipodi.sourceforge.net/DTD/sodipodi-0.dtd" xmlns:dc="http://purl.org/dc/elements/1.1/" xmlns:cc="http://creativecommons.org/ns#" xmlns:svg="http://www.w3.org/2000/svg" xmlns:rdf="http://www.w3.org/1999/02/22-rdf-syntax-ns#"
	 xmlns="http://www.w3.org/2000/svg" xmlns:xlink="http://www.w3.org/1999/xlink" x="0px" y="0px" viewBox="0 0 2327.6 327.3"
	 style="enable-background:new 0 0 2327.6 327.3;" xml:space="preserve">
<style type="text/css">
	.st0{fill:#FFDA00;}
	.st1{fill:#183EFF;}
	.st2{fill:#4E4E4E;}
	.st3{fill:#00D000;}
	.st4{fill:#FF0000;}
	.st5{font-family:'Rawline-SemiBold';}
	.st6{font-size:37.9119px;}
	.st7{letter-spacing:7;}
	.st8{font-family:'Rawline-Bold';}
</style>
<sodipodi:namedview  bordercolor="#666666" borderopacity="1" gridtolerance="10" guidetolerance="10" id="namedview152" inkscape:current-layer="svg150" inkscape:cx="226.46719" inkscape:cy="449.92703" inkscape:pageopacity="0" inkscape:pageshadow="2" inkscape:window-height="1017" inkscape:window-maximized="1" inkscape:window-width="1920" inkscape:window-x="-8" inkscape:window-y="-8" inkscape:zoom="0.89359596" objecttolerance="10" pagecolor="#ffffff" showgrid="false" units="px">
	</sodipodi:namedview>
<g>
	<path d="M1778.1,271.4c0,0.7-0.1,1.4-0.2,2.1s-0.3,1.3-0.5,1.9c-0.3,0.6-0.6,1.1-1,1.6c-0.4,0.4-0.9,0.8-1.5,1.1
		c-0.6,0.3-1.3,0.4-2.2,0.4c-0.8,0-1.5-0.1-2.1-0.4s-1.1-0.6-1.5-1s-0.7-1-1-1.6c-0.3-0.6-0.5-1.3-0.6-1.9c-0.1-0.7-0.2-1.4-0.2-2.1
		v-10h-3.1v10c0,1.1,0.1,2.1,0.3,3c0.2,0.9,0.5,1.8,0.9,2.7c0.4,0.9,1,1.6,1.6,2.2s1.4,1.1,2.4,1.5s2.1,0.5,3.3,0.5
		c1.5,0,2.8-0.3,3.9-0.8c1.1-0.5,2-1.2,2.7-2.2c0.7-0.9,1.2-2,1.5-3.1c0.3-1.2,0.5-2.4,0.5-3.8v-10h-3.1v9.9 M1804.7,275.7
		l-11.2-14.3h-2.6v19.7h3.1v-14l11,14h2.7v-19.7h-3.1L1804.7,275.7L1804.7,275.7z M1817.8,281.2h3.1v-19.7h-3.1V281.2z
		 M1836.6,261.4l-7.7,19.7h3.3l2.1-5.4h7.6l2.1,5.4h3.3l-7.7-19.7H1836.6z M1834.8,273.5l3.3-8.6l3.2,8.6H1834.8z M1834.9,258.8
		c0-0.1,0.1-0.3,0.2-0.4c0.1-0.2,0.2-0.3,0.4-0.4c0.2-0.1,0.4-0.2,0.7-0.2c0.3,0,0.7,0.1,1,0.3c0.4,0.2,0.8,0.4,1.2,0.6
		s0.9,0.3,1.4,0.3s0.9-0.1,1.3-0.3c0.4-0.2,0.7-0.4,0.9-0.7c0.2-0.3,0.4-0.6,0.6-0.9s0.3-0.6,0.3-0.8c0.1-0.2,0.1-0.4,0.1-0.5h-1.8
		c0,0,0,0.1,0,0.2s-0.1,0.2-0.1,0.3c-0.1,0.1-0.1,0.3-0.3,0.4c-0.1,0.1-0.3,0.2-0.4,0.3c-0.2,0.1-0.4,0.1-0.7,0.1
		c-0.4,0-0.7-0.1-1.1-0.3c-0.4-0.2-0.8-0.4-1.2-0.6c-0.4-0.2-0.9-0.3-1.3-0.3c-0.4,0-0.8,0.1-1.2,0.3c-0.4,0.2-0.6,0.4-0.9,0.7
		s-0.4,0.6-0.5,0.9c-0.2,0.3-0.3,0.6-0.3,0.8c-0.1,0.2-0.1,0.4-0.1,0.6h1.7C1834.9,259,1834.9,258.9,1834.9,258.8z M1869.6,264.4
		c-0.8-0.9-1.8-1.7-3-2.3c-1.2-0.6-2.5-0.9-3.8-0.9c-1.3,0-2.6,0.3-3.8,0.8c-1.2,0.6-2.2,1.3-3,2.2c-0.8,0.9-1.5,2-2,3.2
		s-0.7,2.5-0.7,3.8c0,1,0.1,2,0.4,3c0.3,1,0.7,1.9,1.3,2.7c0.6,0.8,1.2,1.6,2,2.2c0.8,0.6,1.6,1.1,2.6,1.5s2,0.6,3.2,0.6
		c1.3,0,2.6-0.3,3.8-0.8c1.2-0.5,2.2-1.3,3-2.2c0.8-0.9,1.5-2,2-3.2s0.7-2.5,0.7-3.8c0-1.2-0.2-2.5-0.7-3.7
		C1871,266.5,1870.4,265.4,1869.6,264.4z M1868.5,273.9c-0.3,0.9-0.7,1.6-1.2,2.3c-0.5,0.7-1.2,1.2-2,1.6c-0.8,0.4-1.7,0.6-2.6,0.6
		c-1.2,0-2.4-0.3-3.3-1c-1-0.7-1.7-1.6-2.2-2.7s-0.8-2.3-0.8-3.5c0-0.9,0.1-1.8,0.4-2.6c0.3-0.9,0.7-1.6,1.2-2.3
		c0.5-0.7,1.2-1.2,2-1.6c0.8-0.4,1.7-0.6,2.7-0.6c0.9,0,1.8,0.2,2.6,0.6c0.8,0.4,1.5,0.9,2,1.6s0.9,1.4,1.2,2.3
		c0.3,0.9,0.5,1.8,0.5,2.7C1869,272.2,1868.8,273.1,1868.5,273.9z M1896.5,272.4h8.8v-2.6h-8.8v-5.6h10.1v-2.8h-13.3v19.7h13.5v-2.8
		h-10.4L1896.5,272.4L1896.5,272.4L1896.5,272.4z M1941.7,271.5c0.7-1.1,1.1-2.3,1.1-3.6c0-0.8-0.2-1.6-0.5-2.3
		c-0.3-0.8-0.7-1.5-1.2-2.1s-1.2-1.1-1.9-1.5c-0.8-0.4-1.6-0.6-2.5-0.6h-8.6v19.7h3.1v-6.9h4.6l4.3,6.9h3.5l-4.6-7.5
		C1940.1,273.3,1941,272.6,1941.7,271.5z M1936.6,271.5h-5.5v-7.4h5.3c0.8,0,1.6,0.4,2.2,1.1s1,1.6,1,2.6s-0.3,1.9-0.8,2.6
		C1938.2,271.2,1937.5,271.5,1936.6,271.5z M1955.1,272.4h8.8v-2.6h-8.8v-5.6h10.2v-2.8H1952v19.7h13.5v-2.8h-10.4V272.4z
		 M1986,277.1c-0.6,0.5-1.2,0.9-1.9,1.1c-0.6,0.2-1.3,0.3-2,0.3c-1.2,0-2.3-0.3-3.3-1s-1.7-1.6-2.3-2.7c-0.5-1.1-0.8-2.3-0.8-3.6
		c0-0.7,0.1-1.4,0.3-2.1c0.2-0.7,0.4-1.3,0.8-1.9s0.8-1.2,1.3-1.6c0.5-0.5,1.1-0.8,1.8-1.1c0.7-0.3,1.4-0.4,2.2-0.4
		c0.5,0,1,0.1,1.5,0.2s0.9,0.3,1.4,0.5s0.9,0.6,1.3,1s0.7,0.9,1,1.5l2.4-1.6c-0.7-1.3-1.6-2.3-3-3.1c-1.3-0.8-2.8-1.2-4.6-1.2
		c-1.2,0-2.3,0.2-3.3,0.6s-1.9,0.9-2.7,1.5c-0.8,0.6-1.4,1.4-1.9,2.2c-0.5,0.8-1,1.7-1.2,2.7c-0.3,0.9-0.4,1.9-0.4,2.9
		c0,1.2,0.2,2.5,0.7,3.7s1.1,2.3,1.9,3.3c0.8,1,1.8,1.7,3,2.3c1.2,0.6,2.5,0.9,3.8,0.9c1.1,0,2.1-0.2,3.2-0.5c1-0.3,2-0.9,2.9-1.6
		s1.5-1.5,1.9-2.5l-2.6-1.5C1987.1,276,1986.6,276.6,1986,277.1z M2013.3,264.4c-0.8-0.9-1.8-1.7-3-2.3c-1.2-0.6-2.5-0.9-3.8-0.9
		c-1.3,0-2.6,0.3-3.8,0.8c-1.2,0.6-2.2,1.3-3,2.2c-0.8,0.9-1.5,2-2,3.2s-0.7,2.5-0.7,3.8c0,1,0.1,2,0.4,3s0.7,1.9,1.3,2.7
		c0.6,0.8,1.2,1.6,2,2.2c0.8,0.6,1.6,1.1,2.6,1.5s2,0.6,3.2,0.6c1.3,0,2.6-0.3,3.8-0.8c1.2-0.5,2.2-1.3,3-2.2c0.8-0.9,1.5-2,2-3.2
		s0.7-2.5,0.7-3.8c0-1.2-0.2-2.5-0.7-3.7C2014.7,266.5,2014.1,265.4,2013.3,264.4z M2012.3,273.9c-0.3,0.9-0.7,1.6-1.2,2.3
		c-0.5,0.7-1.2,1.2-2,1.6c-0.8,0.4-1.7,0.6-2.6,0.6c-1.2,0-2.4-0.3-3.3-1c-1-0.7-1.7-1.6-2.2-2.7s-0.8-2.3-0.8-3.5
		c0-0.9,0.1-1.8,0.4-2.6c0.3-0.9,0.7-1.6,1.2-2.3c0.5-0.7,1.2-1.2,2-1.6c0.8-0.4,1.7-0.6,2.7-0.6c0.9,0,1.8,0.2,2.6,0.6
		c0.8,0.4,1.5,0.9,2,1.6s0.9,1.4,1.2,2.3c0.3,0.9,0.5,1.8,0.5,2.7C2012.7,272.2,2012.6,273.1,2012.3,273.9z M2038.4,275.7
		l-11.2-14.3h-2.6v19.7h3.1v-14l11,14h2.7v-19.7h-3.1L2038.4,275.7L2038.4,275.7z M2064.3,272.4c-0.3-0.4-0.8-0.7-1.4-1
		c-0.6-0.3-1.2-0.6-1.8-0.8c-0.6-0.2-1.4-0.4-2.2-0.6c-0.5-0.1-1-0.2-1.3-0.3c-0.3-0.1-0.7-0.2-1.1-0.3c-0.4-0.1-0.7-0.2-0.9-0.3
		c-0.2-0.1-0.4-0.2-0.7-0.4c-0.2-0.2-0.4-0.3-0.5-0.5c-0.1-0.2-0.2-0.4-0.3-0.6c-0.1-0.2-0.1-0.5-0.1-0.7c0-0.9,0.3-1.5,1-2
		c0.6-0.5,1.6-0.7,2.9-0.7c1.1,0,2.1,0.2,3.2,0.7c1,0.4,1.7,0.9,2.2,1.4l1.4-2.6c-2-1.5-4.2-2.2-6.7-2.2c-1,0-2,0.1-2.8,0.4
		c-0.9,0.3-1.6,0.6-2.3,1.1c-0.6,0.5-1.1,1.1-1.5,1.9c-0.4,0.8-0.6,1.6-0.6,2.6c0,0.8,0.1,1.4,0.4,2s0.6,1,1.1,1.4s1.1,0.8,1.8,1
		c0.7,0.3,1.5,0.6,2.6,0.8c0.7,0.2,1.2,0.3,1.6,0.4s0.8,0.2,1.3,0.4c0.5,0.2,0.8,0.3,1.1,0.5c0.3,0.2,0.5,0.3,0.8,0.6
		c0.2,0.2,0.4,0.5,0.5,0.7c0.1,0.3,0.1,0.6,0.1,0.9c0,0.8-0.3,1.4-1,1.9c-0.7,0.4-1.6,0.7-2.8,0.7c-1.4,0-2.7-0.3-4-0.8
		s-2.2-1.1-2.8-1.7l-1.4,2.7c1.1,0.9,2.4,1.5,3.8,2c1.4,0.5,2.9,0.7,4.4,0.7c0.8,0,1.6-0.1,2.3-0.2c0.7-0.1,1.4-0.3,2-0.6
		c0.6-0.3,1.1-0.7,1.6-1.1c0.4-0.4,0.8-1,1-1.6s0.4-1.3,0.4-2.1c0-0.7-0.1-1.3-0.3-1.9C2064.9,273.3,2064.7,272.8,2064.3,272.4z
		 M2072.3,264.2h6.6v17h3.2v-17h6.6v-2.8h-16.3L2072.3,264.2L2072.3,264.2z M2110.4,271.5c0.7-1.1,1.1-2.3,1.1-3.6
		c0-0.8-0.2-1.6-0.5-2.3c-0.3-0.8-0.7-1.5-1.2-2.1s-1.2-1.1-1.9-1.5c-0.8-0.4-1.6-0.6-2.5-0.6h-8.6v19.7h3.1v-6.9h4.6l4.3,6.9h3.5
		l-4.6-7.5C2108.8,273.3,2109.7,272.6,2110.4,271.5z M2105.4,271.5h-5.5v-7.4h5.3c0.8,0,1.6,0.4,2.2,1.1c0.6,0.7,0.9,1.6,0.9,2.6
		s-0.3,1.9-0.8,2.6C2106.9,271.2,2106.2,271.5,2105.4,271.5z M2134.3,271.4c0,0.7-0.1,1.4-0.2,2.1c-0.1,0.7-0.3,1.3-0.6,1.9
		s-0.6,1.1-1,1.6c-0.4,0.4-0.9,0.8-1.5,1.1c-0.6,0.3-1.3,0.4-2.2,0.4c-0.8,0-1.5-0.1-2.1-0.4c-0.6-0.3-1.1-0.6-1.5-1
		c-0.4-0.4-0.7-1-1-1.6s-0.5-1.3-0.6-1.9c-0.1-0.7-0.2-1.4-0.2-2.1v-10h-3.1v10c0,1.1,0.1,2.1,0.3,3c0.2,0.9,0.5,1.8,0.9,2.7
		c0.4,0.9,1,1.6,1.6,2.2c0.6,0.6,1.4,1.1,2.4,1.5s2.1,0.5,3.3,0.5c1.5,0,2.8-0.3,3.9-0.8c1.1-0.5,2-1.2,2.7-2.2s1.2-2,1.5-3.1
		c0.3-1.2,0.5-2.4,0.5-3.8v-10h-3.1L2134.3,271.4L2134.3,271.4z M2159.3,277.1c-0.6,0.5-1.2,0.9-1.9,1.1c-0.6,0.2-1.3,0.3-2,0.3
		c-1.2,0-2.3-0.3-3.3-1s-1.7-1.6-2.3-2.7c-0.5-1.1-0.8-2.3-0.8-3.6c0-0.7,0.1-1.4,0.3-2.1s0.4-1.3,0.8-1.9c0.4-0.6,0.8-1.2,1.3-1.6
		c0.5-0.5,1.1-0.8,1.8-1.1c0.7-0.3,1.4-0.4,2.2-0.4c0.5,0,1,0.1,1.5,0.2s0.9,0.3,1.4,0.5s0.9,0.6,1.3,1c0.4,0.4,0.7,0.9,1,1.5
		l2.4-1.6c-0.7-1.3-1.6-2.3-3-3.1c-1.3-0.8-2.8-1.2-4.6-1.2c-1.2,0-2.3,0.2-3.3,0.6s-1.9,0.9-2.7,1.5c-0.8,0.6-1.4,1.4-1.9,2.2
		c-0.5,0.8-1,1.7-1.2,2.7c-0.3,0.9-0.4,1.9-0.4,2.9c0,1.2,0.2,2.4,0.6,3.5c0.4,1.2,1,2.2,1.8,3.2c0.8,0.9,1.7,1.7,2.8,2.3
		c1.1,0.6,2.3,1,3.5,1.1c1,0.7,1.5,1.3,1.5,2.1c0,0.4-0.1,0.7-0.4,1c-0.3,0.2-0.7,0.3-1.2,0.3c-0.6,0-1.3-0.2-2-0.6l-0.8,1.6
		c1,0.5,2.1,0.8,3.3,0.8c1,0,1.7-0.2,2.2-0.7s0.8-1.1,0.8-1.9c0-1-0.5-1.9-1.4-2.7c1.5-0.2,2.8-0.7,4.1-1.5c1.2-0.8,2.1-1.8,2.6-3
		l-2.6-1.5C2160.4,276,2159.9,276.6,2159.3,277.1z M2177.1,261.4l-7.7,19.7h3.3l2.1-5.4h7.6l2.1,5.4h3.3l-7.7-19.7H2177.1z
		 M2175.3,273.5l3.3-8.6l3.2,8.6H2175.3z M2175.5,258.8c0-0.1,0.1-0.3,0.2-0.4c0.1-0.2,0.2-0.3,0.4-0.4s0.4-0.2,0.7-0.2
		c0.3,0,0.7,0.1,1,0.3c0.4,0.2,0.8,0.4,1.2,0.6c0.4,0.2,0.9,0.3,1.4,0.3s0.9-0.1,1.3-0.3c0.4-0.2,0.7-0.4,0.9-0.7
		c0.2-0.3,0.4-0.6,0.6-0.9s0.3-0.6,0.3-0.8c0.1-0.2,0.1-0.4,0.1-0.5h-1.8c0,0,0,0.1,0,0.2s-0.1,0.2-0.1,0.3
		c-0.1,0.1-0.1,0.3-0.3,0.4c-0.1,0.1-0.3,0.2-0.4,0.3c-0.2,0.1-0.4,0.1-0.7,0.1c-0.4,0-0.7-0.1-1.1-0.3c-0.4-0.2-0.8-0.4-1.2-0.6
		c-0.4-0.2-0.9-0.3-1.3-0.3c-0.4,0-0.8,0.1-1.2,0.3c-0.4,0.2-0.6,0.4-0.9,0.7c-0.2,0.3-0.4,0.6-0.5,0.9c-0.2,0.3-0.3,0.6-0.3,0.8
		c-0.1,0.2-0.1,0.4-0.1,0.6h1.7C2175.4,259,2175.4,258.9,2175.5,258.8z M2212,267.7c-0.5-1.2-1.1-2.3-1.9-3.2
		c-0.8-0.9-1.8-1.7-3-2.3c-1.2-0.6-2.5-0.9-3.8-0.9s-2.6,0.3-3.8,0.8c-1.2,0.6-2.2,1.3-3,2.2c-0.8,0.9-1.5,2-2,3.2s-0.7,2.5-0.7,3.8
		c0,1,0.1,2,0.4,3s0.7,1.9,1.3,2.7c0.6,0.8,1.2,1.6,2,2.2s1.6,1.1,2.6,1.5s2,0.6,3.2,0.6c1.3,0,2.6-0.3,3.8-0.8s2.2-1.3,3-2.2
		c0.8-0.9,1.5-2,2-3.2s0.7-2.5,0.7-3.8C2212.7,270.1,2212.5,268.9,2212,267.7z M2209.1,273.9c-0.3,0.9-0.7,1.6-1.2,2.3
		s-1.2,1.2-2,1.6s-1.7,0.6-2.6,0.6c-1.2,0-2.4-0.3-3.3-1c-1-0.7-1.7-1.6-2.2-2.7s-0.8-2.3-0.8-3.5c0-0.9,0.1-1.8,0.4-2.6
		c0.3-0.9,0.7-1.6,1.2-2.3c0.5-0.7,1.2-1.2,2-1.6s1.7-0.6,2.7-0.6c0.9,0,1.8,0.2,2.6,0.6c0.8,0.4,1.5,0.9,2,1.6s0.9,1.4,1.2,2.3
		c0.3,0.9,0.5,1.8,0.5,2.7C2209.5,272.2,2209.4,273.1,2209.1,273.9z"/>
</g>
<g>
	<path d="M1775.2,62.3h6.8c-0.6,1.6-2.3,3-5,3c-3.8,0-6.4-2.7-6.4-6.5s2.6-6.7,6.3-6.7c2.4,0,4.4,1.1,5.5,3.1l5.8-3.4
		c-2.3-3.9-6.6-6.2-11.2-6.2c-7.3,0-13.2,5.8-13.2,13.2s5.8,13.1,13.2,13.1c6.9,0,12.2-5.1,12.2-12.9v-2h-14L1775.2,62.3
		 M1811.7,45.5c-7.4,0-13.2,5.8-13.2,13.2c0,7.3,5.8,13.2,13.2,13.2c7.3,0,13.1-5.8,13.1-13.2S1819,45.5,1811.7,45.5z M1811.7,64.9
		c-3.4,0-6-2.7-6-6.2s2.6-6.2,6-6.2c3.3,0,5.8,2.7,5.8,6.2S1815,64.9,1811.7,64.9z M1844.3,61.6l-5.8-15.5h-7.3l9.7,25.1h6.8
		l9.8-25.1h-7.3L1844.3,61.6z M1866.3,71.2h18v-6.1h-11.2v-3.7h7.4V56h-7.4v-3.7h11.2v-6.1h-18V71.2z M1915.7,54.3
		c0-4.7-3.8-8.2-8.7-8.2h-12.2v25.1h6.7v-8.7h2.8l5,8.7h7.5l-5.6-9.7C1913.9,60.1,1915.7,57.5,1915.7,54.3z M1906.2,56.8h-4.7v-4.7
		h4.7c1.6,0,2.6,1.1,2.6,2.4C1908.8,55.7,1907.8,56.8,1906.2,56.8z M1942,59.4l-10.2-13.3h-5.7v25.1h6.7V58l10.1,13.2h5.7V46.1h-6.7
		L1942,59.4C1941.9,59.4,1942,59.4,1942,59.4z M1971.7,45.5c-7.4,0-13.2,5.8-13.2,13.2c0,7.3,5.8,13.2,13.2,13.2
		c7.3,0,13.1-5.8,13.1-13.2S1978.9,45.5,1971.7,45.5z M1971.7,64.9c-3.4,0-6-2.7-6-6.2s2.6-6.2,6-6.2c3.3,0,5.8,2.7,5.8,6.2
		S1974.9,64.9,1971.7,64.9z M2011.2,71.2h6.8V62h7.4v-5.7h-7.4V52h11.2v-6h-18V71.2z M2039.3,71.2h18v-6.1h-11.2v-3.7h7.4V56h-7.4
		v-3.7h11.2v-6.1h-18V71.2L2039.3,71.2z M2078,46.1h-10.2v25.1h10.2c7.7,0,13.4-5.4,13.4-12.6C2091.5,51.4,2085.7,46.1,2078,46.1z
		 M2077.7,64.7h-3.1V52.6h3.1c4,0,6.7,2.4,6.7,6C2084.4,62.3,2081.7,64.7,2077.7,64.7z M2101.2,71.2h18v-6.1H2108v-3.7h7.4V56h-7.4
		v-3.7h11.2v-6.1h-18V71.2z M2150.5,54.3c0-4.7-3.8-8.2-8.7-8.2h-12.2v25.1h6.7v-8.7h2.8l5,8.7h7.5l-5.6-9.7
		C2148.8,60.1,2150.5,57.5,2150.5,54.3z M2141.1,56.8h-4.7v-4.7h4.7c1.6,0,2.6,1.1,2.6,2.4C2143.7,55.7,2142.7,56.8,2141.1,56.8z
		 M2169.6,46.1l-10.5,25.1h7.1l1.7-4.3h9.9l1.8,4.3h7L2176,46.1H2169.6z M2170.4,60.9l2.5-6.2l2.5,6.2H2170.4z M2202.6,64.8V46.1
		h-7.1v25.1h17.7v-6.5h-10.6V64.8z"/>
</g>
<g>
	<rect x="2167.4" y="98.5" class="st0" width="45.8" height="87.9"/>
</g>
<g>
	<rect x="2213.2" y="186.4" class="st1" width="45.8" height="44.5"/>
</g>
<g>
	<rect x="2167.4" y="186.4" class="st2" width="45.8" height="44.5"/>
</g>
<g>
	<rect x="2113.9" y="98.5" class="st3" width="45.8" height="132.4"/>
</g>
<g>
	<rect x="2013.4" y="157.3" class="st4" width="43.3" height="73.6"/>
</g>
<g>
	<rect x="2056.7" y="98.5" class="st1" width="49.5" height="48.1"/>
</g>
<g>
	<path class="st0" d="M2071.8,146.6h-15.1v84.2h15.1c23.3,0,42.1-18.9,42.1-42.1S2095.1,146.6,2071.8,146.6"/>
</g>
<g>
	<path class="st3" d="M2042.8,98.5c-16.2,0-29.4,13.2-29.4,29.4s13.2,29.4,29.4,29.4h13.9V98.5H2042.8"/>
</g>
<g>
	<path class="st1" d="M1763.2,151.6h10.6c14.7,0,26.6-11.9,26.6-26.6s-11.9-26.6-26.6-26.6h-10.6V151.6"/>
</g>
<g>
	<rect x="1717.4" y="98.5" class="st3" width="45.8" height="53.1"/>
</g>
<g>
	<rect x="1717.4" y="151.6" class="st0" width="45.8" height="79.3"/>
</g>
<g>
	<path class="st4" d="M1778.2,151.6h-15.1v79.3h15.1c21.9,0,39.6-17.7,39.6-39.6C1817.9,169.3,1800.1,151.6,1778.2,151.6"/>
</g>
<g>
	<polyline class="st3" points="1869.8,178.4 1817.9,178.4 1817.9,230.9 1903.9,230.9 1869.8,178.4 	"/>
</g>
<g>
	<polyline class="st0" points="1869.8,178.4 1817.9,98.5 1817.9,178.4 1869.8,178.4 	"/>
</g>
<g>
	<path class="st1" d="M1869.8,98.5h-52l52,80c22.1,0,40-17.9,40-40S1891.9,98.5,1869.8,98.5"/>
</g>
<g>
	<polyline class="st0" points="1957.6,98.5 1878.8,230.9 2036.3,230.9 1957.6,98.5 	"/>
</g>
<g>
	<polyline class="st2" points="2013.4,192.3 2013.4,230.9 2036.3,230.9 2013.4,192.3 	"/>
</g>
<g>
	<polyline class="st2" points="1878.8,230.9 1903.9,230.9 1890.8,210.7 1878.8,230.9 	"/>
</g>
<g>
	<path class="st1" d="M2005.9,230.9c0-26.7-21.6-48.3-48.3-48.3c-26.7,0-48.3,21.6-48.3,48.3H2005.9"/>
</g>
<g>
	<path d="M1310.9,125.1v-18.9l-7.8,14.3h-2.5l-7.8-14.3v18.9h-4.2V98.6h4.5l8.8,16.2l8.8-16.2h4.5v26.5
		C1315.2,125.1,1310.9,125.1,1310.9,125.1z"/>
	<path d="M1328.6,125.1V98.6h4.2v26.5H1328.6z"/>
	<path d="M1350.4,106.4v18.7h-4.2V98.6h3.4l15,19.2V98.7h4.2v26.5h-3.7L1350.4,106.4z"/>
	<path d="M1382.3,125.1V98.6h4.2v26.5H1382.3z"/>
	<path d="M1415.6,104.9c-0.6-0.6-1.5-1.2-2.9-1.8c-1.4-0.6-2.8-0.9-4.2-0.9c-1.7,0-3,0.3-3.9,1c-0.9,0.6-1.3,1.5-1.3,2.7
		c0,0.4,0,0.7,0.1,1s0.2,0.6,0.4,0.8c0.2,0.2,0.4,0.4,0.7,0.6c0.3,0.2,0.6,0.4,0.9,0.5c0.3,0.1,0.7,0.3,1.2,0.5s1,0.3,1.4,0.4
		c0.4,0.1,1,0.3,1.8,0.4c1.2,0.3,2.2,0.6,3,0.8c0.8,0.3,1.6,0.6,2.4,1c0.8,0.4,1.4,0.9,1.8,1.4c0.5,0.5,0.8,1.1,1.1,1.9
		c0.3,0.8,0.4,1.6,0.4,2.5c0,1.1-0.2,2-0.5,2.9c-0.3,0.9-0.8,1.6-1.4,2.2c-0.6,0.6-1.3,1.1-2.1,1.5s-1.7,0.7-2.7,0.9
		c-0.9,0.2-2,0.3-3.1,0.3c-2,0-4-0.3-5.9-0.9c-1.9-0.6-3.6-1.5-5.1-2.7l1.9-3.6c0.8,0.8,2,1.6,3.7,2.3c1.7,0.7,3.5,1.1,5.3,1.1
		c1.7,0,2.9-0.3,3.8-0.9c0.9-0.6,1.3-1.4,1.3-2.5c0-0.4-0.1-0.8-0.2-1.2c-0.1-0.4-0.4-0.7-0.7-1s-0.7-0.5-1-0.7
		c-0.3-0.2-0.8-0.4-1.5-0.6c-0.6-0.2-1.2-0.4-1.8-0.5c-0.5-0.1-1.2-0.3-2.1-0.6c-1.4-0.4-2.6-0.7-3.5-1.1c-0.9-0.4-1.7-0.8-2.4-1.4
		c-0.7-0.6-1.2-1.2-1.5-1.9c-0.3-0.7-0.5-1.6-0.5-2.7c0-1.3,0.2-2.4,0.7-3.5s1.2-1.9,2-2.5c0.8-0.6,1.9-1.2,3-1.5
		c1.2-0.4,2.4-0.5,3.8-0.5c3.3,0,6.2,1,8.9,3L1415.6,104.9z"/>
	<path d="M1449.6,102.3h-8.8v22.8h-4.2v-22.8h-8.8v-3.7h21.9v3.7H1449.6z"/>
	<path d="M1478.8,121.4v3.7h-18.2V98.6h17.8v3.7h-13.7v7.5h11.8v3.5h-11.8v8.1C1464.7,121.4,1478.8,121.4,1478.8,121.4z
		 M1471.3,95.9l-2.7-0.8l2.1-4.1h3.9L1471.3,95.9z"/>
	<path d="M1490.6,125.1V98.6h11.5c1.2,0,2.3,0.2,3.3,0.7s1.9,1.2,2.6,2c0.7,0.8,1.3,1.7,1.7,2.8s0.6,2.1,0.6,3.1
		c0,1.8-0.5,3.4-1.4,4.9s-2.2,2.4-3.8,2.9l6.2,10.1h-4.7l-5.8-9.2h-6.2v9.2H1490.6z M1494.7,112.2h7.3c1.2,0,2.1-0.5,2.9-1.4
		c0.8-1,1.1-2.1,1.1-3.5c0-1.3-0.4-2.5-1.3-3.5c-0.9-1-1.8-1.4-3-1.4h-7.1L1494.7,112.2L1494.7,112.2z"/>
	<path d="M1522.7,125.1V98.6h4.2v26.5H1522.7z"/>
	<path d="M1538.6,111.9c0-1.8,0.3-3.4,1-5.1c0.6-1.6,1.5-3.1,2.7-4.3c1.1-1.2,2.5-2.2,4.1-3s3.3-1.1,5.1-1.1c1.8,0,3.6,0.4,5.2,1.2
		c1.6,0.8,2.9,1.8,4,3.1c1.1,1.3,1.9,2.7,2.5,4.3c0.6,1.6,0.9,3.2,0.9,4.9c0,1.7-0.3,3.4-1,5.1c-0.7,1.6-1.5,3.1-2.6,4.3
		c-1.1,1.2-2.5,2.2-4,2.9s-3.3,1.1-5.1,1.1c-1.5,0-2.9-0.2-4.2-0.7c-1.3-0.5-2.5-1.2-3.5-2c-1-0.9-1.9-1.9-2.6-3
		c-0.7-1.1-1.3-2.4-1.7-3.7C1538.8,114.6,1538.6,113.2,1538.6,111.9z M1551.3,121.6c1.3,0,2.5-0.3,3.6-0.8c1.1-0.6,2-1.3,2.7-2.2
		c0.7-0.9,1.2-1.9,1.6-3.1c0.4-1.1,0.6-2.3,0.6-3.5c0-1.3-0.2-2.5-0.6-3.6c-0.4-1.2-1-2.2-1.7-3.1c-0.7-0.9-1.6-1.6-2.7-2.1
		s-2.2-0.8-3.5-0.8c-1.3,0-2.5,0.3-3.6,0.8c-1.1,0.5-2,1.3-2.7,2.2c-0.7,0.9-1.3,1.9-1.6,3.1c-0.4,1.1-0.6,2.3-0.6,3.5
		c0,1.7,0.3,3.2,1,4.7c0.7,1.5,1.7,2.6,3,3.6C1548.2,121.1,1549.7,121.6,1551.3,121.6z"/>
	<path d="M1592.5,125.1V98.6h9.4c2.1,0,3.9,0.3,5.6,1s3,1.6,4.1,2.8c1.1,1.2,1.9,2.6,2.4,4.2c0.6,1.6,0.8,3.3,0.8,5.1
		c0,4-1.2,7.2-3.5,9.7c-2.4,2.4-5.5,3.6-9.4,3.6h-9.4V125.1L1592.5,125.1z M1601.9,102.3h-5.2v19.1h5.2c1.8,0,3.4-0.4,4.7-1.3
		c1.3-0.8,2.3-2,3-3.4c0.7-1.4,1-3.1,1-4.9c0-2.8-0.8-5.1-2.3-6.9C1606.7,103.2,1604.6,102.3,1601.9,102.3z"/>
	<path d="M1633.4,98.6h4l10.3,26.5h-4.4l-2.8-7.2h-10.2l-2.8,7.2h-4.5L1633.4,98.6z M1639.6,114.8l-4.3-11.6l-4.4,11.6H1639.6z"/>
	<path d="M1140.9,151.2c2.4,0,4.5,0.5,6.3,1.6c1.8,1,3.2,2.4,4,4.2l-4,2.7c-0.4-0.9-1-1.7-1.8-2.3s-1.5-1-2.3-1.3
		c-0.8-0.3-1.6-0.3-2.4-0.3c-1.2,0-2.4,0.3-3.4,0.8s-1.8,1.2-2.4,2.1c-0.6,0.9-1.1,1.8-1.4,2.8c-0.3,1-0.5,2.1-0.5,3.2
		c0,1.6,0.3,3,1,4.4c0.6,1.4,1.6,2.5,2.8,3.3c1.2,0.8,2.5,1.3,4,1.3c0.9,0,1.7-0.1,2.5-0.4c0.8-0.3,1.6-0.7,2.3-1.3
		c0.7-0.6,1.3-1.4,1.7-2.3l4.2,2.4c-0.5,1.3-1.4,2.4-2.6,3.3s-2.5,1.7-4,2.1c-1.4,0.5-2.9,0.7-4.4,0.7s-2.9-0.3-4.2-0.8
		c-1.3-0.5-2.5-1.2-3.6-2.1c-1-0.9-1.9-1.9-2.7-3.1c-0.8-1.1-1.4-2.4-1.8-3.7c-0.4-1.3-0.6-2.7-0.6-4c0-1.6,0.3-3.2,0.9-4.8
		s1.4-3,2.5-4.2c1.1-1.3,2.5-2.3,4.1-3C1136.7,151.8,1138.9,151.2,1140.9,151.2z"/>
	<path d="M1162.5,177.8v-26.5h5.1v26.5H1162.5z"/>
	<path d="M1199,173.3v4.5h-18.4v-26.5h18.1v4.5h-12.9v6.4h11.2v4.2h-11.2v6.9L1199,173.3L1199,173.3z M1184.2,147.4l4-3.8h3.6l4,3.8
		l-2.6,1.2l-3.2-2.4l-3.2,2.4L1184.2,147.4z"/>
	<path d="M1215.7,160.8v17h-5.1v-26.5h4.1l13.7,17.5v-17.4h5.2v26.5h-4.3L1215.7,160.8z"/>
	<path d="M1257.9,151.2c2.4,0,4.5,0.5,6.3,1.6c1.8,1,3.2,2.4,4,4.2l-4,2.7c-0.4-0.9-1-1.7-1.8-2.3s-1.5-1-2.3-1.3
		c-0.8-0.3-1.6-0.3-2.4-0.3c-1.2,0-2.4,0.3-3.4,0.8s-1.8,1.2-2.4,2.1c-0.6,0.9-1.1,1.8-1.4,2.8c-0.3,1-0.5,2.1-0.5,3.2
		c0,1.6,0.3,3,1,4.4c0.6,1.4,1.6,2.5,2.8,3.3s2.5,1.3,4,1.3c0.9,0,1.7-0.1,2.5-0.4c0.8-0.3,1.6-0.7,2.3-1.3c0.7-0.6,1.3-1.4,1.7-2.3
		l4.2,2.4c-0.5,1.3-1.4,2.4-2.6,3.3c-1.2,0.9-2.5,1.7-4,2.1c-1.4,0.5-2.9,0.7-4.4,0.7s-2.9-0.3-4.2-0.8s-2.5-1.2-3.6-2.1
		c-1-0.9-1.9-1.9-2.7-3.1c-0.8-1.1-1.4-2.4-1.8-3.7s-0.6-2.7-0.6-4c0-1.6,0.3-3.2,0.9-4.8c0.6-1.6,1.4-3,2.5-4.2
		c1.1-1.3,2.5-2.3,4.1-3C1253.7,151.8,1255.9,151.2,1257.9,151.2z"/>
	<path d="M1279.5,177.8v-26.5h5.1v26.5H1279.5z"/>
	<path d="M1304.8,151.3h5.2l9.7,26.5h-5.3l-2.5-6.6h-9.3l-2.4,6.6h-5.3L1304.8,151.3z M1311.1,167.6l-3.7-10.9l-3.8,10.9H1311.1z"/>
	<path d="M1330.2,182.1l1-4.4h-1.6v-5.2h4.3v5.2l-1.5,4.4H1330.2z"/>
	<path d="M1363.8,155.8h-8.5v22h-5.1v-22h-8.5v-4.5h22.1V155.8z"/>
	<path d="M1393,173.3v4.5h-18.4v-26.5h18.1v4.5h-12.9v6.4h11.2v4.2h-11.2v6.9L1393,173.3L1393,173.3z"/>
	<path d="M1415.4,151.2c2.4,0,4.5,0.5,6.3,1.6c1.8,1,3.2,2.4,4,4.2l-4,2.7c-0.4-0.9-1-1.7-1.8-2.3c-0.8-0.6-1.5-1-2.3-1.3
		c-0.8-0.3-1.6-0.3-2.4-0.3c-1.2,0-2.4,0.3-3.4,0.8s-1.8,1.2-2.4,2.1c-0.6,0.9-1.1,1.8-1.4,2.8c-0.3,1-0.5,2.1-0.5,3.2
		c0,1.6,0.3,3,1,4.4c0.6,1.4,1.6,2.5,2.8,3.3c1.2,0.8,2.5,1.3,4,1.3c0.9,0,1.7-0.1,2.5-0.4c0.8-0.3,1.6-0.7,2.3-1.3
		c0.7-0.6,1.3-1.4,1.7-2.3l4.2,2.4c-0.5,1.3-1.4,2.4-2.6,3.3c-1.2,0.9-2.5,1.7-4,2.1c-1.4,0.5-2.9,0.7-4.4,0.7s-2.9-0.3-4.2-0.8
		c-1.3-0.5-2.5-1.2-3.6-2.1c-1-0.9-1.9-1.9-2.7-3.1c-0.8-1.1-1.4-2.4-1.8-3.7s-0.6-2.7-0.6-4c0-1.6,0.3-3.2,0.9-4.8
		c0.6-1.6,1.4-3,2.5-4.2c1.1-1.3,2.5-2.3,4.1-3C1411.2,151.8,1413.4,151.2,1415.4,151.2z"/>
	<path d="M1442.1,160.8v17h-5.1v-26.5h4.1l13.7,17.5v-17.4h5.2v26.5h-4.3L1442.1,160.8z"/>
	<path d="M1471.3,164.6c0-1.8,0.3-3.4,1-5.1c0.7-1.6,1.6-3.1,2.7-4.3c1.1-1.2,2.5-2.2,4.1-3c1.6-0.8,3.4-1.1,5.2-1.1
		c1.5,0,2.9,0.3,4.3,0.8c1.4,0.5,2.6,1.2,3.6,2.1c1,0.9,1.9,1.9,2.7,3c0.8,1.1,1.3,2.4,1.7,3.7s0.6,2.6,0.6,4c0,1.7-0.3,3.4-1,5
		c-0.7,1.6-1.5,3-2.7,4.3c-1.2,1.3-2.5,2.2-4.1,2.9c-1.6,0.7-3.4,1.1-5.2,1.1c-1.5,0-2.9-0.2-4.3-0.7c-1.4-0.5-2.6-1.2-3.6-2
		c-1-0.9-1.9-1.9-2.7-3c-0.8-1.1-1.3-2.4-1.7-3.7C1471.5,167.2,1471.3,165.9,1471.3,164.6z M1484.3,173.4c1.2,0,2.3-0.3,3.3-0.8
		s1.8-1.2,2.4-2s1.1-1.8,1.5-2.8s0.5-2.1,0.5-3.2c0-1.6-0.3-3-0.9-4.3c-0.6-1.3-1.5-2.4-2.7-3.3c-1.2-0.8-2.6-1.3-4.1-1.3
		c-1.2,0-2.3,0.3-3.3,0.8s-1.8,1.2-2.4,2c-0.6,0.8-1.1,1.8-1.5,2.8c-0.4,1-0.5,2.1-0.5,3.2c0,1.6,0.3,3,0.9,4.3s1.5,2.4,2.7,3.3
		C1481.4,173,1482.7,173.4,1484.3,173.4z"/>
	<path d="M1508.6,177.8v-26.5h5.1v22h13.5v4.5H1508.6z"/>
	<path d="M1535.7,164.6c0-1.8,0.3-3.4,1-5.1c0.7-1.6,1.6-3.1,2.7-4.3s2.5-2.2,4.1-3c1.6-0.8,3.4-1.1,5.2-1.1c1.5,0,2.9,0.3,4.3,0.8
		c1.4,0.5,2.6,1.2,3.6,2.1c1,0.9,1.9,1.9,2.7,3s1.3,2.4,1.7,3.7s0.6,2.6,0.6,4c0,1.7-0.3,3.4-1,5c-0.7,1.6-1.5,3-2.7,4.3
		c-1.2,1.3-2.5,2.2-4.1,2.9s-3.4,1.1-5.2,1.1c-1.5,0-2.9-0.2-4.3-0.7s-2.6-1.2-3.6-2c-1-0.9-1.9-1.9-2.7-3c-0.8-1.1-1.3-2.4-1.7-3.7
		C1535.9,167.2,1535.7,165.9,1535.7,164.6z M1548.6,173.4c1.2,0,2.3-0.3,3.3-0.8s1.8-1.2,2.4-2c0.6-0.8,1.1-1.8,1.5-2.8
		c0.4-1,0.5-2.1,0.5-3.2c0-1.6-0.3-3-0.9-4.3s-1.5-2.4-2.7-3.3c-1.2-0.8-2.6-1.3-4.1-1.3c-1.2,0-2.3,0.3-3.3,0.8s-1.8,1.2-2.4,2
		s-1.1,1.8-1.5,2.8s-0.5,2.1-0.5,3.2c0,1.6,0.3,3,0.9,4.3c0.6,1.3,1.5,2.4,2.7,3.3C1545.7,173,1547.1,173.4,1548.6,173.4z"/>
	<path d="M1586,164.2h9.6v13.6h-4.3v-3c-2.1,2.1-4.6,3.2-7.4,3.2c-2.3,0-4.4-0.6-6.3-1.8s-3.4-2.8-4.6-4.9c-1.1-2.1-1.7-4.4-1.7-6.9
		c0-1.8,0.3-3.5,1-5.1c0.7-1.6,1.6-3,2.7-4.2s2.5-2.2,4.1-2.9s3.3-1.1,5.1-1.1c2.4,0,4.5,0.5,6.4,1.5c1.8,1,3.2,2.4,4.1,4.2
		l-3.8,2.8c-0.7-1.3-1.6-2.3-2.8-3c-1.2-0.7-2.5-1.1-4-1.1s-2.8,0.4-3.9,1.2c-1.2,0.8-2.1,1.9-2.7,3.2s-0.9,2.8-0.9,4.4
		c0,2.5,0.7,4.6,2.2,6.3s3.4,2.6,5.6,2.6c2.6,0,4.9-1.2,6.9-3.6v-1.8h-5.3V164.2L1586,164.2z"/>
	<path d="M1607.5,177.8v-26.5h5.1v26.5H1607.5z"/>
	<path d="M1632.8,151.3h5.2l9.7,26.5h-5.3l-2.5-6.6h-9.3l-2.4,6.6h-5.2L1632.8,151.3z M1639.1,167.6l-3.7-10.9l-3.8,10.9H1639.1z"/>
	<path d="M1378.4,225.9v4.5H1360V204h18v4.5h-12.9v6.4h11.2v4.2h-11.2v6.9L1378.4,225.9L1378.4,225.9z"/>
	<path d="M1406.3,230.5V204h5.1v26.5H1406.3z"/>
	<path d="M1429.6,213.4v17h-5.1V204h4.1l13.7,17.5V204h5.2v26.5h-4.3L1429.6,213.4z"/>
	<path d="M1458.7,217.2c0-1.8,0.3-3.4,1-5.1c0.7-1.6,1.6-3.1,2.7-4.3s2.5-2.2,4.1-3c1.6-0.8,3.4-1.1,5.2-1.1c1.5,0,2.9,0.3,4.3,0.8
		c1.4,0.5,2.6,1.2,3.6,2.1c1,0.9,1.9,1.9,2.7,3s1.3,2.4,1.7,3.7s0.6,2.6,0.6,4c0,1.7-0.3,3.4-1,5c-0.7,1.6-1.5,3-2.7,4.3
		c-1.2,1.3-2.5,2.2-4.1,2.9s-3.4,1.1-5.2,1.1c-1.5,0-2.9-0.2-4.3-0.7s-2.6-1.2-3.6-2c-1-0.9-1.9-1.9-2.7-3c-0.8-1.1-1.3-2.4-1.7-3.7
		S1458.7,218.6,1458.7,217.2z M1471.7,226.1c1.2,0,2.3-0.3,3.3-0.8s1.8-1.2,2.4-2s1.1-1.8,1.5-2.8s0.5-2.1,0.5-3.2
		c0-1.6-0.3-3-0.9-4.3s-1.5-2.4-2.7-3.3c-1.2-0.8-2.6-1.3-4.1-1.3c-1.2,0-2.3,0.3-3.3,0.8s-1.8,1.2-2.4,2s-1.1,1.8-1.5,2.8
		c-0.3,1-0.5,2.1-0.5,3.2c0,1.6,0.3,3,0.9,4.3s1.5,2.4,2.7,3.3C1468.8,225.7,1470.1,226.1,1471.7,226.1z"/>
	<path d="M1497.7,204l7.2,20.4l7.1-20.4h5.4l-10,26.5h-5l-10.1-26.5H1497.7z"/>
	<path d="M1532.8,204h5.2l9.7,26.5h-5.3l-2.5-6.6h-9.3l-2.4,6.6h-5.2L1532.8,204z M1539,220.2l-3.7-10.9l-3.8,10.9H1539z"/>
	<path d="M1579.2,224.5c-0.7,1.6-1.9,3-3.5,4c-1.7,1.1-3.5,1.7-5.5,2c1.3,1.1,1.9,2.4,1.9,3.7c0,1.1-0.4,2-1.1,2.7
		c-0.7,0.7-1.8,1-3.1,1c-1.4,0-2.9-0.4-4.5-1.1l1.3-2.6c0.8,0.5,1.6,0.8,2.4,0.8c0.6,0,1.1-0.1,1.5-0.4c0.4-0.3,0.5-0.7,0.5-1.2
		c0-0.9-0.6-1.8-1.8-2.7c-1.7-0.2-3.3-0.7-4.8-1.5s-2.7-1.9-3.7-3.2s-1.8-2.7-2.4-4.2c-0.6-1.6-0.9-3.1-0.9-4.7
		c0-1.6,0.3-3.2,0.9-4.8c0.6-1.6,1.4-3,2.5-4.2c1.1-1.3,2.5-2.3,4.1-3s3.5-1.2,5.5-1.2c2.4,0,4.5,0.5,6.3,1.6c1.8,1.1,3.2,2.4,4,4.2
		l-4,2.7c-0.4-0.9-1-1.7-1.8-2.3c-0.8-0.6-1.5-1-2.3-1.3c-0.8-0.2-1.6-0.3-2.4-0.3c-1.2,0-2.4,0.3-3.4,0.8s-1.8,1.2-2.4,2.1
		c-0.6,0.9-1.1,1.8-1.4,2.8c-0.3,1-0.5,2.1-0.5,3.2c0,1.6,0.3,3,1,4.4c0.6,1.4,1.6,2.5,2.8,3.3s2.5,1.3,4,1.3c0.9,0,1.7-0.1,2.5-0.4
		c0.8-0.3,1.6-0.7,2.3-1.3c0.7-0.6,1.3-1.4,1.7-2.3L1579.2,224.5z"/>
	<path d="M1597,204h5.2l9.7,26.5h-5.3l-2.5-6.6h-9.3l-2.4,6.6h-5.3L1597,204z M1597.1,199.4c-0.3,0-0.6,0.1-0.8,0.2
		c-0.2,0.1-0.4,0.3-0.5,0.4c-0.1,0.2-0.2,0.3-0.3,0.5s-0.1,0.3-0.1,0.4c0,0.1,0,0.2,0,0.2h-2.8c0-0.2,0-0.5,0.1-0.9s0.2-0.8,0.5-1.2
		c0.3-0.4,0.5-0.9,0.8-1.3c0.3-0.4,0.7-0.7,1.3-1s1.1-0.4,1.7-0.4c0.5,0,1,0.1,1.5,0.3s0.9,0.4,1.2,0.6c0.3,0.2,0.7,0.4,1.1,0.6
		c0.4,0.2,0.8,0.3,1.2,0.3c0.3,0,0.6-0.1,0.9-0.2c0.3-0.1,0.4-0.3,0.6-0.4c0.1-0.2,0.2-0.3,0.3-0.5s0.1-0.3,0.2-0.5
		c0.1-0.2,0-0.2,0-0.3h2.8c0,0.2,0,0.4-0.1,0.8c-0.1,0.3-0.3,0.7-0.5,1.2c-0.2,0.5-0.5,0.9-0.8,1.3c-0.3,0.4-0.8,0.8-1.3,1
		c-0.5,0.3-1.1,0.4-1.8,0.4c-0.6,0-1.2-0.1-1.8-0.4c-0.6-0.3-1.1-0.6-1.6-0.8C1598.1,199.5,1597.6,199.4,1597.1,199.4z
		 M1603.3,220.2l-3.7-10.9l-3.8,10.9H1603.3z"/>
	<path d="M1619.7,217.2c0-1.8,0.3-3.4,1-5.1c0.7-1.6,1.6-3.1,2.7-4.3s2.5-2.2,4.1-3s3.4-1.1,5.2-1.1c1.5,0,2.9,0.3,4.3,0.8
		c1.4,0.5,2.6,1.2,3.6,2.1c1,0.9,1.9,1.9,2.7,3c0.8,1.1,1.3,2.4,1.7,3.7s0.6,2.6,0.6,4c0,1.7-0.3,3.4-1,5c-0.7,1.6-1.5,3-2.7,4.3
		c-1.2,1.3-2.5,2.2-4.1,2.9s-3.4,1.1-5.2,1.1c-1.5,0-2.9-0.2-4.3-0.7c-1.4-0.5-2.6-1.2-3.6-2c-1-0.9-1.9-1.9-2.7-3
		c-0.8-1.1-1.3-2.4-1.7-3.7S1619.7,218.6,1619.7,217.2z M1632.7,226.1c1.2,0,2.3-0.3,3.3-0.8s1.8-1.2,2.4-2c0.6-0.8,1.1-1.8,1.5-2.8
		s0.5-2.1,0.5-3.2c0-1.6-0.3-3-0.9-4.3c-0.6-1.3-1.5-2.4-2.7-3.3c-1.2-0.8-2.6-1.3-4.1-1.3c-1.2,0-2.3,0.3-3.3,0.8s-1.8,1.2-2.4,2
		c-0.6,0.8-1.1,1.8-1.5,2.8c-0.3,1-0.5,2.1-0.5,3.2c0,1.6,0.3,3,0.9,4.3s1.5,2.4,2.7,3.3C1629.8,225.7,1631.1,226.1,1632.7,226.1z"
		/>
</g>
<text transform="matrix(1 0 0 1 646.9009 124.8247)"><tspan x="0" y="0" class="st5 st6 st7">MINISTÉRIO DAS</tspan><tspan x="150.4" y="52.9" class="st8 st6 st7">RELAÇOES</tspan><tspan x="102.1" y="105.7" class="st8 st6 st7">EXTERIORES</tspan></text>
<text transform="matrix(1 0 0 1 170.772 150.5019)"><tspan x="0" y="0" class="st5 st6 st7">MINISTÉRIO DAS</tspan><tspan x="150.4" y="52.9" class="st8 st6 st7">RELAÇOES</tspan></text>
</svg>
