<?xml version="1.0" encoding="utf-8"?>
<!-- Generator: Adobe Illustrator 27.1.1, SVG Export Plug-In . SVG Version: 6.00 Build 0)  -->
<svg version="1.1"
	 id="svg150" xmlns:inkscape="http://www.inkscape.org/namespaces/inkscape" xmlns:sodipodi="http://sodipodi.sourceforge.net/DTD/sodipodi-0.dtd" xmlns:dc="http://purl.org/dc/elements/1.1/" xmlns:cc="http://creativecommons.org/ns#" xmlns:svg="http://www.w3.org/2000/svg" xmlns:rdf="http://www.w3.org/1999/02/22-rdf-syntax-ns#"
	 xmlns="http://www.w3.org/2000/svg" xmlns:xlink="http://www.w3.org/1999/xlink" x="0px" y="0px" viewBox="0 0 678.3 533.7"
	 style="enable-background:new 0 0 678.3 533.7;" xml:space="preserve">
<style type="text/css">
	.st0{fill:#FFDA00;}
	.st1{fill:#183EFF;}
	.st2{fill:#4E4E4E;}
	.st3{fill:#00D000;}
	.st4{fill:#FF0000;}
</style>
<g>
	<g>
		<path d="M129.1,476.6c0,0.7-0.1,1.4-0.2,2.1c-0.1,0.7-0.3,1.3-0.5,1.9c-0.3,0.6-0.6,1.1-1,1.6c-0.4,0.4-0.9,0.8-1.5,1.1
			c-0.6,0.3-1.3,0.4-2.2,0.4c-0.8,0-1.5-0.1-2.1-0.4s-1.1-0.6-1.5-1s-0.7-1-1-1.6s-0.5-1.3-0.6-1.9c-0.1-0.7-0.2-1.4-0.2-2.1v-10
			h-3.1v10c0,1.1,0.1,2.1,0.3,3c0.2,0.9,0.5,1.8,0.9,2.7c0.4,0.9,1,1.6,1.6,2.2s1.4,1.1,2.4,1.5s2.1,0.5,3.3,0.5
			c1.5,0,2.8-0.3,3.9-0.8s2-1.2,2.7-2.2c0.7-0.9,1.2-2,1.5-3.1c0.3-1.2,0.5-2.4,0.5-3.8v-10h-3.1v9.9 M155.7,480.8l-11.2-14.3h-2.6
			v19.7h3.1v-14l11,14h2.7v-19.7h-3.1v14.3H155.7L155.7,480.8z M168.8,486.3h3.1v-19.7h-3.1V486.3z M187.6,466.5l-7.7,19.7h3.3
			l2.1-5.4h7.6l2.1,5.4h3.3l-7.7-19.7H187.6z M185.8,478.6l3.3-8.6l3.2,8.6H185.8z M185.9,463.9c0-0.1,0.1-0.3,0.2-0.4
			c0.1-0.2,0.2-0.3,0.4-0.4s0.4-0.2,0.7-0.2s0.7,0.1,1,0.3c0.4,0.2,0.8,0.4,1.2,0.6s0.9,0.3,1.4,0.3s0.9-0.1,1.3-0.3
			c0.4-0.2,0.7-0.4,0.9-0.7c0.2-0.3,0.4-0.6,0.6-0.9c0.2-0.3,0.3-0.6,0.3-0.8c0.1-0.2,0.1-0.4,0.1-0.5h-1.8c0,0,0,0.1,0,0.2
			s-0.1,0.2-0.1,0.3c-0.1,0.1-0.1,0.3-0.3,0.4c-0.1,0.1-0.3,0.2-0.4,0.3c-0.2,0.1-0.4,0.1-0.7,0.1c-0.4,0-0.7-0.1-1.1-0.3
			c-0.4-0.2-0.8-0.4-1.2-0.6s-0.9-0.3-1.3-0.3c-0.4,0-0.8,0.1-1.2,0.3c-0.4,0.2-0.6,0.4-0.9,0.7s-0.4,0.6-0.5,0.9
			c-0.2,0.3-0.3,0.6-0.3,0.8c-0.1,0.2-0.1,0.4-0.1,0.6h1.7C185.9,464.1,185.9,464,185.9,463.9z M220.6,469.6c-0.8-0.9-1.8-1.7-3-2.3
			c-1.2-0.6-2.5-0.9-3.8-0.9s-2.6,0.3-3.8,0.8c-1.2,0.6-2.2,1.3-3,2.2s-1.5,2-2,3.2s-0.7,2.5-0.7,3.8c0,1,0.1,2,0.4,3
			c0.3,1,0.7,1.9,1.3,2.7c0.6,0.8,1.2,1.6,2,2.2s1.6,1.1,2.6,1.5s2,0.6,3.2,0.6c1.3,0,2.6-0.3,3.8-0.8s2.2-1.3,3-2.2
			c0.8-0.9,1.5-2,2-3.2s0.7-2.5,0.7-3.8c0-1.2-0.2-2.5-0.7-3.7C222,471.6,221.4,470.5,220.6,469.6z M219.6,479
			c-0.3,0.9-0.7,1.6-1.2,2.3c-0.5,0.7-1.2,1.2-2,1.6s-1.7,0.6-2.6,0.6c-1.2,0-2.4-0.3-3.3-1c-1-0.7-1.7-1.6-2.2-2.7
			s-0.8-2.3-0.8-3.5c0-0.9,0.1-1.8,0.4-2.6c0.3-0.9,0.7-1.6,1.2-2.3c0.5-0.7,1.2-1.2,2-1.6s1.7-0.6,2.7-0.6c0.9,0,1.8,0.2,2.6,0.6
			s1.5,0.9,2,1.6s0.9,1.4,1.2,2.3s0.5,1.8,0.5,2.7C220,477.3,219.8,478.2,219.6,479z M247.5,477.5h8.8v-2.6h-8.8v-5.6h10.2v-2.8
			h-13.3v19.7h13.5v-2.8h-10.4L247.5,477.5L247.5,477.5z M292.7,476.6c0.7-1.1,1.1-2.3,1.1-3.6c0-0.8-0.2-1.6-0.5-2.3
			c-0.3-0.8-0.7-1.5-1.2-2.1s-1.2-1.1-1.9-1.5c-0.8-0.4-1.6-0.6-2.5-0.6h-8.6v19.7h3.1v-6.9h4.6l4.3,6.9h3.5l-4.6-7.5
			C291.1,478.4,292,477.7,292.7,476.6z M287.6,476.7h-5.5v-7.4h5.3c0.8,0,1.6,0.4,2.2,1.1s1,1.6,1,2.6s-0.3,1.9-0.8,2.6
			C289.2,476.3,288.5,476.7,287.6,476.7z M306.1,477.5h8.8v-2.6h-8.8v-5.6h10.2v-2.8H303v19.7h13.5v-2.8h-10.4V477.5z M337.1,482.2
			c-0.6,0.5-1.2,0.9-1.9,1.1c-0.6,0.2-1.3,0.3-2,0.3c-1.2,0-2.3-0.3-3.3-1s-1.8-1.6-2.3-2.7s-0.8-2.3-0.8-3.6c0-0.7,0.1-1.4,0.3-2.1
			c0.2-0.7,0.4-1.3,0.8-1.9s0.8-1.2,1.3-1.6c0.5-0.5,1.1-0.8,1.8-1.1c0.7-0.3,1.4-0.4,2.2-0.4c0.5,0,1,0.1,1.5,0.2s0.9,0.3,1.4,0.5
			s0.9,0.6,1.3,1s0.7,0.9,1,1.5l2.4-1.6c-0.7-1.3-1.6-2.3-3-3.1c-1.3-0.8-2.8-1.2-4.6-1.2c-1.2,0-2.3,0.2-3.3,0.6s-1.9,0.9-2.7,1.5
			c-0.8,0.6-1.4,1.4-1.9,2.2c-0.5,0.8-1,1.7-1.2,2.7c-0.3,0.9-0.4,1.9-0.4,2.9c0,1.2,0.2,2.5,0.7,3.7s1.1,2.3,1.9,3.3s1.8,1.7,3,2.3
			c1.2,0.6,2.5,0.9,3.8,0.9c1.1,0,2.1-0.2,3.2-0.5c1-0.3,2-0.9,2.9-1.6s1.5-1.5,1.9-2.5l-2.6-1.5
			C338.1,481.1,337.7,481.7,337.1,482.2z M364.3,469.6c-0.8-0.9-1.8-1.7-3-2.3c-1.2-0.6-2.5-0.9-3.8-0.9s-2.6,0.3-3.8,0.8
			c-1.2,0.6-2.2,1.3-3,2.2c-0.8,0.9-1.5,2-2,3.2s-0.7,2.5-0.7,3.8c0,1,0.1,2,0.4,3s0.7,1.9,1.3,2.7c0.6,0.8,1.2,1.6,2,2.2
			s1.6,1.1,2.6,1.5s2,0.6,3.2,0.6c1.3,0,2.6-0.3,3.8-0.8c1.2-0.5,2.2-1.3,3-2.2c0.8-0.9,1.5-2,2-3.2s0.7-2.5,0.7-3.8
			c0-1.2-0.2-2.5-0.7-3.7C365.8,471.6,365.1,470.5,364.3,469.6z M363.3,479c-0.3,0.9-0.7,1.6-1.2,2.3c-0.5,0.7-1.2,1.2-2,1.6
			s-1.7,0.6-2.6,0.6c-1.2,0-2.4-0.3-3.3-1c-1-0.7-1.7-1.6-2.2-2.7s-0.8-2.3-0.8-3.5c0-0.9,0.1-1.8,0.4-2.6c0.3-0.9,0.7-1.6,1.2-2.3
			c0.5-0.7,1.2-1.2,2-1.6s1.7-0.6,2.7-0.6c0.9,0,1.8,0.2,2.6,0.6c0.8,0.4,1.5,0.9,2,1.6s0.9,1.4,1.2,2.3c0.3,0.9,0.5,1.8,0.5,2.7
			C363.7,477.3,363.6,478.2,363.3,479z M389.5,480.8l-11.2-14.3h-2.6v19.7h3.1v-14l11,14h2.7v-19.7h-3.1v14.3H389.5L389.5,480.8z
			 M415.3,477.5c-0.3-0.4-0.8-0.7-1.4-1s-1.2-0.6-1.8-0.8c-0.6-0.2-1.4-0.4-2.2-0.6c-0.5-0.1-1-0.2-1.3-0.3
			c-0.3-0.1-0.7-0.2-1.1-0.3c-0.4-0.1-0.7-0.2-0.9-0.3c-0.2-0.1-0.4-0.2-0.7-0.4c-0.2-0.2-0.4-0.3-0.5-0.5s-0.2-0.4-0.3-0.6
			c-0.1-0.2-0.1-0.5-0.1-0.7c0-0.9,0.3-1.5,1-2c0.6-0.5,1.6-0.7,2.9-0.7c1.1,0,2.1,0.2,3.2,0.7c1,0.4,1.7,0.9,2.2,1.4l1.4-2.6
			c-2-1.5-4.2-2.2-6.7-2.2c-1,0-2,0.1-2.8,0.4c-0.9,0.3-1.6,0.6-2.3,1.1c-0.6,0.5-1.1,1.1-1.5,1.9s-0.6,1.6-0.6,2.6
			c0,0.8,0.1,1.4,0.4,2c0.2,0.6,0.6,1,1.1,1.4s1.1,0.8,1.8,1c0.7,0.3,1.5,0.6,2.6,0.8c0.7,0.2,1.2,0.3,1.6,0.4s0.8,0.2,1.3,0.4
			c0.5,0.2,0.8,0.3,1.1,0.5c0.3,0.2,0.5,0.3,0.8,0.6c0.2,0.2,0.4,0.5,0.5,0.7c0.1,0.3,0.1,0.6,0.1,0.9c0,0.8-0.3,1.4-1,1.9
			c-0.7,0.4-1.6,0.7-2.8,0.7c-1.4,0-2.7-0.3-4-0.8s-2.2-1.1-2.8-1.7l-1.4,2.7c1.1,0.9,2.4,1.5,3.8,2s2.9,0.7,4.4,0.7
			c0.8,0,1.6-0.1,2.3-0.2c0.7-0.1,1.4-0.3,2-0.6c0.6-0.3,1.1-0.7,1.6-1.1c0.4-0.4,0.8-1,1-1.6s0.4-1.3,0.4-2.1
			c0-0.7-0.1-1.3-0.3-1.9C416,478.4,415.7,477.9,415.3,477.5z M423.3,469.3h6.6v17h3.2v-17h6.6v-2.8h-16.3v2.8H423.3z M461.5,476.6
			c0.7-1.1,1.1-2.3,1.1-3.6c0-0.8-0.2-1.6-0.5-2.3c-0.3-0.8-0.7-1.5-1.2-2.1s-1.2-1.1-1.9-1.5c-0.8-0.4-1.6-0.6-2.5-0.6h-8.6v19.7
			h3.1v-6.9h4.6l4.3,6.9h3.5l-4.6-7.5C459.8,478.4,460.8,477.7,461.5,476.6z M456.4,476.7h-5.5v-7.4h5.3c0.8,0,1.6,0.4,2.2,1.1
			s0.9,1.6,0.9,2.6s-0.3,1.9-0.8,2.6C458,476.3,457.3,476.7,456.4,476.7z M485.4,476.6c0,0.7-0.1,1.4-0.2,2.1s-0.3,1.3-0.6,1.9
			c-0.3,0.6-0.6,1.1-1,1.6c-0.4,0.4-0.9,0.8-1.5,1.1c-0.6,0.3-1.3,0.4-2.2,0.4c-0.8,0-1.5-0.1-2.1-0.4s-1.1-0.6-1.5-1s-0.7-1-1-1.6
			s-0.5-1.3-0.6-1.9c-0.1-0.7-0.2-1.4-0.2-2.1v-10h-3.1v10c0,1.1,0.1,2.1,0.3,3c0.2,0.9,0.5,1.8,0.9,2.7c0.4,0.9,1,1.6,1.6,2.2
			s1.4,1.1,2.4,1.5s2.1,0.5,3.3,0.5c1.5,0,2.8-0.3,3.9-0.8s2-1.2,2.7-2.2c0.7-0.9,1.2-2,1.5-3.1c0.3-1.2,0.5-2.4,0.5-3.8v-10h-3.1
			L485.4,476.6L485.4,476.6z M510.4,482.2c-0.6,0.5-1.2,0.9-1.9,1.1c-0.6,0.2-1.3,0.3-2,0.3c-1.2,0-2.3-0.3-3.3-1s-1.8-1.6-2.3-2.7
			s-0.8-2.3-0.8-3.6c0-0.7,0.1-1.4,0.3-2.1c0.2-0.7,0.4-1.3,0.8-1.9s0.8-1.2,1.3-1.6c0.5-0.5,1.1-0.8,1.8-1.1
			c0.7-0.3,1.4-0.4,2.2-0.4c0.5,0,1,0.1,1.5,0.2s0.9,0.3,1.4,0.5s0.9,0.6,1.3,1s0.7,0.9,1,1.5l2.4-1.6c-0.7-1.3-1.6-2.3-3-3.1
			c-1.3-0.8-2.8-1.2-4.6-1.2c-1.2,0-2.3,0.2-3.3,0.6s-1.9,0.9-2.7,1.5c-0.8,0.6-1.4,1.4-1.9,2.2c-0.5,0.8-1,1.7-1.2,2.7
			c-0.3,0.9-0.4,1.9-0.4,2.9c0,1.2,0.2,2.4,0.6,3.5c0.4,1.2,1,2.2,1.8,3.2c0.8,0.9,1.7,1.7,2.8,2.3c1.1,0.6,2.3,1,3.5,1.1
			c1,0.7,1.5,1.3,1.5,2.1c0,0.4-0.1,0.7-0.4,1c-0.3,0.2-0.7,0.3-1.2,0.3c-0.6,0-1.3-0.2-2-0.6l-0.8,1.6c1,0.5,2.1,0.8,3.3,0.8
			c1,0,1.7-0.2,2.2-0.7s0.8-1.1,0.8-1.9c0-1-0.5-1.9-1.4-2.7c1.5-0.2,2.8-0.7,4.1-1.5c1.2-0.8,2.1-1.8,2.6-3l-2.6-1.5
			C511.4,481.1,511,481.7,510.4,482.2z M528.2,466.5l-7.7,19.7h3.3l2.1-5.4h7.6l2.1,5.4h3.3l-7.7-19.7H528.2z M526.4,478.6l3.3-8.6
			l3.2,8.6H526.4z M526.5,463.9c0-0.1,0.1-0.3,0.2-0.4c0.1-0.2,0.2-0.3,0.4-0.4s0.4-0.2,0.7-0.2s0.7,0.1,1,0.3
			c0.4,0.2,0.8,0.4,1.2,0.6s0.9,0.3,1.4,0.3s0.9-0.1,1.3-0.3c0.4-0.2,0.7-0.4,0.9-0.7c0.2-0.3,0.4-0.6,0.6-0.9
			c0.2-0.3,0.3-0.6,0.3-0.8c0.1-0.2,0.1-0.4,0.1-0.5h-1.8c0,0,0,0.1,0,0.2s-0.1,0.2-0.1,0.3c-0.1,0.1-0.1,0.3-0.3,0.4
			c-0.1,0.1-0.3,0.2-0.4,0.3c-0.2,0.1-0.4,0.1-0.7,0.1c-0.4,0-0.7-0.1-1.1-0.3c-0.4-0.2-0.8-0.4-1.2-0.6s-0.9-0.3-1.3-0.3
			c-0.4,0-0.8,0.1-1.2,0.3c-0.4,0.2-0.6,0.4-0.9,0.7c-0.2,0.3-0.4,0.6-0.5,0.9c-0.2,0.3-0.3,0.6-0.3,0.8c-0.1,0.2-0.1,0.4-0.1,0.6
			h1.7C526.5,464.1,526.5,464,526.5,463.9z M563.1,472.8c-0.5-1.2-1.1-2.3-1.9-3.2c-0.8-0.9-1.8-1.7-3-2.3c-1.2-0.6-2.5-0.9-3.8-0.9
			s-2.6,0.3-3.8,0.8s-2.2,1.3-3,2.2c-0.8,0.9-1.5,2-2,3.2s-0.7,2.5-0.7,3.8c0,1,0.1,2,0.4,3c0.3,1,0.7,1.9,1.3,2.7
			c0.6,0.8,1.2,1.6,2,2.2s1.6,1.1,2.6,1.5s2,0.6,3.2,0.6c1.3,0,2.6-0.3,3.8-0.8s2.2-1.3,3-2.2c0.8-0.9,1.5-2,2-3.2s0.7-2.5,0.7-3.8
			C563.7,475.2,563.5,474,563.1,472.8z M560.1,479c-0.3,0.9-0.7,1.6-1.2,2.3c-0.5,0.7-1.2,1.2-2,1.6s-1.7,0.6-2.6,0.6
			c-1.2,0-2.4-0.3-3.3-1c-1-0.7-1.7-1.6-2.2-2.7s-0.8-2.3-0.8-3.5c0-0.9,0.1-1.8,0.4-2.6c0.3-0.9,0.7-1.6,1.2-2.3
			c0.5-0.7,1.2-1.2,2-1.6s1.7-0.6,2.7-0.6c0.9,0,1.8,0.2,2.6,0.6s1.5,0.9,2,1.6s0.9,1.4,1.2,2.3s0.5,1.8,0.5,2.7
			C560.6,477.3,560.4,478.2,560.1,479z"/>
	</g>
</g>
<g>
	<g>
		<path d="M126.2,267.4h6.8c-0.6,1.6-2.3,3-5,3c-3.8,0-6.4-2.7-6.4-6.5s2.6-6.7,6.3-6.7c2.4,0,4.4,1.1,5.5,3.1l5.8-3.4
			c-2.3-3.9-6.6-6.2-11.2-6.2c-7.3,0-13.2,5.8-13.2,13.2S120.6,277,128,277c7,0,12.2-5.1,12.2-12.9v-2h-14V267.4 M162.7,250.6
			c-7.4,0-13.2,5.8-13.2,13.2c0,7.3,5.8,13.2,13.2,13.2c7.3,0,13.1-5.8,13.1-13.2S170,250.6,162.7,250.6z M162.7,270
			c-3.4,0-6-2.7-6-6.2s2.6-6.2,6-6.2c3.3,0,5.8,2.7,5.8,6.2S166,270,162.7,270z M195.3,266.7l-5.8-15.5h-7.3l9.7,25.1h6.8l9.8-25.1
			h-7.3L195.3,266.7z M217.4,276.3h18v-6.1h-11.2v-3.7h7.4v-5.4h-7.4v-3.7h11.2v-6.2h-18V276.3z M266.7,259.4c0-4.7-3.8-8.2-8.7-8.2
			h-12.2v25.1h6.7v-8.7h2.8l5,8.7h7.5l-5.6-9.7C264.9,265.2,266.7,262.6,266.7,259.4z M257.2,261.9h-4.7v-4.7h4.7
			c1.6,0,2.6,1.1,2.6,2.4C259.8,260.8,258.8,261.9,257.2,261.9z M293,264.5l-10.1-13.3h-5.7v25.1h6.7v-13.2l10.1,13.2h5.7v-25.1H293
			V264.5z M322.7,250.6c-7.4,0-13.2,5.8-13.2,13.2c0,7.3,5.8,13.2,13.2,13.2c7.3,0,13.1-5.8,13.1-13.2
			C335.8,256.4,330,250.6,322.7,250.6z M322.7,270c-3.4,0-6-2.7-6-6.2s2.6-6.2,6-6.2c3.3,0,5.8,2.7,5.8,6.2S326,270,322.7,270z
			 M362.2,276.3h6.8v-9.1h7.4v-5.7H369v-4.3h11.2v-6h-18V276.3z M390.4,276.3h18v-6.1h-11.2v-3.7h7.4v-5.4h-7.4v-3.7h11.2v-6.2h-18
			V276.3z M429.1,251.2h-10.2v25.1h10.2c7.7,0,13.4-5.4,13.4-12.6C442.5,256.6,436.7,251.2,429.1,251.2z M428.7,269.8h-3.1v-12.1
			h3.1c4,0,6.7,2.4,6.7,6C435.5,267.4,432.7,269.8,428.7,269.8z M452.3,276.3h18v-6.1h-11.2v-3.7h7.4v-5.4h-7.4v-3.7h11.2v-6.2h-18
			V276.3z M501.6,259.4c0-4.7-3.8-8.2-8.7-8.2h-12.2v25.1h6.7v-8.7h2.8l5,8.7h7.5l-5.6-9.7C499.8,265.2,501.6,262.6,501.6,259.4z
			 M492.1,261.9h-4.7v-4.7h4.7c1.6,0,2.6,1.1,2.6,2.4C494.7,260.8,493.7,261.9,492.1,261.9z M520.7,251.2l-10.5,25.1h7.1l1.7-4.3
			h9.9l1.8,4.3h7l-10.6-25.1L520.7,251.2L520.7,251.2z M521.4,266l2.5-6.2l2.5,6.2H521.4z M553.7,269.9v-18.7h-7.1v25.1h17.7v-6.5
			h-10.6L553.7,269.9L553.7,269.9z"/>
	</g>
</g>
<g>
	<g>
		<rect x="518.5" y="303.6" class="st0" width="45.8" height="87.9"/>
	</g>
</g>
<g>
	<g>
		<rect x="564.3" y="391.5" class="st1" width="45.8" height="44.5"/>
	</g>
</g>
<g>
	<g>
		<rect x="518.5" y="391.5" class="st2" width="45.8" height="44.5"/>
	</g>
</g>
<g>
	<g>
		<rect x="465" y="303.6" class="st3" width="45.8" height="132.4"/>
	</g>
</g>
<g>
	<g>
		<rect x="364.4" y="362.4" class="st4" width="43.3" height="73.6"/>
	</g>
</g>
<g>
	<g>
		<rect x="407.7" y="303.6" class="st1" width="49.5" height="48.1"/>
	</g>
</g>
<g>
	<g>
		<path class="st0" d="M422.8,351.7h-15.1V436h15.1c23.3,0,42.1-18.9,42.1-42.1C465,370.6,446.1,351.7,422.8,351.7"/>
	</g>
</g>
<g>
	<g>
		<path class="st3" d="M393.9,303.6c-16.2,0-29.4,13.2-29.4,29.4c0,16.2,13.2,29.4,29.4,29.4h13.9v-58.8H393.9"/>
	</g>
</g>
<g>
	<g>
		<path class="st1" d="M114.2,356.7h10.6c14.7,0,26.6-11.9,26.6-26.6s-11.9-26.6-26.6-26.6h-10.6V356.7"/>
	</g>
</g>
<g>
	<g>
		<rect x="68.4" y="303.6" class="st3" width="45.8" height="53.1"/>
	</g>
</g>
<g>
	<g>
		<rect x="68.4" y="356.7" class="st0" width="45.8" height="79.3"/>
	</g>
</g>
<g>
	<g>
		<path class="st4" d="M129.2,356.7h-15.1V436h15.1c21.9,0,39.6-17.7,39.6-39.6C168.9,374.4,151.1,356.7,129.2,356.7"/>
	</g>
</g>
<g>
	<g>
		<polyline class="st3" points="220.8,383.5 168.9,383.5 168.9,436 254.9,436 220.8,383.5 		"/>
	</g>
</g>
<g>
	<g>
		<polyline class="st0" points="220.8,383.5 168.9,303.6 168.9,383.5 220.8,383.5 		"/>
	</g>
</g>
<g>
	<g>
		<path class="st1" d="M220.8,303.6h-52l52,80c22.1,0,40-17.9,40-40S242.9,303.6,220.8,303.6"/>
	</g>
</g>
<g>
	<g>
		<polyline class="st0" points="308.6,303.6 229.9,436 387.4,436 308.6,303.6 		"/>
	</g>
</g>
<g>
	<g>
		<polyline class="st2" points="364.4,397.5 364.4,436 387.4,436 364.4,397.5 		"/>
	</g>
</g>
<g>
	<g>
		<polyline class="st2" points="229.9,436 254.9,436 241.8,415.8 229.9,436 		"/>
	</g>
</g>
<g>
	<g>
		<path class="st1" d="M356.9,436c0-26.7-21.6-48.3-48.3-48.3c-26.7,0-48.3,21.6-48.3,48.3H356.9"/>
	</g>
</g>
<g>
	<g>
		<path d="M208.9,76V60.3l-6.5,11.9h-2.1l-6.5-11.9V76h-3.4V54h3.7l7.3,13.5l7.3-13.5h3.7v22H208.9z"/>
		<path d="M223.6,76V54h3.4v22H223.6z"/>
		<path d="M241.7,60.5V76h-3.4V54h2.9l12.5,15.9V54.1h3.5v22H254L241.7,60.5z"/>
		<path d="M268.2,76V54h3.4v22H268.2z"/>
		<path d="M295.8,59.1c-0.5-0.5-1.3-1.1-2.5-1.5c-1.1-0.5-2.3-0.7-3.5-0.7c-1.4,0-2.5,0.2-3.2,0.8c-0.7,0.5-1.1,1.3-1.1,2.2
			c0,0.3,0,0.6,0.1,0.8s0.2,0.5,0.3,0.7c0.2,0.2,0.3,0.3,0.6,0.6c0.2,0.2,0.5,0.3,0.7,0.4s0.6,0.2,1,0.4s0.8,0.2,1.2,0.3
			s0.9,0.2,1.5,0.4c1,0.2,1.8,0.5,2.5,0.7c0.7,0.2,1.3,0.5,2,0.9c0.7,0.3,1.1,0.7,1.6,1.1s0.7,1,0.9,1.6c0.2,0.7,0.3,1.3,0.3,2.1
			c0,0.9-0.2,1.6-0.4,2.4s-0.7,1.3-1.1,1.8s-1.1,0.9-1.7,1.2c-0.7,0.3-1.4,0.6-2.2,0.7c-0.8,0.2-1.6,0.2-2.5,0.2
			c-1.6,0-3.3-0.2-4.8-0.7c-1.6-0.5-3-1.2-4.2-2.2l1.6-3c0.7,0.7,1.6,1.3,3.1,1.9c1.5,0.6,3,0.9,4.4,0.9c1.4,0,2.5-0.2,3.2-0.7
			c0.7-0.5,1.1-1.1,1.1-2.1c0-0.3-0.1-0.7-0.2-1c-0.1-0.3-0.3-0.6-0.6-0.8c-0.2-0.2-0.6-0.4-0.8-0.6c-0.3-0.2-0.7-0.3-1.2-0.5
			s-1-0.3-1.5-0.5c-0.4-0.1-1.1-0.2-1.8-0.5c-1.1-0.3-2.1-0.6-2.9-0.9s-1.4-0.7-2-1.1c-0.6-0.5-1-1-1.2-1.6s-0.4-1.4-0.4-2.2
			c0-1.1,0.2-2.1,0.6-2.9s1-1.6,1.7-2.1s1.6-1,2.5-1.2c1-0.3,2.1-0.4,3.2-0.4c2.7,0,5.2,0.8,7.5,2.5L295.8,59.1z"/>
		<path d="M324.2,57.1h-7.3v19h-3.5v-19H306v-3h18.1V57.1L324.2,57.1z"/>
		<path d="M348.4,72.9v3h-15.1V54h14.9v3h-11.3v6.2h9.9v2.9h-9.9v6.7L348.4,72.9L348.4,72.9z M342.2,51.8l-2.2-0.7l1.8-3.4h3.3
			L342.2,51.8z"/>
		<path d="M358.1,76V54h9.6c1,0,1.9,0.2,2.7,0.7c0.9,0.4,1.6,1,2.1,1.6s1.1,1.5,1.4,2.3c0.3,0.8,0.5,1.7,0.5,2.6
			c0,1.5-0.4,2.9-1.1,4c-0.8,1.2-1.8,2.1-3.1,2.5l5.2,8.4h-3.9l-4.8-7.6h-5.1V76L358.1,76L358.1,76z M361.6,65.3h6.1
			c1,0,1.7-0.4,2.4-1.2c0.7-0.8,0.9-1.8,0.9-3c0-1.1-0.3-2.1-1.1-2.9c-0.7-0.8-1.6-1.2-2.5-1.2h-5.9L361.6,65.3L361.6,65.3z"/>
		<path d="M384.8,76V54h3.4v22H384.8z"/>
		<path d="M398.1,65c0-1.5,0.2-2.9,0.8-4.2c0.6-1.4,1.3-2.5,2.2-3.5s2.1-1.8,3.4-2.5c1.3-0.7,2.7-0.9,4.2-0.9c1.6,0,3,0.3,4.3,1
			c1.3,0.7,2.5,1.5,3.4,2.5c0.9,1.1,1.6,2.2,2.1,3.6c0.5,1.3,0.7,2.7,0.7,4.1c0,1.5-0.2,2.9-0.8,4.2c-0.6,1.3-1.2,2.5-2.2,3.5
			c-0.9,1-2.1,1.8-3.4,2.5c-1.3,0.6-2.7,0.9-4.2,0.9c-1.2,0-2.4-0.2-3.5-0.6c-1.1-0.4-2.1-1-3-1.7s-1.6-1.6-2.2-2.5
			c-0.7-0.9-1.1-2-1.4-3C398.3,67.3,398.1,66.1,398.1,65z M408.6,73c1.1,0,2.1-0.2,3-0.7c0.9-0.5,1.6-1.1,2.2-1.8s1-1.6,1.3-2.5
			c0.3-1,0.5-1.9,0.5-3c0-1.1-0.2-2.1-0.5-3c-0.3-1-0.8-1.8-1.4-2.5s-1.3-1.3-2.2-1.8c-0.9-0.4-1.8-0.7-2.9-0.7
			c-1.1,0-2.1,0.2-3,0.7s-1.6,1.1-2.2,1.8c-0.6,0.7-1.1,1.6-1.4,2.5c-0.3,1-0.5,1.9-0.5,3c0,1.4,0.2,2.7,0.8,3.9s1.4,2.2,2.5,3
			C406,72.6,407.2,73,408.6,73z"/>
		<path d="M442.9,76V54h7.8c1.7,0,3.3,0.2,4.7,0.8c1.4,0.6,2.5,1.4,3.4,2.4s1.6,2.1,2,3.4c0.5,1.3,0.7,2.7,0.7,4.3c0,3.4-1,6-3,8
			c-2,2.1-4.5,3-7.8,3H442.9z M450.7,57.1h-4.4v15.8h4.4c1.5,0,2.8-0.3,3.9-1.1c1.1-0.7,1.9-1.6,2.5-2.9c0.6-1.2,0.8-2.5,0.8-4.1
			c0-2.4-0.7-4.3-1.9-5.7C454.7,57.8,452.9,57.1,450.7,57.1z"/>
		<path d="M476.8,54h3.3l8.5,22H485l-2.3-6h-8.5l-2.3,6h-3.7L476.8,54z M482,67.4l-3.5-9.7l-3.6,9.7H482z"/>
	</g>
	<g>
		<path d="M125.2,97.1c2.1,0,3.9,0.4,5.5,1.3c1.6,0.9,2.8,2.1,3.5,3.5l-4.6,3.3c-0.2-0.5-0.5-1-0.8-1.3c-0.3-0.3-0.7-0.7-1.1-0.8
			s-0.8-0.3-1.2-0.4s-0.8-0.2-1.3-0.2c-0.8,0-1.6,0.2-2.2,0.5c-0.7,0.3-1.1,0.8-1.6,1.3c-0.4,0.6-0.7,1.1-0.9,1.8
			c-0.2,0.7-0.3,1.4-0.3,2.1c0,1.6,0.5,3,1.4,4.1c0.9,1.1,2.1,1.7,3.7,1.7c0.6,0,1.1-0.1,1.7-0.2c0.6-0.2,1.1-0.5,1.6-0.9
			c0.5-0.4,0.9-0.9,1.1-1.6l4.9,3c-0.4,1.1-1.1,2-2.1,2.8c-1.1,0.8-2.2,1.4-3.4,1.8c-1.2,0.4-2.5,0.6-3.8,0.6c-1.6,0-3-0.3-4.4-1
			c-1.4-0.7-2.5-1.5-3.5-2.5s-1.7-2.3-2.2-3.6c-0.6-1.4-0.8-2.8-0.8-4.2c0-1.3,0.2-2.7,0.7-3.9c0.5-1.3,1.2-2.5,2.2-3.5
			c0.9-1.1,2.1-1.9,3.5-2.5C121.9,97.5,123.5,97.1,125.2,97.1z"/>
		<path d="M142.8,119.2v-22h6.1v22H142.8z"/>
		<path d="M174.5,114v5.3h-15.7v-22h15.4v5.3h-9.4v3.1h8v4.9h-8v3.4L174.5,114L174.5,114z M161.1,94.5l3.5-3.6h4.2l3.5,3.6l-3,1.3
			l-2.6-2l-2.6,2L161.1,94.5z"/>
		<path d="M189.5,108.4v10.8h-6.1v-22h4.7l8.9,11.2V97.2h6.1v22h-4.8L189.5,108.4z"/>
		<path d="M223.1,97.1c2.1,0,3.9,0.4,5.5,1.3c1.6,0.9,2.8,2.1,3.5,3.5l-4.6,3.3c-0.2-0.5-0.5-1-0.8-1.3c-0.3-0.3-0.7-0.7-1.1-0.8
			c-0.4-0.2-0.8-0.3-1.2-0.4s-0.8-0.2-1.3-0.2c-0.8,0-1.6,0.2-2.2,0.5s-1.1,0.8-1.6,1.3c-0.4,0.6-0.7,1.1-0.9,1.8
			c-0.2,0.7-0.3,1.4-0.3,2.1c0,1.6,0.5,3,1.4,4.1c0.9,1.1,2.1,1.7,3.7,1.7c0.6,0,1.1-0.1,1.7-0.2c0.6-0.2,1.1-0.5,1.6-0.9
			s0.9-0.9,1.1-1.6l4.9,3c-0.4,1.1-1.1,2-2.1,2.8c-1.1,0.8-2.2,1.4-3.4,1.8s-2.5,0.6-3.8,0.6c-1.6,0-3-0.3-4.4-1s-2.5-1.5-3.5-2.5
			s-1.7-2.3-2.2-3.6c-0.6-1.4-0.8-2.8-0.8-4.2c0-1.3,0.2-2.7,0.7-3.9c0.5-1.3,1.2-2.5,2.2-3.5c0.9-1.1,2.1-1.9,3.5-2.5
			C219.8,97.5,221.5,97.1,223.1,97.1z"/>
		<path d="M240.8,119.2v-22h6.1v22H240.8z"/>
		<path d="M261.9,97.2h6.7l7,22h-6.2l-1.3-4.4h-5.9l-1.3,4.4h-6.2L261.9,97.2z M267.2,110.9l-2-7.7l-2.1,7.7H267.2z"/>
		<path d="M283.9,124.2l1.1-4.8h-1.8v-5.7h4.8v5.7l-1.6,4.8H283.9z"/>
		<path d="M327.3,102.5H321v16.7h-6.1v-16.7h-6.3v-5.3h18.7L327.3,102.5L327.3,102.5z"/>
		<path d="M351.3,114v5.3h-15.7v-22h15.4v5.3h-9.4v3.1h8v4.9h-8v3.4L351.3,114L351.3,114z"/>
		<path d="M370,97.1c2.1,0,3.9,0.4,5.5,1.3c1.6,0.9,2.8,2.1,3.5,3.5l-4.6,3.3c-0.2-0.5-0.5-1-0.8-1.3c-0.3-0.3-0.7-0.7-1.1-0.8
			s-0.8-0.3-1.2-0.4s-0.8-0.2-1.3-0.2c-0.8,0-1.6,0.2-2.2,0.5s-1.1,0.8-1.6,1.3c-0.4,0.6-0.7,1.1-0.9,1.8c-0.2,0.7-0.3,1.4-0.3,2.1
			c0,1.6,0.5,3,1.4,4.1c0.9,1.1,2.1,1.7,3.7,1.7c0.6,0,1.1-0.1,1.7-0.2s1.1-0.5,1.6-0.9s0.9-0.9,1.1-1.6l4.9,3
			c-0.4,1.1-1.1,2-2.1,2.8c-1.1,0.8-2.2,1.4-3.4,1.8s-2.5,0.6-3.8,0.6c-1.6,0-3-0.3-4.4-1c-1.4-0.7-2.5-1.5-3.5-2.5
			c-1-1.1-1.7-2.3-2.2-3.6c-0.6-1.4-0.8-2.8-0.8-4.2c0-1.3,0.2-2.7,0.7-3.9c0.5-1.3,1.2-2.5,2.2-3.5c0.9-1.1,2.1-1.9,3.5-2.5
			C366.8,97.5,368.3,97.1,370,97.1z"/>
		<path d="M393.7,108.4v10.8h-6.1v-22h4.7l8.9,11.2V97.2h6.1v22h-4.8L393.7,108.4z"/>
		<path d="M416,108.2c0-1.5,0.2-2.9,0.8-4.2s1.3-2.5,2.3-3.5s2.1-1.8,3.6-2.5s2.9-0.9,4.5-0.9c1.6,0,3.1,0.3,4.5,1s2.6,1.5,3.5,2.5
			c0.9,1.1,1.7,2.2,2.2,3.6c0.6,1.3,0.8,2.7,0.8,4.1c0,1.4-0.2,2.8-0.8,4.2c-0.6,1.3-1.3,2.5-2.3,3.5c-1,1-2.1,1.8-3.6,2.5
			c-1.4,0.7-3,0.9-4.5,0.9c-1.6,0-3.1-0.3-4.5-1s-2.6-1.5-3.5-2.5c-1-1.1-1.7-2.2-2.2-3.6C416.3,111,416,109.6,416,108.2z
			 M427.2,114.1c0.8,0,1.6-0.2,2.2-0.5c0.7-0.3,1.1-0.8,1.6-1.4c0.4-0.6,0.7-1.1,0.9-1.9c0.2-0.7,0.3-1.4,0.3-2.1
			c0-1.1-0.2-2-0.6-2.8c-0.3-0.8-0.9-1.6-1.7-2.1c-0.8-0.6-1.7-0.8-2.8-0.8c-0.8,0-1.6,0.2-2.2,0.5s-1.1,0.7-1.6,1.3
			c-0.4,0.6-0.7,1.1-0.9,1.9c-0.2,0.7-0.3,1.4-0.3,2.1s0.1,1.5,0.3,2.1s0.5,1.3,0.9,1.8c0.4,0.6,0.9,1,1.6,1.3
			S426.4,114.1,427.2,114.1z"/>
		<path d="M447.1,119.2v-22h6.1V114h9.9v5.3L447.1,119.2L447.1,119.2z"/>
		<path d="M469.9,108.2c0-1.5,0.2-2.9,0.8-4.2s1.3-2.5,2.3-3.5c1-1,2.1-1.8,3.6-2.5s2.9-0.9,4.5-0.9c1.6,0,3.1,0.3,4.5,1
			s2.6,1.5,3.5,2.5s1.7,2.2,2.2,3.6c0.6,1.3,0.8,2.7,0.8,4.1c0,1.4-0.2,2.8-0.8,4.2c-0.6,1.3-1.3,2.5-2.3,3.5c-1,1-2.1,1.8-3.6,2.5
			c-1.4,0.7-3,0.9-4.5,0.9c-1.6,0-3.1-0.3-4.5-1s-2.6-1.5-3.5-2.5c-1-1.1-1.7-2.2-2.2-3.6C470.3,111,469.9,109.6,469.9,108.2z
			 M481.2,114.1c0.8,0,1.6-0.2,2.2-0.5c0.7-0.3,1.1-0.8,1.6-1.4c0.4-0.6,0.7-1.1,0.9-1.9c0.2-0.7,0.3-1.4,0.3-2.1
			c0-1.1-0.2-2-0.6-2.8c-0.3-0.8-0.9-1.6-1.7-2.1c-0.8-0.6-1.7-0.8-2.8-0.8c-0.8,0-1.6,0.2-2.2,0.5s-1.1,0.7-1.6,1.3
			c-0.4,0.6-0.7,1.1-0.9,1.9c-0.2,0.7-0.3,1.4-0.3,2.1s0.1,1.5,0.3,2.1s0.5,1.3,0.9,1.8c0.4,0.6,0.9,1,1.6,1.3
			S480.4,114.1,481.2,114.1z"/>
		<path d="M512,107.6h9v11.7h-5v-1.8c-1.6,1.3-3.4,2-5.4,2c-1.5,0-2.8-0.2-4.1-0.8c-1.3-0.5-2.5-1.2-3.4-2.2c-1-0.9-1.7-2.1-2.3-3.6
			c-0.6-1.5-0.9-3-0.9-4.8c0-1.6,0.3-3,0.9-4.4c0.6-1.3,1.4-2.5,2.4-3.5c1-1,2.2-1.7,3.6-2.3s2.9-0.8,4.4-0.8c2,0,3.8,0.4,5.4,1.3
			c1.6,0.8,2.8,2.1,3.6,3.5l-4.5,3.4c-0.4-0.9-1.1-1.6-2-2.1c-0.9-0.5-1.8-0.8-2.8-0.8c-1.4,0-2.6,0.6-3.5,1.6s-1.4,2.5-1.4,4.2
			s0.5,3.1,1.4,4.2c0.9,1.1,2.1,1.6,3.7,1.6c1.7,0,3.3-0.7,4.7-2.1H512L512,107.6L512,107.6z"/>
		<path d="M530.2,119.2v-22h6.1v22H530.2z"/>
		<path d="M551.3,97.2h6.7l7,22h-6.2l-1.3-4.4h-5.7l-1.3,4.4h-6.2L551.3,97.2z M556.6,110.9l-2-7.7l-2.1,7.7H556.6z"/>
	</g>
	<g>
		<path d="M236.2,157.2v5.3h-15.7v-22h15.4v5.3h-9.4v3.1h8v4.9h-8v3.4L236.2,157.2L236.2,157.2z"/>
		<path d="M258.3,162.5v-22h6.1v22H258.3z"/>
		<path d="M280.4,151.7v10.8h-6.1v-22h4.7l8.9,11.2v-11.2h6.1v22h-4.8L280.4,151.7z"/>
		<path d="M302.7,151.5c0-1.5,0.2-2.9,0.8-4.2s1.3-2.5,2.3-3.5s2.1-1.8,3.6-2.5c1.4-0.6,2.9-0.9,4.5-0.9c1.6,0,3.1,0.3,4.5,1
			s2.6,1.5,3.5,2.5c0.9,1.1,1.7,2.2,2.2,3.6c0.6,1.3,0.8,2.7,0.8,4.1s-0.2,2.8-0.8,4.2c-0.6,1.3-1.3,2.5-2.3,3.5
			c-1,1-2.1,1.8-3.6,2.5c-1.4,0.7-3,0.9-4.5,0.9c-1.6,0-3.1-0.3-4.5-1c-1.4-0.7-2.6-1.5-3.5-2.5c-1-1.1-1.7-2.2-2.2-3.6
			C303,154.3,302.7,152.9,302.7,151.5z M313.9,157.3c0.8,0,1.6-0.2,2.2-0.5c0.7-0.3,1.1-0.8,1.6-1.4c0.4-0.6,0.7-1.1,0.9-1.9
			c0.2-0.7,0.3-1.4,0.3-2.1c0-1.1-0.2-2-0.6-2.8c-0.3-0.8-0.9-1.6-1.7-2.1c-0.8-0.6-1.7-0.8-2.8-0.8c-0.8,0-1.6,0.2-2.2,0.5
			c-0.7,0.3-1.1,0.7-1.6,1.3c-0.4,0.6-0.7,1.1-0.9,1.9c-0.2,0.7-0.3,1.4-0.3,2.1s0.1,1.5,0.3,2.1s0.5,1.3,0.9,1.8
			c0.4,0.6,0.9,1,1.6,1.3S313.1,157.3,313.9,157.3z"/>
		<path d="M337.2,140.5l4.3,15l4.3-15h6.3l-7.6,22h-6l-7.7-22H337.2z"/>
		<path d="M363.3,140.5h6.7l7,22h-6.2l-1.3-4.4h-5.9l-1.3,4.4h-6.2L363.3,140.5z M368.6,154.2l-2-7.7l-2.1,7.7H368.6z"/>
		<path d="M403.5,157.6c-0.6,1.3-1.5,2.4-3,3.3c-1.4,0.9-3,1.5-4.8,1.7c1,1,1.5,2.1,1.5,3.3c0,1-0.3,1.8-1,2.5s-1.6,1-2.8,1
			s-2.5-0.3-3.9-1.1l1.4-3c0.5,0.4,1,0.6,1.5,0.6c0.4,0,0.7-0.1,0.9-0.3c0.2-0.2,0.3-0.5,0.3-0.9c0-0.7-0.4-1.3-1.1-2.1
			c-1.4-0.2-2.7-0.6-3.9-1.3c-1.2-0.7-2.2-1.6-3.1-2.6c-0.9-1.1-1.5-2.2-2-3.4c-0.5-1.2-0.7-2.5-0.7-3.9s0.2-2.7,0.7-3.9
			c0.5-1.2,1.2-2.5,2.2-3.5c0.9-1.1,2.1-1.9,3.5-2.5c1.5-0.7,3-1,4.8-1c2.1,0,3.9,0.4,5.5,1.3c1.6,0.9,2.8,2.1,3.5,3.5l-4.6,3.3
			c-0.2-0.5-0.5-1-0.8-1.3c-0.3-0.3-0.7-0.7-1.1-0.8s-0.8-0.3-1.2-0.4s-0.8-0.2-1.3-0.2c-0.8,0-1.6,0.2-2.2,0.5s-1.1,0.8-1.6,1.3
			c-0.4,0.6-0.7,1.1-0.9,1.8c-0.2,0.7-0.3,1.4-0.3,2.1c0,1.6,0.5,3,1.4,4.1c0.9,1.1,2.1,1.7,3.7,1.7c0.6,0,1.1-0.1,1.7-0.2
			c0.6-0.2,1.1-0.5,1.6-0.9c0.5-0.4,0.9-0.9,1.1-1.6L403.5,157.6z"/>
		<path d="M416.6,140.5h6.7l7,22h-6.2l-1.3-4.4h-5.9l-1.3,4.4h-6.2L416.6,140.5z M417.9,137.5c-0.2,0-0.5,0.1-0.7,0.2
			c-0.2,0.1-0.3,0.2-0.4,0.3c-0.1,0.2-0.2,0.2-0.2,0.4s-0.1,0.3-0.1,0.3c0,0.1,0,0.2,0,0.2h-3.1c0-0.2,0.1-0.6,0.2-0.9
			c0.1-0.4,0.2-0.8,0.5-1.2c0.2-0.5,0.5-0.9,0.8-1.3c0.3-0.4,0.7-0.7,1.2-1c0.5-0.2,1.1-0.4,1.6-0.4c0.5,0,0.9,0.1,1.3,0.2
			c0.4,0.2,0.7,0.3,1,0.6c0.2,0.2,0.6,0.4,0.9,0.6s0.7,0.2,1,0.2c0.2,0,0.5-0.1,0.7-0.2c0.2-0.1,0.3-0.2,0.5-0.4
			c0.1-0.2,0.2-0.3,0.2-0.5s0.1-0.3,0.2-0.4c0-0.1,0-0.2,0-0.2h3.1c0,0.2-0.1,0.4-0.2,0.8c-0.1,0.3-0.2,0.7-0.5,1.2
			s-0.5,0.9-0.8,1.3s-0.7,0.7-1.2,1.1c-0.5,0.3-1.1,0.4-1.6,0.4c-0.4,0-0.8-0.1-1.2-0.2s-0.7-0.3-1-0.5c-0.2-0.2-0.6-0.3-0.9-0.5
			C418.6,137.6,418.2,137.5,417.9,137.5z M421.9,154.2l-2-7.7l-2.1,7.7H421.9z"/>
		<path d="M436.3,151.5c0-1.5,0.2-2.9,0.8-4.2s1.3-2.5,2.3-3.5s2.1-1.8,3.6-2.5c1.4-0.6,2.9-0.9,4.5-0.9s3.1,0.3,4.5,1
			s2.6,1.5,3.5,2.5c0.9,1.1,1.7,2.2,2.2,3.6c0.6,1.3,0.8,2.7,0.8,4.1s-0.2,2.8-0.8,4.2c-0.6,1.3-1.3,2.5-2.3,3.5
			c-1,1-2.1,1.8-3.6,2.5c-1.4,0.7-3,0.9-4.5,0.9c-1.6,0-3.1-0.3-4.5-1c-1.4-0.7-2.6-1.5-3.5-2.5c-1-1.1-1.7-2.2-2.2-3.6
			C436.5,154.3,436.3,152.9,436.3,151.5z M447.5,157.3c0.8,0,1.6-0.2,2.2-0.5c0.7-0.3,1.1-0.8,1.6-1.4s0.7-1.1,0.9-1.9
			c0.2-0.7,0.3-1.4,0.3-2.1c0-1.1-0.2-2-0.6-2.8c-0.3-0.8-0.9-1.6-1.7-2.1c-0.8-0.6-1.7-0.8-2.8-0.8c-0.8,0-1.6,0.2-2.2,0.5
			c-0.7,0.3-1.1,0.7-1.6,1.3c-0.4,0.6-0.7,1.1-0.9,1.9c-0.2,0.7-0.3,1.4-0.3,2.1s0.1,1.5,0.3,2.1s0.5,1.3,0.9,1.8
			c0.4,0.6,0.9,1,1.6,1.3S446.6,157.3,447.5,157.3z"/>
	</g>
</g>
</svg>
