<?xml version="1.0" encoding="utf-8"?>
<!-- Generator: Adobe Illustrator 27.1.1, SVG Export Plug-In . SVG Version: 6.00 Build 0)  -->
<svg version="1.1"
	 id="svg150" xmlns:inkscape="http://www.inkscape.org/namespaces/inkscape" xmlns:sodipodi="http://sodipodi.sourceforge.net/DTD/sodipodi-0.dtd" xmlns:dc="http://purl.org/dc/elements/1.1/" xmlns:cc="http://creativecommons.org/ns#" xmlns:rdf="http://www.w3.org/1999/02/22-rdf-syntax-ns#" xmlns:svg="http://www.w3.org/2000/svg"
	 xmlns="http://www.w3.org/2000/svg" xmlns:xlink="http://www.w3.org/1999/xlink" x="0px" y="0px" viewBox="0 0 1357.8 327.3"
	 style="enable-background:new 0 0 1357.8 327.3;" xml:space="preserve">
<style type="text/css">
	.st0{fill:#FFFFFF;}
	.st1{fill:#FFDA00;}
	.st2{fill:#4E4E4E;}
	.st3{fill:#00D000;}
	.st4{fill:#FF0000;}
	.st5{fill:#183EFF;}
</style>
<sodipodi:namedview  bordercolor="#666666" borderopacity="1" gridtolerance="10" guidetolerance="10" id="namedview152" inkscape:current-layer="svg150" inkscape:cx="226.46719" inkscape:cy="449.92703" inkscape:pageopacity="0" inkscape:pageshadow="2" inkscape:window-height="1017" inkscape:window-maximized="1" inkscape:window-width="1920" inkscape:window-x="-8" inkscape:window-y="-8" inkscape:zoom="0.89359596" objecttolerance="10" pagecolor="#ffffff" showgrid="false" units="px">
	</sodipodi:namedview>
<rect x="679.1" y="0.2" class="st0" width="678.8" height="326.8"/>
<path d="M808.4,271.1c0,0.7-0.1,1.4-0.2,2.1s-0.3,1.3-0.5,1.9c-0.3,0.6-0.6,1.1-1,1.6c-0.4,0.4-0.9,0.8-1.5,1.1
	c-0.6,0.3-1.3,0.4-2.2,0.4c-0.8,0-1.5-0.1-2.1-0.4s-1.1-0.6-1.5-1s-0.7-1-1-1.6s-0.5-1.3-0.6-1.9c-0.1-0.7-0.2-1.4-0.2-2.1v-10h-3.1
	v10c0,1.1,0.1,2.1,0.3,3c0.2,0.9,0.5,1.8,0.9,2.7c0.4,0.9,1,1.6,1.6,2.2s1.4,1.1,2.4,1.5s2.1,0.5,3.3,0.5c1.5,0,2.8-0.3,3.9-0.8
	s2-1.2,2.7-2.2c0.7-0.9,1.2-2,1.5-3.1c0.3-1.2,0.5-2.4,0.5-3.8v-10h-3.1v9.9 M835,275.4l-11.2-14.3h-2.6v19.7h3.1v-14l11,14h2.7
	v-19.7h-3.1L835,275.4L835,275.4z M848.1,280.9h3.1v-19.7h-3.1V280.9z M866.9,261.1l-7.7,19.7h3.3l2.1-5.4h7.6l2.1,5.4h3.3
	l-7.7-19.7H866.9z M865.1,273.2l3.3-8.6l3.2,8.6H865.1z M865.2,258.5c0-0.1,0.1-0.3,0.2-0.4c0.1-0.2,0.2-0.3,0.4-0.4
	c0.2-0.1,0.4-0.2,0.7-0.2s0.7,0.1,1,0.3c0.4,0.2,0.8,0.4,1.2,0.6s0.9,0.3,1.4,0.3s0.9-0.1,1.3-0.3c0.4-0.2,0.7-0.4,0.9-0.7
	c0.2-0.3,0.4-0.6,0.6-0.9s0.3-0.6,0.3-0.8c0.1-0.2,0.1-0.4,0.1-0.5h-1.8c0,0,0,0.1,0,0.2s-0.1,0.2-0.1,0.3c-0.1,0.1-0.1,0.3-0.3,0.4
	c-0.1,0.1-0.3,0.2-0.4,0.3c-0.2,0.1-0.4,0.1-0.7,0.1c-0.4,0-0.7-0.1-1.1-0.3c-0.4-0.2-0.8-0.4-1.2-0.6c-0.4-0.2-0.9-0.3-1.3-0.3
	s-0.8,0.1-1.2,0.3c-0.4,0.2-0.6,0.4-0.9,0.7s-0.4,0.6-0.5,0.9c-0.2,0.3-0.3,0.6-0.3,0.8c-0.1,0.2-0.1,0.4-0.1,0.6h1.7
	C865.2,258.8,865.2,258.6,865.2,258.5z M899.9,264.1c-0.8-0.9-1.8-1.7-3-2.3c-1.2-0.6-2.5-0.9-3.8-0.9s-2.6,0.3-3.8,0.8
	c-1.2,0.6-2.2,1.3-3,2.2c-0.8,0.9-1.5,2-2,3.2s-0.7,2.5-0.7,3.8c0,1,0.1,2,0.4,3s0.7,1.9,1.3,2.7c0.6,0.8,1.2,1.6,2,2.2
	s1.6,1.1,2.6,1.5s2,0.6,3.2,0.6c1.3,0,2.6-0.3,3.8-0.8c1.2-0.5,2.2-1.3,3-2.2c0.8-0.9,1.5-2,2-3.2s0.7-2.5,0.7-3.8
	c0-1.2-0.2-2.5-0.7-3.7C901.3,266.2,900.7,265.1,899.9,264.1z M898.8,273.6c-0.3,0.9-0.7,1.6-1.2,2.3c-0.5,0.7-1.2,1.2-2,1.6
	s-1.7,0.6-2.6,0.6c-1.2,0-2.4-0.3-3.3-1c-1-0.7-1.7-1.6-2.2-2.7s-0.8-2.3-0.8-3.5c0-0.9,0.1-1.8,0.4-2.6c0.3-0.9,0.7-1.6,1.2-2.3
	c0.5-0.7,1.2-1.2,2-1.6s1.7-0.6,2.7-0.6c0.9,0,1.8,0.2,2.6,0.6s1.5,0.9,2,1.6s0.9,1.4,1.2,2.3c0.3,0.9,0.5,1.8,0.5,2.7
	S899.1,272.8,898.8,273.6z M926.8,272.1h8.8v-2.6h-8.8v-5.6h10.1v-2.8h-13.3v19.7h13.5V278h-10.4L926.8,272.1L926.8,272.1
	L926.8,272.1z M972,271.2c0.7-1.1,1.1-2.3,1.1-3.6c0-0.8-0.2-1.6-0.5-2.3c-0.3-0.8-0.7-1.5-1.2-2.1s-1.2-1.1-1.9-1.5
	c-0.8-0.4-1.6-0.6-2.5-0.6h-8.6v19.7h3.1V274h4.6l4.3,6.9h3.5l-4.6-7.5C970.4,273,971.3,272.3,972,271.2z M966.9,271.2h-5.5v-7.4
	h5.3c0.8,0,1.6,0.4,2.2,1.1s1,1.6,1,2.6s-0.3,1.9-0.8,2.6C968.5,270.9,967.8,271.2,966.9,271.2z M985.4,272.1h8.8v-2.6h-8.8v-5.6
	h10.2v-2.8h-13.3v19.7h13.5V278h-10.4L985.4,272.1L985.4,272.1z M1016.3,276.8c-0.6,0.5-1.2,0.9-1.9,1.1c-0.6,0.2-1.3,0.3-2,0.3
	c-1.2,0-2.3-0.3-3.3-1s-1.7-1.6-2.3-2.7c-0.5-1.1-0.8-2.3-0.8-3.6c0-0.7,0.1-1.4,0.3-2.1c0.2-0.7,0.4-1.3,0.8-1.9s0.8-1.2,1.3-1.6
	c0.5-0.5,1.1-0.8,1.8-1.1c0.7-0.3,1.4-0.4,2.2-0.4c0.5,0,1,0.1,1.5,0.2s0.9,0.3,1.4,0.5s0.9,0.6,1.3,1s0.7,0.9,1,1.5l2.4-1.6
	c-0.7-1.3-1.6-2.3-3-3.1c-1.3-0.8-2.8-1.2-4.6-1.2c-1.2,0-2.3,0.2-3.3,0.6s-1.9,0.9-2.7,1.5s-1.4,1.4-1.9,2.2
	c-0.5,0.8-1,1.7-1.2,2.7c-0.3,0.9-0.4,1.9-0.4,2.9c0,1.2,0.2,2.5,0.7,3.7s1.1,2.3,1.9,3.3s1.8,1.7,3,2.3c1.2,0.6,2.5,0.9,3.8,0.9
	c1.1,0,2.1-0.2,3.2-0.5c1-0.3,2-0.9,2.9-1.6s1.5-1.5,1.9-2.5l-2.6-1.5C1017.4,275.8,1016.9,276.3,1016.3,276.8z M1043.6,264.1
	c-0.8-0.9-1.8-1.7-3-2.3c-1.2-0.6-2.5-0.9-3.8-0.9s-2.6,0.3-3.8,0.8c-1.2,0.6-2.2,1.3-3,2.2c-0.8,0.9-1.5,2-2,3.2s-0.7,2.5-0.7,3.8
	c0,1,0.1,2,0.4,3s0.7,1.9,1.3,2.7c0.6,0.8,1.2,1.6,2,2.2s1.6,1.1,2.6,1.5s2,0.6,3.2,0.6c1.3,0,2.6-0.3,3.8-0.8s2.2-1.3,3-2.2
	c0.8-0.9,1.5-2,2-3.2s0.7-2.5,0.7-3.8c0-1.2-0.2-2.5-0.7-3.7C1045,266.2,1044.4,265.1,1043.6,264.1z M1042.6,273.6
	c-0.3,0.9-0.7,1.6-1.2,2.3c-0.5,0.7-1.2,1.2-2,1.6s-1.7,0.6-2.6,0.6c-1.2,0-2.4-0.3-3.3-1c-1-0.7-1.7-1.6-2.2-2.7s-0.8-2.3-0.8-3.5
	c0-0.9,0.1-1.8,0.4-2.6c0.3-0.9,0.7-1.6,1.2-2.3c0.5-0.7,1.2-1.2,2-1.6s1.7-0.6,2.7-0.6c0.9,0,1.8,0.2,2.6,0.6
	c0.8,0.4,1.5,0.9,2,1.6s0.9,1.4,1.2,2.3s0.5,1.8,0.5,2.7C1043,271.9,1042.9,272.8,1042.6,273.6z M1068.7,275.4l-11.2-14.3h-2.6v19.7
	h3.1v-14l11,14h2.7v-19.7h-3.1L1068.7,275.4L1068.7,275.4z M1094.6,272.1c-0.3-0.4-0.8-0.7-1.4-1s-1.2-0.6-1.8-0.8
	c-0.6-0.2-1.4-0.4-2.2-0.6c-0.5-0.1-1-0.2-1.3-0.3c-0.3-0.1-0.7-0.2-1.1-0.3c-0.4-0.1-0.7-0.2-0.9-0.3c-0.2-0.1-0.4-0.2-0.7-0.4
	c-0.2-0.2-0.4-0.3-0.5-0.5s-0.2-0.4-0.3-0.6s-0.1-0.5-0.1-0.7c0-0.9,0.3-1.5,1-2c0.6-0.5,1.6-0.7,2.9-0.7c1.1,0,2.1,0.2,3.2,0.7
	c1,0.4,1.7,0.9,2.2,1.4l1.4-2.6c-2-1.5-4.2-2.2-6.7-2.2c-1,0-2,0.1-2.8,0.4c-0.9,0.3-1.6,0.6-2.3,1.1c-0.6,0.5-1.1,1.1-1.5,1.9
	s-0.6,1.6-0.6,2.6c0,0.8,0.1,1.4,0.4,2s0.6,1,1.1,1.4s1.1,0.8,1.8,1c0.7,0.3,1.5,0.6,2.6,0.8c0.7,0.2,1.2,0.3,1.6,0.4
	s0.8,0.2,1.3,0.4c0.5,0.2,0.8,0.3,1.1,0.5c0.3,0.2,0.5,0.3,0.8,0.6c0.2,0.2,0.4,0.5,0.5,0.7c0.1,0.3,0.1,0.6,0.1,0.9
	c0,0.8-0.3,1.4-1,1.9c-0.7,0.4-1.6,0.7-2.8,0.7c-1.4,0-2.7-0.3-4-0.8s-2.2-1.1-2.8-1.7l-1.4,2.7c1.1,0.9,2.4,1.5,3.8,2
	s2.9,0.7,4.4,0.7c0.8,0,1.6-0.1,2.3-0.2c0.7-0.1,1.4-0.3,2-0.6c0.6-0.3,1.1-0.7,1.6-1.1c0.4-0.4,0.8-1,1-1.6s0.4-1.3,0.4-2.1
	c0-0.7-0.1-1.3-0.3-1.9C1095.2,273,1095,272.5,1094.6,272.1z M1102.6,263.9h6.6v17h3.2v-17h6.6v-2.8h-16.3L1102.6,263.9
	L1102.6,263.9z M1140.7,271.2c0.7-1.1,1.1-2.3,1.1-3.6c0-0.8-0.2-1.6-0.5-2.3c-0.3-0.8-0.7-1.5-1.2-2.1s-1.2-1.1-1.9-1.5
	c-0.8-0.4-1.6-0.6-2.5-0.6h-8.6v19.7h3.1V274h4.6l4.3,6.9h3.5l-4.6-7.5C1139.1,273,1140,272.3,1140.7,271.2z M1135.7,271.2h-5.5
	v-7.4h5.3c0.8,0,1.6,0.4,2.2,1.1s0.9,1.6,0.9,2.6s-0.3,1.9-0.8,2.6C1137.2,270.9,1136.5,271.2,1135.7,271.2z M1164.6,271.1
	c0,0.7-0.1,1.4-0.2,2.1s-0.3,1.3-0.6,1.9c-0.3,0.6-0.6,1.1-1,1.6c-0.4,0.4-0.9,0.8-1.5,1.1c-0.6,0.3-1.3,0.4-2.2,0.4
	c-0.8,0-1.5-0.1-2.1-0.4s-1.1-0.6-1.5-1s-0.7-1-1-1.6s-0.5-1.3-0.6-1.9c-0.1-0.7-0.2-1.4-0.2-2.1v-10h-3.1v10c0,1.1,0.1,2.1,0.3,3
	c0.2,0.9,0.5,1.8,0.9,2.7c0.4,0.9,1,1.6,1.6,2.2s1.4,1.1,2.4,1.5s2.1,0.5,3.3,0.5c1.5,0,2.8-0.3,3.9-0.8s2-1.2,2.7-2.2
	s1.2-2,1.5-3.1c0.3-1.2,0.5-2.4,0.5-3.8v-10h-3.1L1164.6,271.1L1164.6,271.1z M1189.6,276.8c-0.6,0.5-1.2,0.9-1.9,1.1
	c-0.6,0.2-1.3,0.3-2,0.3c-1.2,0-2.3-0.3-3.3-1s-1.7-1.6-2.3-2.7c-0.5-1.1-0.8-2.3-0.8-3.6c0-0.7,0.1-1.4,0.3-2.1
	c0.2-0.7,0.4-1.3,0.8-1.9s0.8-1.2,1.3-1.6c0.5-0.5,1.1-0.8,1.8-1.1c0.7-0.3,1.4-0.4,2.2-0.4c0.5,0,1,0.1,1.5,0.2s0.9,0.3,1.4,0.5
	s0.9,0.6,1.3,1s0.7,0.9,1,1.5l2.4-1.6c-0.7-1.3-1.6-2.3-3-3.1c-1.3-0.8-2.8-1.2-4.6-1.2c-1.2,0-2.3,0.2-3.3,0.6s-1.9,0.9-2.7,1.5
	s-1.4,1.4-1.9,2.2c-0.5,0.8-1,1.7-1.2,2.7c-0.3,0.9-0.4,1.9-0.4,2.9c0,1.2,0.2,2.4,0.6,3.5c0.4,1.2,1,2.2,1.8,3.2
	c0.8,0.9,1.7,1.7,2.8,2.3c1.1,0.6,2.3,1,3.5,1.1c1,0.7,1.5,1.3,1.5,2.1c0,0.4-0.1,0.7-0.4,1c-0.3,0.2-0.7,0.3-1.2,0.3
	c-0.6,0-1.3-0.2-2-0.6l-0.8,1.6c1,0.5,2.1,0.8,3.3,0.8c1,0,1.7-0.2,2.2-0.7s0.8-1.1,0.8-1.9c0-1-0.5-1.9-1.4-2.7
	c1.5-0.2,2.8-0.7,4.1-1.5c1.2-0.8,2.1-1.8,2.6-3l-2.6-1.5C1190.7,275.8,1190.2,276.3,1189.6,276.8z M1207.4,261.1l-7.7,19.7h3.3
	l2.1-5.4h7.6l2.1,5.4h3.3l-7.7-19.7H1207.4z M1205.6,273.2l3.3-8.6l3.2,8.6H1205.6z M1205.8,258.5c0-0.1,0.1-0.3,0.2-0.4
	c0.1-0.2,0.2-0.3,0.4-0.4c0.2-0.1,0.4-0.2,0.7-0.2c0.3,0,0.7,0.1,1,0.3c0.4,0.2,0.8,0.4,1.2,0.6s0.9,0.3,1.4,0.3s0.9-0.1,1.3-0.3
	c0.4-0.2,0.7-0.4,0.9-0.7c0.2-0.3,0.4-0.6,0.6-0.9s0.3-0.6,0.3-0.8c0.1-0.2,0.1-0.4,0.1-0.5h-1.8c0,0,0,0.1,0,0.2s-0.1,0.2-0.1,0.3
	c-0.1,0.1-0.1,0.3-0.3,0.4c-0.1,0.1-0.3,0.2-0.4,0.3c-0.2,0.1-0.4,0.1-0.7,0.1c-0.4,0-0.7-0.1-1.1-0.3c-0.4-0.2-0.8-0.4-1.2-0.6
	c-0.4-0.2-0.9-0.3-1.3-0.3s-0.8,0.1-1.2,0.3c-0.4,0.2-0.6,0.4-0.9,0.7c-0.2,0.3-0.4,0.6-0.5,0.9c-0.2,0.3-0.3,0.6-0.3,0.8
	c-0.1,0.2-0.1,0.4-0.1,0.6h1.7C1205.7,258.8,1205.7,258.6,1205.8,258.5z M1242.3,267.4c-0.5-1.2-1.1-2.3-1.9-3.2
	c-0.8-0.9-1.8-1.7-3-2.3c-1.2-0.6-2.5-0.9-3.8-0.9s-2.6,0.3-3.8,0.8c-1.2,0.6-2.2,1.3-3,2.2c-0.8,0.9-1.5,2-2,3.2s-0.7,2.5-0.7,3.8
	c0,1,0.1,2,0.4,3s0.7,1.9,1.3,2.7c0.6,0.8,1.2,1.6,2,2.2s1.6,1.1,2.6,1.5s2,0.6,3.2,0.6c1.3,0,2.6-0.3,3.8-0.8
	c1.2-0.5,2.2-1.3,3-2.2c0.8-0.9,1.5-2,2-3.2s0.7-2.5,0.7-3.8C1243,269.8,1242.8,268.6,1242.3,267.4z M1239.4,273.6
	c-0.3,0.9-0.7,1.6-1.2,2.3s-1.2,1.2-2,1.6s-1.7,0.6-2.6,0.6c-1.2,0-2.4-0.3-3.3-1c-1-0.7-1.7-1.6-2.2-2.7s-0.8-2.3-0.8-3.5
	c0-0.9,0.1-1.8,0.4-2.6c0.3-0.9,0.7-1.6,1.2-2.3c0.5-0.7,1.2-1.2,2-1.6s1.7-0.6,2.7-0.6c0.9,0,1.8,0.2,2.6,0.6s1.5,0.9,2,1.6
	s0.9,1.4,1.2,2.3c0.3,0.9,0.5,1.8,0.5,2.7C1239.8,271.9,1239.7,272.8,1239.4,273.6z"/>
<path d="M805.5,62h6.8c-0.6,1.6-2.3,3-5,3c-3.8,0-6.4-2.7-6.4-6.5s2.6-6.7,6.3-6.7c2.4,0,4.4,1.1,5.5,3.1l5.8-3.4
	c-2.3-3.9-6.6-6.2-11.2-6.2c-7.3,0-13.2,5.8-13.2,13.2s5.8,13.1,13.2,13.1c6.9,0,12.2-5.1,12.2-12.9v-2h-14L805.5,62 M842,45.2
	c-7.4,0-13.2,5.8-13.2,13.2c0,7.3,5.8,13.2,13.2,13.2c7.3,0,13.1-5.8,13.1-13.2S849.3,45.2,842,45.2z M842,64.6c-3.4,0-6-2.7-6-6.2
	s2.6-6.2,6-6.2c3.3,0,5.8,2.7,5.8,6.2S845.3,64.6,842,64.6z M874.6,61.3l-5.8-15.5h-7.3l9.7,25.1h6.8l9.8-25.1h-7.3L874.6,61.3z
	 M896.6,70.9h18v-6.1h-11.2v-3.7h7.4v-5.4h-7.4V52h11.2v-6.1h-18V70.9z M946,54c0-4.7-3.8-8.2-8.7-8.2h-12.2v25.1h6.7v-8.7h2.8
	l5,8.7h7.5l-5.6-9.7C944.2,59.8,946,57.2,946,54z M936.5,56.5h-4.7v-4.7h4.7c1.6,0,2.6,1.1,2.6,2.4
	C939.1,55.4,938.1,56.5,936.5,56.5z M972.3,59.1l-10.2-13.3h-5.7v25.1h6.7V57.7l10.1,13.2h5.7V45.8h-6.7L972.3,59.1
	C972.2,59.1,972.3,59.1,972.3,59.1z M1002,45.2c-7.4,0-13.2,5.8-13.2,13.2c0,7.3,5.8,13.2,13.2,13.2c7.3,0,13.1-5.8,13.1-13.2
	S1009.2,45.2,1002,45.2z M1002,64.6c-3.4,0-6-2.7-6-6.2s2.6-6.2,6-6.2c3.3,0,5.8,2.7,5.8,6.2S1005.2,64.6,1002,64.6z M1041.5,70.9
	h6.8v-9.2h7.4V56h-7.4v-4.3h11.2v-6h-18V70.9z M1069.6,70.9h18v-6.1h-11.2v-3.7h7.4v-5.4h-7.4V52h11.2v-6.1h-18V70.9L1069.6,70.9z
	 M1108.3,45.8h-10.2v25.1h10.2c7.7,0,13.4-5.4,13.4-12.6C1121.8,51.1,1116,45.8,1108.3,45.8z M1108,64.4h-3.1V52.3h3.1
	c4,0,6.7,2.4,6.7,6C1114.7,62,1112,64.4,1108,64.4z M1131.5,70.9h18v-6.1h-11.2v-3.7h7.4v-5.4h-7.4V52h11.2v-6.1h-18V70.9z
	 M1180.8,54c0-4.7-3.8-8.2-8.7-8.2h-12.2v25.1h6.7v-8.7h2.8l5,8.7h7.5l-5.6-9.7C1179.1,59.8,1180.8,57.2,1180.8,54z M1171.4,56.5
	h-4.7v-4.7h4.7c1.6,0,2.6,1.1,2.6,2.4C1174,55.4,1173,56.5,1171.4,56.5z M1199.9,45.8l-10.5,25.1h7.1l1.7-4.3h9.9l1.8,4.3h7
	l-10.6-25.1C1206.3,45.8,1199.9,45.8,1199.9,45.8z M1200.7,60.6l2.5-6.2l2.5,6.2H1200.7z M1232.9,64.5V45.8h-7.1v25.1h17.7v-6.5
	L1232.9,64.5L1232.9,64.5z"/>
<rect x="1197.7" y="98.2" class="st1" width="45.8" height="87.9"/>
<rect x="1197.7" y="186.1" class="st2" width="45.8" height="44.5"/>
<rect x="1144.2" y="98.2" class="st3" width="45.8" height="132.4"/>
<rect x="1043.7" y="157" class="st4" width="43.3" height="73.6"/>
<rect x="1087" y="98.2" class="st5" width="49.5" height="48.1"/>
<path class="st1" d="M1102.1,146.3H1087v84.2h15.1c23.3,0,42.1-18.9,42.1-42.1S1125.4,146.3,1102.1,146.3"/>
<path class="st3" d="M1073.1,98.2c-16.2,0-29.4,13.2-29.4,29.4s13.2,29.4,29.4,29.4h13.9V98.2H1073.1"/>
<path class="st5" d="M793.5,151.3h10.6c14.7,0,26.6-11.9,26.6-26.6s-11.9-26.6-26.6-26.6h-10.6V151.3"/>
<rect x="747.7" y="98.2" class="st3" width="45.8" height="53.1"/>
<rect x="747.7" y="151.3" class="st1" width="45.8" height="79.3"/>
<path class="st4" d="M808.5,151.3h-15.1v79.3h15.1c21.9,0,39.6-17.7,39.6-39.6C848.2,169,830.4,151.3,808.5,151.3"/>
<polyline class="st3" points="900.1,178.1 848.2,178.1 848.2,230.6 934.2,230.6 900.1,178.1 "/>
<polyline class="st1" points="900.1,178.1 848.2,98.2 848.2,178.1 900.1,178.1 "/>
<path class="st5" d="M900.1,98.2h-52l52,80c22.1,0,40-17.9,40-40S922.2,98.2,900.1,98.2"/>
<polyline class="st1" points="987.9,98.2 909.1,230.6 1066.6,230.6 987.9,98.2 "/>
<polyline class="st2" points="1043.7,192 1043.7,230.6 1066.6,230.6 1043.7,192 "/>
<polyline class="st2" points="909.1,230.6 934.2,230.6 921.1,210.4 909.1,230.6 "/>
<path class="st5" d="M1036.2,230.6c0-26.7-21.6-48.3-48.3-48.3c-26.7,0-48.3,21.6-48.3,48.3H1036.2"/>
<rect x="1243.5" y="186.1" class="st5" width="45.8" height="44.5"/>
<rect x="-0.1" y="0.2" class="st1" width="678.8" height="326.8"/>
<g>
	<g>
		<path class="st0" d="M188.7,126.1V108l-7.5,13.7h-2.4l-7.5-13.7v18.1h-4v-25.4h4.3l8.4,15.5l8.4-15.5h4.3v25.4H188.7z"/>
		<path class="st0" d="M205.6,126.1v-25.4h4v25.4H205.6z"/>
		<path class="st0" d="M226.4,108.2v18h-4v-25.5h3.3l14.4,18.4v-18.3h4.1v25.4h-3.6L226.4,108.2z"/>
		<path class="st0" d="M257,126.1v-25.4h4v25.4H257z"/>
		<path class="st0" d="M288.9,106.7c-0.6-0.6-1.5-1.2-2.8-1.7c-1.3-0.6-2.7-0.9-4.1-0.9c-1.6,0-2.9,0.3-3.7,0.9
			c-0.9,0.6-1.2,1.5-1.2,2.6c0,0.4,0,0.7,0.1,0.9c0.1,0.3,0.2,0.6,0.4,0.8c0.2,0.2,0.4,0.4,0.7,0.7c0.3,0.2,0.6,0.4,0.9,0.5
			s0.7,0.3,1.1,0.5c0.5,0.2,0.9,0.3,1.4,0.4s1,0.3,1.7,0.5c1.1,0.3,2.1,0.6,2.8,0.8c0.8,0.3,1.5,0.6,2.3,1s1.3,0.9,1.8,1.3
			c0.5,0.5,0.8,1.1,1,1.8c0.3,0.8,0.4,1.5,0.4,2.5s-0.2,1.9-0.5,2.7c-0.3,0.9-0.8,1.5-1.3,2.1c-0.6,0.6-1.2,1-2,1.4
			s-1.6,0.7-2.6,0.9c-0.9,0.2-1.9,0.3-2.9,0.3c-1.9,0-3.8-0.3-5.6-0.9s-3.4-1.4-4.8-2.6l1.8-3.4c0.8,0.8,1.9,1.5,3.6,2.2
			s3.4,1,5.1,1c1.6,0,2.8-0.3,3.7-0.9s1.3-1.3,1.3-2.4c0-0.4-0.1-0.8-0.2-1.1c-0.1-0.4-0.4-0.7-0.7-0.9s-0.7-0.5-0.9-0.7
			c-0.4-0.2-0.8-0.4-1.4-0.6c-0.7-0.2-1.1-0.4-1.7-0.6c-0.5-0.1-1.2-0.3-2.1-0.6c-1.3-0.4-2.5-0.7-3.3-1s-1.6-0.8-2.3-1.3
			c-0.7-0.6-1.1-1.1-1.4-1.9c-0.3-0.8-0.5-1.6-0.5-2.6c0-1.2,0.2-2.4,0.7-3.3s1.1-1.8,2-2.5s1.8-1.1,2.9-1.4
			c1.1-0.4,2.4-0.5,3.7-0.5c3.1,0,6,0.9,8.6,2.8L288.9,106.7z"/>
		<path class="st0" d="M321.5,104.3h-8.4v21.9H309v-21.9h-8.4v-3.5h20.9V104.3L321.5,104.3z"/>
		<path class="st0" d="M349.5,122.6v3.5h-17.4v-25.4h17.1v3.5h-13.1v7.2h11.4v3.3h-11.4v7.8L349.5,122.6L349.5,122.6z M342.4,98.2
			l-2.6-0.8l2.1-3.9h3.8L342.4,98.2z"/>
		<path class="st0" d="M360.7,126.1v-25.4h11.1c1.1,0,2.2,0.3,3.1,0.8c1,0.5,1.8,1.1,2.5,1.9s1.2,1.7,1.6,2.7c0.4,0.9,0.6,2,0.6,3
			c0,1.7-0.5,3.3-1.3,4.6c-0.9,1.4-2.1,2.4-3.6,2.8l6,9.7h-4.5l-5.5-8.8h-5.9v8.8L360.7,126.1L360.7,126.1z M364.7,113.8h7
			c1.1,0,2-0.5,2.7-1.4c0.8-0.9,1-2.1,1-3.4s-0.4-2.4-1.2-3.3c-0.9-0.9-1.8-1.4-2.8-1.4h-6.8L364.7,113.8L364.7,113.8z"/>
		<path class="st0" d="M391.5,126.1v-25.4h4v25.4H391.5z"/>
		<path class="st0" d="M406.8,113.4c0-1.7,0.3-3.3,0.9-4.8c0.7-1.6,1.5-2.9,2.6-4.1c1-1.1,2.4-2.1,3.9-2.8c1.5-0.8,3.1-1,4.8-1
			c1.8,0,3.4,0.4,4.9,1.1c1.5,0.8,2.8,1.7,3.9,2.9c1,1.2,1.8,2.6,2.5,4.2c0.6,1.5,0.9,3.1,0.9,4.7c0,1.7-0.3,3.3-0.9,4.8
			c-0.7,1.5-1.4,2.9-2.6,4.1c-1,1.1-2.4,2.1-3.9,2.8c-1.5,0.7-3.1,1-4.8,1c-1.4,0-2.7-0.2-4.1-0.7c-1.3-0.5-2.4-1.1-3.4-2
			s-1.8-1.8-2.6-2.8s-1.2-2.3-1.6-3.5C407,116,406.8,114.7,406.8,113.4z M418.9,122.7c1.2,0,2.4-0.3,3.4-0.8c1-0.6,1.9-1.2,2.6-2.1
			c0.7-0.9,1.1-1.9,1.5-2.9c0.4-1.1,0.6-2.2,0.6-3.4c0-1.2-0.2-2.4-0.6-3.5c-0.4-1.1-0.9-2.1-1.6-2.9c-0.7-0.9-1.5-1.5-2.6-2.1
			c-1-0.5-2.1-0.8-3.3-0.8s-2.4,0.3-3.4,0.8s-1.9,1.2-2.6,2.1c-0.7,0.9-1.2,1.9-1.6,2.9c-0.4,1.1-0.6,2.2-0.6,3.4
			c0,1.6,0.3,3.1,0.9,4.5c0.7,1.4,1.6,2.6,2.8,3.4C415.9,122.2,417.3,122.7,418.9,122.7z"/>
		<path class="st0" d="M458.4,126.1v-25.4h9c2,0,3.8,0.3,5.4,0.9c1.6,0.7,2.9,1.6,3.9,2.7c0.9,1.1,1.8,2.5,2.3,4
			c0.6,1.5,0.8,3.1,0.8,4.9c0,3.9-1.1,6.9-3.4,9.3s-5.2,3.5-9,3.5L458.4,126.1L458.4,126.1z M467.4,104.3h-5v18.3h5
			c1.7,0,3.2-0.4,4.5-1.2c1.2-0.9,2.2-1.9,2.8-3.3c0.7-1.4,0.9-2.9,0.9-4.7c0-2.7-0.8-4.9-2.2-6.6
			C472,105.2,469.9,104.3,467.4,104.3z"/>
		<path class="st0" d="M497.6,100.7h3.8l9.8,25.4h-4.3l-2.6-6.9h-9.7l-2.6,6.9h-4.3L497.6,100.7z M503.5,116.2l-4.1-11.2l-4.2,11.2
			H503.5z"/>
	</g>
	<g>
		<path class="st0" d="M92.1,150.5c2.4,0,4.4,0.5,6.3,1.5c1.8,1,3.2,2.4,4.1,4.1l-5.3,3.8c-0.2-0.6-0.6-1.1-0.9-1.5
			c-0.4-0.4-0.9-0.8-1.3-0.9s-0.9-0.4-1.4-0.5s-0.9-0.2-1.5-0.2c-0.9,0-1.8,0.2-2.6,0.6c-0.8,0.4-1.3,0.9-1.8,1.5
			c-0.5,0.7-0.8,1.3-1,2.1s-0.4,1.6-0.4,2.4c0,1.9,0.6,3.4,1.6,4.7s2.5,2,4.3,2c0.7,0,1.3-0.1,2-0.3s1.2-0.6,1.8-1s1-1,1.2-1.8
			l5.7,3.4c-0.5,1.2-1.3,2.3-2.5,3.2s-2.6,1.6-4,2.1s-2.9,0.7-4.4,0.7c-1.8,0-3.5-0.4-5.1-1.1c-1.6-0.8-2.9-1.7-4.1-2.9
			c-1.1-1.2-2-2.7-2.6-4.2c-0.7-1.6-0.9-3.2-0.9-4.8c0-1.5,0.3-3.1,0.9-4.5c0.6-1.5,1.4-2.8,2.6-4.1c1-1.2,2.5-2.2,4.1-2.9
			C88.3,150.9,90.1,150.5,92.1,150.5z"/>
		<path class="st0" d="M112.5,176v-25.4h7V176H112.5z"/>
		<path class="st0" d="M149,169.9v6.1h-18.1v-25.4h17.8v6.1h-10.8v3.6h9.3v5.7h-9.3v4L149,169.9L149,169.9z M133.6,147.5l4.1-4.2
			h4.8l4.1,4.2l-3.4,1.5l-3-2.3l-3,2.3L133.6,147.5z"/>
		<path class="st0" d="M166.3,163.5V176h-7v-25.4h5.4l10.2,12.9v-12.9h7V176h-5.5L166.3,163.5z"/>
		<path class="st0" d="M205,150.5c2.4,0,4.4,0.5,6.3,1.5c1.8,1,3.2,2.4,4.1,4.1l-5.3,3.8c-0.2-0.6-0.6-1.1-0.9-1.5
			c-0.4-0.4-0.9-0.8-1.3-0.9c-0.5-0.2-0.9-0.4-1.4-0.5s-0.9-0.2-1.5-0.2c-0.9,0-1.8,0.2-2.6,0.6s-1.3,0.9-1.8,1.5
			c-0.5,0.7-0.8,1.3-1,2.1s-0.4,1.6-0.4,2.4c0,1.9,0.6,3.4,1.6,4.7s2.5,2,4.3,2c0.7,0,1.3-0.1,2-0.3s1.2-0.6,1.8-1s1-1,1.2-1.8
			l5.7,3.4c-0.5,1.2-1.3,2.3-2.5,3.2s-2.6,1.6-4,2.1s-2.9,0.7-4.4,0.7c-1.8,0-3.5-0.4-5.1-1.1s-2.9-1.7-4.1-2.9
			c-1.1-1.2-2-2.7-2.6-4.2c-0.7-1.6-0.9-3.2-0.9-4.8c0-1.5,0.3-3.1,0.9-4.5c0.6-1.5,1.4-2.8,2.6-4.1c1-1.2,2.5-2.2,4.1-2.9
			C201.2,150.9,203.1,150.5,205,150.5z"/>
		<path class="st0" d="M225.4,176v-25.4h7V176H225.4z"/>
		<path class="st0" d="M249.7,150.6h7.8l8,25.4h-7.1l-1.5-5h-6.8l-1.5,5h-7.1L249.7,150.6z M255.9,166.4l-2.3-8.9l-2.4,8.9H255.9z"
			/>
		<path class="st0" d="M275.2,181.6l1.3-5.6h-2.1v-6.6h5.6v6.6l-1.9,5.6H275.2z"/>
		<path class="st0" d="M325.1,156.6h-7.3V176h-7v-19.3h-7.3v-6.1h21.6V156.6L325.1,156.6z"/>
		<path class="st0" d="M352.9,169.9v6.1h-18.1v-25.4h17.8v6.1h-10.8v3.6h9.3v5.7h-9.3v4L352.9,169.9L352.9,169.9z"/>
		<path class="st0" d="M374.4,150.5c2.4,0,4.4,0.5,6.3,1.5c1.8,1,3.2,2.4,4.1,4.1l-5.3,3.8c-0.2-0.6-0.6-1.1-0.9-1.5
			c-0.4-0.4-0.9-0.8-1.3-0.9c-0.5-0.2-0.9-0.4-1.4-0.5s-0.9-0.2-1.5-0.2c-0.9,0-1.8,0.2-2.6,0.6c-0.8,0.4-1.3,0.9-1.8,1.5
			c-0.5,0.7-0.8,1.3-1,2.1s-0.4,1.6-0.4,2.4c0,1.9,0.6,3.4,1.6,4.7s2.5,2,4.3,2c0.7,0,1.3-0.1,2-0.3s1.2-0.6,1.8-1s1-1,1.2-1.8
			l5.7,3.4c-0.5,1.2-1.3,2.3-2.5,3.2s-2.6,1.6-4,2.1s-2.9,0.7-4.4,0.7c-1.8,0-3.5-0.4-5.1-1.1c-1.6-0.8-2.9-1.7-4.1-2.9
			c-1.1-1.2-2-2.7-2.6-4.2c-0.7-1.6-0.9-3.2-0.9-4.8c0-1.5,0.3-3.1,0.9-4.5c0.6-1.5,1.4-2.8,2.6-4.1c1-1.2,2.5-2.2,4.1-2.9
			C370.7,150.9,372.5,150.5,374.4,150.5z"/>
		<path class="st0" d="M401.7,163.5V176h-7v-25.4h5.4l10.2,12.9v-12.9h7V176h-5.6L401.7,163.5z"/>
		<path class="st0" d="M427.4,163.3c0-1.7,0.3-3.3,0.9-4.8c0.7-1.5,1.5-2.9,2.6-4.1c1.1-1.1,2.5-2.1,4.2-2.8c1.7-0.8,3.3-1,5.2-1
			s3.6,0.4,5.2,1.1c1.6,0.8,3,1.7,4.1,2.9c1,1.2,2,2.6,2.6,4.2c0.7,1.5,0.9,3.1,0.9,4.7s-0.3,3.2-0.9,4.8c-0.7,1.5-1.5,2.9-2.6,4.1
			c-1.1,1.1-2.5,2.1-4.2,2.8c-1.6,0.8-3.4,1-5.2,1c-1.9,0-3.6-0.4-5.2-1.1c-1.6-0.8-3-1.7-4.1-2.9s-2-2.6-2.6-4.2
			C427.7,166.5,427.4,164.9,427.4,163.3z M440.3,170c0.9,0,1.8-0.2,2.6-0.6c0.8-0.4,1.3-0.9,1.8-1.6c0.5-0.7,0.8-1.3,1-2.2
			c0.2-0.8,0.4-1.6,0.4-2.5c0-1.2-0.2-2.3-0.7-3.2c-0.4-0.9-1-1.8-2-2.5c-0.9-0.7-2-0.9-3.2-0.9c-0.9,0-1.8,0.2-2.6,0.6
			s-1.3,0.9-1.8,1.5c-0.5,0.7-0.8,1.3-1,2.2c-0.2,0.8-0.4,1.6-0.4,2.5s0.1,1.7,0.4,2.5c0.3,0.8,0.6,1.5,1,2.1c0.5,0.7,1,1.1,1.8,1.5
			C438.4,169.7,439.4,170,440.3,170z"/>
		<path class="st0" d="M463.3,176v-25.4h7v19.3h11.5v6.1L463.3,176L463.3,176z"/>
		<path class="st0" d="M489.6,163.3c0-1.7,0.3-3.3,0.9-4.8c0.7-1.5,1.5-2.9,2.7-4.1c1.1-1.1,2.5-2.1,4.2-2.8c1.7-0.8,3.3-1,5.2-1
			s3.6,0.4,5.2,1.1c1.6,0.8,3,1.7,4.1,2.9c1,1.2,2,2.6,2.6,4.2c0.7,1.5,0.9,3.1,0.9,4.7s-0.3,3.2-0.9,4.8c-0.7,1.5-1.5,2.9-2.7,4.1
			c-1.1,1.1-2.5,2.1-4.2,2.8c-1.6,0.8-3.4,1-5.2,1c-1.9,0-3.6-0.4-5.2-1.1c-1.6-0.8-3-1.7-4.1-2.9s-2-2.6-2.6-4.2
			C490,166.5,489.6,164.9,489.6,163.3z M502.6,170c0.9,0,1.8-0.2,2.6-0.6c0.8-0.4,1.3-0.9,1.8-1.6c0.5-0.7,0.8-1.3,1-2.2
			c0.2-0.8,0.4-1.6,0.4-2.5c0-1.2-0.2-2.3-0.7-3.2c-0.4-0.9-1-1.8-2-2.5c-0.9-0.7-2-0.9-3.2-0.9c-0.9,0-1.8,0.2-2.6,0.6
			c-0.8,0.4-1.3,0.9-1.8,1.5c-0.5,0.7-0.8,1.3-1,2.2c-0.2,0.8-0.4,1.6-0.4,2.5s0.1,1.7,0.4,2.5c0.3,0.8,0.6,1.5,1,2.1
			c0.5,0.7,1,1.1,1.8,1.5C500.7,169.7,501.6,170,502.6,170z"/>
		<path class="st0" d="M538.1,162.5h10.4V176h-5.8v-2c-1.8,1.5-3.9,2.3-6.2,2.3c-1.7,0-3.2-0.3-4.7-0.9c-1.5-0.6-2.8-1.4-4-2.6
			c-1.1-1-2-2.5-2.6-4.2s-1-3.5-1-5.5c0-1.8,0.4-3.4,1-5c0.7-1.5,1.6-2.9,2.7-4.1c1.1-1.1,2.6-2,4.2-2.7c1.6-0.7,3.3-0.9,5.1-0.9
			c2.3,0,4.4,0.5,6.2,1.5c1.9,0.9,3.2,2.4,4.2,4.1l-5.2,4c-0.5-1-1.2-1.8-2.3-2.4s-2.1-0.9-3.2-0.9c-1.6,0-3,0.7-4.1,1.9
			c-1,1.2-1.6,2.8-1.6,4.8s0.6,3.6,1.6,4.8s2.5,1.8,4.3,1.8c2,0,3.8-0.9,5.4-2.5h-4.4L538.1,162.5L538.1,162.5z"/>
		<path class="st0" d="M559.1,176v-25.4h7V176H559.1z"/>
		<path class="st0" d="M583.4,150.6h7.8l8,25.4h-7.1l-1.5-5H584l-1.5,5h-7.1L583.4,150.6z M589.6,166.4l-2.3-8.9l-2.4,8.9H589.6z"/>
	</g>
	<g>
		<path class="st0" d="M220.1,219.8v6.1H202v-25.4h17.8v6.1H209v3.6h9.3v5.7H209v4L220.1,219.8L220.1,219.8z"/>
		<path class="st0" d="M245.6,225.8v-25.4h7v25.4H245.6z"/>
		<path class="st0" d="M271.1,213.3v12.5h-7v-25.4h5.4l10.2,12.9v-12.9h7v25.4h-5.5L271.1,213.3z"/>
		<path class="st0" d="M296.8,213.1c0-1.7,0.3-3.3,0.9-4.8c0.7-1.5,1.5-2.9,2.7-4.1c1.1-1.1,2.5-2.1,4.2-2.8c1.6-0.7,3.3-1,5.2-1
			s3.6,0.4,5.2,1.1c1.6,0.8,3,1.7,4.1,2.9c1,1.2,2,2.6,2.6,4.2c0.7,1.5,0.9,3.1,0.9,4.7s-0.3,3.2-0.9,4.8c-0.7,1.5-1.5,2.9-2.7,4.1
			c-1.1,1.1-2.5,2.1-4.2,2.8c-1.6,0.8-3.4,1-5.2,1c-1.9,0-3.6-0.4-5.2-1.1s-3-1.7-4.1-2.9s-2-2.6-2.6-4.2
			C297.1,216.4,296.8,214.8,296.8,213.1z M309.7,219.9c0.9,0,1.8-0.2,2.6-0.6s1.3-0.9,1.8-1.6c0.5-0.7,0.8-1.3,1-2.2
			c0.2-0.8,0.4-1.6,0.4-2.5c0-1.2-0.2-2.3-0.7-3.2c-0.4-0.9-1-1.8-2-2.5c-0.9-0.7-2-0.9-3.2-0.9c-0.9,0-1.8,0.2-2.6,0.6
			c-0.8,0.4-1.3,0.9-1.8,1.5c-0.5,0.7-0.8,1.3-1,2.2c-0.2,0.8-0.4,1.6-0.4,2.5s0.1,1.7,0.4,2.5c0.3,0.8,0.6,1.5,1,2.1
			c0.5,0.7,1,1.1,1.8,1.5C307.8,219.6,308.8,219.9,309.7,219.9z"/>
		<path class="st0" d="M336.6,200.5l4.9,17.3l4.9-17.3h7.3l-8.8,25.4H338l-8.9-25.4H336.6z"/>
		<path class="st0" d="M366.7,200.5h7.8l8,25.4h-7.1l-1.5-5h-6.8l-1.5,5h-7.1L366.7,200.5z M372.8,216.3l-2.3-8.9l-2.4,8.9H372.8z"
			/>
		<path class="st0" d="M413,220.2c-0.7,1.5-1.7,2.7-3.4,3.8c-1.6,1-3.5,1.7-5.5,2c1.1,1.1,1.7,2.5,1.7,3.8c0,1.1-0.4,2.1-1.1,2.8
			c-0.8,0.8-1.8,1.1-3.2,1.1s-2.9-0.4-4.4-1.2l1.6-3.5c0.6,0.5,1.1,0.7,1.7,0.7c0.5,0,0.8-0.1,1-0.4c0.3-0.3,0.4-0.6,0.4-1
			c0-0.8-0.5-1.5-1.3-2.4c-1.6-0.2-3.1-0.7-4.5-1.5c-1.4-0.9-2.6-1.8-3.6-3s-1.7-2.6-2.3-4s-0.9-2.9-0.9-4.4s0.3-3.1,0.9-4.5
			c0.6-1.4,1.4-2.8,2.6-4.1c1-1.2,2.5-2.2,4.1-2.9c1.7-0.8,3.5-1.1,5.5-1.1c2.4,0,4.4,0.5,6.3,1.5c1.8,1,3.2,2.4,4.1,4.1l-5.3,3.8
			c-0.2-0.6-0.6-1.1-0.9-1.5c-0.4-0.4-0.9-0.8-1.3-0.9s-0.9-0.4-1.4-0.5s-0.9-0.2-1.5-0.2c-0.9,0-1.8,0.2-2.6,0.6
			c-0.8,0.4-1.3,0.9-1.8,1.5c-0.5,0.7-0.8,1.3-1,2.1s-0.4,1.6-0.4,2.4c0,1.9,0.6,3.4,1.6,4.7s2.5,2,4.3,2c0.7,0,1.3-0.1,2-0.3
			s1.2-0.6,1.8-1s1-1,1.2-1.8L413,220.2z"/>
		<path class="st0" d="M428.1,200.5h7.8l8,25.4h-7.1l-1.5-5h-6.8l-1.5,5h-7.1L428.1,200.5z M429.6,197.1c-0.3,0-0.6,0.1-0.8,0.2
			c-0.2,0.1-0.4,0.3-0.5,0.4c-0.1,0.2-0.2,0.3-0.3,0.5s-0.1,0.4-0.1,0.4c0,0.1,0,0.2,0,0.2h-3.6c0-0.3,0.1-0.7,0.2-1
			c0.1-0.5,0.3-0.9,0.6-1.4c0.3-0.6,0.6-1,0.9-1.5s0.9-0.9,1.4-1.1c0.6-0.3,1.2-0.5,1.9-0.5c0.6,0,1,0.1,1.5,0.3s0.9,0.4,1.1,0.7
			c0.3,0.2,0.7,0.5,1,0.7c0.4,0.2,0.8,0.3,1.1,0.3s0.6-0.1,0.8-0.2c0.2-0.1,0.4-0.3,0.6-0.5c0.1-0.2,0.2-0.4,0.3-0.6
			c0.1-0.2,0.1-0.4,0.2-0.5c0-0.1,0-0.2,0-0.2h3.6c0,0.2-0.1,0.5-0.2,0.9c-0.1,0.4-0.3,0.9-0.6,1.4c-0.3,0.6-0.6,1-0.9,1.5
			c-0.4,0.5-0.9,0.9-1.4,1.2c-0.6,0.4-1.2,0.5-1.9,0.5c-0.5,0-0.9-0.1-1.4-0.3s-0.9-0.4-1.1-0.6c-0.3-0.2-0.7-0.4-1-0.6
			C430.4,197.2,430,197.1,429.6,197.1z M434.3,216.3l-2.3-8.9l-2.4,8.9H434.3z"/>
		<path class="st0" d="M450.8,213.1c0-1.7,0.3-3.3,0.9-4.8c0.7-1.5,1.5-2.9,2.7-4.1c1.1-1.1,2.5-2.1,4.2-2.8c1.6-0.7,3.3-1,5.2-1
			s3.6,0.4,5.2,1.1c1.6,0.8,3,1.7,4.1,2.9c1,1.2,2,2.6,2.6,4.2c0.7,1.5,0.9,3.1,0.9,4.7s-0.3,3.2-0.9,4.8c-0.7,1.5-1.5,2.9-2.6,4.1
			c-1.1,1.1-2.5,2.1-4.2,2.8c-1.6,0.8-3.4,1-5.2,1c-1.9,0-3.6-0.4-5.2-1.1c-1.6-0.8-3-1.7-4.1-2.9s-2-2.6-2.6-4.2
			C451.1,216.4,450.8,214.8,450.8,213.1z M463.7,219.9c0.9,0,1.8-0.2,2.6-0.6c0.8-0.4,1.3-0.9,1.8-1.6c0.5-0.7,0.8-1.3,1-2.2
			c0.2-0.8,0.4-1.6,0.4-2.5c0-1.2-0.2-2.3-0.7-3.2c-0.4-0.9-1-1.8-2-2.5c-0.9-0.7-2-0.9-3.2-0.9c-0.9,0-1.8,0.2-2.6,0.6
			c-0.8,0.4-1.3,0.9-1.8,1.5c-0.5,0.7-0.8,1.3-1,2.2c-0.2,0.8-0.4,1.6-0.4,2.5s0.1,1.7,0.4,2.5c0.3,0.8,0.6,1.5,1,2.1
			c0.5,0.7,1,1.1,1.8,1.5C461.8,219.6,462.7,219.9,463.7,219.9z"/>
	</g>
</g>
</svg>
