<?xml version="1.0" encoding="utf-8"?>
<!-- Generator: Adobe Illustrator 27.1.1, SVG Export Plug-In . SVG Version: 6.00 Build 0)  -->
<svg version="1.1"
	 id="svg150" xmlns:inkscape="http://www.inkscape.org/namespaces/inkscape" xmlns:sodipodi="http://sodipodi.sourceforge.net/DTD/sodipodi-0.dtd" xmlns:dc="http://purl.org/dc/elements/1.1/" xmlns:cc="http://creativecommons.org/ns#" xmlns:svg="http://www.w3.org/2000/svg" xmlns:rdf="http://www.w3.org/1999/02/22-rdf-syntax-ns#"
	 xmlns="http://www.w3.org/2000/svg" xmlns:xlink="http://www.w3.org/1999/xlink" x="0px" y="0px" viewBox="0 0 1292.5 327.3"
	 style="enable-background:new 0 0 1292.5 327.3;" xml:space="preserve">
<style type="text/css">
	.st0{fill:#FFFFFF;}
	.st1{fill:#FFDA00;}
	.st2{fill:#183EFF;}
	.st3{fill:#4E4E4E;}
	.st4{fill:#00D000;}
	.st5{fill:#FF0000;}
</style>
<sodipodi:namedview  bordercolor="#666666" borderopacity="1" gridtolerance="10" guidetolerance="10" id="namedview152" inkscape:current-layer="svg150" inkscape:cx="226.46719" inkscape:cy="449.92703" inkscape:pageopacity="0" inkscape:pageshadow="2" inkscape:window-height="1017" inkscape:window-maximized="1" inkscape:window-width="1920" inkscape:window-x="-8" inkscape:window-y="-8" inkscape:zoom="0.89359596" objecttolerance="10" pagecolor="#ffffff" showgrid="false" units="px">
	</sodipodi:namedview>
<g>
	<path class="st0" d="M743,271.4c0,0.7-0.1,1.4-0.2,2.1c-0.1,0.7-0.3,1.3-0.5,1.9c-0.3,0.6-0.6,1.1-1,1.6c-0.4,0.4-0.9,0.8-1.5,1.1
		c-0.6,0.3-1.3,0.4-2.2,0.4c-0.8,0-1.5-0.1-2.1-0.4s-1.1-0.6-1.5-1s-0.7-1-1-1.6s-0.5-1.3-0.6-1.9c-0.1-0.7-0.2-1.4-0.2-2.1v-10
		h-3.1v10c0,1.1,0.1,2.1,0.3,3s0.5,1.8,0.9,2.7c0.4,0.9,1,1.6,1.6,2.2s1.4,1.1,2.4,1.5s2.1,0.5,3.3,0.5c1.5,0,2.8-0.3,3.9-0.8
		c1.1-0.5,2-1.2,2.7-2.2c0.7-0.9,1.2-2,1.5-3.1c0.3-1.2,0.5-2.4,0.5-3.8v-10h-3.1v9.9 M769.6,275.7l-11.2-14.3h-2.6v19.7h3.1v-14
		l11,14h2.7v-19.7h-3.1L769.6,275.7L769.6,275.7z M782.7,281.2h3.1v-19.7h-3.1V281.2z M801.5,261.4l-7.7,19.7h3.3l2.1-5.4h7.6
		l2.1,5.4h3.3l-7.7-19.7H801.5z M799.7,273.5l3.3-8.6l3.2,8.6H799.7z M799.8,258.8c0-0.1,0.1-0.3,0.2-0.4c0.1-0.2,0.2-0.3,0.4-0.4
		s0.4-0.2,0.7-0.2s0.7,0.1,1,0.3c0.4,0.2,0.8,0.4,1.2,0.6s0.9,0.3,1.4,0.3s0.9-0.1,1.3-0.3c0.4-0.2,0.7-0.4,0.9-0.7s0.4-0.6,0.6-0.9
		c0.2-0.3,0.3-0.6,0.3-0.8c0.1-0.2,0.1-0.4,0.1-0.5h-1.8c0,0,0,0.1,0,0.2s-0.1,0.2-0.1,0.3c-0.1,0.1-0.1,0.3-0.3,0.4
		c-0.1,0.1-0.3,0.2-0.4,0.3c-0.2,0.1-0.4,0.1-0.7,0.1c-0.4,0-0.7-0.1-1.1-0.3c-0.4-0.2-0.8-0.4-1.2-0.6c-0.4-0.2-0.9-0.3-1.3-0.3
		c-0.4,0-0.8,0.1-1.2,0.3c-0.4,0.2-0.6,0.4-0.9,0.7s-0.4,0.6-0.5,0.9c-0.2,0.3-0.3,0.6-0.3,0.8c-0.1,0.2-0.1,0.4-0.1,0.6h1.7
		C799.8,259,799.8,258.9,799.8,258.8z M834.5,264.4c-0.8-0.9-1.8-1.7-3-2.3c-1.2-0.6-2.5-0.9-3.8-0.9s-2.6,0.3-3.8,0.8
		c-1.2,0.6-2.2,1.3-3,2.2c-0.8,0.9-1.5,2-2,3.2s-0.7,2.5-0.7,3.8c0,1,0.1,2,0.4,3c0.3,1,0.7,1.9,1.3,2.7c0.6,0.8,1.2,1.6,2,2.2
		s1.6,1.1,2.6,1.5s2,0.6,3.2,0.6c1.3,0,2.6-0.3,3.8-0.8s2.2-1.3,3-2.2c0.8-0.9,1.5-2,2-3.2s0.7-2.5,0.7-3.8c0-1.2-0.2-2.5-0.7-3.7
		C835.9,266.5,835.3,265.4,834.5,264.4z M833.4,273.9c-0.3,0.9-0.7,1.6-1.2,2.3c-0.5,0.7-1.2,1.2-2,1.6s-1.7,0.6-2.6,0.6
		c-1.2,0-2.4-0.3-3.3-1c-1-0.7-1.7-1.6-2.2-2.7s-0.8-2.3-0.8-3.5c0-0.9,0.1-1.8,0.4-2.6c0.3-0.9,0.7-1.6,1.2-2.3
		c0.5-0.7,1.2-1.2,2-1.6s1.7-0.6,2.7-0.6c0.9,0,1.8,0.2,2.6,0.6s1.5,0.9,2,1.6s0.9,1.4,1.2,2.3s0.5,1.8,0.5,2.7
		C833.9,272.2,833.7,273.1,833.4,273.9z M861.4,272.4h8.8v-2.6h-8.8v-5.6h10.1v-2.8h-13.3v19.7h13.5v-2.8h-10.4v-5.9L861.4,272.4
		L861.4,272.4z M906.6,271.5c0.7-1.1,1.1-2.3,1.1-3.6c0-0.8-0.2-1.6-0.5-2.3c-0.3-0.8-0.7-1.5-1.2-2.1s-1.2-1.1-1.9-1.5
		c-0.8-0.4-1.6-0.6-2.5-0.6H893v19.7h3.1v-6.9h4.6l4.3,6.9h3.5l-4.6-7.5C905,273.3,905.9,272.6,906.6,271.5z M901.5,271.5H896v-7.4
		h5.3c0.8,0,1.6,0.4,2.2,1.1c0.6,0.7,1,1.6,1,2.6s-0.3,1.9-0.8,2.6C903.1,271.2,902.4,271.5,901.5,271.5z M920,272.4h8.8v-2.6H920
		v-5.6h10.2v-2.8h-13.3v19.7h13.5v-2.8H920V272.4z M950.9,277.1c-0.6,0.5-1.2,0.9-1.9,1.1c-0.6,0.2-1.3,0.3-2,0.3
		c-1.2,0-2.3-0.3-3.3-1s-1.7-1.6-2.3-2.7c-0.5-1.1-0.8-2.3-0.8-3.6c0-0.7,0.1-1.4,0.3-2.1s0.4-1.3,0.8-1.9c0.4-0.6,0.8-1.2,1.3-1.6
		c0.5-0.5,1.1-0.8,1.8-1.1c0.7-0.3,1.4-0.4,2.2-0.4c0.5,0,1,0.1,1.5,0.2s0.9,0.3,1.4,0.5s0.9,0.6,1.3,1c0.4,0.4,0.7,0.9,1,1.5
		l2.4-1.6c-0.7-1.3-1.6-2.3-3-3.1c-1.3-0.8-2.8-1.2-4.6-1.2c-1.2,0-2.3,0.2-3.3,0.6s-1.9,0.9-2.7,1.5s-1.4,1.4-1.9,2.2
		c-0.5,0.8-1,1.7-1.2,2.7c-0.3,0.9-0.4,1.9-0.4,2.9c0,1.2,0.2,2.5,0.7,3.7s1.1,2.3,1.9,3.3c0.8,1,1.8,1.7,3,2.3
		c1.2,0.6,2.5,0.9,3.8,0.9c1.1,0,2.1-0.2,3.2-0.5c1-0.3,2-0.9,2.9-1.6s1.5-1.5,1.9-2.5l-2.6-1.5C952,276,951.5,276.6,950.9,277.1z
		 M978.2,264.4c-0.8-0.9-1.8-1.7-3-2.3c-1.2-0.6-2.5-0.9-3.8-0.9s-2.6,0.3-3.8,0.8c-1.2,0.6-2.2,1.3-3,2.2c-0.8,0.9-1.5,2-2,3.2
		s-0.7,2.5-0.7,3.8c0,1,0.1,2,0.4,3c0.3,1,0.7,1.9,1.3,2.7c0.6,0.8,1.2,1.6,2,2.2s1.6,1.1,2.6,1.5s2,0.6,3.2,0.6
		c1.3,0,2.6-0.3,3.8-0.8s2.2-1.3,3-2.2c0.8-0.9,1.5-2,2-3.2s0.7-2.5,0.7-3.8c0-1.2-0.2-2.5-0.7-3.7
		C979.6,266.5,979,265.4,978.2,264.4z M977.2,273.9c-0.3,0.9-0.7,1.6-1.2,2.3c-0.5,0.7-1.2,1.2-2,1.6s-1.7,0.6-2.6,0.6
		c-1.2,0-2.4-0.3-3.3-1c-1-0.7-1.7-1.6-2.2-2.7s-0.8-2.3-0.8-3.5c0-0.9,0.1-1.8,0.4-2.6c0.3-0.9,0.7-1.6,1.2-2.3
		c0.5-0.7,1.2-1.2,2-1.6s1.7-0.6,2.7-0.6c0.9,0,1.8,0.2,2.6,0.6s1.5,0.9,2,1.6s0.9,1.4,1.2,2.3s0.5,1.8,0.5,2.7
		C977.6,272.2,977.5,273.1,977.2,273.9z M1003.3,275.7l-11.2-14.3h-2.6v19.7h3.1v-14l11,14h2.7v-19.7h-3.1L1003.3,275.7
		L1003.3,275.7z M1029.2,272.4c-0.3-0.4-0.8-0.7-1.4-1c-0.6-0.3-1.2-0.6-1.8-0.8c-0.6-0.2-1.4-0.4-2.2-0.6c-0.5-0.1-1-0.2-1.3-0.3
		c-0.3-0.1-0.7-0.2-1.1-0.3c-0.4-0.1-0.7-0.2-0.9-0.3c-0.2-0.1-0.4-0.2-0.7-0.4c-0.2-0.2-0.4-0.3-0.5-0.5s-0.2-0.4-0.3-0.6
		s-0.1-0.5-0.1-0.7c0-0.9,0.3-1.5,1-2c0.6-0.5,1.6-0.7,2.9-0.7c1.1,0,2.1,0.2,3.2,0.7c1,0.4,1.7,0.9,2.2,1.4l1.4-2.6
		c-2-1.5-4.2-2.2-6.7-2.2c-1,0-2,0.1-2.8,0.4c-0.9,0.3-1.6,0.6-2.3,1.1c-0.6,0.5-1.1,1.1-1.5,1.9s-0.6,1.6-0.6,2.6
		c0,0.8,0.1,1.4,0.4,2s0.6,1,1.1,1.4s1.1,0.8,1.8,1c0.7,0.3,1.5,0.6,2.6,0.8c0.7,0.2,1.2,0.3,1.6,0.4s0.8,0.2,1.3,0.4
		c0.5,0.2,0.8,0.3,1.1,0.5c0.3,0.2,0.5,0.3,0.8,0.6c0.2,0.2,0.4,0.5,0.5,0.7c0.1,0.3,0.1,0.6,0.1,0.9c0,0.8-0.3,1.4-1,1.9
		c-0.7,0.4-1.6,0.7-2.8,0.7c-1.4,0-2.7-0.3-4-0.8s-2.2-1.1-2.8-1.7l-1.4,2.7c1.1,0.9,2.4,1.5,3.8,2s2.9,0.7,4.4,0.7
		c0.8,0,1.6-0.1,2.3-0.2c0.7-0.1,1.4-0.3,2-0.6c0.6-0.3,1.1-0.7,1.6-1.1c0.4-0.4,0.8-1,1-1.6c0.2-0.6,0.4-1.3,0.4-2.1
		c0-0.7-0.1-1.3-0.3-1.9C1029.8,273.3,1029.6,272.8,1029.2,272.4z M1037.2,264.2h6.6v17h3.2v-17h6.6v-2.8h-16.3L1037.2,264.2
		L1037.2,264.2z M1075.3,271.5c0.7-1.1,1.1-2.3,1.1-3.6c0-0.8-0.2-1.6-0.5-2.3c-0.3-0.8-0.7-1.5-1.2-2.1s-1.2-1.1-1.9-1.5
		c-0.8-0.4-1.6-0.6-2.5-0.6h-8.6v19.7h3.1v-6.9h4.6l4.3,6.9h3.5l-4.6-7.5C1073.7,273.3,1074.6,272.6,1075.3,271.5z M1070.3,271.5
		h-5.5v-7.4h5.3c0.8,0,1.6,0.4,2.2,1.1s0.9,1.6,0.9,2.6s-0.3,1.9-0.8,2.6C1071.8,271.2,1071.1,271.5,1070.3,271.5z M1099.2,271.4
		c0,0.7-0.1,1.4-0.2,2.1s-0.3,1.3-0.6,1.9c-0.3,0.6-0.6,1.1-1,1.6c-0.4,0.4-0.9,0.8-1.5,1.1c-0.6,0.3-1.3,0.4-2.2,0.4
		c-0.8,0-1.5-0.1-2.1-0.4s-1.1-0.6-1.5-1s-0.7-1-1-1.6s-0.5-1.3-0.6-1.9c-0.1-0.7-0.2-1.4-0.2-2.1v-10h-3.1v10c0,1.1,0.1,2.1,0.3,3
		c0.2,0.9,0.5,1.8,0.9,2.7c0.4,0.9,1,1.6,1.6,2.2s1.4,1.1,2.4,1.5s2.1,0.5,3.3,0.5c1.5,0,2.8-0.3,3.9-0.8s2-1.2,2.7-2.2
		s1.2-2,1.5-3.1c0.3-1.2,0.5-2.4,0.5-3.8v-10h-3.1L1099.2,271.4L1099.2,271.4z M1124.2,277.1c-0.6,0.5-1.2,0.9-1.9,1.1
		c-0.6,0.2-1.3,0.3-2,0.3c-1.2,0-2.3-0.3-3.3-1s-1.7-1.6-2.3-2.7c-0.5-1.1-0.8-2.3-0.8-3.6c0-0.7,0.1-1.4,0.3-2.1
		c0.2-0.7,0.4-1.3,0.8-1.9s0.8-1.2,1.3-1.6c0.5-0.5,1.1-0.8,1.8-1.1c0.7-0.3,1.4-0.4,2.2-0.4c0.5,0,1,0.1,1.5,0.2s0.9,0.3,1.4,0.5
		s0.9,0.6,1.3,1s0.7,0.9,1,1.5l2.4-1.6c-0.7-1.3-1.6-2.3-3-3.1c-1.3-0.8-2.8-1.2-4.6-1.2c-1.2,0-2.3,0.2-3.3,0.6s-1.9,0.9-2.7,1.5
		c-0.8,0.6-1.4,1.4-1.9,2.2c-0.5,0.8-1,1.7-1.2,2.7c-0.3,0.9-0.4,1.9-0.4,2.9c0,1.2,0.2,2.4,0.6,3.5c0.4,1.2,1,2.2,1.8,3.2
		c0.8,0.9,1.7,1.7,2.8,2.3c1.1,0.6,2.3,1,3.5,1.1c1,0.7,1.5,1.3,1.5,2.1c0,0.4-0.1,0.7-0.4,1c-0.3,0.2-0.7,0.3-1.2,0.3
		c-0.6,0-1.3-0.2-2-0.6l-0.8,1.6c1,0.5,2.1,0.8,3.3,0.8c1,0,1.7-0.2,2.2-0.7s0.8-1.1,0.8-1.9c0-1-0.5-1.9-1.4-2.7
		c1.5-0.2,2.8-0.7,4.1-1.5c1.2-0.8,2.1-1.8,2.6-3l-2.6-1.5C1125.3,276,1124.8,276.6,1124.2,277.1z M1142,261.4l-7.7,19.7h3.3
		l2.1-5.4h7.6l2.1,5.4h3.3l-7.7-19.7H1142z M1140.2,273.5l3.3-8.6l3.2,8.6H1140.2z M1140.4,258.8c0-0.1,0.1-0.3,0.2-0.4
		c0.1-0.2,0.2-0.3,0.4-0.4c0.2-0.1,0.4-0.2,0.7-0.2c0.3,0,0.7,0.1,1,0.3c0.4,0.2,0.8,0.4,1.2,0.6c0.4,0.2,0.9,0.3,1.4,0.3
		s0.9-0.1,1.3-0.3c0.4-0.2,0.7-0.4,0.9-0.7c0.2-0.3,0.4-0.6,0.6-0.9s0.3-0.6,0.3-0.8c0.1-0.2,0.1-0.4,0.1-0.5h-1.8c0,0,0,0.1,0,0.2
		s-0.1,0.2-0.1,0.3c-0.1,0.1-0.1,0.3-0.3,0.4c-0.1,0.1-0.3,0.2-0.4,0.3c-0.2,0.1-0.4,0.1-0.7,0.1c-0.4,0-0.7-0.1-1.1-0.3
		c-0.4-0.2-0.8-0.4-1.2-0.6c-0.4-0.2-0.9-0.3-1.3-0.3s-0.8,0.1-1.2,0.3c-0.4,0.2-0.6,0.4-0.9,0.7c-0.2,0.3-0.4,0.6-0.5,0.9
		c-0.2,0.3-0.3,0.6-0.3,0.8c-0.1,0.2-0.1,0.4-0.1,0.6h1.7C1140.3,259,1140.3,258.9,1140.4,258.8z M1176.9,267.7
		c-0.5-1.2-1.1-2.3-1.9-3.2c-0.8-0.9-1.8-1.7-3-2.3c-1.2-0.6-2.5-0.9-3.8-0.9s-2.6,0.3-3.8,0.8c-1.2,0.6-2.2,1.3-3,2.2
		c-0.8,0.9-1.5,2-2,3.2s-0.7,2.5-0.7,3.8c0,1,0.1,2,0.4,3s0.7,1.9,1.3,2.7c0.6,0.8,1.2,1.6,2,2.2s1.6,1.1,2.6,1.5s2,0.6,3.2,0.6
		c1.3,0,2.6-0.3,3.8-0.8c1.2-0.5,2.2-1.3,3-2.2c0.8-0.9,1.5-2,2-3.2s0.7-2.5,0.7-3.8C1177.6,270.1,1177.4,268.9,1176.9,267.7z
		 M1174,273.9c-0.3,0.9-0.7,1.6-1.2,2.3s-1.2,1.2-2,1.6s-1.7,0.6-2.6,0.6c-1.2,0-2.4-0.3-3.3-1c-1-0.7-1.7-1.6-2.2-2.7
		s-0.8-2.3-0.8-3.5c0-0.9,0.1-1.8,0.4-2.6c0.3-0.9,0.7-1.6,1.2-2.3c0.5-0.7,1.2-1.2,2-1.6s1.7-0.6,2.7-0.6c0.9,0,1.8,0.2,2.6,0.6
		c0.8,0.4,1.5,0.9,2,1.6s0.9,1.4,1.2,2.3c0.3,0.9,0.5,1.8,0.5,2.7C1174.4,272.2,1174.3,273.1,1174,273.9z"/>
</g>
<g>
	<path class="st0" d="M740.1,62.3h6.8c-0.6,1.6-2.3,3-5,3c-3.8,0-6.4-2.7-6.4-6.5s2.6-6.7,6.3-6.7c2.4,0,4.4,1.1,5.5,3.1l5.8-3.4
		c-2.3-3.9-6.6-6.2-11.2-6.2c-7.3,0-13.2,5.8-13.2,13.2s5.8,13.1,13.2,13.1c6.9,0,12.2-5.1,12.2-12.9v-2h-14L740.1,62.3 M776.6,45.5
		c-7.4,0-13.2,5.8-13.2,13.2c0,7.3,5.8,13.2,13.2,13.2c7.3,0,13.1-5.8,13.1-13.2S783.9,45.5,776.6,45.5z M776.6,64.9
		c-3.4,0-6-2.7-6-6.2s2.6-6.2,6-6.2c3.3,0,5.8,2.7,5.8,6.2S779.9,64.9,776.6,64.9z M809.2,61.6l-5.8-15.5h-7.3l9.7,25.1h6.8
		l9.8-25.1h-7.3L809.2,61.6z M831.2,71.2h18v-6.1H838v-3.7h7.4V56H838v-3.7h11.2v-6.1h-18V71.2z M880.6,54.3c0-4.7-3.8-8.2-8.7-8.2
		h-12.2v25.1h6.7v-8.7h2.8l5,8.7h7.5l-5.6-9.7C878.8,60.1,880.6,57.5,880.6,54.3z M871.1,56.8h-4.7v-4.7h4.7c1.6,0,2.6,1.1,2.6,2.4
		C873.7,55.7,872.7,56.8,871.1,56.8z M906.9,59.4l-10.2-13.3H891v25.1h6.7V58l10.1,13.2h5.7V46.1h-6.7L906.9,59.4
		C906.8,59.4,906.9,59.4,906.9,59.4z M936.6,45.5c-7.4,0-13.2,5.8-13.2,13.2c0,7.3,5.8,13.2,13.2,13.2c7.3,0,13.1-5.8,13.1-13.2
		S943.8,45.5,936.6,45.5z M936.6,64.9c-3.4,0-6-2.7-6-6.2s2.6-6.2,6-6.2c3.3,0,5.8,2.7,5.8,6.2S939.8,64.9,936.6,64.9z M976.1,71.2
		h6.8V62h7.4v-5.7h-7.4V52h11.2v-6h-18V71.2z M1004.2,71.2h18v-6.1H1011v-3.7h7.4V56h-7.4v-3.7h11.2v-6.1h-18V71.2L1004.2,71.2z
		 M1042.9,46.1h-10.2v25.1h10.2c7.7,0,13.4-5.4,13.4-12.6C1056.4,51.4,1050.6,46.1,1042.9,46.1z M1042.6,64.7h-3.1V52.6h3.1
		c4,0,6.7,2.4,6.7,6C1049.3,62.3,1046.6,64.7,1042.6,64.7z M1066.1,71.2h18v-6.1h-11.2v-3.7h7.4V56h-7.4v-3.7h11.2v-6.1h-18V71.2z
		 M1115.4,54.3c0-4.7-3.8-8.2-8.7-8.2h-12.2v25.1h6.7v-8.7h2.8l5,8.7h7.5l-5.6-9.7C1113.7,60.1,1115.4,57.5,1115.4,54.3z M1106,56.8
		h-4.7v-4.7h4.7c1.6,0,2.6,1.1,2.6,2.4C1108.6,55.7,1107.6,56.8,1106,56.8z M1134.5,46.1L1124,71.2h7.1l1.7-4.3h9.9l1.8,4.3h7
		l-10.6-25.1H1134.5z M1135.3,60.9l2.5-6.2l2.5,6.2H1135.3z M1167.5,64.8V46.1h-7.1v25.1h17.7v-6.5h-10.6V64.8z"/>
</g>
<g>
	<rect x="1132.3" y="98.5" class="st1" width="45.8" height="87.9"/>
</g>
<g>
	<rect x="1178.1" y="186.4" class="st2" width="45.8" height="44.5"/>
</g>
<g>
	<rect x="1132.3" y="186.4" class="st3" width="45.8" height="44.5"/>
</g>
<g>
	<rect x="1078.8" y="98.5" class="st4" width="45.8" height="132.4"/>
</g>
<g>
	<rect x="978.3" y="157.3" class="st5" width="43.3" height="73.6"/>
</g>
<g>
	<rect x="1021.6" y="98.5" class="st2" width="49.5" height="48.1"/>
</g>
<g>
	<path class="st1" d="M1036.7,146.6h-15.1v84.2h15.1c23.3,0,42.1-18.9,42.1-42.1S1060,146.6,1036.7,146.6"/>
</g>
<g>
	<path class="st4" d="M1007.7,98.5c-16.2,0-29.4,13.2-29.4,29.4s13.2,29.4,29.4,29.4h13.9V98.5H1007.7"/>
</g>
<g>
	<path class="st2" d="M728.1,151.6h10.6c14.7,0,26.6-11.9,26.6-26.6s-11.9-26.6-26.6-26.6h-10.6V151.6"/>
</g>
<g>
	<rect x="682.3" y="98.5" class="st4" width="45.8" height="53.1"/>
</g>
<g>
	<rect x="682.3" y="151.6" class="st1" width="45.8" height="79.3"/>
</g>
<g>
	<path class="st5" d="M743.1,151.6H728v79.3h15.1c21.9,0,39.6-17.7,39.6-39.6C782.8,169.3,765,151.6,743.1,151.6"/>
</g>
<g>
	<polyline class="st4" points="834.7,178.4 782.8,178.4 782.8,230.9 868.8,230.9 834.7,178.4 	"/>
</g>
<g>
	<polyline class="st1" points="834.7,178.4 782.8,98.5 782.8,178.4 834.7,178.4 	"/>
</g>
<g>
	<path class="st2" d="M834.7,98.5h-52l52,80c22.1,0,40-17.9,40-40S856.8,98.5,834.7,98.5"/>
</g>
<g>
	<polyline class="st1" points="922.5,98.5 843.7,230.9 1001.2,230.9 922.5,98.5 	"/>
</g>
<g>
	<polyline class="st3" points="978.3,192.3 978.3,230.9 1001.2,230.9 978.3,192.3 	"/>
</g>
<g>
	<polyline class="st3" points="843.7,230.9 868.8,230.9 855.7,210.7 843.7,230.9 	"/>
</g>
<g>
	<path class="st2" d="M970.8,230.9c0-26.7-21.6-48.3-48.3-48.3s-48.3,21.6-48.3,48.3H970.8"/>
</g>
<g>
	<path class="st0" d="M272.1,125.2v-19.1l-7.9,14.5h-2.5l-7.9-14.5v19.1h-4.2V98.4h4.5l8.9,16.4l8.9-16.4h4.5v26.8H272.1z"/>
	<path class="st0" d="M290,125.2V98.4h4.2v26.8H290z"/>
	<path class="st0" d="M312,106.3v19h-4.2V98.4h3.5l15.2,19.4V98.5h4.3v26.8H327L312,106.3z"/>
	<path class="st0" d="M344.3,125.2V98.4h4.2v26.8H344.3z"/>
	<path class="st0" d="M378,104.7c-0.6-0.6-1.6-1.3-3-1.8c-1.4-0.6-2.8-0.9-4.3-0.9c-1.7,0-3.1,0.3-3.9,1c-0.9,0.6-1.3,1.6-1.3,2.7
		c0,0.4,0,0.7,0.1,1s0.2,0.6,0.4,0.8c0.2,0.2,0.4,0.4,0.7,0.7c0.3,0.2,0.6,0.4,0.9,0.5s0.7,0.3,1.2,0.5s1,0.3,1.5,0.4
		c0.5,0.1,1.1,0.3,1.8,0.5c1.2,0.3,2.2,0.6,3,0.8c0.8,0.3,1.6,0.6,2.4,1.1c0.8,0.4,1.4,0.9,1.9,1.4c0.5,0.5,0.8,1.2,1.1,1.9
		c0.3,0.8,0.4,1.6,0.4,2.6c0,1.1-0.2,2-0.5,2.9c-0.3,0.9-0.8,1.6-1.4,2.2c-0.6,0.6-1.3,1.1-2.1,1.5c-0.8,0.4-1.7,0.7-2.7,0.9
		c-1,0.2-2,0.3-3.1,0.3c-2,0-4-0.3-5.9-0.9c-1.9-0.6-3.6-1.5-5.1-2.7l1.9-3.6c0.8,0.8,2,1.6,3.8,2.3c1.8,0.7,3.6,1.1,5.4,1.1
		c1.7,0,3-0.3,3.9-0.9s1.4-1.4,1.4-2.5c0-0.4-0.1-0.8-0.2-1.2c-0.1-0.4-0.4-0.7-0.7-1c-0.3-0.3-0.7-0.5-1-0.7
		c-0.4-0.2-0.8-0.4-1.5-0.6s-1.2-0.4-1.8-0.6c-0.5-0.1-1.3-0.3-2.2-0.6c-1.4-0.4-2.6-0.7-3.5-1.1c-0.9-0.4-1.7-0.8-2.4-1.4
		c-0.7-0.6-1.2-1.2-1.5-2c-0.3-0.8-0.5-1.7-0.5-2.7c0-1.3,0.2-2.5,0.7-3.5c0.5-1,1.2-1.9,2.1-2.6c0.9-0.7,1.9-1.2,3.1-1.5
		c1.2-0.4,2.5-0.5,3.9-0.5c3.3,0,6.3,1,9.1,3L378,104.7z"/>
	<path class="st0" d="M412.5,102.2h-8.9v23.1h-4.3v-23.1h-8.9v-3.7h22.1V102.2z"/>
	<path class="st0" d="M442,121.5v3.7h-18.4V98.4h18.1v3.7h-13.8v7.6h12v3.5h-12v8.2H442z M434.5,95.7l-2.7-0.8l2.2-4.1h4L434.5,95.7
		z"/>
	<path class="st0" d="M453.9,125.2V98.4h11.7c1.2,0,2.3,0.3,3.3,0.8c1.1,0.5,1.9,1.2,2.6,2c0.7,0.8,1.3,1.8,1.7,2.8
		c0.4,1,0.6,2.1,0.6,3.2c0,1.8-0.5,3.5-1.4,4.9c-1,1.5-2.2,2.5-3.8,3l6.3,10.2h-4.8l-5.8-9.3h-6.2v9.3H453.9z M458.1,112.2h7.4
		c1.2,0,2.1-0.5,2.9-1.5c0.8-1,1.1-2.2,1.1-3.6c0-1.4-0.4-2.5-1.3-3.5c-0.9-1-1.9-1.5-3-1.5h-7.2V112.2z"/>
	<path class="st0" d="M486.4,125.2V98.4h4.2v26.8H486.4z"/>
	<path class="st0" d="M502.6,111.8c0-1.8,0.3-3.5,1-5.1c0.7-1.7,1.6-3.1,2.7-4.3s2.5-2.2,4.1-3c1.6-0.8,3.3-1.1,5.1-1.1
		c1.9,0,3.6,0.4,5.2,1.2c1.6,0.8,3,1.8,4.1,3.1c1.1,1.3,1.9,2.7,2.6,4.4c0.6,1.6,0.9,3.3,0.9,5c0,1.8-0.3,3.5-1,5.1
		c-0.7,1.6-1.5,3.1-2.7,4.3c-1.1,1.2-2.5,2.2-4.1,3c-1.6,0.7-3.3,1.1-5.1,1.1c-1.5,0-2.9-0.2-4.3-0.7c-1.4-0.5-2.5-1.2-3.6-2.1
		s-1.9-1.9-2.7-3c-0.8-1.1-1.3-2.4-1.7-3.7C502.8,114.6,502.6,113.2,502.6,111.8z M515.4,121.6c1.3,0,2.5-0.3,3.6-0.8
		c1.1-0.6,2-1.3,2.7-2.2c0.7-0.9,1.2-2,1.6-3.1c0.4-1.2,0.6-2.3,0.6-3.6c0-1.3-0.2-2.5-0.6-3.7c-0.4-1.2-1-2.2-1.7-3.1
		c-0.7-0.9-1.6-1.6-2.7-2.2c-1.1-0.5-2.2-0.8-3.5-0.8c-1.3,0-2.5,0.3-3.6,0.8s-2,1.3-2.7,2.2c-0.7,0.9-1.3,2-1.7,3.1
		c-0.4,1.2-0.6,2.3-0.6,3.6c0,1.7,0.3,3.3,1,4.8c0.7,1.5,1.7,2.7,3,3.6C512.2,121.1,513.7,121.6,515.4,121.6z"/>
	<path class="st0" d="M557.1,125.2V98.4h9.5c2.1,0,4,0.3,5.7,1s3.1,1.7,4.1,2.9s1.9,2.6,2.4,4.2c0.6,1.6,0.8,3.3,0.8,5.2
		c0,4.1-1.2,7.3-3.6,9.8c-2.4,2.5-5.5,3.7-9.5,3.7H557.1z M566.6,102.2h-5.3v19.3h5.3c1.8,0,3.4-0.4,4.8-1.3c1.3-0.9,2.3-2,3-3.5
		c0.7-1.5,1-3.1,1-5c0-2.9-0.8-5.2-2.3-7C571.5,103.1,569.3,102.2,566.6,102.2z"/>
	<path class="st0" d="M598.5,98.4h4l10.4,26.8h-4.5l-2.8-7.3h-10.3l-2.8,7.3h-4.5L598.5,98.4z M604.8,114.8l-4.3-11.8l-4.4,11.8
		H604.8z"/>
	<path class="st0" d="M77.3,151c2.5,0,4.7,0.5,6.7,1.6c1.9,1.1,3.4,2.5,4.3,4.3l-5.6,4c-0.2-0.6-0.6-1.2-1-1.6
		c-0.4-0.4-0.9-0.8-1.4-1c-0.5-0.2-1-0.4-1.5-0.5c-0.5-0.1-1-0.2-1.6-0.2c-1,0-1.9,0.2-2.7,0.6s-1.4,1-1.9,1.6
		c-0.5,0.7-0.8,1.4-1.1,2.2c-0.2,0.8-0.4,1.7-0.4,2.5c0,2,0.6,3.6,1.7,5c1.1,1.4,2.6,2.1,4.5,2.1c0.7,0,1.4-0.1,2.1-0.3
		c0.7-0.2,1.3-0.6,1.9-1.1c0.6-0.5,1.1-1.1,1.3-1.9l6,3.6c-0.5,1.3-1.4,2.4-2.6,3.4c-1.3,1-2.7,1.7-4.2,2.2
		c-1.5,0.5-3.1,0.7-4.6,0.7c-1.9,0-3.7-0.4-5.4-1.2c-1.7-0.8-3.1-1.8-4.3-3.1c-1.2-1.3-2.1-2.8-2.7-4.4c-0.7-1.7-1-3.4-1-5.1
		c0-1.6,0.3-3.3,0.9-4.8c0.6-1.6,1.5-3,2.7-4.3c1.1-1.3,2.6-2.3,4.3-3.1C73.3,151.4,75.2,151,77.3,151z"/>
	<path class="st0" d="M98.8,177.9v-26.8h7.4v26.8H98.8z"/>
	<path class="st0" d="M137.4,171.5v6.4h-19.1v-26.8h18.8v6.4h-11.4v3.8h9.8v6h-9.8v4.2H137.4z M121.1,147.8l4.3-4.4h5.1l4.3,4.4
		l-3.6,1.6l-3.2-2.4l-3.2,2.4L121.1,147.8z"/>
	<path class="st0" d="M155.7,164.7v13.2h-7.4v-26.8h5.7l10.8,13.6v-13.6h7.4v26.8h-5.8L155.7,164.7z"/>
	<path class="st0" d="M196.6,151c2.5,0,4.7,0.5,6.7,1.6c1.9,1.1,3.4,2.5,4.3,4.3l-5.6,4c-0.2-0.6-0.6-1.2-1-1.6
		c-0.4-0.4-0.9-0.8-1.4-1c-0.5-0.2-1-0.4-1.5-0.5c-0.5-0.1-1-0.2-1.6-0.2c-1,0-1.9,0.2-2.7,0.6s-1.4,1-1.9,1.6
		c-0.5,0.7-0.8,1.4-1.1,2.2c-0.2,0.8-0.4,1.7-0.4,2.5c0,2,0.6,3.6,1.7,5c1.1,1.4,2.6,2.1,4.5,2.1c0.7,0,1.4-0.1,2.1-0.3
		c0.7-0.2,1.3-0.6,1.9-1.1c0.6-0.5,1.1-1.1,1.3-1.9l6,3.6c-0.5,1.3-1.4,2.4-2.6,3.4c-1.3,1-2.7,1.7-4.2,2.2
		c-1.5,0.5-3.1,0.7-4.6,0.7c-1.9,0-3.7-0.4-5.4-1.2c-1.7-0.8-3.1-1.8-4.3-3.1c-1.2-1.3-2.1-2.8-2.7-4.4c-0.7-1.7-1-3.4-1-5.1
		c0-1.6,0.3-3.3,0.9-4.8c0.6-1.6,1.5-3,2.7-4.3c1.1-1.3,2.6-2.3,4.3-3.1C192.6,151.4,194.6,151,196.6,151z"/>
	<path class="st0" d="M218.1,177.9v-26.8h7.4v26.8H218.1z"/>
	<path class="st0" d="M243.8,151.1h8.2l8.5,26.8h-7.5l-1.6-5.3h-7.2l-1.6,5.3h-7.5L243.8,151.1z M250.3,167.8l-2.4-9.4l-2.5,9.4
		H250.3z"/>
	<path class="st0" d="M270.7,183.9l1.4-5.9h-2.2v-7h5.9v7l-2,5.9H270.7z"/>
	<path class="st0" d="M323.5,157.5h-7.7v20.4h-7.4v-20.4h-7.7v-6.4h22.8V157.5z"/>
	<path class="st0" d="M352.8,171.5v6.4h-19.1v-26.8h18.8v6.4h-11.4v3.8h9.8v6h-9.8v4.2H352.8z"/>
	<path class="st0" d="M375.6,151c2.5,0,4.7,0.5,6.7,1.6c1.9,1.1,3.4,2.5,4.3,4.3l-5.6,4c-0.2-0.6-0.6-1.2-1-1.6
		c-0.4-0.4-0.9-0.8-1.4-1c-0.5-0.2-1-0.4-1.5-0.5c-0.5-0.1-1-0.2-1.6-0.2c-1,0-1.9,0.2-2.7,0.6s-1.4,1-1.9,1.6
		c-0.5,0.7-0.8,1.4-1.1,2.2c-0.2,0.8-0.4,1.7-0.4,2.5c0,2,0.6,3.6,1.7,5c1.1,1.4,2.6,2.1,4.5,2.1c0.7,0,1.4-0.1,2.1-0.3
		c0.7-0.2,1.3-0.6,1.9-1.1c0.6-0.5,1.1-1.1,1.3-1.9l6,3.6c-0.5,1.3-1.4,2.4-2.6,3.4c-1.3,1-2.7,1.7-4.2,2.2
		c-1.5,0.5-3.1,0.7-4.6,0.7c-1.9,0-3.7-0.4-5.4-1.2c-1.7-0.8-3.1-1.8-4.3-3.1c-1.2-1.3-2.1-2.8-2.7-4.4c-0.7-1.7-1-3.4-1-5.1
		c0-1.6,0.3-3.3,0.9-4.8c0.6-1.6,1.5-3,2.7-4.3c1.1-1.3,2.6-2.3,4.3-3.1C371.6,151.4,373.5,151,375.6,151z"/>
	<path class="st0" d="M404.4,164.7v13.2H397v-26.8h5.7l10.8,13.6v-13.6h7.4v26.8H415L404.4,164.7z"/>
	<path class="st0" d="M431.6,164.5c0-1.8,0.3-3.5,1-5.1s1.6-3.1,2.8-4.3s2.6-2.2,4.4-3s3.5-1.1,5.5-1.1c2,0,3.8,0.4,5.5,1.2
		c1.7,0.8,3.2,1.8,4.3,3.1c1.1,1.3,2.1,2.7,2.7,4.4c0.7,1.6,1,3.3,1,5c0,1.7-0.3,3.4-1,5.1c-0.7,1.6-1.6,3.1-2.8,4.3
		c-1.2,1.2-2.6,2.2-4.4,3c-1.7,0.8-3.6,1.1-5.5,1.1c-2,0-3.8-0.4-5.5-1.2c-1.7-0.8-3.2-1.8-4.3-3.1c-1.2-1.3-2.1-2.7-2.7-4.4
		C431.9,167.9,431.6,166.2,431.6,164.5z M445.2,171.6c1,0,1.9-0.2,2.7-0.6c0.8-0.4,1.4-1,1.9-1.7s0.8-1.4,1.1-2.3
		c0.2-0.8,0.4-1.7,0.4-2.6c0-1.3-0.2-2.4-0.7-3.4c-0.4-1-1.1-1.9-2.1-2.6c-1-0.7-2.1-1-3.4-1c-1,0-1.9,0.2-2.7,0.6s-1.4,0.9-1.9,1.6
		c-0.5,0.7-0.8,1.4-1.1,2.3c-0.2,0.8-0.4,1.7-0.4,2.6c0,0.9,0.1,1.8,0.4,2.6s0.6,1.6,1.1,2.2c0.5,0.7,1.1,1.2,1.9,1.6
		S444.2,171.6,445.2,171.6z"/>
	<path class="st0" d="M469.5,177.9v-26.8h7.4v20.4H489v6.4H469.5z"/>
	<path class="st0" d="M497.3,164.5c0-1.8,0.3-3.5,1-5.1s1.6-3.1,2.8-4.3s2.6-2.2,4.4-3s3.5-1.1,5.5-1.1c2,0,3.8,0.4,5.5,1.2
		c1.7,0.8,3.2,1.8,4.3,3.1c1.1,1.3,2.1,2.7,2.7,4.4c0.7,1.6,1,3.3,1,5c0,1.7-0.3,3.4-1,5.1c-0.7,1.6-1.6,3.1-2.8,4.3
		c-1.2,1.2-2.6,2.2-4.4,3c-1.7,0.8-3.6,1.1-5.5,1.1c-2,0-3.8-0.4-5.5-1.2c-1.7-0.8-3.2-1.8-4.3-3.1c-1.2-1.3-2.1-2.7-2.7-4.4
		C497.7,167.9,497.3,166.2,497.3,164.5z M511,171.6c1,0,1.9-0.2,2.7-0.6c0.8-0.4,1.4-1,1.9-1.7s0.8-1.4,1.1-2.3
		c0.2-0.8,0.4-1.7,0.4-2.6c0-1.3-0.2-2.4-0.7-3.4c-0.4-1-1.1-1.9-2.1-2.6c-1-0.7-2.1-1-3.4-1c-1,0-1.9,0.2-2.7,0.6s-1.4,0.9-1.9,1.6
		c-0.5,0.7-0.8,1.4-1.1,2.3c-0.2,0.8-0.4,1.7-0.4,2.6c0,0.9,0.1,1.8,0.4,2.6s0.6,1.6,1.1,2.2c0.5,0.7,1.1,1.2,1.9,1.6
		S510,171.6,511,171.6z"/>
	<path class="st0" d="M548.5,163.7h11v14.3h-6.1v-2.2c-1.9,1.6-4.1,2.4-6.6,2.4c-1.8,0-3.4-0.3-5-1c-1.6-0.6-3-1.5-4.2-2.7
		c-1.2-1.1-2.1-2.6-2.8-4.4c-0.7-1.8-1.1-3.7-1.1-5.8c0-1.9,0.4-3.6,1.1-5.3c0.7-1.6,1.7-3.1,2.9-4.3c1.2-1.2,2.7-2.1,4.4-2.8
		c1.7-0.7,3.5-1,5.4-1c2.4,0,4.6,0.5,6.6,1.6c2,1,3.4,2.5,4.4,4.3l-5.5,4.2c-0.5-1.1-1.3-1.9-2.4-2.5c-1.1-0.6-2.2-1-3.4-1
		c-1.7,0-3.2,0.7-4.3,2s-1.7,3-1.7,5.1c0,2.1,0.6,3.8,1.7,5.1c1.1,1.3,2.6,1.9,4.5,1.9c2.1,0,4-0.9,5.7-2.6h-4.6V163.7z"/>
	<path class="st0" d="M570.7,177.9v-26.8h7.4v26.8H570.7z"/>
	<path class="st0" d="M596.4,151.1h8.2l8.5,26.8h-7.5l-1.6-5.3H597l-1.6,5.3h-7.5L596.4,151.1z M602.9,167.8l-2.4-9.4l-2.5,9.4
		H602.9z"/>
	<path class="st0" d="M340.2,224.2v6.4h-19.1v-26.8h18.8v6.4h-11.4v3.8h9.8v6h-9.8v4.2H340.2z"/>
	<path class="st0" d="M367.2,230.6v-26.8h7.4v26.8H367.2z"/>
	<path class="st0" d="M394.1,217.4v13.2h-7.4v-26.8h5.7l10.8,13.6v-13.6h7.4v26.8h-5.8L394.1,217.4z"/>
	<path class="st0" d="M421.3,217.2c0-1.8,0.3-3.5,1-5.1s1.6-3.1,2.8-4.3s2.6-2.2,4.4-3c1.7-0.7,3.5-1.1,5.5-1.1c2,0,3.8,0.4,5.5,1.2
		c1.7,0.8,3.2,1.8,4.3,3.1c1.1,1.3,2.1,2.7,2.7,4.4c0.7,1.6,1,3.3,1,5c0,1.7-0.3,3.4-1,5.1c-0.7,1.6-1.6,3.1-2.8,4.3
		c-1.2,1.2-2.6,2.2-4.4,3c-1.7,0.8-3.6,1.1-5.5,1.1c-2,0-3.8-0.4-5.5-1.2c-1.7-0.8-3.2-1.8-4.3-3.1c-1.2-1.3-2.1-2.7-2.7-4.4
		C421.6,220.6,421.3,218.9,421.3,217.2z M434.9,224.3c1,0,1.9-0.2,2.7-0.6c0.8-0.4,1.4-1,1.9-1.7s0.8-1.4,1.1-2.3
		c0.2-0.8,0.4-1.7,0.4-2.6c0-1.3-0.2-2.4-0.7-3.4c-0.4-1-1.1-1.9-2.1-2.6c-1-0.7-2.1-1-3.4-1c-1,0-1.9,0.2-2.7,0.6
		c-0.8,0.4-1.4,0.9-1.9,1.6c-0.5,0.7-0.8,1.4-1.1,2.3c-0.2,0.8-0.4,1.7-0.4,2.6c0,0.9,0.1,1.8,0.4,2.6s0.6,1.6,1.1,2.2
		c0.5,0.7,1.1,1.2,1.9,1.6S433.9,224.3,434.9,224.3z"/>
	<path class="st0" d="M463.3,203.8l5.2,18.3l5.2-18.3h7.7l-9.3,26.8h-7.3l-9.4-26.8H463.3z"/>
	<path class="st0" d="M495.1,203.8h8.2l8.5,26.8h-7.5l-1.6-5.3h-7.2l-1.6,5.3h-7.5L495.1,203.8z M501.6,220.5l-2.4-9.4l-2.5,9.4
		H501.6z"/>
	<path class="st0" d="M544,224.6c-0.7,1.6-1.8,2.9-3.6,4c-1.7,1.1-3.7,1.8-5.8,2.1c1.2,1.2,1.8,2.6,1.8,4c0,1.2-0.4,2.2-1.2,3
		c-0.8,0.8-1.9,1.2-3.4,1.2c-1.5,0-3.1-0.4-4.7-1.3l1.7-3.7c0.6,0.5,1.2,0.7,1.8,0.7c0.5,0,0.8-0.1,1.1-0.4c0.3-0.3,0.4-0.6,0.4-1.1
		c0-0.8-0.5-1.6-1.4-2.5c-1.7-0.2-3.3-0.7-4.8-1.6c-1.5-0.9-2.7-1.9-3.8-3.2s-1.8-2.7-2.4-4.2s-0.9-3.1-0.9-4.7
		c0-1.6,0.3-3.3,0.9-4.8s1.5-3,2.7-4.3c1.1-1.3,2.6-2.3,4.3-3.1c1.8-0.8,3.7-1.2,5.8-1.2c2.5,0,4.7,0.5,6.7,1.6
		c1.9,1.1,3.4,2.5,4.3,4.3l-5.6,4c-0.2-0.6-0.6-1.2-1-1.6c-0.4-0.4-0.9-0.8-1.4-1c-0.5-0.2-1-0.4-1.5-0.5s-1-0.2-1.6-0.2
		c-1,0-1.9,0.2-2.7,0.6s-1.4,1-1.9,1.6c-0.5,0.7-0.8,1.4-1.1,2.2c-0.2,0.8-0.4,1.7-0.4,2.5c0,2,0.6,3.6,1.7,5
		c1.1,1.4,2.6,2.1,4.5,2.1c0.7,0,1.4-0.1,2.1-0.3c0.7-0.2,1.3-0.6,1.9-1.1c0.6-0.5,1.1-1.1,1.3-1.9L544,224.6z"/>
	<path class="st0" d="M560,203.8h8.2l8.5,26.8h-7.5l-1.6-5.3h-7.2l-1.6,5.3h-7.5L560,203.8z M561.6,200.2c-0.3,0-0.6,0.1-0.8,0.2
		c-0.2,0.1-0.4,0.3-0.5,0.4c-0.1,0.2-0.2,0.3-0.3,0.5s-0.1,0.4-0.1,0.4c0,0.1,0,0.2,0,0.2h-3.8c0-0.3,0.1-0.7,0.2-1.1
		c0.1-0.5,0.3-1,0.6-1.5c0.3-0.6,0.6-1.1,1-1.6c0.4-0.5,0.9-0.9,1.5-1.2s1.3-0.5,2-0.5c0.6,0,1.1,0.1,1.6,0.3
		c0.5,0.2,0.9,0.4,1.2,0.7c0.3,0.2,0.7,0.5,1.1,0.7s0.8,0.3,1.2,0.3c0.3,0,0.6-0.1,0.8-0.2c0.2-0.1,0.4-0.3,0.6-0.5
		c0.1-0.2,0.2-0.4,0.3-0.6c0.1-0.2,0.1-0.4,0.2-0.5c0-0.1,0-0.2,0-0.2h3.8c0,0.2-0.1,0.5-0.2,1c-0.1,0.4-0.3,0.9-0.6,1.5
		s-0.6,1.1-1,1.6c-0.4,0.5-0.9,0.9-1.5,1.3c-0.6,0.4-1.3,0.5-2,0.5c-0.5,0-1-0.1-1.5-0.3c-0.5-0.2-0.9-0.4-1.2-0.6
		c-0.3-0.2-0.7-0.4-1.1-0.6C562.4,200.3,562,200.2,561.6,200.2z M566.5,220.5l-2.4-9.4l-2.5,9.4H566.5z"/>
	<path class="st0" d="M584,217.2c0-1.8,0.3-3.5,1-5.1s1.6-3.1,2.8-4.3s2.6-2.2,4.4-3c1.7-0.7,3.5-1.1,5.5-1.1c2,0,3.8,0.4,5.5,1.2
		c1.7,0.8,3.2,1.8,4.3,3.1c1.1,1.3,2.1,2.7,2.7,4.4c0.7,1.6,1,3.3,1,5c0,1.7-0.3,3.4-1,5.1c-0.7,1.6-1.6,3.1-2.8,4.3
		c-1.2,1.2-2.6,2.2-4.4,3c-1.7,0.8-3.6,1.1-5.5,1.1c-2,0-3.8-0.4-5.5-1.2c-1.7-0.8-3.2-1.8-4.3-3.1c-1.2-1.3-2.1-2.7-2.7-4.4
		C584.3,220.6,584,218.9,584,217.2z M597.6,224.3c1,0,1.9-0.2,2.7-0.6c0.8-0.4,1.4-1,1.9-1.7s0.8-1.4,1.1-2.3
		c0.2-0.8,0.4-1.7,0.4-2.6c0-1.3-0.2-2.4-0.7-3.4c-0.4-1-1.1-1.9-2.1-2.6c-1-0.7-2.1-1-3.4-1c-1,0-1.9,0.2-2.7,0.6
		c-0.8,0.4-1.4,0.9-1.9,1.6c-0.5,0.7-0.8,1.4-1.1,2.3c-0.2,0.8-0.4,1.7-0.4,2.6c0,0.9,0.1,1.8,0.4,2.6s0.6,1.6,1.1,2.2
		c0.5,0.7,1.1,1.2,1.9,1.6S596.6,224.3,597.6,224.3z"/>
</g>
</svg>
