<?xml version="1.0" encoding="utf-8"?>
<!-- Generator: Adobe Illustrator 27.1.1, SVG Export Plug-In . SVG Version: 6.00 Build 0)  -->
<svg version="1.1"
	 id="svg150" xmlns:inkscape="http://www.inkscape.org/namespaces/inkscape" xmlns:sodipodi="http://sodipodi.sourceforge.net/DTD/sodipodi-0.dtd" xmlns:dc="http://purl.org/dc/elements/1.1/" xmlns:cc="http://creativecommons.org/ns#" xmlns:rdf="http://www.w3.org/1999/02/22-rdf-syntax-ns#" xmlns:svg="http://www.w3.org/2000/svg"
	 xmlns="http://www.w3.org/2000/svg" xmlns:xlink="http://www.w3.org/1999/xlink" x="0px" y="0px" viewBox="0 0 678.9 654.3"
	 style="enable-background:new 0 0 678.9 654.3;" xml:space="preserve">
<style type="text/css">
	.st0{fill:#FFFFFF;}
	.st1{fill:#FFDA00;}
	.st2{fill:#4E4E4E;}
	.st3{fill:#00D000;}
	.st4{fill:#FF0000;}
	.st5{fill:#183EFF;}
</style>
<sodipodi:namedview  bordercolor="#666666" borderopacity="1" gridtolerance="10" guidetolerance="10" id="namedview152" inkscape:current-layer="svg150" inkscape:cx="226.46719" inkscape:cy="449.92703" inkscape:pageopacity="0" inkscape:pageshadow="2" inkscape:window-height="1017" inkscape:window-maximized="1" inkscape:window-width="1920" inkscape:window-x="-8" inkscape:window-y="-8" inkscape:zoom="0.89359596" objecttolerance="10" pagecolor="#ffffff" showgrid="false" units="px">
	</sodipodi:namedview>
<g>
	<rect y="327" class="st0" width="678.8" height="326.8"/>
	<path d="M129.4,598c0,0.7-0.1,1.4-0.2,2.1s-0.3,1.3-0.5,1.9c-0.3,0.6-0.6,1.1-1,1.6c-0.4,0.4-0.9,0.8-1.5,1.1s-1.3,0.4-2.2,0.4
		c-0.8,0-1.5-0.1-2.1-0.4s-1.1-0.6-1.5-1s-0.7-1-1-1.6s-0.5-1.3-0.6-1.9c-0.1-0.7-0.2-1.4-0.2-2.1v-10h-3.1v10c0,1.1,0.1,2.1,0.3,3
		c0.2,0.9,0.5,1.8,0.9,2.7s1,1.6,1.6,2.2c0.6,0.6,1.4,1.1,2.4,1.5s2.1,0.5,3.3,0.5c1.5,0,2.8-0.3,3.9-0.8s2-1.2,2.7-2.2
		c0.7-0.9,1.2-2,1.5-3.1c0.3-1.2,0.5-2.4,0.5-3.8v-10h-3.1v9.9 M156,602.2L144.8,588h-2.6v19.7h3.1v-14l11,14h2.7V588h-3.1
		L156,602.2L156,602.2z M169,607.8h3.1V588H169V607.8z M187.9,588l-7.7,19.7h3.3l2.1-5.4h7.6l2.1,5.4h3.3l-7.7-19.7H187.9z M186,600
		l3.3-8.6l3.2,8.6H186z M186.2,585.3c0-0.1,0.1-0.3,0.2-0.4c0.1-0.2,0.2-0.3,0.4-0.4c0.2-0.1,0.4-0.2,0.7-0.2s0.7,0.1,1,0.3
		c0.4,0.2,0.8,0.4,1.2,0.6s0.9,0.3,1.4,0.3s0.9-0.1,1.3-0.3c0.4-0.2,0.7-0.4,0.9-0.7s0.4-0.6,0.6-0.9s0.3-0.6,0.3-0.8
		c0.1-0.2,0.1-0.4,0.1-0.5h-1.8c0,0,0,0.1,0,0.2s-0.1,0.2-0.1,0.3c-0.1,0.1-0.1,0.3-0.3,0.4c-0.1,0.1-0.3,0.2-0.4,0.3
		c-0.2,0.1-0.4,0.1-0.7,0.1c-0.4,0-0.7-0.1-1.1-0.3s-0.8-0.4-1.2-0.6c-0.4-0.2-0.9-0.3-1.3-0.3s-0.8,0.1-1.2,0.3s-0.6,0.4-0.9,0.7
		c-0.3,0.3-0.4,0.6-0.5,0.9c-0.2,0.3-0.3,0.6-0.3,0.8c-0.1,0.2-0.1,0.4-0.1,0.6h1.7C186.2,585.5,186.2,585.5,186.2,585.3z
		 M220.9,591c-0.8-0.9-1.8-1.7-3-2.3s-2.5-0.9-3.8-0.9s-2.6,0.3-3.8,0.8c-1.2,0.6-2.2,1.3-3,2.2s-1.5,2-2,3.2s-0.7,2.5-0.7,3.8
		c0,1,0.1,2,0.4,3s0.7,1.9,1.3,2.7s1.2,1.6,2,2.2c0.8,0.6,1.6,1.1,2.6,1.5s2,0.6,3.2,0.6c1.3,0,2.6-0.3,3.8-0.8s2.2-1.3,3-2.2
		s1.5-2,2-3.2s0.7-2.5,0.7-3.8c0-1.2-0.2-2.5-0.7-3.7C222.3,593,221.7,592,220.9,591z M219.8,600.5c-0.3,0.9-0.7,1.6-1.2,2.3
		s-1.2,1.2-2,1.6c-0.8,0.4-1.7,0.6-2.6,0.6c-1.2,0-2.4-0.3-3.3-1c-1-0.7-1.7-1.6-2.2-2.7c-0.5-1.1-0.8-2.3-0.8-3.5
		c0-0.9,0.1-1.8,0.4-2.6c0.3-0.9,0.7-1.6,1.2-2.3s1.2-1.2,2-1.6c0.8-0.4,1.7-0.6,2.7-0.6c0.9,0,1.8,0.2,2.6,0.6
		c0.8,0.4,1.5,0.9,2,1.6s0.9,1.4,1.2,2.3c0.3,0.9,0.5,1.8,0.5,2.7S220,599.6,219.8,600.5z M247.8,599h8.8v-2.6h-8.8v-5.6h10.1V588
		h-13.3v19.7H258v-2.8h-10.4L247.8,599L247.8,599L247.8,599z M293,598c0.7-1.1,1.1-2.3,1.1-3.6c0-0.8-0.2-1.6-0.5-2.3
		c-0.3-0.8-0.7-1.5-1.2-2.1s-1.2-1.1-1.9-1.5c-0.8-0.4-1.6-0.6-2.5-0.6h-8.6v19.7h3.1v-6.9h4.6l4.3,6.9h3.5l-4.6-7.5
		C291.4,599.8,292.3,599.1,293,598z M287.9,598h-5.5v-7.4h5.3c0.8,0,1.6,0.4,2.2,1.1s1,1.6,1,2.6s-0.3,1.9-0.8,2.6
		C289.5,597.8,288.8,598,287.9,598z M306.4,599h8.8v-2.6h-8.8v-5.6h10.2V588h-13.3v19.7h13.5v-2.8h-10.4L306.4,599L306.4,599z
		 M337.3,603.6c-0.6,0.5-1.2,0.9-1.9,1.1c-0.6,0.2-1.3,0.3-2,0.3c-1.2,0-2.3-0.3-3.3-1s-1.7-1.6-2.3-2.7c-0.5-1.1-0.8-2.3-0.8-3.6
		c0-0.7,0.1-1.4,0.3-2.1c0.2-0.7,0.4-1.3,0.8-1.9c0.4-0.6,0.8-1.2,1.3-1.6c0.5-0.5,1.1-0.8,1.8-1.1c0.7-0.3,1.4-0.4,2.2-0.4
		c0.5,0,1,0.1,1.5,0.2c0.5,0.1,0.9,0.3,1.4,0.5s0.9,0.6,1.3,1s0.7,0.9,1,1.5l2.4-1.6c-0.7-1.3-1.6-2.3-3-3.1
		c-1.3-0.8-2.8-1.2-4.6-1.2c-1.2,0-2.3,0.2-3.3,0.6c-1,0.4-1.9,0.9-2.7,1.5c-0.8,0.6-1.4,1.4-1.9,2.2s-1,1.7-1.2,2.7
		c-0.3,0.9-0.4,1.9-0.4,2.9c0,1.2,0.2,2.5,0.7,3.7s1.1,2.3,1.9,3.3s1.8,1.7,3,2.3s2.5,0.9,3.8,0.9c1.1,0,2.1-0.2,3.2-0.5
		c1-0.3,2-0.9,2.9-1.6s1.5-1.5,1.9-2.5l-2.6-1.5C338.4,602.5,337.9,603.1,337.3,603.6z M364.5,591c-0.8-0.9-1.8-1.7-3-2.3
		s-2.5-0.9-3.8-0.9s-2.6,0.3-3.8,0.8c-1.2,0.6-2.2,1.3-3,2.2s-1.5,2-2,3.2s-0.7,2.5-0.7,3.8c0,1,0.1,2,0.4,3s0.7,1.9,1.3,2.7
		c0.6,0.8,1.2,1.6,2,2.2c0.8,0.6,1.6,1.1,2.6,1.5s2,0.6,3.2,0.6c1.3,0,2.6-0.3,3.8-0.8s2.2-1.3,3-2.2s1.5-2,2-3.2s0.7-2.5,0.7-3.8
		c0-1.2-0.2-2.5-0.7-3.7C366,593,365.4,592,364.5,591z M363.5,600.5c-0.3,0.9-0.7,1.6-1.2,2.3s-1.2,1.2-2,1.6
		c-0.8,0.4-1.7,0.6-2.6,0.6c-1.2,0-2.4-0.3-3.3-1c-1-0.7-1.7-1.6-2.2-2.7c-0.5-1.1-0.8-2.3-0.8-3.5c0-0.9,0.1-1.8,0.4-2.6
		c0.3-0.9,0.7-1.6,1.2-2.3s1.2-1.2,2-1.6c0.8-0.4,1.7-0.6,2.7-0.6c0.9,0,1.8,0.2,2.6,0.6c0.8,0.4,1.5,0.9,2,1.6s0.9,1.4,1.2,2.3
		c0.3,0.9,0.5,1.8,0.5,2.7C364,598.8,363.9,599.6,363.5,600.5z M389.7,602.2L378.5,588h-2.6v19.7h3.1v-14l11,14h2.7V588h-3.1
		L389.7,602.2L389.7,602.2z M415.5,599c-0.3-0.4-0.8-0.7-1.4-1s-1.2-0.6-1.8-0.8c-0.6-0.2-1.4-0.4-2.2-0.6c-0.5-0.1-1-0.2-1.3-0.3
		s-0.7-0.2-1.1-0.3s-0.7-0.2-0.9-0.3c-0.2-0.1-0.4-0.2-0.7-0.4c-0.2-0.2-0.4-0.3-0.5-0.5s-0.2-0.4-0.3-0.6s-0.1-0.5-0.1-0.7
		c0-0.9,0.3-1.5,1-2c0.6-0.5,1.6-0.7,2.9-0.7c1.1,0,2.1,0.2,3.2,0.7c1,0.4,1.7,0.9,2.2,1.4l1.4-2.6c-2-1.5-4.2-2.2-6.7-2.2
		c-1,0-2,0.1-2.8,0.4c-0.9,0.3-1.6,0.6-2.3,1.1c-0.6,0.5-1.1,1.1-1.5,1.9S402,593,402,594c0,0.8,0.1,1.4,0.4,2s0.6,1,1.1,1.4
		s1.1,0.8,1.8,1c0.7,0.3,1.5,0.6,2.6,0.8c0.7,0.2,1.2,0.3,1.6,0.4c0.4,0.1,0.8,0.2,1.3,0.4s0.8,0.3,1.1,0.5c0.3,0.2,0.5,0.3,0.8,0.6
		c0.2,0.2,0.4,0.5,0.5,0.7c0.1,0.3,0.1,0.6,0.1,0.9c0,0.8-0.3,1.4-1,1.9c-0.7,0.4-1.6,0.7-2.8,0.7c-1.4,0-2.7-0.3-4-0.8
		s-2.2-1.1-2.8-1.7l-1.4,2.7c1.1,0.9,2.4,1.5,3.8,2s2.9,0.7,4.4,0.7c0.8,0,1.6-0.1,2.3-0.2c0.7-0.1,1.4-0.3,2-0.6s1.1-0.7,1.6-1.1
		c0.4-0.4,0.8-1,1-1.6s0.4-1.3,0.4-2.1c0-0.7-0.1-1.3-0.3-1.9C416.2,599.8,416,599.3,415.5,599z M423.5,590.8h6.6v17h3.2v-17h6.6
		V588h-16.3L423.5,590.8L423.5,590.8z M461.7,598c0.7-1.1,1.1-2.3,1.1-3.6c0-0.8-0.2-1.6-0.5-2.3c-0.3-0.8-0.7-1.5-1.2-2.1
		s-1.2-1.1-1.9-1.5c-0.8-0.4-1.6-0.6-2.5-0.6h-8.6v19.7h3.1v-6.9h4.6l4.3,6.9h3.5l-4.6-7.5C460,599.8,461,599.1,461.7,598z
		 M456.7,598h-5.5v-7.4h5.3c0.8,0,1.6,0.4,2.2,1.1s0.9,1.6,0.9,2.6s-0.3,1.9-0.8,2.6C458.2,597.8,457.5,598,456.7,598z M485.5,598
		c0,0.7-0.1,1.4-0.2,2.1s-0.3,1.3-0.6,1.9c-0.3,0.6-0.6,1.1-1,1.6c-0.4,0.4-0.9,0.8-1.5,1.1s-1.3,0.4-2.2,0.4
		c-0.8,0-1.5-0.1-2.1-0.4s-1.1-0.6-1.5-1s-0.7-1-1-1.6s-0.5-1.3-0.6-1.9c-0.1-0.7-0.2-1.4-0.2-2.1v-10h-3.1v10c0,1.1,0.1,2.1,0.3,3
		c0.2,0.9,0.5,1.8,0.9,2.7s1,1.6,1.6,2.2c0.6,0.6,1.4,1.1,2.4,1.5s2.1,0.5,3.3,0.5c1.5,0,2.8-0.3,3.9-0.8s2-1.2,2.7-2.2
		s1.2-2,1.5-3.1c0.3-1.2,0.5-2.4,0.5-3.8v-10h-3.1L485.5,598L485.5,598z M510.5,603.6c-0.6,0.5-1.2,0.9-1.9,1.1
		c-0.6,0.2-1.3,0.3-2,0.3c-1.2,0-2.3-0.3-3.3-1s-1.7-1.6-2.3-2.7c-0.5-1.1-0.8-2.3-0.8-3.6c0-0.7,0.1-1.4,0.3-2.1
		c0.2-0.7,0.4-1.3,0.8-1.9c0.4-0.6,0.8-1.2,1.3-1.6c0.5-0.5,1.1-0.8,1.8-1.1c0.7-0.3,1.4-0.4,2.2-0.4c0.5,0,1,0.1,1.5,0.2
		c0.5,0.1,0.9,0.3,1.4,0.5s0.9,0.6,1.3,1s0.7,0.9,1,1.5l2.4-1.6c-0.7-1.3-1.6-2.3-3-3.1c-1.3-0.8-2.8-1.2-4.6-1.2
		c-1.2,0-2.3,0.2-3.3,0.6c-1,0.4-1.9,0.9-2.7,1.5c-0.8,0.6-1.4,1.4-1.9,2.2s-1,1.7-1.2,2.7c-0.3,0.9-0.4,1.9-0.4,2.9
		c0,1.2,0.2,2.4,0.6,3.5c0.4,1.2,1,2.2,1.8,3.2c0.8,0.9,1.7,1.7,2.8,2.3c1.1,0.6,2.3,1,3.5,1.1c1,0.7,1.5,1.3,1.5,2.1
		c0,0.4-0.1,0.7-0.4,1c-0.3,0.2-0.7,0.3-1.2,0.3c-0.6,0-1.3-0.2-2-0.6l-0.8,1.6c1,0.5,2.1,0.8,3.3,0.8c1,0,1.7-0.2,2.2-0.7
		s0.8-1.1,0.8-1.9c0-1-0.5-1.9-1.4-2.7c1.5-0.2,2.8-0.7,4.1-1.5c1.2-0.8,2.1-1.8,2.6-3l-2.6-1.5
		C511.7,602.5,511.2,603.1,510.5,603.6z M528.4,588l-7.7,19.7h3.3l2.1-5.4h7.6l2.1,5.4h3.3l-7.7-19.7H528.4z M526.5,600l3.3-8.6
		l3.2,8.6H526.5z M526.8,585.3c0-0.1,0.1-0.3,0.2-0.4c0.1-0.2,0.2-0.3,0.4-0.4c0.2-0.1,0.4-0.2,0.7-0.2s0.7,0.1,1,0.3
		c0.4,0.2,0.8,0.4,1.2,0.6s0.9,0.3,1.4,0.3s0.9-0.1,1.3-0.3c0.4-0.2,0.7-0.4,0.9-0.7s0.4-0.6,0.6-0.9s0.3-0.6,0.3-0.8
		c0.1-0.2,0.1-0.4,0.1-0.5H533c0,0,0,0.1,0,0.2s-0.1,0.2-0.1,0.3c-0.1,0.1-0.1,0.3-0.3,0.4c-0.1,0.1-0.3,0.2-0.4,0.3
		c-0.2,0.1-0.4,0.1-0.7,0.1c-0.4,0-0.7-0.1-1.1-0.3s-0.8-0.4-1.2-0.6c-0.4-0.2-0.9-0.3-1.3-0.3s-0.8,0.1-1.2,0.3s-0.6,0.4-0.9,0.7
		c-0.2,0.3-0.4,0.6-0.5,0.9c-0.2,0.3-0.3,0.6-0.3,0.8c-0.1,0.2-0.1,0.4-0.1,0.6h1.7C526.7,585.5,526.7,585.5,526.8,585.3z
		 M563.3,594.2c-0.5-1.2-1.1-2.3-1.9-3.2s-1.8-1.7-3-2.3s-2.5-0.9-3.8-0.9s-2.6,0.3-3.8,0.8c-1.2,0.6-2.2,1.3-3,2.2s-1.5,2-2,3.2
		s-0.7,2.5-0.7,3.8c0,1,0.1,2,0.4,3s0.7,1.9,1.3,2.7s1.2,1.6,2,2.2c0.8,0.6,1.6,1.1,2.6,1.5s2,0.6,3.2,0.6c1.3,0,2.6-0.3,3.8-0.8
		s2.2-1.3,3-2.2s1.5-2,2-3.2s0.7-2.5,0.7-3.8C564,596.6,563.8,595.5,563.3,594.2z M560.4,600.5c-0.3,0.9-0.7,1.6-1.2,2.3
		s-1.2,1.2-2,1.6c-0.8,0.4-1.7,0.6-2.6,0.6c-1.2,0-2.4-0.3-3.3-1c-1-0.7-1.7-1.6-2.2-2.7c-0.5-1.1-0.8-2.3-0.8-3.5
		c0-0.9,0.1-1.8,0.4-2.6c0.3-0.9,0.7-1.6,1.2-2.3s1.2-1.2,2-1.6c0.8-0.4,1.7-0.6,2.7-0.6c0.9,0,1.8,0.2,2.6,0.6
		c0.8,0.4,1.5,0.9,2,1.6s0.9,1.4,1.2,2.3c0.3,0.9,0.5,1.8,0.5,2.7C560.8,598.8,560.7,599.6,560.4,600.5z"/>
	<path d="M126.5,388.9h6.8c-0.6,1.6-2.3,3-5,3c-3.8,0-6.4-2.7-6.4-6.5s2.6-6.7,6.3-6.7c2.4,0,4.4,1.1,5.5,3.1l5.8-3.4
		c-2.3-3.9-6.6-6.2-11.2-6.2c-7.3,0-13.2,5.8-13.2,13.2c0,7.4,5.8,13.1,13.2,13.1c6.9,0,12.2-5.1,12.2-12.9v-2h-14V388.9 M163,372
		c-7.4,0-13.2,5.8-13.2,13.2c0,7.3,5.8,13.2,13.2,13.2c7.3,0,13.1-5.8,13.1-13.2S170.3,372,163,372z M163,391.5c-3.4,0-6-2.7-6-6.2
		s2.6-6.2,6-6.2c3.3,0,5.8,2.7,5.8,6.2S166.3,391.5,163,391.5z M195.5,388.1l-5.8-15.5h-7.3l9.7,25.1h6.8l9.8-25.1h-7.3L195.5,388.1
		z M217.5,397.8h18v-6.1h-11.2V388h7.4v-5.4h-7.4v-3.7h11.2v-6.1h-18V397.8z M267,380.9c0-4.7-3.8-8.2-8.7-8.2h-12.2v25.1h6.7V389
		h2.8l5,8.7h7.5l-5.6-9.7C265.2,386.6,267,384,267,380.9z M257.5,383.4h-4.7v-4.7h4.7c1.6,0,2.6,1.1,2.6,2.4
		C260,382.2,259,383.4,257.5,383.4z M293.3,386l-10.2-13.3h-5.7v25.1h6.7v-13.2l10.1,13.2h5.7v-25.1h-6.7L293.3,386
		C293.2,386,293.3,386,293.3,386z M323,372c-7.4,0-13.2,5.8-13.2,13.2c0,7.3,5.8,13.2,13.2,13.2c7.3,0,13.1-5.8,13.1-13.2
		S330.2,372,323,372z M323,391.5c-3.4,0-6-2.7-6-6.2s2.6-6.2,6-6.2c3.3,0,5.8,2.7,5.8,6.2S326.2,391.5,323,391.5z M362.5,397.8h6.8
		v-9.2h7.4v-5.7h-7.4v-4.3h11.2v-6h-18V397.8z M390.5,397.8h18v-6.1h-11.2V388h7.4v-5.4h-7.4v-3.7h11.2v-6.1h-18V397.8L390.5,397.8z
		 M429.3,372.6h-10.2v25.1h10.2c7.7,0,13.4-5.4,13.4-12.6C442.8,378,437,372.6,429.3,372.6z M429,391.2h-3.1v-12.1h3.1
		c4,0,6.7,2.4,6.7,6C435.7,388.9,433,391.2,429,391.2z M452.5,397.8h18v-6.1h-11.2V388h7.4v-5.4h-7.4v-3.7h11.2v-6.1h-18V397.8z
		 M501.8,380.9c0-4.7-3.8-8.2-8.7-8.2h-12.2v25.1h6.7V389h2.8l5,8.7h7.5l-5.6-9.7C500,386.6,501.8,384,501.8,380.9z M492.4,383.4
		h-4.7v-4.7h4.7c1.6,0,2.6,1.1,2.6,2.4C495,382.2,494,383.4,492.4,383.4z M520.9,372.6l-10.5,25.1h7.1l1.7-4.3h9.9l1.8,4.3h7
		l-10.6-25.1C527.3,372.6,520.9,372.6,520.9,372.6z M521.7,387.5l2.5-6.2l2.5,6.2H521.7z M553.9,391.4v-18.7h-7.1v25.1h17.7v-6.5
		h-10.6L553.9,391.4L553.9,391.4z"/>
	<rect x="518.7" y="425" class="st1" width="45.8" height="87.9"/>
	<rect x="518.7" y="513" class="st2" width="45.8" height="44.5"/>
	<rect x="465.2" y="425" class="st3" width="45.8" height="132.4"/>
	<rect x="364.7" y="483.9" class="st4" width="43.3" height="73.6"/>
	<rect x="408" y="425" class="st5" width="49.5" height="48.1"/>
	<path class="st1" d="M423,473.1h-15v84.2h15c23.3,0,42.1-18.9,42.1-42.1S446.4,473.1,423,473.1"/>
	<path class="st3" d="M394,425c-16.2,0-29.4,13.2-29.4,29.4c0,16.2,13.2,29.4,29.4,29.4h14V425H394"/>
	<path class="st5" d="M114.5,478.1H125c14.7,0,26.6-11.9,26.6-26.6s-11.9-26.6-26.6-26.6h-10.6L114.5,478.1"/>
	<rect x="68.7" y="425" class="st3" width="45.8" height="53.1"/>
	<rect x="68.7" y="478.1" class="st1" width="45.8" height="79.3"/>
	<path class="st4" d="M129.5,478.1h-15.1v79.3h15.1c21.9,0,39.6-17.7,39.6-39.6C169.2,495.9,151.4,478.1,129.5,478.1"/>
	<polyline class="st3" points="221,505 169.2,505 169.2,557.5 255.2,557.5 221,505 	"/>
	<polyline class="st1" points="221,505 169.2,425 169.2,505 221,505 	"/>
	<path class="st5" d="M221,425h-52l52,80c22.1,0,40-17.9,40-40S243.2,425,221,425"/>
	<polyline class="st1" points="308.9,425 230,557.5 387.5,557.5 308.9,425 	"/>
	<polyline class="st2" points="364.7,518.8 364.7,557.5 387.5,557.5 364.7,518.8 	"/>
	<polyline class="st2" points="230,557.5 255.2,557.5 242,537.2 230,557.5 	"/>
	<path class="st5" d="M357.2,557.5c0-26.7-21.6-48.3-48.3-48.3c-26.7,0-48.3,21.6-48.3,48.3H357.2"/>
	<rect x="564.5" y="513" class="st5" width="45.8" height="44.5"/>
	<g>
		<rect y="-0.2" class="st1" width="678.8" height="326.8"/>
		<g>
			<g>
				<path class="st0" d="M188.9,125.7v-18.1l-7.5,13.7H179l-7.5-13.7v18.1h-4v-25.4h4.3l8.4,15.5l8.4-15.5h4.3v25.4H188.9z"/>
				<path class="st0" d="M205.7,125.7v-25.4h4v25.4H205.7z"/>
				<path class="st0" d="M226.5,107.8v18h-4v-25.5h3.3l14.4,18.4v-18.3h4.1v25.4h-3.6L226.5,107.8z"/>
				<path class="st0" d="M257.2,125.7v-25.4h4v25.4H257.2z"/>
				<path class="st0" d="M289,106.3c-0.6-0.6-1.5-1.2-2.8-1.7c-1.3-0.6-2.7-0.9-4.1-0.9c-1.6,0-2.9,0.3-3.7,0.9
					c-0.9,0.6-1.2,1.5-1.2,2.6c0,0.4,0,0.7,0.1,0.9c0.1,0.3,0.2,0.6,0.4,0.8c0.2,0.2,0.4,0.4,0.7,0.7c0.3,0.2,0.6,0.4,0.9,0.5
					s0.7,0.3,1.1,0.5c0.5,0.2,0.9,0.3,1.4,0.4s1,0.3,1.7,0.5c1.1,0.3,2.1,0.6,2.8,0.8c0.8,0.3,1.5,0.6,2.3,1s1.3,0.9,1.8,1.3
					c0.5,0.5,0.8,1.1,1,1.8c0.3,0.8,0.4,1.5,0.4,2.5s-0.2,1.9-0.5,2.7c-0.3,0.9-0.8,1.5-1.3,2.1c-0.6,0.6-1.2,1-2,1.4
					s-1.6,0.7-2.6,0.9c-0.9,0.2-1.9,0.3-2.9,0.3c-1.9,0-3.8-0.3-5.6-0.9s-3.4-1.4-4.8-2.6l1.8-3.4c0.8,0.8,1.9,1.5,3.6,2.2
					s3.4,1,5.1,1c1.6,0,2.8-0.3,3.7-0.9s1.3-1.3,1.3-2.4c0-0.4-0.1-0.8-0.2-1.1c-0.1-0.4-0.4-0.7-0.7-0.9s-0.7-0.5-0.9-0.7
					c-0.4-0.2-0.8-0.4-1.4-0.6c-0.7-0.2-1.1-0.4-1.7-0.6c-0.5-0.1-1.2-0.3-2.1-0.6c-1.3-0.4-2.5-0.7-3.3-1s-1.6-0.8-2.3-1.3
					c-0.7-0.6-1.1-1.1-1.4-1.9s-0.5-1.6-0.5-2.6c0-1.2,0.2-2.4,0.7-3.3s1.1-1.8,2-2.5s1.8-1.1,2.9-1.4c1.1-0.4,2.4-0.5,3.7-0.5
					c3.1,0,6,0.9,8.6,2.8L289,106.3z"/>
				<path class="st0" d="M321.7,103.9h-8.4v21.9h-4.1v-21.9h-8.4v-3.5h20.9V103.9L321.7,103.9z"/>
				<path class="st0" d="M349.7,122.2v3.5h-17.4v-25.4h17.1v3.5h-13.1v7.2h11.4v3.3h-11.4v7.8L349.7,122.2L349.7,122.2z M342.5,97.8
					l-2.6-0.8l2.1-3.9h3.8L342.5,97.8z"/>
				<path class="st0" d="M360.9,125.7v-25.4H372c1.1,0,2.2,0.3,3.1,0.8c1,0.5,1.8,1.1,2.5,1.9s1.2,1.7,1.6,2.7c0.4,0.9,0.6,2,0.6,3
					c0,1.7-0.5,3.3-1.3,4.6c-0.9,1.4-2.1,2.4-3.6,2.8l6,9.7h-4.5l-5.5-8.8H365v8.8L360.9,125.7L360.9,125.7z M364.9,113.4h7
					c1.1,0,2-0.5,2.7-1.4c0.8-0.9,1-2.1,1-3.4s-0.4-2.4-1.2-3.3c-0.9-0.9-1.8-1.4-2.8-1.4h-6.8L364.9,113.4L364.9,113.4z"/>
				<path class="st0" d="M391.7,125.7v-25.4h4v25.4H391.7z"/>
				<path class="st0" d="M406.9,113c0-1.7,0.3-3.3,0.9-4.8c0.7-1.6,1.5-2.9,2.6-4.1c1-1.1,2.4-2.1,3.9-2.8c1.5-0.8,3.1-1,4.8-1
					c1.8,0,3.4,0.4,4.9,1.1c1.5,0.8,2.8,1.7,3.9,2.9c1,1.2,1.8,2.6,2.5,4.2c0.6,1.5,0.9,3.1,0.9,4.7c0,1.7-0.3,3.3-0.9,4.8
					c-0.7,1.5-1.4,2.9-2.6,4.1c-1,1.1-2.4,2.1-3.9,2.8c-1.5,0.7-3.1,1-4.8,1c-1.4,0-2.7-0.2-4.1-0.7c-1.3-0.5-2.4-1.1-3.4-2
					s-1.8-1.8-2.6-2.8s-1.2-2.3-1.6-3.5C407.2,115.6,406.9,114.3,406.9,113z M419,122.3c1.2,0,2.4-0.3,3.4-0.8
					c1-0.6,1.9-1.2,2.6-2.1s1.1-1.9,1.5-2.9c0.4-1.1,0.6-2.2,0.6-3.4c0-1.2-0.2-2.4-0.6-3.5s-0.9-2.1-1.6-2.9
					c-0.7-0.9-1.5-1.5-2.6-2.1c-1-0.5-2.1-0.8-3.3-0.8s-2.4,0.3-3.4,0.8s-1.9,1.2-2.6,2.1s-1.2,1.9-1.6,2.9
					c-0.4,1.1-0.6,2.2-0.6,3.4c0,1.6,0.3,3.1,0.9,4.5c0.7,1.4,1.6,2.6,2.8,3.4C416,121.8,417.4,122.3,419,122.3z"/>
				<path class="st0" d="M458.5,125.7v-25.4h9c2,0,3.8,0.3,5.4,0.9c1.6,0.7,2.9,1.6,3.9,2.7c0.9,1.1,1.8,2.5,2.3,4
					c0.6,1.5,0.8,3.1,0.8,4.9c0,3.9-1.1,6.9-3.4,9.3s-5.2,3.5-9,3.5L458.5,125.7L458.5,125.7z M467.5,103.9h-5v18.3h5
					c1.7,0,3.2-0.4,4.5-1.2c1.2-0.9,2.2-1.9,2.8-3.3c0.7-1.4,0.9-2.9,0.9-4.7c0-2.7-0.8-4.9-2.2-6.6
					C472.2,104.8,470,103.9,467.5,103.9z"/>
				<path class="st0" d="M497.7,100.3h3.8l9.8,25.4H507l-2.6-6.9h-9.7l-2.6,6.9h-4.3L497.7,100.3z M503.7,115.8l-4.1-11.2l-4.2,11.2
					H503.7z"/>
			</g>
			<g>
				<path class="st0" d="M92.2,150.1c2.4,0,4.4,0.5,6.3,1.5c1.8,1,3.2,2.4,4.1,4.1l-5.3,3.8c-0.2-0.6-0.6-1.1-0.9-1.5
					c-0.4-0.4-0.9-0.8-1.3-0.9s-0.9-0.4-1.4-0.5s-0.9-0.2-1.5-0.2c-0.9,0-1.8,0.2-2.6,0.6c-0.8,0.4-1.3,0.9-1.8,1.5
					c-0.5,0.7-0.8,1.3-1,2.1s-0.4,1.6-0.4,2.4c0,1.9,0.6,3.4,1.6,4.7s2.5,2,4.3,2c0.7,0,1.3-0.1,2-0.3s1.2-0.6,1.8-1s1-1,1.2-1.8
					l5.7,3.4c-0.5,1.2-1.3,2.3-2.5,3.2s-2.6,1.6-4,2.1s-2.9,0.7-4.4,0.7c-1.8,0-3.5-0.4-5.1-1.1c-1.6-0.8-2.9-1.7-4.1-2.9
					c-1.1-1.2-2-2.7-2.6-4.2c-0.7-1.6-0.9-3.2-0.9-4.8c0-1.5,0.3-3.1,0.9-4.5c0.6-1.5,1.4-2.8,2.6-4.1c1-1.2,2.5-2.2,4.1-2.9
					C88.4,150.5,90.2,150.1,92.2,150.1z"/>
				<path class="st0" d="M112.7,175.6v-25.4h7v25.4H112.7z"/>
				<path class="st0" d="M149.2,169.5v6.1H131v-25.4h17.8v6.1H138v3.6h9.3v5.7H138v4L149.2,169.5L149.2,169.5z M133.7,147.1l4.1-4.2
					h4.8l4.1,4.2l-3.4,1.5l-3-2.3l-3,2.3L133.7,147.1z"/>
				<path class="st0" d="M166.4,163.1v12.5h-7v-25.4h5.4l10.2,12.9v-12.9h7v25.4h-5.5L166.4,163.1z"/>
				<path class="st0" d="M205.2,150.1c2.4,0,4.4,0.5,6.3,1.5c1.8,1,3.2,2.4,4.1,4.1l-5.3,3.8c-0.2-0.6-0.6-1.1-0.9-1.5
					c-0.4-0.4-0.9-0.8-1.3-0.9c-0.5-0.2-0.9-0.4-1.4-0.5s-0.9-0.2-1.5-0.2c-0.9,0-1.8,0.2-2.6,0.6s-1.3,0.9-1.8,1.5
					c-0.5,0.7-0.8,1.3-1,2.1s-0.4,1.6-0.4,2.4c0,1.9,0.6,3.4,1.6,4.7s2.5,2,4.3,2c0.7,0,1.3-0.1,2-0.3s1.2-0.6,1.8-1s1-1,1.2-1.8
					l5.7,3.4c-0.5,1.2-1.3,2.3-2.5,3.2s-2.6,1.6-4,2.1s-2.9,0.7-4.4,0.7c-1.8,0-3.5-0.4-5.1-1.1s-2.9-1.7-4.1-2.9
					c-1.1-1.2-2-2.7-2.6-4.2c-0.7-1.6-0.9-3.2-0.9-4.8c0-1.5,0.3-3.1,0.9-4.5c0.6-1.5,1.4-2.8,2.6-4.1c1-1.2,2.5-2.2,4.1-2.9
					C201.4,150.5,203.2,150.1,205.2,150.1z"/>
				<path class="st0" d="M225.5,175.6v-25.4h7v25.4H225.5z"/>
				<path class="st0" d="M249.9,150.2h7.8l8,25.4h-7.1l-1.5-5h-6.8l-1.5,5h-7.1L249.9,150.2z M256,166l-2.3-8.9l-2.4,8.9H256z"/>
				<path class="st0" d="M275.4,181.2l1.3-5.6h-2.1V169h5.6v6.6l-1.9,5.6L275.4,181.2L275.4,181.2z"/>
				<path class="st0" d="M325.2,156.2h-7.3v19.4h-7v-19.3h-7.3v-6.1h21.6L325.2,156.2L325.2,156.2z"/>
				<path class="st0" d="M353,169.5v6.1h-18.1v-25.4h17.8v6.1h-10.8v3.6h9.3v5.7h-9.3v4L353,169.5L353,169.5z"/>
				<path class="st0" d="M374.5,150.1c2.4,0,4.4,0.5,6.3,1.5c1.8,1,3.2,2.4,4.1,4.1l-5.3,3.8c-0.2-0.6-0.6-1.1-0.9-1.5
					c-0.4-0.4-0.9-0.8-1.3-0.9c-0.5-0.2-0.9-0.4-1.4-0.5s-0.9-0.2-1.5-0.2c-0.9,0-1.8,0.2-2.6,0.6c-0.8,0.4-1.3,0.9-1.8,1.5
					c-0.5,0.7-0.8,1.3-1,2.1s-0.4,1.6-0.4,2.4c0,1.9,0.6,3.4,1.6,4.7s2.5,2,4.3,2c0.7,0,1.3-0.1,2-0.3s1.2-0.6,1.8-1s1-1,1.2-1.8
					l5.7,3.4c-0.5,1.2-1.3,2.3-2.5,3.2s-2.6,1.6-4,2.1s-2.9,0.7-4.4,0.7c-1.8,0-3.5-0.4-5.1-1.1c-1.6-0.8-2.9-1.7-4.1-2.9
					c-1.1-1.2-2-2.7-2.6-4.2c-0.7-1.6-0.9-3.2-0.9-4.8c0-1.5,0.3-3.1,0.9-4.5c0.6-1.5,1.4-2.8,2.6-4.1c1-1.2,2.5-2.2,4.1-2.9
					C370.9,150.5,372.7,150.1,374.5,150.1z"/>
				<path class="st0" d="M401.9,163.1v12.5h-7v-25.4h5.4l10.2,12.9v-12.9h7v25.4h-5.6L401.9,163.1z"/>
				<path class="st0" d="M427.5,162.9c0-1.7,0.3-3.3,0.9-4.8c0.7-1.5,1.5-2.9,2.6-4.1c1.1-1.1,2.5-2.1,4.2-2.8c1.7-0.8,3.3-1,5.2-1
					s3.6,0.4,5.2,1.1c1.6,0.8,3,1.7,4.1,2.9c1,1.2,2,2.6,2.6,4.2c0.7,1.5,0.9,3.1,0.9,4.7s-0.3,3.2-0.9,4.8
					c-0.7,1.5-1.5,2.9-2.6,4.1c-1.1,1.1-2.5,2.1-4.2,2.8c-1.6,0.8-3.4,1-5.2,1c-1.9,0-3.6-0.4-5.2-1.1c-1.6-0.8-3-1.7-4.1-2.9
					s-2-2.6-2.6-4.2C427.9,166.1,427.5,164.5,427.5,162.9z M440.4,169.6c0.9,0,1.8-0.2,2.6-0.6c0.8-0.4,1.3-0.9,1.8-1.6
					c0.5-0.7,0.8-1.3,1-2.2c0.2-0.8,0.4-1.6,0.4-2.5c0-1.2-0.2-2.3-0.7-3.2c-0.4-0.9-1-1.8-2-2.5c-0.9-0.7-2-0.9-3.2-0.9
					c-0.9,0-1.8,0.2-2.6,0.6s-1.3,0.9-1.8,1.5c-0.5,0.7-0.8,1.3-1,2.2c-0.2,0.8-0.4,1.6-0.4,2.5s0.1,1.7,0.4,2.5s0.6,1.5,1,2.1
					c0.5,0.7,1,1.1,1.8,1.5C438.5,169.3,439.5,169.6,440.4,169.6z"/>
				<path class="st0" d="M463.4,175.6v-25.4h7v19.3h11.5v6.1L463.4,175.6L463.4,175.6z"/>
				<path class="st0" d="M489.7,162.9c0-1.7,0.3-3.3,0.9-4.8c0.7-1.5,1.5-2.9,2.7-4.1c1.1-1.1,2.5-2.1,4.2-2.8c1.7-0.8,3.3-1,5.2-1
					s3.6,0.4,5.2,1.1c1.6,0.8,3,1.7,4.1,2.9c1,1.2,2,2.6,2.6,4.2c0.7,1.5,0.9,3.1,0.9,4.7s-0.3,3.2-0.9,4.8
					c-0.7,1.5-1.5,2.9-2.7,4.1c-1.1,1.1-2.5,2.1-4.2,2.8c-1.6,0.8-3.4,1-5.2,1c-1.9,0-3.6-0.4-5.2-1.1c-1.6-0.8-3-1.7-4.1-2.9
					s-2-2.6-2.6-4.2C490.2,166.1,489.7,164.5,489.7,162.9z M502.7,169.6c0.9,0,1.8-0.2,2.6-0.6c0.8-0.4,1.3-0.9,1.8-1.6
					c0.5-0.7,0.8-1.3,1-2.2c0.2-0.8,0.4-1.6,0.4-2.5c0-1.2-0.2-2.3-0.7-3.2c-0.4-0.9-1-1.8-2-2.5c-0.9-0.7-2-0.9-3.2-0.9
					c-0.9,0-1.8,0.2-2.6,0.6c-0.8,0.4-1.3,0.9-1.8,1.5c-0.5,0.7-0.8,1.3-1,2.2c-0.2,0.8-0.4,1.6-0.4,2.5s0.1,1.7,0.4,2.5
					s0.6,1.5,1,2.1c0.5,0.7,1,1.1,1.8,1.5C500.9,169.3,501.7,169.6,502.7,169.6z"/>
				<path class="st0" d="M538.2,162.1h10.4v13.5h-5.8v-2c-1.8,1.5-3.9,2.3-6.2,2.3c-1.7,0-3.2-0.3-4.7-0.9c-1.5-0.6-2.8-1.4-4-2.6
					c-1.1-1-2-2.5-2.6-4.2s-1-3.5-1-5.5c0-1.8,0.4-3.4,1-5c0.7-1.5,1.6-2.9,2.7-4.1c1.1-1.1,2.6-2,4.2-2.7c1.6-0.7,3.3-0.9,5.1-0.9
					c2.3,0,4.4,0.5,6.2,1.5c1.9,0.9,3.2,2.4,4.2,4.1l-5.2,4c-0.5-1-1.2-1.8-2.3-2.4s-2.1-0.9-3.2-0.9c-1.6,0-3,0.7-4.1,1.9
					c-1,1.2-1.6,2.8-1.6,4.8s0.6,3.6,1.6,4.8s2.5,1.8,4.3,1.8c2,0,3.8-0.9,5.4-2.5h-4.4L538.2,162.1L538.2,162.1z"/>
				<path class="st0" d="M559.2,175.6v-25.4h7v25.4H559.2z"/>
				<path class="st0" d="M583.5,150.2h7.8l8,25.4h-7.1l-1.5-5h-6.6l-1.5,5h-7.1L583.5,150.2z M589.7,166l-2.3-8.9L585,166H589.7z"/>
			</g>
			<g>
				<path class="st0" d="M220.2,219.4v6.1h-18.1v-25.4h17.8v6.1h-10.8v3.6h9.3v5.7h-9.3v4L220.2,219.4L220.2,219.4z"/>
				<path class="st0" d="M245.7,225.4V200h7v25.4H245.7z"/>
				<path class="st0" d="M271.2,212.9v12.5h-7V200h5.4l10.2,12.9V200h7v25.4h-5.5L271.2,212.9z"/>
				<path class="st0" d="M296.9,212.7c0-1.7,0.3-3.3,0.9-4.8c0.7-1.5,1.5-2.9,2.7-4.1c1.1-1.1,2.5-2.1,4.2-2.8c1.6-0.7,3.3-1,5.2-1
					s3.6,0.4,5.2,1.1c1.6,0.8,3,1.7,4.1,2.9c1,1.2,2,2.6,2.6,4.2c0.7,1.5,0.9,3.1,0.9,4.7s-0.3,3.2-0.9,4.8
					c-0.7,1.5-1.5,2.9-2.7,4.1c-1.1,1.1-2.5,2.1-4.2,2.8c-1.6,0.8-3.4,1-5.2,1c-1.9,0-3.6-0.4-5.2-1.1s-3-1.7-4.1-2.9
					s-2-2.6-2.6-4.2C297.2,216,296.9,214.4,296.9,212.7z M309.9,219.5c0.9,0,1.8-0.2,2.6-0.6s1.3-0.9,1.8-1.6c0.5-0.7,0.8-1.3,1-2.2
					c0.2-0.8,0.4-1.6,0.4-2.5c0-1.2-0.2-2.3-0.7-3.2c-0.4-0.9-1-1.8-2-2.5c-0.9-0.7-2-0.9-3.2-0.9c-0.9,0-1.8,0.2-2.6,0.6
					c-0.8,0.4-1.3,0.9-1.8,1.5c-0.5,0.7-0.8,1.3-1,2.2c-0.2,0.8-0.4,1.6-0.4,2.5s0.1,1.7,0.4,2.5s0.6,1.5,1,2.1
					c0.5,0.7,1,1.1,1.8,1.5C307.9,219.2,308.9,219.5,309.9,219.5z"/>
				<path class="st0" d="M336.7,200.1l4.9,17.3l4.9-17.3h7.3l-8.8,25.4h-6.9l-8.9-25.4H336.7z"/>
				<path class="st0" d="M366.9,200.1h7.8l8,25.4h-7.1l-1.5-5h-6.8l-1.5,5h-7.1L366.9,200.1z M372.9,215.9l-2.3-8.9l-2.4,8.9H372.9z
					"/>
				<path class="st0" d="M413.2,219.8c-0.7,1.5-1.7,2.7-3.4,3.8c-1.6,1-3.5,1.7-5.5,2c1.1,1.1,1.7,2.5,1.7,3.8
					c0,1.1-0.4,2.1-1.1,2.8c-0.8,0.8-1.8,1.1-3.2,1.1s-2.9-0.4-4.4-1.2l1.6-3.5c0.6,0.5,1.1,0.7,1.7,0.7c0.5,0,0.8-0.1,1-0.4
					c0.3-0.3,0.4-0.6,0.4-1c0-0.8-0.5-1.5-1.3-2.4c-1.6-0.2-3.1-0.7-4.5-1.5c-1.4-0.9-2.6-1.8-3.6-3s-1.7-2.6-2.3-4
					s-0.9-2.9-0.9-4.4s0.3-3.1,0.9-4.5s1.4-2.8,2.6-4.1c1-1.2,2.5-2.2,4.1-2.9c1.7-0.8,3.5-1.1,5.5-1.1c2.4,0,4.4,0.5,6.3,1.5
					c1.8,1,3.2,2.4,4.1,4.1l-5.3,3.8c-0.2-0.6-0.6-1.1-0.9-1.5c-0.4-0.4-0.9-0.8-1.3-0.9s-0.9-0.4-1.4-0.5s-0.9-0.2-1.5-0.2
					c-0.9,0-1.8,0.2-2.6,0.6c-0.8,0.4-1.3,0.9-1.8,1.5c-0.5,0.7-0.8,1.3-1,2.1s-0.4,1.6-0.4,2.4c0,1.9,0.6,3.4,1.6,4.7s2.5,2,4.3,2
					c0.7,0,1.3-0.1,2-0.3s1.2-0.6,1.8-1s1-1,1.2-1.8L413.2,219.8z"/>
				<path class="st0" d="M428.2,200.1h7.8l8,25.4h-7.1l-1.5-5h-6.8l-1.5,5H420L428.2,200.1z M429.7,196.7c-0.3,0-0.6,0.1-0.8,0.2
					c-0.2,0.1-0.4,0.3-0.5,0.4c-0.1,0.2-0.2,0.3-0.3,0.5s-0.1,0.4-0.1,0.4c0,0.1,0,0.2,0,0.2h-3.6c0-0.3,0.1-0.7,0.2-1
					c0.1-0.5,0.3-0.9,0.6-1.4c0.3-0.6,0.6-1,0.9-1.5s0.9-0.9,1.4-1.1c0.6-0.3,1.2-0.5,1.9-0.5c0.6,0,1,0.1,1.5,0.3s0.9,0.4,1.1,0.7
					c0.3,0.2,0.7,0.5,1,0.7c0.4,0.2,0.8,0.3,1.1,0.3s0.6-0.1,0.8-0.2c0.2-0.1,0.4-0.3,0.6-0.5c0.1-0.2,0.2-0.4,0.3-0.6
					c0.1-0.2,0.1-0.4,0.2-0.5c0-0.1,0-0.2,0-0.2h3.6c0,0.2-0.1,0.5-0.2,0.9s-0.3,0.9-0.6,1.4c-0.3,0.6-0.6,1-0.9,1.5
					c-0.4,0.5-0.9,0.9-1.4,1.2c-0.6,0.4-1.2,0.5-1.9,0.5c-0.5,0-0.9-0.1-1.4-0.3s-0.9-0.4-1.1-0.6c-0.3-0.2-0.7-0.4-1-0.6
					C430.5,196.8,430.2,196.7,429.7,196.7z M434.4,215.9l-2.3-8.9l-2.4,8.9H434.4z"/>
				<path class="st0" d="M450.9,212.7c0-1.7,0.3-3.3,0.9-4.8c0.7-1.5,1.5-2.9,2.7-4.1c1.1-1.1,2.5-2.1,4.2-2.8c1.6-0.7,3.3-1,5.2-1
					s3.6,0.4,5.2,1.1c1.6,0.8,3,1.7,4.1,2.9c1,1.2,2,2.6,2.6,4.2c0.7,1.5,0.9,3.1,0.9,4.7s-0.3,3.2-0.9,4.8
					c-0.7,1.5-1.5,2.9-2.6,4.1c-1.1,1.1-2.5,2.1-4.2,2.8c-1.6,0.8-3.4,1-5.2,1c-1.9,0-3.6-0.4-5.2-1.1c-1.6-0.8-3-1.7-4.1-2.9
					s-2-2.6-2.6-4.2C451.2,216,450.9,214.4,450.9,212.7z M463.9,219.5c0.9,0,1.8-0.2,2.6-0.6c0.8-0.4,1.3-0.9,1.8-1.6
					c0.5-0.7,0.8-1.3,1-2.2c0.2-0.8,0.4-1.6,0.4-2.5c0-1.2-0.2-2.3-0.7-3.2c-0.4-0.9-1-1.8-2-2.5c-0.9-0.7-2-0.9-3.2-0.9
					c-0.9,0-1.8,0.2-2.6,0.6c-0.8,0.4-1.3,0.9-1.8,1.5c-0.5,0.7-0.8,1.3-1,2.2c-0.2,0.8-0.4,1.6-0.4,2.5s0.1,1.7,0.4,2.5
					s0.6,1.5,1,2.1c0.5,0.7,1,1.1,1.8,1.5C461.9,219.2,462.9,219.5,463.9,219.5z"/>
			</g>
		</g>
	</g>
</g>
</svg>
