<?xml version="1.0" encoding="utf-8"?>
<!-- Generator: Adobe Illustrator 27.1.1, SVG Export Plug-In . SVG Version: 6.00 Build 0)  -->
<svg version="1.1"
	 id="svg150" xmlns:rdf="http://www.w3.org/1999/02/22-rdf-syntax-ns#" xmlns:svg="http://www.w3.org/2000/svg" xmlns:cc="http://creativecommons.org/ns#" xmlns:dc="http://purl.org/dc/elements/1.1/" xmlns:sodipodi="http://sodipodi.sourceforge.net/DTD/sodipodi-0.dtd" xmlns:inkscape="http://www.inkscape.org/namespaces/inkscape"
	 xmlns="http://www.w3.org/2000/svg" xmlns:xlink="http://www.w3.org/1999/xlink" x="0px" y="0px" viewBox="0 0 678.9 654.3"
	 style="enable-background:new 0 0 678.9 654.3;" xml:space="preserve">
<style type="text/css">
	.st0{fill:#FFFFFF;}
	.st1{fill:#FFDA00;}
	.st2{fill:#4E4E4E;}
	.st3{fill:#00D000;}
	.st4{fill:#FF0000;}
	.st5{fill:#183EFF;}
</style>
<sodipodi:namedview  bordercolor="#666666" borderopacity="1" gridtolerance="10" guidetolerance="10" id="namedview152" inkscape:current-layer="svg150" inkscape:cx="226.46719" inkscape:cy="449.92703" inkscape:pageopacity="0" inkscape:pageshadow="2" inkscape:window-height="1017" inkscape:window-maximized="1" inkscape:window-width="1920" inkscape:window-x="-8" inkscape:window-y="-8" inkscape:zoom="0.89359596" objecttolerance="10" pagecolor="#ffffff" showgrid="false" units="px">
	</sodipodi:namedview>
<g>
	<rect x="0" y="327" class="st0" width="678.8" height="326.8"/>
	<path d="M129.4,598c0,0.7-0.1,1.4-0.2,2.1s-0.3,1.3-0.5,1.9c-0.3,0.6-0.6,1.1-1,1.6c-0.4,0.4-0.9,0.8-1.5,1.1
		c-0.6,0.3-1.3,0.4-2.2,0.4c-0.8,0-1.5-0.1-2.1-0.4s-1.1-0.6-1.5-1c-0.4-0.4-0.7-1-1-1.6c-0.3-0.6-0.5-1.3-0.6-1.9
		c-0.1-0.7-0.2-1.4-0.2-2.1v-10h-3.1v10c0,1.1,0.1,2.1,0.3,3c0.2,0.9,0.5,1.8,0.9,2.7s1,1.6,1.6,2.2c0.6,0.6,1.4,1.1,2.4,1.5
		c1,0.4,2.1,0.5,3.3,0.5c1.5,0,2.8-0.3,3.9-0.8s2-1.2,2.7-2.2c0.7-0.9,1.2-2,1.5-3.1c0.3-1.2,0.5-2.4,0.5-3.8v-10h-3.1v9.9
		 M156,602.2L144.8,588h-2.6v19.7h3.1v-14l11,14h2.7V588h-3.1L156,602.2L156,602.2z M169,607.8h3.1V588H169V607.8z M187.9,588
		l-7.7,19.7h3.3l2.1-5.4h7.6l2.1,5.4h3.3l-7.7-19.7H187.9z M186,600l3.3-8.6l3.2,8.6H186z M186.2,585.3c0-0.1,0.1-0.3,0.2-0.4
		c0.1-0.2,0.2-0.3,0.4-0.4c0.2-0.1,0.4-0.2,0.7-0.2s0.7,0.1,1,0.3c0.4,0.2,0.8,0.4,1.2,0.6s0.9,0.3,1.4,0.3s0.9-0.1,1.3-0.3
		c0.4-0.2,0.7-0.4,0.9-0.7c0.2-0.3,0.4-0.6,0.6-0.9s0.3-0.6,0.3-0.8c0.1-0.2,0.1-0.4,0.1-0.5h-1.8c0,0,0,0.1,0,0.2s-0.1,0.2-0.1,0.3
		c-0.1,0.1-0.1,0.3-0.3,0.4c-0.1,0.1-0.3,0.2-0.4,0.3c-0.2,0.1-0.4,0.1-0.7,0.1c-0.4,0-0.7-0.1-1.1-0.3s-0.8-0.4-1.2-0.6
		c-0.4-0.2-0.9-0.3-1.3-0.3s-0.8,0.1-1.2,0.3c-0.4,0.2-0.6,0.4-0.9,0.7c-0.3,0.3-0.4,0.6-0.5,0.9c-0.2,0.3-0.3,0.6-0.3,0.8
		c-0.1,0.2-0.1,0.4-0.1,0.6h1.7C186.2,585.5,186.2,585.5,186.2,585.3z M220.9,591c-0.8-0.9-1.8-1.7-3-2.3c-1.2-0.6-2.5-0.9-3.8-0.9
		s-2.6,0.3-3.8,0.8c-1.2,0.6-2.2,1.3-3,2.2s-1.5,2-2,3.2s-0.7,2.5-0.7,3.8c0,1,0.1,2,0.4,3s0.7,1.9,1.3,2.7c0.6,0.8,1.2,1.6,2,2.2
		c0.8,0.6,1.6,1.1,2.6,1.5c1,0.4,2,0.6,3.2,0.6c1.3,0,2.6-0.3,3.8-0.8c1.2-0.5,2.2-1.3,3-2.2s1.5-2,2-3.2s0.7-2.5,0.7-3.8
		c0-1.2-0.2-2.5-0.7-3.7C222.3,593,221.7,592,220.9,591z M219.8,600.5c-0.3,0.9-0.7,1.6-1.2,2.3s-1.2,1.2-2,1.6
		c-0.8,0.4-1.7,0.6-2.6,0.6c-1.2,0-2.4-0.3-3.3-1c-1-0.7-1.7-1.6-2.2-2.7c-0.5-1.1-0.8-2.3-0.8-3.5c0-0.9,0.1-1.8,0.4-2.6
		c0.3-0.9,0.7-1.6,1.2-2.3s1.2-1.2,2-1.6c0.8-0.4,1.7-0.6,2.7-0.6c0.9,0,1.8,0.2,2.6,0.6c0.8,0.4,1.5,0.9,2,1.6s0.9,1.4,1.2,2.3
		c0.3,0.9,0.5,1.8,0.5,2.7S220,599.6,219.8,600.5z M247.8,599h8.8v-2.6h-8.8v-5.6h10.1V588h-13.3v19.7H258v-2.8h-10.4L247.8,599
		L247.8,599L247.8,599z M293,598c0.7-1.1,1.1-2.3,1.1-3.6c0-0.8-0.2-1.6-0.5-2.3c-0.3-0.8-0.7-1.5-1.2-2.1c-0.5-0.6-1.2-1.1-1.9-1.5
		c-0.8-0.4-1.6-0.6-2.5-0.6h-8.6v19.7h3.1v-6.9h4.6l4.3,6.9h3.5l-4.6-7.5C291.4,599.8,292.3,599.1,293,598z M287.9,598h-5.5v-7.4
		h5.3c0.8,0,1.6,0.4,2.2,1.1s1,1.6,1,2.6s-0.3,1.9-0.8,2.6C289.5,597.8,288.8,598,287.9,598z M306.4,599h8.8v-2.6h-8.8v-5.6h10.2
		V588h-13.3v19.7h13.5v-2.8h-10.4L306.4,599L306.4,599z M337.3,603.6c-0.6,0.5-1.2,0.9-1.9,1.1c-0.6,0.2-1.3,0.3-2,0.3
		c-1.2,0-2.3-0.3-3.3-1s-1.7-1.6-2.3-2.7c-0.5-1.1-0.8-2.3-0.8-3.6c0-0.7,0.1-1.4,0.3-2.1c0.2-0.7,0.4-1.3,0.8-1.9
		c0.4-0.6,0.8-1.2,1.3-1.6c0.5-0.5,1.1-0.8,1.8-1.1c0.7-0.3,1.4-0.4,2.2-0.4c0.5,0,1,0.1,1.5,0.2c0.5,0.1,0.9,0.3,1.4,0.5
		s0.9,0.6,1.3,1c0.4,0.4,0.7,0.9,1,1.5l2.4-1.6c-0.7-1.3-1.6-2.3-3-3.1c-1.3-0.8-2.8-1.2-4.6-1.2c-1.2,0-2.3,0.2-3.3,0.6
		c-1,0.4-1.9,0.9-2.7,1.5c-0.8,0.6-1.4,1.4-1.9,2.2s-1,1.7-1.2,2.7c-0.3,0.9-0.4,1.9-0.4,2.9c0,1.2,0.2,2.5,0.7,3.7s1.1,2.3,1.9,3.3
		s1.8,1.7,3,2.3s2.5,0.9,3.8,0.9c1.1,0,2.1-0.2,3.2-0.5c1-0.3,2-0.9,2.9-1.6s1.5-1.5,1.9-2.5l-2.6-1.5
		C338.4,602.5,337.9,603.1,337.3,603.6z M364.5,591c-0.8-0.9-1.8-1.7-3-2.3c-1.2-0.6-2.5-0.9-3.8-0.9s-2.6,0.3-3.8,0.8
		c-1.2,0.6-2.2,1.3-3,2.2s-1.5,2-2,3.2s-0.7,2.5-0.7,3.8c0,1,0.1,2,0.4,3s0.7,1.9,1.3,2.7c0.6,0.8,1.2,1.6,2,2.2
		c0.8,0.6,1.6,1.1,2.6,1.5c1,0.4,2,0.6,3.2,0.6c1.3,0,2.6-0.3,3.8-0.8s2.2-1.3,3-2.2s1.5-2,2-3.2s0.7-2.5,0.7-3.8
		c0-1.2-0.2-2.5-0.7-3.7C366,593,365.4,592,364.5,591z M363.5,600.5c-0.3,0.9-0.7,1.6-1.2,2.3s-1.2,1.2-2,1.6
		c-0.8,0.4-1.7,0.6-2.6,0.6c-1.2,0-2.4-0.3-3.3-1c-1-0.7-1.7-1.6-2.2-2.7c-0.5-1.1-0.8-2.3-0.8-3.5c0-0.9,0.1-1.8,0.4-2.6
		c0.3-0.9,0.7-1.6,1.2-2.3s1.2-1.2,2-1.6c0.8-0.4,1.7-0.6,2.7-0.6c0.9,0,1.8,0.2,2.6,0.6c0.8,0.4,1.5,0.9,2,1.6s0.9,1.4,1.2,2.3
		c0.3,0.9,0.5,1.8,0.5,2.7C364,598.8,363.9,599.6,363.5,600.5z M389.7,602.2L378.5,588h-2.6v19.7h3.1v-14l11,14h2.7V588h-3.1
		L389.7,602.2L389.7,602.2z M415.5,599c-0.3-0.4-0.8-0.7-1.4-1s-1.2-0.6-1.8-0.8c-0.6-0.2-1.4-0.4-2.2-0.6c-0.5-0.1-1-0.2-1.3-0.3
		s-0.7-0.2-1.1-0.3s-0.7-0.2-0.9-0.3c-0.2-0.1-0.4-0.2-0.7-0.4c-0.2-0.2-0.4-0.3-0.5-0.5s-0.2-0.4-0.3-0.6s-0.1-0.5-0.1-0.7
		c0-0.9,0.3-1.5,1-2c0.6-0.5,1.6-0.7,2.9-0.7c1.1,0,2.1,0.2,3.2,0.7c1,0.4,1.7,0.9,2.2,1.4l1.4-2.6c-2-1.5-4.2-2.2-6.7-2.2
		c-1,0-2,0.1-2.8,0.4c-0.9,0.3-1.6,0.6-2.3,1.1c-0.6,0.5-1.1,1.1-1.5,1.9S402,593,402,594c0,0.8,0.1,1.4,0.4,2
		c0.3,0.6,0.6,1,1.1,1.4c0.5,0.4,1.1,0.8,1.8,1c0.7,0.3,1.5,0.6,2.6,0.8c0.7,0.2,1.2,0.3,1.6,0.4c0.4,0.1,0.8,0.2,1.3,0.4
		s0.8,0.3,1.1,0.5c0.3,0.2,0.5,0.3,0.8,0.6c0.2,0.2,0.4,0.5,0.5,0.7c0.1,0.3,0.1,0.6,0.1,0.9c0,0.8-0.3,1.4-1,1.9
		c-0.7,0.4-1.6,0.7-2.8,0.7c-1.4,0-2.7-0.3-4-0.8s-2.2-1.1-2.8-1.7l-1.4,2.7c1.1,0.9,2.4,1.5,3.8,2s2.9,0.7,4.4,0.7
		c0.8,0,1.6-0.1,2.3-0.2c0.7-0.1,1.4-0.3,2-0.6s1.1-0.7,1.6-1.1c0.4-0.4,0.8-1,1-1.6c0.2-0.6,0.4-1.3,0.4-2.1c0-0.7-0.1-1.3-0.3-1.9
		C416.2,599.8,416,599.3,415.5,599z M423.5,590.8h6.6v17h3.2v-17h6.6V588h-16.3L423.5,590.8L423.5,590.8z M461.7,598
		c0.7-1.1,1.1-2.3,1.1-3.6c0-0.8-0.2-1.6-0.5-2.3c-0.3-0.8-0.7-1.5-1.2-2.1c-0.5-0.6-1.2-1.1-1.9-1.5c-0.8-0.4-1.6-0.6-2.5-0.6h-8.6
		v19.7h3.1v-6.9h4.6l4.3,6.9h3.5l-4.6-7.5C460,599.8,461,599.1,461.7,598z M456.7,598h-5.5v-7.4h5.3c0.8,0,1.6,0.4,2.2,1.1
		s0.9,1.6,0.9,2.6s-0.3,1.9-0.8,2.6C458.2,597.8,457.5,598,456.7,598z M485.5,598c0,0.7-0.1,1.4-0.2,2.1s-0.3,1.3-0.6,1.9
		c-0.3,0.6-0.6,1.1-1,1.6c-0.4,0.4-0.9,0.8-1.5,1.1c-0.6,0.3-1.3,0.4-2.2,0.4c-0.8,0-1.5-0.1-2.1-0.4s-1.1-0.6-1.5-1
		c-0.4-0.4-0.7-1-1-1.6c-0.3-0.6-0.5-1.3-0.6-1.9c-0.1-0.7-0.2-1.4-0.2-2.1v-10h-3.1v10c0,1.1,0.1,2.1,0.3,3
		c0.2,0.9,0.5,1.8,0.9,2.7s1,1.6,1.6,2.2c0.6,0.6,1.4,1.1,2.4,1.5c1,0.4,2.1,0.5,3.3,0.5c1.5,0,2.8-0.3,3.9-0.8s2-1.2,2.7-2.2
		s1.2-2,1.5-3.1c0.3-1.2,0.5-2.4,0.5-3.8v-10h-3.1L485.5,598L485.5,598z M510.5,603.6c-0.6,0.5-1.2,0.9-1.9,1.1
		c-0.6,0.2-1.3,0.3-2,0.3c-1.2,0-2.3-0.3-3.3-1s-1.7-1.6-2.3-2.7c-0.5-1.1-0.8-2.3-0.8-3.6c0-0.7,0.1-1.4,0.3-2.1
		c0.2-0.7,0.4-1.3,0.8-1.9c0.4-0.6,0.8-1.2,1.3-1.6c0.5-0.5,1.1-0.8,1.8-1.1c0.7-0.3,1.4-0.4,2.2-0.4c0.5,0,1,0.1,1.5,0.2
		c0.5,0.1,0.9,0.3,1.4,0.5s0.9,0.6,1.3,1c0.4,0.4,0.7,0.9,1,1.5l2.4-1.6c-0.7-1.3-1.6-2.3-3-3.1c-1.3-0.8-2.8-1.2-4.6-1.2
		c-1.2,0-2.3,0.2-3.3,0.6c-1,0.4-1.9,0.9-2.7,1.5c-0.8,0.6-1.4,1.4-1.9,2.2s-1,1.7-1.2,2.7c-0.3,0.9-0.4,1.9-0.4,2.9
		c0,1.2,0.2,2.4,0.6,3.5c0.4,1.2,1,2.2,1.8,3.2c0.8,0.9,1.7,1.7,2.8,2.3c1.1,0.6,2.3,1,3.5,1.1c1,0.7,1.5,1.3,1.5,2.1
		c0,0.4-0.1,0.7-0.4,1c-0.3,0.2-0.7,0.3-1.2,0.3c-0.6,0-1.3-0.2-2-0.6l-0.8,1.6c1,0.5,2.1,0.8,3.3,0.8c1,0,1.7-0.2,2.2-0.7
		s0.8-1.1,0.8-1.9c0-1-0.5-1.9-1.4-2.7c1.5-0.2,2.8-0.7,4.1-1.5c1.2-0.8,2.1-1.8,2.6-3l-2.6-1.5
		C511.7,602.5,511.2,603.1,510.5,603.6z M528.4,588l-7.7,19.7h3.3l2.1-5.4h7.6l2.1,5.4h3.3l-7.7-19.7H528.4z M526.5,600l3.3-8.6
		l3.2,8.6H526.5z M526.8,585.3c0-0.1,0.1-0.3,0.2-0.4c0.1-0.2,0.2-0.3,0.4-0.4c0.2-0.1,0.4-0.2,0.7-0.2c0.3,0,0.7,0.1,1,0.3
		c0.4,0.2,0.8,0.4,1.2,0.6s0.9,0.3,1.4,0.3s0.9-0.1,1.3-0.3c0.4-0.2,0.7-0.4,0.9-0.7c0.2-0.3,0.4-0.6,0.6-0.9s0.3-0.6,0.3-0.8
		c0.1-0.2,0.1-0.4,0.1-0.5H533c0,0,0,0.1,0,0.2s-0.1,0.2-0.1,0.3c-0.1,0.1-0.1,0.3-0.3,0.4c-0.1,0.1-0.3,0.2-0.4,0.3
		c-0.2,0.1-0.4,0.1-0.7,0.1c-0.4,0-0.7-0.1-1.1-0.3s-0.8-0.4-1.2-0.6c-0.4-0.2-0.9-0.3-1.3-0.3s-0.8,0.1-1.2,0.3
		c-0.4,0.2-0.6,0.4-0.9,0.7c-0.2,0.3-0.4,0.6-0.5,0.9c-0.2,0.3-0.3,0.6-0.3,0.8c-0.1,0.2-0.1,0.4-0.1,0.6h1.7
		C526.7,585.5,526.7,585.5,526.8,585.3z M563.3,594.2c-0.5-1.2-1.1-2.3-1.9-3.2s-1.8-1.7-3-2.3c-1.2-0.6-2.5-0.9-3.8-0.9
		s-2.6,0.3-3.8,0.8c-1.2,0.6-2.2,1.3-3,2.2s-1.5,2-2,3.2s-0.7,2.5-0.7,3.8c0,1,0.1,2,0.4,3s0.7,1.9,1.3,2.7c0.6,0.8,1.2,1.6,2,2.2
		c0.8,0.6,1.6,1.1,2.6,1.5c1,0.4,2,0.6,3.2,0.6c1.3,0,2.6-0.3,3.8-0.8c1.2-0.5,2.2-1.3,3-2.2s1.5-2,2-3.2s0.7-2.5,0.7-3.8
		C564,596.6,563.8,595.5,563.3,594.2z M560.4,600.5c-0.3,0.9-0.7,1.6-1.2,2.3c-0.5,0.7-1.2,1.2-2,1.6c-0.8,0.4-1.7,0.6-2.6,0.6
		c-1.2,0-2.4-0.3-3.3-1c-1-0.7-1.7-1.6-2.2-2.7c-0.5-1.1-0.8-2.3-0.8-3.5c0-0.9,0.1-1.8,0.4-2.6c0.3-0.9,0.7-1.6,1.2-2.3
		s1.2-1.2,2-1.6c0.8-0.4,1.7-0.6,2.7-0.6c0.9,0,1.8,0.2,2.6,0.6c0.8,0.4,1.5,0.9,2,1.6s0.9,1.4,1.2,2.3c0.3,0.9,0.5,1.8,0.5,2.7
		C560.8,598.8,560.7,599.6,560.4,600.5z"/>
	<path d="M126.5,388.9h6.8c-0.6,1.6-2.3,3-5,3c-3.8,0-6.4-2.7-6.4-6.5c0-3.8,2.6-6.7,6.3-6.7c2.4,0,4.4,1.1,5.5,3.1l5.8-3.4
		c-2.3-3.9-6.6-6.2-11.2-6.2c-7.3,0-13.2,5.8-13.2,13.2c0,7.4,5.8,13.1,13.2,13.1c6.9,0,12.2-5.1,12.2-12.9v-2h-14L126.5,388.9
		 M163,372c-7.4,0-13.2,5.8-13.2,13.2c0,7.3,5.8,13.2,13.2,13.2c7.3,0,13.1-5.8,13.1-13.2S170.3,372,163,372z M163,391.5
		c-3.4,0-6-2.7-6-6.2s2.6-6.2,6-6.2c3.3,0,5.8,2.7,5.8,6.2S166.3,391.5,163,391.5z M195.5,388.1l-5.8-15.5h-7.3l9.7,25.1h6.8
		l9.8-25.1h-7.3L195.5,388.1z M217.5,397.8h18v-6.1h-11.2V388h7.4v-5.4h-7.4v-3.7h11.2v-6.1h-18V397.8z M267,380.9
		c0-4.7-3.8-8.2-8.7-8.2h-12.2v25.1h6.7V389h2.8l5,8.7h7.5l-5.6-9.7C265.2,386.6,267,384,267,380.9z M257.5,383.4h-4.7v-4.7h4.7
		c1.6,0,2.6,1.1,2.6,2.4C260,382.2,259,383.4,257.5,383.4z M293.3,386l-10.2-13.3h-5.7v25.1h6.7v-13.2l10.1,13.2h5.7v-25.1h-6.7
		L293.3,386C293.2,386,293.3,386,293.3,386z M323,372c-7.4,0-13.2,5.8-13.2,13.2c0,7.3,5.8,13.2,13.2,13.2c7.3,0,13.1-5.8,13.1-13.2
		S330.2,372,323,372z M323,391.5c-3.4,0-6-2.7-6-6.2s2.6-6.2,6-6.2c3.3,0,5.8,2.7,5.8,6.2S326.2,391.5,323,391.5z M362.5,397.8h6.8
		v-9.2h7.4v-5.7h-7.4v-4.3h11.2v-6h-18V397.8z M390.5,397.8h18v-6.1h-11.2V388h7.4v-5.4h-7.4v-3.7h11.2v-6.1h-18V397.8L390.5,397.8z
		 M429.3,372.6h-10.2v25.1h10.2c7.7,0,13.4-5.4,13.4-12.6C442.8,378,437,372.6,429.3,372.6z M429,391.2h-3.1v-12.1h3.1
		c4,0,6.7,2.4,6.7,6C435.7,388.9,433,391.2,429,391.2z M452.5,397.8h18v-6.1h-11.2V388h7.4v-5.4h-7.4v-3.7h11.2v-6.1h-18V397.8z
		 M501.8,380.9c0-4.7-3.8-8.2-8.7-8.2h-12.2v25.1h6.7V389h2.8l5,8.7h7.5l-5.6-9.7C500,386.6,501.8,384,501.8,380.9z M492.4,383.4
		h-4.7v-4.7h4.7c1.6,0,2.6,1.1,2.6,2.4C495,382.2,494,383.4,492.4,383.4z M520.9,372.6l-10.5,25.1h7.1l1.7-4.3h9.9l1.8,4.3h7
		l-10.6-25.1C527.3,372.6,520.9,372.6,520.9,372.6z M521.7,387.5l2.5-6.2l2.5,6.2H521.7z M553.9,391.4v-18.7h-7.1v25.1h17.7v-6.5
		h-10.6V391.4z"/>
	<rect x="518.7" y="425" class="st1" width="45.8" height="87.9"/>
	<rect x="518.7" y="513" class="st2" width="45.8" height="44.5"/>
	<rect x="465.2" y="425" class="st3" width="45.8" height="132.4"/>
	<rect x="364.7" y="483.9" class="st4" width="43.3" height="73.6"/>
	<rect x="408" y="425" class="st5" width="49.5" height="48.1"/>
	<path class="st1" d="M423,473.1H408v84.2H423c23.3,0,42.1-18.9,42.1-42.1S446.4,473.1,423,473.1"/>
	<path class="st3" d="M394,425c-16.2,0-29.4,13.2-29.4,29.4c0,16.2,13.2,29.4,29.4,29.4H408V425H394"/>
	<path class="st5" d="M114.5,478.1H125c14.7,0,26.6-11.9,26.6-26.6c0-14.7-11.9-26.6-26.6-26.6h-10.6V478.1"/>
	<rect x="68.7" y="425" class="st3" width="45.8" height="53.1"/>
	<rect x="68.7" y="478.1" class="st1" width="45.8" height="79.3"/>
	<path class="st4" d="M129.5,478.1h-15.1v79.3h15.1c21.9,0,39.6-17.7,39.6-39.6C169.2,495.9,151.4,478.1,129.5,478.1"/>
	<polyline class="st3" points="221,505 169.2,505 169.2,557.5 255.2,557.5 221,505 	"/>
	<polyline class="st1" points="221,505 169.2,425 169.2,505 221,505 	"/>
	<path class="st5" d="M221,425h-52l52,80c22.1,0,40-17.9,40-40S243.2,425,221,425"/>
	<polyline class="st1" points="308.9,425 230,557.5 387.5,557.5 308.9,425 	"/>
	<polyline class="st2" points="364.7,518.8 364.7,557.5 387.5,557.5 364.7,518.8 	"/>
	<polyline class="st2" points="230,557.5 255.2,557.5 242,537.2 230,557.5 	"/>
	<path class="st5" d="M357.2,557.5c0-26.7-21.6-48.3-48.3-48.3c-26.7,0-48.3,21.6-48.3,48.3H357.2"/>
	<rect x="564.5" y="513" class="st5" width="45.8" height="44.5"/>
	<g>
		<rect x="0" y="-0.2" class="st3" width="678.8" height="326.8"/>
		<g>
			<g>
				<path class="st0" d="M188.9,125.7v-18.1l-7.5,13.7H179l-7.5-13.7v18.1h-4v-25.4h4.3l8.4,15.5l8.4-15.5h4.3v25.4H188.9z"/>
				<path class="st0" d="M205.7,125.7v-25.4h4v25.4H205.7z"/>
				<path class="st0" d="M226.5,107.8v18h-4v-25.5h3.3l14.4,18.4v-18.3h4.1v25.4h-3.6L226.5,107.8z"/>
				<path class="st0" d="M257.2,125.7v-25.4h4v25.4H257.2z"/>
				<path class="st0" d="M289,106.3c-0.6-0.6-1.5-1.2-2.8-1.7c-1.3-0.6-2.7-0.9-4.1-0.9c-1.6,0-2.9,0.3-3.7,0.9
					c-0.9,0.6-1.2,1.5-1.2,2.6c0,0.4,0,0.7,0.1,0.9c0.1,0.3,0.2,0.6,0.4,0.8c0.2,0.2,0.4,0.4,0.7,0.7c0.3,0.2,0.6,0.4,0.9,0.5
					s0.7,0.3,1.1,0.5c0.5,0.2,0.9,0.3,1.4,0.4s1,0.3,1.7,0.5c1.1,0.3,2.1,0.6,2.8,0.8c0.8,0.3,1.5,0.6,2.3,1s1.3,0.9,1.8,1.3
					c0.5,0.5,0.8,1.1,1,1.8c0.3,0.8,0.4,1.5,0.4,2.5s-0.2,1.9-0.5,2.7c-0.3,0.9-0.8,1.5-1.3,2.1c-0.6,0.6-1.2,1-2,1.4
					s-1.6,0.7-2.6,0.9c-0.9,0.2-1.9,0.3-2.9,0.3c-1.9,0-3.8-0.3-5.6-0.9s-3.4-1.4-4.8-2.6l1.8-3.4c0.8,0.8,1.9,1.5,3.6,2.2
					s3.4,1,5.1,1c1.6,0,2.8-0.3,3.7-0.9s1.3-1.3,1.3-2.4c0-0.4-0.1-0.8-0.2-1.1c-0.1-0.4-0.4-0.7-0.7-0.9s-0.7-0.5-0.9-0.7
					c-0.4-0.2-0.8-0.4-1.4-0.6c-0.7-0.2-1.1-0.4-1.7-0.6c-0.5-0.1-1.2-0.3-2.1-0.6c-1.3-0.4-2.5-0.7-3.3-1s-1.6-0.8-2.3-1.3
					c-0.7-0.6-1.1-1.1-1.4-1.9c-0.3-0.8-0.5-1.6-0.5-2.6c0-1.2,0.2-2.4,0.7-3.3s1.1-1.8,2-2.5s1.8-1.1,2.9-1.4
					c1.1-0.4,2.4-0.5,3.7-0.5c3.1,0,6,0.9,8.6,2.8L289,106.3z"/>
				<path class="st0" d="M321.7,103.9h-8.4v21.9h-4.1v-21.9h-8.4v-3.5h20.9V103.9L321.7,103.9z"/>
				<path class="st0" d="M349.7,122.2v3.5h-17.4v-25.4h17.1v3.5h-13.1v7.2h11.4v3.3h-11.4v7.8L349.7,122.2L349.7,122.2z M342.5,97.8
					l-2.6-0.8l2.1-3.9h3.8L342.5,97.8z"/>
				<path class="st0" d="M360.9,125.7v-25.4H372c1.1,0,2.2,0.3,3.1,0.8c1,0.5,1.8,1.1,2.5,1.9s1.2,1.7,1.6,2.7c0.4,0.9,0.6,2,0.6,3
					c0,1.7-0.5,3.3-1.3,4.6c-0.9,1.4-2.1,2.4-3.6,2.8l6,9.7h-4.5l-5.5-8.8H365v8.8L360.9,125.7L360.9,125.7z M364.9,113.4h7
					c1.1,0,2-0.5,2.7-1.4c0.8-0.9,1-2.1,1-3.4s-0.4-2.4-1.2-3.3c-0.9-0.9-1.8-1.4-2.8-1.4h-6.8L364.9,113.4L364.9,113.4z"/>
				<path class="st0" d="M391.7,125.7v-25.4h4v25.4H391.7z"/>
				<path class="st0" d="M406.9,113c0-1.7,0.3-3.3,0.9-4.8c0.7-1.6,1.5-2.9,2.6-4.1c1-1.1,2.4-2.1,3.9-2.8c1.5-0.8,3.1-1,4.8-1
					c1.8,0,3.4,0.4,4.9,1.1c1.5,0.8,2.8,1.7,3.9,2.9c1,1.2,1.8,2.6,2.5,4.2c0.6,1.5,0.9,3.1,0.9,4.7c0,1.7-0.3,3.3-0.9,4.8
					c-0.7,1.5-1.4,2.9-2.6,4.1c-1,1.1-2.4,2.1-3.9,2.8c-1.5,0.7-3.1,1-4.8,1c-1.4,0-2.7-0.2-4.1-0.7c-1.3-0.5-2.4-1.1-3.4-2
					s-1.8-1.8-2.6-2.8s-1.2-2.3-1.6-3.5C407.2,115.6,406.9,114.3,406.9,113z M419,122.3c1.2,0,2.4-0.3,3.4-0.8
					c1-0.6,1.9-1.2,2.6-2.1c0.7-0.9,1.1-1.9,1.5-2.9c0.4-1.1,0.6-2.2,0.6-3.4c0-1.2-0.2-2.4-0.6-3.5c-0.4-1.1-0.9-2.1-1.6-2.9
					c-0.7-0.9-1.5-1.5-2.6-2.1c-1-0.5-2.1-0.8-3.3-0.8s-2.4,0.3-3.4,0.8s-1.9,1.2-2.6,2.1c-0.7,0.9-1.2,1.9-1.6,2.9
					c-0.4,1.1-0.6,2.2-0.6,3.4c0,1.6,0.3,3.1,0.9,4.5c0.7,1.4,1.6,2.6,2.8,3.4C416,121.8,417.4,122.3,419,122.3z"/>
				<path class="st0" d="M458.5,125.7v-25.4h9c2,0,3.8,0.3,5.4,0.9c1.6,0.7,2.9,1.6,3.9,2.7c0.9,1.1,1.8,2.5,2.3,4
					c0.6,1.5,0.8,3.1,0.8,4.9c0,3.9-1.1,6.9-3.4,9.3s-5.2,3.5-9,3.5L458.5,125.7L458.5,125.7z M467.5,103.9h-5v18.3h5
					c1.7,0,3.2-0.4,4.5-1.2c1.2-0.9,2.2-1.9,2.8-3.3c0.7-1.4,0.9-2.9,0.9-4.7c0-2.7-0.8-4.9-2.2-6.6
					C472.2,104.8,470,103.9,467.5,103.9z"/>
				<path class="st0" d="M497.7,100.3h3.8l9.8,25.4H507l-2.6-6.9h-9.7l-2.6,6.9h-4.3L497.7,100.3z M503.7,115.8l-4.1-11.2l-4.2,11.2
					H503.7z"/>
			</g>
			<g>
				<path class="st0" d="M92.2,150.1c2.4,0,4.4,0.5,6.3,1.5c1.8,1,3.2,2.4,4.1,4.1l-5.3,3.8c-0.2-0.6-0.6-1.1-0.9-1.5
					c-0.4-0.4-0.9-0.8-1.3-0.9s-0.9-0.4-1.4-0.5s-0.9-0.2-1.5-0.2c-0.9,0-1.8,0.2-2.6,0.6c-0.8,0.4-1.3,0.9-1.8,1.5
					c-0.5,0.7-0.8,1.3-1,2.1s-0.4,1.6-0.4,2.4c0,1.9,0.6,3.4,1.6,4.7s2.5,2,4.3,2c0.7,0,1.3-0.1,2-0.3s1.2-0.6,1.8-1s1-1,1.2-1.8
					l5.7,3.4c-0.5,1.2-1.3,2.3-2.5,3.2s-2.6,1.6-4,2.1s-2.9,0.7-4.4,0.7c-1.8,0-3.5-0.4-5.1-1.1c-1.6-0.8-2.9-1.7-4.1-2.9
					c-1.1-1.2-2-2.7-2.6-4.2c-0.7-1.6-0.9-3.2-0.9-4.8c0-1.5,0.3-3.1,0.9-4.5c0.6-1.5,1.4-2.8,2.6-4.1c1-1.2,2.5-2.2,4.1-2.9
					C88.4,150.5,90.2,150.1,92.2,150.1z"/>
				<path class="st0" d="M112.7,175.6v-25.4h7v25.4H112.7z"/>
				<path class="st0" d="M149.2,169.5v6.1H131v-25.4h17.8v6.1H138v3.6h9.3v5.7H138v4L149.2,169.5L149.2,169.5z M133.7,147.1l4.1-4.2
					h4.8l4.1,4.2l-3.4,1.5l-3-2.3l-3,2.3L133.7,147.1z"/>
				<path class="st0" d="M166.4,163.1v12.5h-7v-25.4h5.4l10.2,12.9v-12.9h7v25.4h-5.5L166.4,163.1z"/>
				<path class="st0" d="M205.2,150.1c2.4,0,4.4,0.5,6.3,1.5c1.8,1,3.2,2.4,4.1,4.1l-5.3,3.8c-0.2-0.6-0.6-1.1-0.9-1.5
					c-0.4-0.4-0.9-0.8-1.3-0.9c-0.5-0.2-0.9-0.4-1.4-0.5s-0.9-0.2-1.5-0.2c-0.9,0-1.8,0.2-2.6,0.6s-1.3,0.9-1.8,1.5
					c-0.5,0.7-0.8,1.3-1,2.1s-0.4,1.6-0.4,2.4c0,1.9,0.6,3.4,1.6,4.7s2.5,2,4.3,2c0.7,0,1.3-0.1,2-0.3s1.2-0.6,1.8-1s1-1,1.2-1.8
					l5.7,3.4c-0.5,1.2-1.3,2.3-2.5,3.2s-2.6,1.6-4,2.1s-2.9,0.7-4.4,0.7c-1.8,0-3.5-0.4-5.1-1.1s-2.9-1.7-4.1-2.9
					c-1.1-1.2-2-2.7-2.6-4.2c-0.7-1.6-0.9-3.2-0.9-4.8c0-1.5,0.3-3.1,0.9-4.5c0.6-1.5,1.4-2.8,2.6-4.1c1-1.2,2.5-2.2,4.1-2.9
					C201.4,150.5,203.2,150.1,205.2,150.1z"/>
				<path class="st0" d="M225.5,175.6v-25.4h7v25.4H225.5z"/>
				<path class="st0" d="M249.9,150.2h7.8l8,25.4h-7.1l-1.5-5h-6.8l-1.5,5h-7.1L249.9,150.2z M256,166l-2.3-8.9l-2.4,8.9H256z"/>
				<path class="st0" d="M275.4,181.2l1.3-5.6h-2.1V169h5.6v6.6l-1.9,5.6H275.4z"/>
				<path class="st0" d="M325.2,156.2h-7.3v19.4h-7v-19.3h-7.3v-6.1h21.6V156.2L325.2,156.2z"/>
				<path class="st0" d="M353,169.5v6.1h-18.1v-25.4h17.8v6.1h-10.8v3.6h9.3v5.7h-9.3v4L353,169.5L353,169.5z"/>
				<path class="st0" d="M374.5,150.1c2.4,0,4.4,0.5,6.3,1.5c1.8,1,3.2,2.4,4.1,4.1l-5.3,3.8c-0.2-0.6-0.6-1.1-0.9-1.5
					c-0.4-0.4-0.9-0.8-1.3-0.9c-0.5-0.2-0.9-0.4-1.4-0.5s-0.9-0.2-1.5-0.2c-0.9,0-1.8,0.2-2.6,0.6c-0.8,0.4-1.3,0.9-1.8,1.5
					c-0.5,0.7-0.8,1.3-1,2.1s-0.4,1.6-0.4,2.4c0,1.9,0.6,3.4,1.6,4.7s2.5,2,4.3,2c0.7,0,1.3-0.1,2-0.3s1.2-0.6,1.8-1s1-1,1.2-1.8
					l5.7,3.4c-0.5,1.2-1.3,2.3-2.5,3.2s-2.6,1.6-4,2.1s-2.9,0.7-4.4,0.7c-1.8,0-3.5-0.4-5.1-1.1c-1.6-0.8-2.9-1.7-4.1-2.9
					c-1.1-1.2-2-2.7-2.6-4.2c-0.7-1.6-0.9-3.2-0.9-4.8c0-1.5,0.3-3.1,0.9-4.5c0.6-1.5,1.4-2.8,2.6-4.1c1-1.2,2.5-2.2,4.1-2.9
					C370.9,150.5,372.7,150.1,374.5,150.1z"/>
				<path class="st0" d="M401.9,163.1v12.5h-7v-25.4h5.4l10.2,12.9v-12.9h7v25.4h-5.6L401.9,163.1z"/>
				<path class="st0" d="M427.5,162.9c0-1.7,0.3-3.3,0.9-4.8c0.7-1.5,1.5-2.9,2.6-4.1c1.1-1.1,2.5-2.1,4.2-2.8c1.7-0.8,3.3-1,5.2-1
					s3.6,0.4,5.2,1.1c1.6,0.8,3,1.7,4.1,2.9c1,1.2,2,2.6,2.6,4.2c0.7,1.5,0.9,3.1,0.9,4.7s-0.3,3.2-0.9,4.8
					c-0.7,1.5-1.5,2.9-2.6,4.1c-1.1,1.1-2.5,2.1-4.2,2.8c-1.6,0.8-3.4,1-5.2,1c-1.9,0-3.6-0.4-5.2-1.1c-1.6-0.8-3-1.7-4.1-2.9
					s-2-2.6-2.6-4.2C427.9,166.1,427.5,164.5,427.5,162.9z M440.4,169.6c0.9,0,1.8-0.2,2.6-0.6c0.8-0.4,1.3-0.9,1.8-1.6
					c0.5-0.7,0.8-1.3,1-2.2c0.2-0.8,0.4-1.6,0.4-2.5c0-1.2-0.2-2.3-0.7-3.2c-0.4-0.9-1-1.8-2-2.5c-0.9-0.7-2-0.9-3.2-0.9
					c-0.9,0-1.8,0.2-2.6,0.6s-1.3,0.9-1.8,1.5c-0.5,0.7-0.8,1.3-1,2.2c-0.2,0.8-0.4,1.6-0.4,2.5s0.1,1.7,0.4,2.5
					c0.3,0.8,0.6,1.5,1,2.1c0.5,0.7,1,1.1,1.8,1.5C438.5,169.3,439.5,169.6,440.4,169.6z"/>
				<path class="st0" d="M463.4,175.6v-25.4h7v19.3h11.5v6.1L463.4,175.6L463.4,175.6z"/>
				<path class="st0" d="M489.7,162.9c0-1.7,0.3-3.3,0.9-4.8c0.7-1.5,1.5-2.9,2.7-4.1c1.1-1.1,2.5-2.1,4.2-2.8c1.7-0.8,3.3-1,5.2-1
					s3.6,0.4,5.2,1.1c1.6,0.8,3,1.7,4.1,2.9c1,1.2,2,2.6,2.6,4.2c0.7,1.5,0.9,3.1,0.9,4.7s-0.3,3.2-0.9,4.8
					c-0.7,1.5-1.5,2.9-2.7,4.1c-1.1,1.1-2.5,2.1-4.2,2.8c-1.6,0.8-3.4,1-5.2,1c-1.9,0-3.6-0.4-5.2-1.1c-1.6-0.8-3-1.7-4.1-2.9
					s-2-2.6-2.6-4.2C490.2,166.1,489.7,164.5,489.7,162.9z M502.7,169.6c0.9,0,1.8-0.2,2.6-0.6c0.8-0.4,1.3-0.9,1.8-1.6
					c0.5-0.7,0.8-1.3,1-2.2c0.2-0.8,0.4-1.6,0.4-2.5c0-1.2-0.2-2.3-0.7-3.2c-0.4-0.9-1-1.8-2-2.5c-0.9-0.7-2-0.9-3.2-0.9
					c-0.9,0-1.8,0.2-2.6,0.6c-0.8,0.4-1.3,0.9-1.8,1.5c-0.5,0.7-0.8,1.3-1,2.2c-0.2,0.8-0.4,1.6-0.4,2.5s0.1,1.7,0.4,2.5
					c0.3,0.8,0.6,1.5,1,2.1c0.5,0.7,1,1.1,1.8,1.5C500.9,169.3,501.7,169.6,502.7,169.6z"/>
				<path class="st0" d="M538.2,162.1h10.4v13.5h-5.8v-2c-1.8,1.5-3.9,2.3-6.2,2.3c-1.7,0-3.2-0.3-4.7-0.9c-1.5-0.6-2.8-1.4-4-2.6
					c-1.1-1-2-2.5-2.6-4.2s-1-3.5-1-5.5c0-1.8,0.4-3.4,1-5c0.7-1.5,1.6-2.9,2.7-4.1c1.1-1.1,2.6-2,4.2-2.7c1.6-0.7,3.3-0.9,5.1-0.9
					c2.3,0,4.4,0.5,6.2,1.5c1.9,0.9,3.2,2.4,4.2,4.1l-5.2,4c-0.5-1-1.2-1.8-2.3-2.4s-2.1-0.9-3.2-0.9c-1.6,0-3,0.7-4.1,1.9
					c-1,1.2-1.6,2.8-1.6,4.8s0.6,3.6,1.6,4.8s2.5,1.8,4.3,1.8c2,0,3.8-0.9,5.4-2.5h-4.4L538.2,162.1L538.2,162.1z"/>
				<path class="st0" d="M559.2,175.6v-25.4h7v25.4H559.2z"/>
				<path class="st0" d="M583.5,150.2h7.8l8,25.4h-7.1l-1.5-5h-6.6l-1.5,5h-7.1L583.5,150.2z M589.7,166l-2.3-8.9L585,166H589.7z"/>
			</g>
			<g>
				<path class="st0" d="M220.2,219.4v6.1h-18.1v-25.4h17.8v6.1h-10.8v3.6h9.3v5.7h-9.3v4L220.2,219.4L220.2,219.4z"/>
				<path class="st0" d="M245.7,225.4V200h7v25.4H245.7z"/>
				<path class="st0" d="M271.2,212.9v12.5h-7V200h5.4l10.2,12.9V200h7v25.4h-5.5L271.2,212.9z"/>
				<path class="st0" d="M296.9,212.7c0-1.7,0.3-3.3,0.9-4.8c0.7-1.5,1.5-2.9,2.7-4.1c1.1-1.1,2.5-2.1,4.2-2.8c1.6-0.7,3.3-1,5.2-1
					s3.6,0.4,5.2,1.1c1.6,0.8,3,1.7,4.1,2.9c1,1.2,2,2.6,2.6,4.2c0.7,1.5,0.9,3.1,0.9,4.7s-0.3,3.2-0.9,4.8
					c-0.7,1.5-1.5,2.9-2.7,4.1c-1.1,1.1-2.5,2.1-4.2,2.8c-1.6,0.8-3.4,1-5.2,1c-1.9,0-3.6-0.4-5.2-1.1s-3-1.7-4.1-2.9
					s-2-2.6-2.6-4.2C297.2,216,296.9,214.4,296.9,212.7z M309.9,219.5c0.9,0,1.8-0.2,2.6-0.6s1.3-0.9,1.8-1.6c0.5-0.7,0.8-1.3,1-2.2
					c0.2-0.8,0.4-1.6,0.4-2.5c0-1.2-0.2-2.3-0.7-3.2c-0.4-0.9-1-1.8-2-2.5c-0.9-0.7-2-0.9-3.2-0.9c-0.9,0-1.8,0.2-2.6,0.6
					c-0.8,0.4-1.3,0.9-1.8,1.5c-0.5,0.7-0.8,1.3-1,2.2c-0.2,0.8-0.4,1.6-0.4,2.5s0.1,1.7,0.4,2.5c0.3,0.8,0.6,1.5,1,2.1
					c0.5,0.7,1,1.1,1.8,1.5C307.9,219.2,308.9,219.5,309.9,219.5z"/>
				<path class="st0" d="M336.7,200.1l4.9,17.3l4.9-17.3h7.3l-8.8,25.4h-6.9l-8.9-25.4H336.7z"/>
				<path class="st0" d="M366.9,200.1h7.8l8,25.4h-7.1l-1.5-5h-6.8l-1.5,5h-7.1L366.9,200.1z M372.9,215.9l-2.3-8.9l-2.4,8.9H372.9z
					"/>
				<path class="st0" d="M413.2,219.8c-0.7,1.5-1.7,2.7-3.4,3.8c-1.6,1-3.5,1.7-5.5,2c1.1,1.1,1.7,2.5,1.7,3.8
					c0,1.1-0.4,2.1-1.1,2.8c-0.8,0.8-1.8,1.1-3.2,1.1s-2.9-0.4-4.4-1.2l1.6-3.5c0.6,0.5,1.1,0.7,1.7,0.7c0.5,0,0.8-0.1,1-0.4
					c0.3-0.3,0.4-0.6,0.4-1c0-0.8-0.5-1.5-1.3-2.4c-1.6-0.2-3.1-0.7-4.5-1.5c-1.4-0.9-2.6-1.8-3.6-3s-1.7-2.6-2.3-4
					s-0.9-2.9-0.9-4.4s0.3-3.1,0.9-4.5c0.6-1.4,1.4-2.8,2.6-4.1c1-1.2,2.5-2.2,4.1-2.9c1.7-0.8,3.5-1.1,5.5-1.1
					c2.4,0,4.4,0.5,6.3,1.5c1.8,1,3.2,2.4,4.1,4.1l-5.3,3.8c-0.2-0.6-0.6-1.1-0.9-1.5c-0.4-0.4-0.9-0.8-1.3-0.9s-0.9-0.4-1.4-0.5
					s-0.9-0.2-1.5-0.2c-0.9,0-1.8,0.2-2.6,0.6c-0.8,0.4-1.3,0.9-1.8,1.5c-0.5,0.7-0.8,1.3-1,2.1s-0.4,1.6-0.4,2.4
					c0,1.9,0.6,3.4,1.6,4.7s2.5,2,4.3,2c0.7,0,1.3-0.1,2-0.3s1.2-0.6,1.8-1s1-1,1.2-1.8L413.2,219.8z"/>
				<path class="st0" d="M428.2,200.1h7.8l8,25.4h-7.1l-1.5-5h-6.8l-1.5,5H420L428.2,200.1z M429.7,196.7c-0.3,0-0.6,0.1-0.8,0.2
					c-0.2,0.1-0.4,0.3-0.5,0.4c-0.1,0.2-0.2,0.3-0.3,0.5s-0.1,0.4-0.1,0.4c0,0.1,0,0.2,0,0.2h-3.6c0-0.3,0.1-0.7,0.2-1
					c0.1-0.5,0.3-0.9,0.6-1.4c0.3-0.6,0.6-1,0.9-1.5s0.9-0.9,1.4-1.1c0.6-0.3,1.2-0.5,1.9-0.5c0.6,0,1,0.1,1.5,0.3s0.9,0.4,1.1,0.7
					c0.3,0.2,0.7,0.5,1,0.7c0.4,0.2,0.8,0.3,1.1,0.3s0.6-0.1,0.8-0.2c0.2-0.1,0.4-0.3,0.6-0.5c0.1-0.2,0.2-0.4,0.3-0.6
					c0.1-0.2,0.1-0.4,0.2-0.5c0-0.1,0-0.2,0-0.2h3.6c0,0.2-0.1,0.5-0.2,0.9c-0.1,0.4-0.3,0.9-0.6,1.4c-0.3,0.6-0.6,1-0.9,1.5
					c-0.4,0.5-0.9,0.9-1.4,1.2c-0.6,0.4-1.2,0.5-1.9,0.5c-0.5,0-0.9-0.1-1.4-0.3s-0.9-0.4-1.1-0.6c-0.3-0.2-0.7-0.4-1-0.6
					C430.5,196.8,430.2,196.7,429.7,196.7z M434.4,215.9l-2.3-8.9l-2.4,8.9H434.4z"/>
				<path class="st0" d="M450.9,212.7c0-1.7,0.3-3.3,0.9-4.8c0.7-1.5,1.5-2.9,2.7-4.1c1.1-1.1,2.5-2.1,4.2-2.8c1.6-0.7,3.3-1,5.2-1
					s3.6,0.4,5.2,1.1c1.6,0.8,3,1.7,4.1,2.9c1,1.2,2,2.6,2.6,4.2c0.7,1.5,0.9,3.1,0.9,4.7s-0.3,3.2-0.9,4.8
					c-0.7,1.5-1.5,2.9-2.6,4.1c-1.1,1.1-2.5,2.1-4.2,2.8c-1.6,0.8-3.4,1-5.2,1c-1.9,0-3.6-0.4-5.2-1.1c-1.6-0.8-3-1.7-4.1-2.9
					s-2-2.6-2.6-4.2C451.2,216,450.9,214.4,450.9,212.7z M463.9,219.5c0.9,0,1.8-0.2,2.6-0.6c0.8-0.4,1.3-0.9,1.8-1.6
					c0.5-0.7,0.8-1.3,1-2.2c0.2-0.8,0.4-1.6,0.4-2.5c0-1.2-0.2-2.3-0.7-3.2c-0.4-0.9-1-1.8-2-2.5c-0.9-0.7-2-0.9-3.2-0.9
					c-0.9,0-1.8,0.2-2.6,0.6c-0.8,0.4-1.3,0.9-1.8,1.5c-0.5,0.7-0.8,1.3-1,2.2c-0.2,0.8-0.4,1.6-0.4,2.5s0.1,1.7,0.4,2.5
					c0.3,0.8,0.6,1.5,1,2.1c0.5,0.7,1,1.1,1.8,1.5C461.9,219.2,462.9,219.5,463.9,219.5z"/>
			</g>
		</g>
	</g>
</g>
<g>
	<g>
		<rect x="-698.8" y="325.7" class="st0" width="678.8" height="326.8"/>
		<path d="M-569.6,596.6c0,0.7-0.1,1.4-0.2,2.1c-0.1,0.7-0.3,1.3-0.5,1.9c-0.3,0.6-0.6,1.1-1,1.6c-0.4,0.4-0.9,0.8-1.5,1.1
			c-0.6,0.3-1.3,0.4-2.2,0.4c-0.8,0-1.5-0.1-2.1-0.4s-1.1-0.6-1.5-1c-0.4-0.4-0.7-1-1-1.6c-0.3-0.6-0.5-1.3-0.6-1.9
			c-0.1-0.7-0.2-1.4-0.2-2.1v-10h-3.1v10c0,1.1,0.1,2.1,0.3,3c0.2,0.9,0.5,1.8,0.9,2.7s1,1.6,1.6,2.2c0.6,0.6,1.4,1.1,2.4,1.5
			c1,0.4,2.1,0.5,3.3,0.5c1.5,0,2.8-0.3,3.9-0.8c1.1-0.5,2-1.2,2.7-2.2c0.7-0.9,1.2-2,1.5-3.1c0.3-1.2,0.5-2.4,0.5-3.8v-10h-3.1
			L-569.6,596.6 M-543,600.9l-11.2-14.3h-2.6v19.7h3.1v-14l11,14h2.7v-19.7h-3.1L-543,600.9L-543,600.9z M-529.8,606.4h3.1v-19.7
			h-3.1V606.4z M-511.1,586.6l-7.7,19.7h3.3l2.1-5.4h7.6l2.1,5.4h3.3l-7.7-19.7H-511.1z M-512.8,598.7l3.3-8.6l3.2,8.6H-512.8z
			 M-512.8,584c0-0.1,0.1-0.3,0.2-0.4c0.1-0.2,0.2-0.3,0.4-0.4c0.2-0.1,0.4-0.2,0.7-0.2s0.7,0.1,1,0.3c0.4,0.2,0.8,0.4,1.2,0.6
			s0.9,0.3,1.4,0.3s0.9-0.1,1.3-0.3c0.4-0.2,0.7-0.4,0.9-0.7c0.2-0.3,0.4-0.6,0.6-0.9s0.3-0.6,0.3-0.8c0.1-0.2,0.1-0.4,0.1-0.5h-1.8
			c0,0,0,0.1,0,0.2s-0.1,0.2-0.1,0.3c-0.1,0.1-0.1,0.3-0.3,0.4c-0.1,0.1-0.3,0.2-0.4,0.3c-0.2,0.1-0.4,0.1-0.7,0.1
			c-0.4,0-0.7-0.1-1.1-0.3s-0.8-0.4-1.2-0.6s-0.9-0.3-1.3-0.3s-0.8,0.1-1.2,0.3c-0.4,0.2-0.6,0.4-0.9,0.7c-0.3,0.3-0.4,0.6-0.5,0.9
			c-0.2,0.3-0.3,0.6-0.3,0.8c-0.1,0.2-0.1,0.4-0.1,0.6h1.7C-512.8,584.2-512.8,584.1-512.8,584z M-478.1,589.6
			c-0.8-0.9-1.8-1.7-3-2.3c-1.2-0.6-2.5-0.9-3.8-0.9s-2.6,0.3-3.8,0.8c-1.2,0.6-2.2,1.3-3,2.2s-1.5,2-2,3.2s-0.7,2.5-0.7,3.8
			c0,1,0.1,2,0.4,3s0.7,1.9,1.3,2.7c0.6,0.8,1.2,1.6,2,2.2c0.8,0.6,1.6,1.1,2.6,1.5c1,0.4,2,0.6,3.2,0.6c1.3,0,2.6-0.3,3.8-0.8
			s2.2-1.3,3-2.2s1.5-2,2-3.2s0.7-2.5,0.7-3.8c0-1.2-0.2-2.5-0.7-3.7C-476.7,591.7-477.3,590.6-478.1,589.6z M-479.2,599.1
			c-0.3,0.9-0.7,1.6-1.2,2.3s-1.2,1.2-2,1.6c-0.8,0.4-1.7,0.6-2.6,0.6c-1.2,0-2.4-0.3-3.3-1c-1-0.7-1.7-1.6-2.2-2.7
			c-0.5-1.1-0.8-2.3-0.8-3.5c0-0.9,0.1-1.8,0.4-2.6c0.3-0.9,0.7-1.6,1.2-2.3s1.2-1.2,2-1.6c0.8-0.4,1.7-0.6,2.7-0.6
			c0.9,0,1.8,0.2,2.6,0.6c0.8,0.4,1.5,0.9,2,1.6s0.9,1.4,1.2,2.3c0.3,0.9,0.5,1.8,0.5,2.7C-478.7,597.4-478.9,598.3-479.2,599.1z
			 M-451.2,597.6h8.8V595h-8.8v-5.6h10.1v-2.8h-13.3v19.7h13.5v-2.8h-10.4L-451.2,597.6L-451.2,597.6L-451.2,597.6z M-406,596.7
			c0.7-1.1,1.1-2.3,1.1-3.6c0-0.8-0.2-1.6-0.5-2.3c-0.3-0.8-0.7-1.5-1.2-2.1c-0.5-0.6-1.2-1.1-1.9-1.5c-0.8-0.4-1.6-0.6-2.5-0.6
			h-8.6v19.7h3.1v-6.9h4.6l4.3,6.9h3.5l-4.6-7.5C-407.6,598.5-406.7,597.8-406,596.7z M-411.1,596.7h-5.5v-7.4h5.3
			c0.8,0,1.6,0.4,2.2,1.1s1,1.6,1,2.6s-0.3,1.9-0.8,2.6C-409.5,596.4-410.2,596.7-411.1,596.7z M-392.6,597.6h8.8V595h-8.8v-5.6
			h10.2v-2.8h-13.3v19.7h13.5v-2.8h-10.4L-392.6,597.6L-392.6,597.6z M-361.7,602.3c-0.6,0.5-1.2,0.9-1.9,1.1
			c-0.6,0.2-1.3,0.3-2,0.3c-1.2,0-2.3-0.3-3.3-1s-1.7-1.6-2.3-2.7c-0.5-1.1-0.8-2.3-0.8-3.6c0-0.7,0.1-1.4,0.3-2.1s0.4-1.3,0.8-1.9
			c0.4-0.6,0.8-1.2,1.3-1.6c0.5-0.5,1.1-0.8,1.8-1.1c0.7-0.3,1.4-0.4,2.2-0.4c0.5,0,1,0.1,1.5,0.2c0.5,0.1,0.9,0.3,1.4,0.5
			s0.9,0.6,1.3,1c0.4,0.4,0.7,0.9,1,1.5l2.4-1.6c-0.7-1.3-1.6-2.3-3-3.1c-1.3-0.8-2.8-1.2-4.6-1.2c-1.2,0-2.3,0.2-3.3,0.6
			c-1,0.4-1.9,0.9-2.7,1.5c-0.8,0.6-1.4,1.4-1.9,2.2c-0.5,0.8-1,1.7-1.2,2.7c-0.3,0.9-0.4,1.9-0.4,2.9c0,1.2,0.2,2.5,0.7,3.7
			s1.1,2.3,1.9,3.3s1.8,1.7,3,2.3c1.2,0.6,2.5,0.9,3.8,0.9c1.1,0,2.1-0.2,3.2-0.5c1-0.3,2-0.9,2.9-1.6s1.5-1.5,1.9-2.5l-2.6-1.5
			C-360.6,601.2-361.1,601.8-361.7,602.3z M-334.4,589.6c-0.8-0.9-1.8-1.7-3-2.3c-1.2-0.6-2.5-0.9-3.8-0.9s-2.6,0.3-3.8,0.8
			c-1.2,0.6-2.2,1.3-3,2.2s-1.5,2-2,3.2s-0.7,2.5-0.7,3.8c0,1,0.1,2,0.4,3s0.7,1.9,1.3,2.7c0.6,0.8,1.2,1.6,2,2.2
			c0.8,0.6,1.6,1.1,2.6,1.5c1,0.4,2,0.6,3.2,0.6c1.3,0,2.6-0.3,3.8-0.8s2.2-1.3,3-2.2s1.5-2,2-3.2s0.7-2.5,0.7-3.8
			c0-1.2-0.2-2.5-0.7-3.7C-333,591.7-333.6,590.6-334.4,589.6z M-335.4,599.1c-0.3,0.9-0.7,1.6-1.2,2.3s-1.2,1.2-2,1.6
			c-0.8,0.4-1.7,0.6-2.6,0.6c-1.2,0-2.4-0.3-3.3-1c-1-0.7-1.7-1.6-2.2-2.7c-0.5-1.1-0.8-2.3-0.8-3.5c0-0.9,0.1-1.8,0.4-2.6
			c0.3-0.9,0.7-1.6,1.2-2.3s1.2-1.2,2-1.6c0.8-0.4,1.7-0.6,2.7-0.6c0.9,0,1.8,0.2,2.6,0.6c0.8,0.4,1.5,0.9,2,1.6s0.9,1.4,1.2,2.3
			c0.3,0.9,0.5,1.8,0.5,2.7C-335,597.4-335.1,598.3-335.4,599.1z M-309.3,600.9l-11.2-14.3h-2.6v19.7h3.1v-14l11,14h2.7v-19.7h-3.1
			L-309.3,600.9L-309.3,600.9z M-283.4,597.6c-0.3-0.4-0.8-0.7-1.4-1s-1.2-0.6-1.8-0.8c-0.6-0.2-1.4-0.4-2.2-0.6
			c-0.5-0.1-1-0.2-1.3-0.3s-0.7-0.2-1.1-0.3s-0.7-0.2-0.9-0.3c-0.2-0.1-0.4-0.2-0.7-0.4c-0.2-0.2-0.4-0.3-0.5-0.5s-0.2-0.4-0.3-0.6
			s-0.1-0.5-0.1-0.7c0-0.9,0.3-1.5,1-2c0.6-0.5,1.6-0.7,2.9-0.7c1.1,0,2.1,0.2,3.2,0.7c1,0.4,1.7,0.9,2.2,1.4l1.4-2.6
			c-2-1.5-4.2-2.2-6.7-2.2c-1,0-2,0.1-2.8,0.4c-0.9,0.3-1.6,0.6-2.3,1.1c-0.6,0.5-1.1,1.1-1.5,1.9s-0.6,1.6-0.6,2.6
			c0,0.8,0.1,1.4,0.4,2c0.3,0.6,0.6,1,1.1,1.4c0.5,0.4,1.1,0.8,1.8,1c0.7,0.3,1.5,0.6,2.6,0.8c0.7,0.2,1.2,0.3,1.6,0.4
			c0.4,0.1,0.8,0.2,1.3,0.4s0.8,0.3,1.1,0.5s0.5,0.3,0.8,0.6c0.2,0.2,0.4,0.5,0.5,0.7c0.1,0.3,0.1,0.6,0.1,0.9c0,0.8-0.3,1.4-1,1.9
			c-0.7,0.4-1.6,0.7-2.8,0.7c-1.4,0-2.7-0.3-4-0.8s-2.2-1.1-2.8-1.7l-1.4,2.7c1.1,0.9,2.4,1.5,3.8,2s2.9,0.7,4.4,0.7
			c0.8,0,1.6-0.1,2.3-0.2c0.7-0.1,1.4-0.3,2-0.6s1.1-0.7,1.6-1.1c0.4-0.4,0.8-1,1-1.6c0.2-0.6,0.4-1.3,0.4-2.1
			c0-0.7-0.1-1.3-0.3-1.9C-282.8,598.5-283,598-283.4,597.6z M-275.4,589.4h6.6v17h3.2v-17h6.6v-2.8h-16.3L-275.4,589.4
			L-275.4,589.4z M-237.3,596.7c0.7-1.1,1.1-2.3,1.1-3.6c0-0.8-0.2-1.6-0.5-2.3c-0.3-0.8-0.7-1.5-1.2-2.1c-0.5-0.6-1.2-1.1-1.9-1.5
			c-0.8-0.4-1.6-0.6-2.5-0.6h-8.6v19.7h3.1v-6.9h4.6l4.3,6.9h3.5l-4.6-7.5C-238.9,598.5-238,597.8-237.3,596.7z M-242.3,596.7h-5.5
			v-7.4h5.3c0.8,0,1.6,0.4,2.2,1.1s0.9,1.6,0.9,2.6s-0.3,1.9-0.8,2.6C-240.8,596.4-241.5,596.7-242.3,596.7z M-213.4,596.6
			c0,0.7-0.1,1.4-0.2,2.1s-0.3,1.3-0.6,1.9c-0.3,0.6-0.6,1.1-1,1.6c-0.4,0.4-0.9,0.8-1.5,1.1c-0.6,0.3-1.3,0.4-2.2,0.4
			c-0.8,0-1.5-0.1-2.1-0.4s-1.1-0.6-1.5-1c-0.4-0.4-0.7-1-1-1.6c-0.3-0.6-0.5-1.3-0.6-1.9c-0.1-0.7-0.2-1.4-0.2-2.1v-10h-3.1v10
			c0,1.1,0.1,2.1,0.3,3c0.2,0.9,0.5,1.8,0.9,2.7s1,1.6,1.6,2.2c0.6,0.6,1.4,1.1,2.4,1.5c1,0.4,2.1,0.5,3.3,0.5
			c1.5,0,2.8-0.3,3.9-0.8s2-1.2,2.7-2.2s1.2-2,1.5-3.1c0.3-1.2,0.5-2.4,0.5-3.8v-10h-3.1L-213.4,596.6L-213.4,596.6z M-188.4,602.3
			c-0.6,0.5-1.2,0.9-1.9,1.1c-0.6,0.2-1.3,0.3-2,0.3c-1.2,0-2.3-0.3-3.3-1s-1.7-1.6-2.3-2.7c-0.5-1.1-0.8-2.3-0.8-3.6
			c0-0.7,0.1-1.4,0.3-2.1s0.4-1.3,0.8-1.9c0.4-0.6,0.8-1.2,1.3-1.6c0.5-0.5,1.1-0.8,1.8-1.1s1.4-0.4,2.2-0.4c0.5,0,1,0.1,1.5,0.2
			c0.5,0.1,0.9,0.3,1.4,0.5s0.9,0.6,1.3,1c0.4,0.4,0.7,0.9,1,1.5l2.4-1.6c-0.7-1.3-1.6-2.3-3-3.1c-1.3-0.8-2.8-1.2-4.6-1.2
			c-1.2,0-2.3,0.2-3.3,0.6c-1,0.4-1.9,0.9-2.7,1.5c-0.8,0.6-1.4,1.4-1.9,2.2c-0.5,0.8-1,1.7-1.2,2.7c-0.3,0.9-0.4,1.9-0.4,2.9
			c0,1.2,0.2,2.4,0.6,3.5c0.4,1.2,1,2.2,1.8,3.2c0.8,0.9,1.7,1.7,2.8,2.3c1.1,0.6,2.3,1,3.5,1.1c1,0.7,1.5,1.3,1.5,2.1
			c0,0.4-0.1,0.7-0.4,1c-0.3,0.2-0.7,0.3-1.2,0.3c-0.6,0-1.3-0.2-2-0.6l-0.8,1.6c1,0.5,2.1,0.8,3.3,0.8c1,0,1.7-0.2,2.2-0.7
			s0.8-1.1,0.8-1.9c0-1-0.5-1.9-1.4-2.7c1.5-0.2,2.8-0.7,4.1-1.5c1.2-0.8,2.1-1.8,2.6-3l-2.6-1.5
			C-187.3,601.2-187.8,601.8-188.4,602.3z M-170.6,586.6l-7.7,19.7h3.3l2.1-5.4h7.6l2.1,5.4h3.3l-7.7-19.7H-170.6z M-172.4,598.7
			l3.3-8.6l3.2,8.6H-172.4z M-172.2,584c0-0.1,0.1-0.3,0.2-0.4c0.1-0.2,0.2-0.3,0.4-0.4c0.2-0.1,0.4-0.2,0.7-0.2s0.7,0.1,1,0.3
			c0.4,0.2,0.8,0.4,1.2,0.6s0.9,0.3,1.4,0.3s0.9-0.1,1.3-0.3c0.4-0.2,0.7-0.4,0.9-0.7s0.4-0.6,0.6-0.9s0.3-0.6,0.3-0.8
			c0.1-0.2,0.1-0.4,0.1-0.5h-1.8c0,0,0,0.1,0,0.2s-0.1,0.2-0.1,0.3c-0.1,0.1-0.1,0.3-0.3,0.4c-0.1,0.1-0.3,0.2-0.4,0.3
			c-0.2,0.1-0.4,0.1-0.7,0.1c-0.4,0-0.7-0.1-1.1-0.3c-0.4-0.2-0.8-0.4-1.2-0.6s-0.9-0.3-1.3-0.3s-0.8,0.1-1.2,0.3s-0.6,0.4-0.9,0.7
			c-0.2,0.3-0.4,0.6-0.5,0.9c-0.2,0.3-0.3,0.6-0.3,0.8c-0.1,0.2-0.1,0.4-0.1,0.6h1.7C-172.3,584.2-172.3,584.1-172.2,584z
			 M-135.7,592.9c-0.5-1.2-1.1-2.3-1.9-3.2c-0.8-0.9-1.8-1.7-3-2.3s-2.5-0.9-3.8-0.9s-2.6,0.3-3.8,0.8c-1.2,0.6-2.2,1.3-3,2.2
			c-0.8,0.9-1.5,2-2,3.2s-0.7,2.5-0.7,3.8c0,1,0.1,2,0.4,3s0.7,1.9,1.3,2.7c0.6,0.8,1.2,1.6,2,2.2c0.8,0.6,1.6,1.1,2.6,1.5
			c1,0.4,2,0.6,3.2,0.6c1.3,0,2.6-0.3,3.8-0.8s2.2-1.3,3-2.2c0.8-0.9,1.5-2,2-3.2s0.7-2.5,0.7-3.8
			C-135,595.3-135.2,594.1-135.7,592.9z M-138.6,599.1c-0.3,0.9-0.7,1.6-1.2,2.3c-0.5,0.7-1.2,1.2-2,1.6c-0.8,0.4-1.7,0.6-2.6,0.6
			c-1.2,0-2.4-0.3-3.3-1c-1-0.7-1.7-1.6-2.2-2.7c-0.5-1.1-0.8-2.3-0.8-3.5c0-0.9,0.1-1.8,0.4-2.6c0.3-0.9,0.7-1.6,1.2-2.3
			s1.2-1.2,2-1.6c0.8-0.4,1.7-0.6,2.7-0.6c0.9,0,1.8,0.2,2.6,0.6c0.8,0.4,1.5,0.9,2,1.6s0.9,1.4,1.2,2.3c0.3,0.9,0.5,1.8,0.5,2.7
			C-138.2,597.4-138.3,598.3-138.6,599.1z"/>
		<path d="M-572.5,387.5h6.8c-0.6,1.6-2.3,3-5,3c-3.8,0-6.4-2.7-6.4-6.5c0-3.8,2.6-6.7,6.3-6.7c2.4,0,4.4,1.1,5.5,3.1l5.8-3.4
			c-2.3-3.9-6.6-6.2-11.2-6.2c-7.3,0-13.2,5.8-13.2,13.2s5.8,13.1,13.2,13.1c6.9,0,12.2-5.1,12.2-12.9v-2h-14V387.5 M-536,370.7
			c-7.4,0-13.2,5.8-13.2,13.2c0,7.3,5.8,13.2,13.2,13.2c7.3,0,13.1-5.8,13.1-13.2C-522.9,376.5-528.7,370.7-536,370.7z M-536,390.1
			c-3.4,0-6-2.7-6-6.2s2.6-6.2,6-6.2c3.3,0,5.8,2.7,5.8,6.2S-532.7,390.1-536,390.1z M-503.4,386.8l-5.8-15.5h-7.3l9.7,25.1h6.8
			l9.8-25.1h-7.3L-503.4,386.8z M-481.4,396.4h18v-6.1h-11.2v-3.7h7.4v-5.4h-7.4v-3.7h11.2v-6.1h-18V396.4z M-432,379.5
			c0-4.7-3.8-8.2-8.7-8.2h-12.2v25.1h6.7v-8.7h2.8l5,8.7h7.5l-5.6-9.7C-433.8,385.3-432,382.7-432,379.5z M-441.5,382h-4.7v-4.7h4.7
			c1.6,0,2.6,1.1,2.6,2.4C-438.9,380.9-439.9,382-441.5,382z M-405.7,384.6l-10.2-13.3h-5.7v25.1h6.7v-13.2l10.1,13.2h5.7v-25.1
			h-6.7L-405.7,384.6L-405.7,384.6z M-376,370.7c-7.4,0-13.2,5.8-13.2,13.2c0,7.3,5.8,13.2,13.2,13.2c7.3,0,13.1-5.8,13.1-13.2
			C-362.9,376.5-368.8,370.7-376,370.7z M-376,390.1c-3.4,0-6-2.7-6-6.2s2.6-6.2,6-6.2c3.3,0,5.8,2.7,5.8,6.2
			S-372.8,390.1-376,390.1z M-336.5,396.4h6.8v-9.2h7.4v-5.7h-7.4v-4.3h11.2v-6h-18V396.4z M-308.4,396.4h18v-6.1h-11.2v-3.7h7.4
			v-5.4h-7.4v-3.7h11.2v-6.1h-18V396.4L-308.4,396.4z M-269.7,371.3h-10.2v25.1h10.2c7.7,0,13.4-5.4,13.4-12.6
			C-256.2,376.6-262,371.3-269.7,371.3z M-270,389.9h-3.1v-12.1h3.1c4,0,6.7,2.4,6.7,6C-263.3,387.5-266,389.9-270,389.9z
			 M-246.5,396.4h18v-6.1h-11.2v-3.7h7.4v-5.4h-7.4v-3.7h11.2v-6.1h-18V396.4z M-197.2,379.5c0-4.7-3.8-8.2-8.7-8.2h-12.2v25.1h6.7
			v-8.7h2.8l5,8.7h7.5l-5.6-9.7C-198.9,385.3-197.2,382.7-197.2,379.5z M-206.6,382h-4.7v-4.7h4.7c1.6,0,2.6,1.1,2.6,2.4
			C-204,380.9-205,382-206.6,382z M-178.1,371.3l-10.5,25.1h7.1l1.7-4.3h9.9l1.8,4.3h7l-10.6-25.1H-178.1z M-177.3,386.1l2.5-6.2
			l2.5,6.2H-177.3z M-145.1,390v-18.7h-7.1v25.1h17.7v-6.5L-145.1,390L-145.1,390z"/>
		<rect x="-180.3" y="423.7" class="st1" width="45.8" height="87.9"/>
		<rect x="-180.3" y="511.6" class="st2" width="45.8" height="44.5"/>
		<rect x="-233.8" y="423.7" class="st3" width="45.8" height="132.4"/>
		<rect x="-334.3" y="482.5" class="st4" width="43.3" height="73.6"/>
		<rect x="-291" y="423.7" class="st5" width="49.5" height="48.1"/>
		<path class="st1" d="M-275.9,471.8H-291V556h15.1c23.3,0,42.1-18.9,42.1-42.1C-233.8,490.7-252.6,471.8-275.9,471.8"/>
		<path class="st3" d="M-304.9,423.7c-16.2,0-29.4,13.2-29.4,29.4s13.2,29.4,29.4,29.4h13.9v-58.8H-304.9"/>
		<path class="st5" d="M-584.5,476.8h10.6c14.7,0,26.6-11.9,26.6-26.6s-11.9-26.6-26.6-26.6h-10.6V476.8"/>
		<rect x="-630.2" y="423.7" class="st3" width="45.8" height="53.1"/>
		<rect x="-630.2" y="476.8" class="st1" width="45.8" height="79.3"/>
		<path class="st4" d="M-569.5,476.8h-15.1v79.3h15.1c21.9,0,39.6-17.7,39.6-39.6C-529.8,494.5-547.6,476.8-569.5,476.8"/>
		<polyline class="st3" points="-477.9,503.6 -529.8,503.6 -529.8,556.1 -443.8,556.1 -477.9,503.6 		"/>
		<polyline class="st1" points="-477.9,503.6 -529.8,423.7 -529.8,503.6 -477.9,503.6 		"/>
		<path class="st5" d="M-477.9,423.7h-52l52,80c22.1,0,40-17.9,40-40S-455.8,423.7-477.9,423.7"/>
		<polyline class="st1" points="-390.1,423.7 -468.9,556.1 -311.4,556.1 -390.1,423.7 		"/>
		<polyline class="st2" points="-334.3,517.5 -334.3,556.1 -311.4,556.1 -334.3,517.5 		"/>
		<polyline class="st2" points="-468.9,556.1 -443.8,556.1 -456.9,535.9 -468.9,556.1 		"/>
		<path class="st5" d="M-341.8,556.1c0-26.7-21.6-48.3-48.3-48.3s-48.3,21.6-48.3,48.3H-341.8"/>
		<rect x="-134.5" y="511.6" class="st5" width="45.8" height="44.5"/>
	</g>
	<g>
		<rect x="-698.8" y="-0.2" class="st4" width="678.8" height="326.8"/>
		<g>
			<g>
				<path class="st0" d="M-510,126.9v-18.1l-7.5,13.7h-2.4l-7.5-13.7v18.1h-4v-25.4h4.3l8.4,15.5l8.4-15.5h4.3v25.4H-510z"/>
				<path class="st0" d="M-493,126.9v-25.4h4v25.4H-493z"/>
				<path class="st0" d="M-472.2,109.1v18h-4v-25.5h3.3l14.4,18.4v-18.3h4.1v25.4h-3.6L-472.2,109.1z"/>
				<path class="st0" d="M-441.6,126.9v-25.4h4v25.4H-441.6z"/>
				<path class="st0" d="M-409.7,107.5c-0.6-0.6-1.5-1.2-2.8-1.7c-1.3-0.6-2.7-0.9-4.1-0.9c-1.6,0-2.9,0.3-3.7,0.9
					c-0.9,0.6-1.2,1.5-1.2,2.6c0,0.4,0,0.7,0.1,0.9c0.1,0.3,0.2,0.6,0.4,0.8c0.2,0.2,0.4,0.4,0.7,0.7c0.3,0.2,0.6,0.4,0.9,0.5
					s0.7,0.3,1.1,0.5s0.9,0.3,1.4,0.4s1,0.3,1.7,0.5c1.1,0.3,2.1,0.6,2.8,0.8c0.8,0.3,1.5,0.6,2.3,1s1.3,0.9,1.8,1.3
					c0.5,0.5,0.8,1.1,1,1.8c0.3,0.8,0.4,1.5,0.4,2.5s-0.2,1.9-0.5,2.7c-0.3,0.9-0.8,1.5-1.3,2.1c-0.6,0.6-1.2,1-2,1.4
					s-1.6,0.7-2.6,0.9c-0.9,0.2-1.9,0.3-2.9,0.3c-1.9,0-3.8-0.3-5.6-0.9c-1.8-0.6-3.4-1.4-4.8-2.6l1.8-3.4c0.8,0.8,1.9,1.5,3.6,2.2
					s3.4,1,5.1,1c1.6,0,2.8-0.3,3.7-0.9c0.9-0.6,1.3-1.3,1.3-2.4c0-0.4-0.1-0.8-0.2-1.1c-0.1-0.4-0.4-0.7-0.7-0.9s-0.7-0.5-0.9-0.7
					c-0.4-0.2-0.8-0.4-1.4-0.6c-0.7-0.2-1.1-0.4-1.7-0.6c-0.5-0.1-1.2-0.3-2.1-0.6c-1.3-0.4-2.5-0.7-3.3-1s-1.6-0.8-2.3-1.3
					s-1.1-1.1-1.4-1.9s-0.5-1.6-0.5-2.6c0-1.2,0.2-2.4,0.7-3.3s1.1-1.8,2-2.5s1.8-1.1,2.9-1.4c1.1-0.4,2.4-0.5,3.7-0.5
					c3.1,0,6,0.9,8.6,2.8L-409.7,107.5z"/>
				<path class="st0" d="M-377.1,105.2h-8.4v21.9h-4.1v-21.9h-8.4v-3.5h20.9V105.2L-377.1,105.2z"/>
				<path class="st0" d="M-349.2,123.4v3.5h-17.4v-25.4h17.1v3.5h-13.1v7.2h11.4v3.3h-11.4v7.8L-349.2,123.4L-349.2,123.4z
					 M-356.4,99l-2.6-0.8l2.1-3.9h3.8L-356.4,99z"/>
				<path class="st0" d="M-337.9,126.9v-25.4h11.1c1.1,0,2.2,0.3,3.1,0.8c1,0.5,1.8,1.1,2.5,1.9s1.2,1.7,1.6,2.7
					c0.4,0.9,0.6,2,0.6,3c0,1.7-0.5,3.3-1.3,4.6c-0.9,1.4-2.1,2.4-3.6,2.8l6,9.7h-4.5l-5.5-8.8h-5.9v8.8L-337.9,126.9L-337.9,126.9z
					 M-333.9,114.6h7c1.1,0,2-0.5,2.7-1.4c0.8-0.9,1-2.1,1-3.4s-0.4-2.4-1.2-3.3c-0.9-0.9-1.8-1.4-2.8-1.4h-6.8L-333.9,114.6
					L-333.9,114.6z"/>
				<path class="st0" d="M-307.2,126.9v-25.4h4v25.4H-307.2z"/>
				<path class="st0" d="M-291.8,114.3c0-1.7,0.3-3.3,0.9-4.8c0.7-1.6,1.5-2.9,2.6-4.1c1-1.1,2.4-2.1,3.9-2.8c1.5-0.8,3.1-1,4.8-1
					c1.8,0,3.4,0.4,4.9,1.1c1.5,0.8,2.8,1.7,3.9,2.9c1,1.2,1.8,2.6,2.5,4.2c0.6,1.5,0.9,3.1,0.9,4.7c0,1.7-0.3,3.3-0.9,4.8
					s-1.4,2.9-2.6,4.1c-1,1.1-2.4,2.1-3.9,2.8c-1.5,0.7-3.1,1-4.8,1c-1.4,0-2.7-0.2-4.1-0.7s-2.4-1.1-3.4-2s-1.8-1.8-2.6-2.8
					s-1.2-2.3-1.6-3.5C-291.6,116.9-291.8,115.6-291.8,114.3z M-279.7,123.5c1.2,0,2.4-0.3,3.4-0.8c1-0.6,1.9-1.2,2.6-2.1
					c0.7-0.9,1.1-1.9,1.5-2.9c0.4-1.1,0.6-2.2,0.6-3.4s-0.2-2.4-0.6-3.5c-0.4-1.1-0.9-2.1-1.6-2.9c-0.7-0.9-1.5-1.5-2.6-2.1
					c-1-0.5-2.1-0.8-3.3-0.8s-2.4,0.3-3.4,0.8s-1.9,1.2-2.6,2.1s-1.2,1.9-1.6,2.9c-0.4,1.1-0.6,2.2-0.6,3.4c0,1.6,0.3,3.1,0.9,4.5
					s1.6,2.6,2.8,3.4C-282.7,123.1-281.3,123.5-279.7,123.5z"/>
				<path class="st0" d="M-240.2,126.9v-25.4h9c2,0,3.8,0.3,5.4,0.9c1.6,0.7,2.9,1.6,3.9,2.7c0.9,1.1,1.8,2.5,2.3,4
					c0.6,1.5,0.8,3.1,0.8,4.9c0,3.9-1.1,6.9-3.4,9.3c-2.3,2.4-5.2,3.5-9,3.5L-240.2,126.9L-240.2,126.9z M-231.2,105.2h-5v18.3h5
					c1.7,0,3.2-0.4,4.5-1.2c1.2-0.9,2.2-1.9,2.8-3.3s0.9-2.9,0.9-4.7c0-2.7-0.8-4.9-2.2-6.6C-226.6,106-228.7,105.2-231.2,105.2z"/>
				<path class="st0" d="M-201.1,101.6h3.8l9.8,25.4h-4.3l-2.7-6.9h-9.7l-2.7,6.9h-4.3L-201.1,101.6z M-195.1,117.1l-4.1-11.2
					l-4.2,11.2H-195.1z"/>
			</g>
			<g>
				<path class="st0" d="M-606.5,151.4c2.4,0,4.4,0.5,6.3,1.5c1.8,1,3.2,2.4,4.1,4.1l-5.3,3.8c-0.2-0.6-0.6-1.1-0.9-1.5
					c-0.4-0.4-0.9-0.8-1.3-0.9c-0.5-0.2-0.9-0.4-1.4-0.5s-0.9-0.2-1.5-0.2c-0.9,0-1.8,0.2-2.6,0.6c-0.8,0.4-1.3,0.9-1.8,1.5
					c-0.5,0.7-0.8,1.3-1,2.1s-0.4,1.6-0.4,2.4c0,1.9,0.6,3.4,1.6,4.7s2.5,2,4.3,2c0.7,0,1.3-0.1,2-0.3s1.2-0.6,1.8-1
					c0.6-0.5,1-1,1.2-1.8l5.7,3.4c-0.5,1.2-1.3,2.3-2.5,3.2s-2.6,1.6-4,2.1s-2.9,0.7-4.4,0.7c-1.8,0-3.5-0.4-5.1-1.1
					c-1.6-0.8-2.9-1.7-4.1-2.9s-2-2.7-2.6-4.2c-0.7-1.6-0.9-3.2-0.9-4.8c0-1.5,0.3-3.1,0.9-4.5c0.6-1.5,1.4-2.8,2.6-4.1
					c1-1.2,2.5-2.2,4.1-2.9C-610.3,151.7-608.5,151.4-606.5,151.4z"/>
				<path class="st0" d="M-586.2,176.8v-25.4h7v25.4H-586.2z"/>
				<path class="st0" d="M-549.6,170.8v6.1h-18.1v-25.4h17.8v6.1h-10.8v3.6h9.3v5.7h-9.3v4L-549.6,170.8L-549.6,170.8z
					 M-565.1,148.3l4.1-4.2h4.8l4.1,4.2l-3.4,1.5l-3-2.3l-3,2.3L-565.1,148.3z"/>
				<path class="st0" d="M-532.3,164.3v12.5h-7v-25.4h5.4l10.2,12.9v-12.9h7v25.4h-5.5L-532.3,164.3z"/>
				<path class="st0" d="M-493.6,151.4c2.4,0,4.4,0.5,6.3,1.5c1.8,1,3.2,2.4,4.1,4.1l-5.3,3.8c-0.2-0.6-0.6-1.1-0.9-1.5
					c-0.4-0.4-0.9-0.8-1.3-0.9s-0.9-0.4-1.4-0.5s-0.9-0.2-1.5-0.2c-0.9,0-1.8,0.2-2.6,0.6s-1.3,0.9-1.8,1.5c-0.5,0.7-0.8,1.3-1,2.1
					s-0.4,1.6-0.4,2.4c0,1.9,0.6,3.4,1.6,4.7s2.5,2,4.3,2c0.7,0,1.3-0.1,2-0.3s1.2-0.6,1.8-1s1-1,1.2-1.8l5.7,3.4
					c-0.5,1.2-1.3,2.3-2.5,3.2s-2.6,1.6-4,2.1s-2.9,0.7-4.4,0.7c-1.8,0-3.5-0.4-5.1-1.1s-2.9-1.7-4.1-2.9s-2-2.7-2.6-4.2
					c-0.7-1.6-0.9-3.2-0.9-4.8c0-1.5,0.3-3.1,0.9-4.5c0.6-1.5,1.4-2.8,2.6-4.1c1-1.2,2.5-2.2,4.1-2.9
					C-497.4,151.7-495.5,151.4-493.6,151.4z"/>
				<path class="st0" d="M-473.4,176.8v-25.4h7v25.4H-473.4z"/>
				<path class="st0" d="M-448.9,151.5h7.8l8,25.4h-7.1l-1.5-5h-6.8l-1.5,5h-7.1L-448.9,151.5z M-442.9,167.3l-2.3-8.9l-2.4,8.9
					H-442.9z"/>
				<path class="st0" d="M-423.5,182.5l1.3-5.6h-2.1v-6.6h5.6v6.6l-1.9,5.6H-423.5z"/>
				<path class="st0" d="M-373.5,157.5h-7.3v19.3h-7v-19.3h-7.3v-6.1h21.6L-373.5,157.5L-373.5,157.5z"/>
				<path class="st0" d="M-345.8,170.8v6.1h-18.1v-25.4h17.8v6.1h-10.8v3.6h9.3v5.7h-9.3v4L-345.8,170.8L-345.8,170.8z"/>
				<path class="st0" d="M-324.2,151.4c2.4,0,4.4,0.5,6.3,1.5c1.8,1,3.2,2.4,4.1,4.1l-5.3,3.8c-0.2-0.6-0.6-1.1-0.9-1.5
					c-0.4-0.4-0.9-0.8-1.3-0.9c-0.5-0.2-0.9-0.4-1.4-0.5s-0.9-0.2-1.5-0.2c-0.9,0-1.8,0.2-2.6,0.6c-0.8,0.4-1.3,0.9-1.8,1.5
					c-0.5,0.7-0.8,1.3-1,2.1s-0.4,1.6-0.4,2.4c0,1.9,0.6,3.4,1.6,4.7s2.5,2,4.3,2c0.7,0,1.3-0.1,2-0.3s1.2-0.6,1.8-1s1-1,1.2-1.8
					l5.7,3.4c-0.5,1.2-1.3,2.3-2.5,3.2s-2.6,1.6-4,2.1s-2.9,0.7-4.4,0.7c-1.8,0-3.5-0.4-5.1-1.1s-2.9-1.7-4.1-2.9s-2-2.7-2.6-4.2
					c-0.7-1.6-0.9-3.2-0.9-4.8c0-1.5,0.3-3.1,0.9-4.5c0.6-1.5,1.4-2.8,2.6-4.1c1-1.2,2.5-2.2,4.1-2.9
					C-328,151.7-326.2,151.4-324.2,151.4z"/>
				<path class="st0" d="M-296.9,164.3v12.5h-7v-25.4h5.4l10.2,12.9v-12.9h7v25.4h-5.6L-296.9,164.3z"/>
				<path class="st0" d="M-271.2,164.1c0-1.7,0.3-3.3,0.9-4.8c0.7-1.5,1.5-2.9,2.7-4.1c1.1-1.1,2.5-2.1,4.2-2.8c1.7-0.8,3.3-1,5.2-1
					s3.6,0.4,5.2,1.1c1.6,0.8,3,1.7,4.1,2.9c1,1.2,2,2.6,2.6,4.2c0.7,1.5,0.9,3.1,0.9,4.7c0,1.6-0.3,3.2-0.9,4.8
					c-0.7,1.5-1.5,2.9-2.7,4.1c-1.1,1.1-2.5,2.1-4.2,2.8c-1.6,0.8-3.4,1-5.2,1c-1.9,0-3.6-0.4-5.2-1.1s-3-1.7-4.1-2.9
					s-2-2.6-2.6-4.2C-270.9,167.4-271.2,165.7-271.2,164.1z M-258.3,170.9c0.9,0,1.8-0.2,2.6-0.6c0.8-0.4,1.3-0.9,1.8-1.6
					s0.8-1.3,1-2.2c0.2-0.8,0.4-1.6,0.4-2.5c0-1.2-0.2-2.3-0.7-3.2c-0.4-0.9-1-1.8-2-2.5c-0.9-0.7-2-0.9-3.2-0.9
					c-0.9,0-1.8,0.2-2.6,0.6c-0.8,0.4-1.3,0.9-1.8,1.5c-0.5,0.7-0.8,1.3-1,2.2c-0.2,0.8-0.4,1.6-0.4,2.5s0.1,1.7,0.4,2.5
					c0.3,0.8,0.6,1.5,1,2.1c0.5,0.7,1,1.1,1.8,1.5S-259.3,170.9-258.3,170.9z"/>
				<path class="st0" d="M-235.3,176.8v-25.4h7v19.4h11.5v6.1L-235.3,176.8L-235.3,176.8z"/>
				<path class="st0" d="M-209,164.1c0-1.7,0.3-3.3,0.9-4.8c0.7-1.5,1.5-2.9,2.7-4.1c1.1-1.1,2.5-2.1,4.2-2.8c1.7-0.8,3.3-1,5.2-1
					s3.6,0.4,5.2,1.1c1.6,0.8,3,1.7,4.1,2.9c1,1.2,2,2.6,2.6,4.2c0.7,1.5,0.9,3.1,0.9,4.7c0,1.6-0.3,3.2-0.9,4.8
					c-0.7,1.5-1.5,2.9-2.7,4.1c-1.1,1.1-2.5,2.1-4.2,2.8c-1.6,0.8-3.4,1-5.2,1c-1.9,0-3.6-0.4-5.2-1.1s-3-1.7-4.1-2.9
					s-2-2.6-2.6-4.2C-208.6,167.4-209,165.7-209,164.1z M-196,170.9c0.9,0,1.8-0.2,2.6-0.6c0.8-0.4,1.3-0.9,1.8-1.6
					c0.5-0.7,0.8-1.3,1-2.2c0.2-0.8,0.4-1.6,0.4-2.5c0-1.2-0.2-2.3-0.7-3.2c-0.4-0.9-1-1.8-2-2.5c-0.9-0.7-2-0.9-3.2-0.9
					c-0.9,0-1.8,0.2-2.6,0.6c-0.8,0.4-1.3,0.9-1.8,1.5c-0.5,0.7-0.8,1.3-1,2.2c-0.2,0.8-0.4,1.6-0.4,2.5s0.1,1.7,0.4,2.5
					s0.6,1.5,1,2.1c0.5,0.7,1,1.1,1.8,1.5S-197,170.9-196,170.9z"/>
				<path class="st0" d="M-160.5,163.4h10.4v13.5h-5.8v-2.1c-1.8,1.5-3.9,2.3-6.2,2.3c-1.7,0-3.2-0.3-4.7-0.9
					c-1.5-0.6-2.8-1.4-4-2.6c-1.1-1-2-2.5-2.7-4.2s-1-3.5-1-5.5c0-1.8,0.4-3.4,1-5c0.7-1.5,1.6-2.9,2.7-4.1s2.6-2,4.2-2.7
					c1.6-0.7,3.3-0.9,5.1-0.9c2.3,0,4.4,0.5,6.2,1.5c1.9,0.9,3.2,2.4,4.2,4.1l-5.2,4c-0.5-1-1.2-1.8-2.3-2.4c-1-0.6-2.1-0.9-3.2-0.9
					c-1.6,0-3,0.7-4.1,1.9c-1,1.2-1.6,2.8-1.6,4.8s0.6,3.6,1.6,4.8s2.5,1.8,4.3,1.8c2,0,3.8-0.9,5.4-2.5h-4.4L-160.5,163.4
					L-160.5,163.4z"/>
				<path class="st0" d="M-139.5,176.8v-25.4h7v25.4H-139.5z"/>
				<path class="st0" d="M-115.2,151.5h7.8l8,25.4h-7.1l-1.5-5h-6.6l-1.5,5h-7.1L-115.2,151.5z M-109.1,167.3l-2.3-8.9l-2.4,8.9
					H-109.1z"/>
			</g>
			<g>
				<path class="st0" d="M-478.6,220.6v6.1h-18.1v-25.4h17.8v6.1h-10.8v3.6h9.3v5.7h-9.3v4L-478.6,220.6L-478.6,220.6z"/>
				<path class="st0" d="M-453,226.7v-25.4h7v25.4H-453z"/>
				<path class="st0" d="M-427.5,214.2v12.5h-7v-25.4h5.4l10.2,12.9v-12.9h7v25.4h-5.5L-427.5,214.2z"/>
				<path class="st0" d="M-401.9,214c0-1.7,0.3-3.3,0.9-4.8c0.7-1.5,1.5-2.9,2.7-4.1c1.1-1.1,2.5-2.1,4.2-2.8c1.6-0.7,3.3-1,5.2-1
					c1.9,0,3.6,0.4,5.2,1.1c1.6,0.8,3,1.7,4.1,2.9c1,1.2,2,2.6,2.6,4.2c0.7,1.5,0.9,3.1,0.9,4.7c0,1.6-0.3,3.2-0.9,4.8
					c-0.7,1.5-1.5,2.9-2.7,4.1c-1.1,1.1-2.5,2.1-4.2,2.8c-1.6,0.8-3.4,1-5.2,1c-1.9,0-3.6-0.4-5.2-1.1c-1.6-0.8-3-1.7-4.1-2.9
					s-2-2.6-2.6-4.2C-401.5,217.2-401.9,215.6-401.9,214z M-388.9,220.7c0.9,0,1.8-0.2,2.6-0.6c0.8-0.4,1.3-0.9,1.8-1.6
					c0.5-0.7,0.8-1.3,1-2.2c0.2-0.8,0.4-1.6,0.4-2.5c0-1.2-0.2-2.3-0.7-3.2c-0.4-0.9-1-1.8-2-2.5c-0.9-0.7-2-0.9-3.2-0.9
					c-0.9,0-1.8,0.2-2.6,0.6c-0.8,0.4-1.3,0.9-1.8,1.5c-0.5,0.7-0.8,1.3-1,2.2c-0.2,0.8-0.4,1.6-0.4,2.5s0.1,1.7,0.4,2.5
					s0.6,1.5,1,2.1c0.5,0.7,1,1.1,1.8,1.5C-390.9,220.5-389.9,220.7-388.9,220.7z"/>
				<path class="st0" d="M-362,201.3l4.9,17.3l4.9-17.3h7.3l-8.8,25.4h-6.9l-8.9-25.4H-362z"/>
				<path class="st0" d="M-332,201.3h7.8l8,25.4h-7.1l-1.5-5h-6.8l-1.5,5h-7.1L-332,201.3z M-325.8,217.1l-2.3-8.9l-2.4,8.9H-325.8z
					"/>
				<path class="st0" d="M-285.7,221c-0.7,1.5-1.7,2.7-3.4,3.8c-1.6,1-3.5,1.7-5.5,2c1.1,1.1,1.7,2.5,1.7,3.8c0,1.1-0.4,2.1-1.1,2.8
					s-1.8,1.1-3.2,1.1s-2.9-0.4-4.4-1.2l1.6-3.5c0.6,0.5,1.1,0.7,1.7,0.7c0.5,0,0.8-0.1,1-0.4c0.3-0.3,0.4-0.6,0.4-1
					c0-0.8-0.5-1.5-1.3-2.4c-1.6-0.2-3.1-0.7-4.5-1.5c-1.4-0.9-2.6-1.8-3.6-3s-1.7-2.6-2.3-4s-0.9-2.9-0.9-4.4s0.3-3.1,0.9-4.5
					c0.6-1.4,1.4-2.8,2.6-4.1c1-1.2,2.5-2.2,4.1-2.9c1.7-0.8,3.5-1.1,5.5-1.1c2.4,0,4.4,0.5,6.3,1.5c1.8,1,3.2,2.4,4.1,4.1l-5.3,3.8
					c-0.2-0.6-0.6-1.1-0.9-1.5c-0.4-0.4-0.9-0.8-1.3-0.9c-0.5-0.2-0.9-0.4-1.4-0.5s-0.9-0.2-1.5-0.2c-0.9,0-1.8,0.2-2.6,0.6
					s-1.3,0.9-1.8,1.5c-0.5,0.7-0.8,1.3-1,2.1s-0.4,1.6-0.4,2.4c0,1.9,0.6,3.4,1.6,4.7s2.5,2,4.3,2c0.7,0,1.3-0.1,2-0.3
					s1.2-0.6,1.8-1c0.6-0.5,1-1,1.2-1.8L-285.7,221z"/>
				<path class="st0" d="M-270.5,201.3h7.8l8,25.4h-7.1l-1.5-5h-6.8l-1.5,5h-7.1L-270.5,201.3z M-269,197.9c-0.3,0-0.6,0.1-0.8,0.2
					c-0.2,0.1-0.4,0.3-0.5,0.4c-0.1,0.2-0.2,0.3-0.3,0.5s-0.1,0.4-0.1,0.4c0,0.1,0,0.2,0,0.2h-3.6c0-0.3,0.1-0.7,0.2-1
					c0.1-0.5,0.3-0.9,0.6-1.4c0.3-0.6,0.6-1,0.9-1.5c0.4-0.5,0.9-0.9,1.4-1.1c0.6-0.3,1.2-0.5,1.9-0.5c0.6,0,1,0.1,1.5,0.3
					s0.9,0.4,1.1,0.7c0.3,0.2,0.7,0.5,1,0.7s0.8,0.3,1.1,0.3s0.6-0.1,0.8-0.2c0.2-0.1,0.4-0.3,0.6-0.5c0.1-0.2,0.2-0.4,0.3-0.6
					c0.1-0.2,0.1-0.4,0.2-0.5c0-0.1,0-0.2,0-0.2h3.6c0,0.2-0.1,0.5-0.2,0.9c-0.1,0.4-0.3,0.9-0.6,1.4c-0.3,0.6-0.6,1-0.9,1.5
					s-0.9,0.9-1.4,1.2c-0.6,0.4-1.2,0.5-1.9,0.5c-0.5,0-0.9-0.1-1.4-0.3s-0.9-0.4-1.1-0.6c-0.3-0.2-0.7-0.4-1-0.6
					C-268.3,198-268.6,197.9-269,197.9z M-264.4,217.1l-2.3-8.9l-2.4,8.9H-264.4z"/>
				<path class="st0" d="M-247.8,214c0-1.7,0.3-3.3,0.9-4.8c0.7-1.5,1.5-2.9,2.7-4.1c1.1-1.1,2.5-2.1,4.2-2.8c1.6-0.7,3.3-1,5.2-1
					s3.6,0.4,5.2,1.1c1.6,0.8,3,1.7,4.1,2.9c1,1.2,2,2.6,2.6,4.2c0.7,1.5,0.9,3.1,0.9,4.7c0,1.6-0.3,3.2-0.9,4.8
					c-0.7,1.5-1.5,2.9-2.7,4.1c-1.1,1.1-2.5,2.1-4.2,2.8c-1.6,0.8-3.4,1-5.2,1c-1.9,0-3.6-0.4-5.2-1.1c-1.6-0.8-3-1.7-4.1-2.9
					s-2-2.6-2.6-4.2C-247.5,217.2-247.8,215.6-247.8,214z M-234.9,220.7c0.9,0,1.8-0.2,2.6-0.6c0.8-0.4,1.3-0.9,1.8-1.6
					c0.5-0.7,0.8-1.3,1-2.2c0.2-0.8,0.4-1.6,0.4-2.5c0-1.2-0.2-2.3-0.7-3.2c-0.4-0.9-1-1.8-2-2.5c-0.9-0.7-2-0.9-3.2-0.9
					c-0.9,0-1.8,0.2-2.6,0.6c-0.8,0.4-1.3,0.9-1.8,1.5c-0.5,0.7-0.8,1.3-1,2.2c-0.2,0.8-0.4,1.6-0.4,2.5s0.1,1.7,0.4,2.5
					c0.3,0.8,0.6,1.5,1,2.1c0.5,0.7,1,1.1,1.8,1.5S-235.9,220.7-234.9,220.7z"/>
			</g>
		</g>
	</g>
</g>
<g>
	<g>
		<rect x="-1397.7" y="327" class="st0" width="678.8" height="327.3"/>
		<path d="M-1268.4,599c0,0.7-0.1,1.4-0.2,2.1c-0.1,0.7-0.3,1.3-0.5,1.9c-0.3,0.6-0.6,1.1-1,1.6c-0.4,0.4-0.9,0.8-1.5,1.1
			c-0.6,0.3-1.3,0.4-2.2,0.4c-0.8,0-1.5-0.1-2.1-0.4c-0.6-0.3-1.1-0.6-1.5-1c-0.4-0.4-0.7-1-1-1.6c-0.3-0.6-0.5-1.3-0.6-1.9
			c-0.1-0.7-0.2-1.4-0.2-2.1v-10h-3.1v10c0,1.1,0.1,2.1,0.3,3c0.2,0.9,0.5,1.8,0.9,2.7c0.4,0.9,1,1.6,1.6,2.2
			c0.6,0.6,1.4,1.1,2.4,1.5c1,0.4,2.1,0.5,3.3,0.5c1.5,0,2.8-0.3,3.9-0.8s2-1.2,2.7-2.2c0.7-0.9,1.2-2,1.5-3.1
			c0.3-1.2,0.5-2.4,0.5-3.8v-10h-3.1L-1268.4,599 M-1241.8,603.3L-1253,589h-2.6v19.7h3.1v-14l11,14h2.7V589h-3.1L-1241.8,603.3
			L-1241.8,603.3z M-1228.7,608.8h3.1v-19.7h-3.1V608.8z M-1209.9,589l-7.7,19.7h3.3l2.1-5.4h7.6l2.1,5.4h3.3l-7.7-19.7H-1209.9z
			 M-1211.7,601.2l3.3-8.6l3.2,8.6H-1211.7z M-1211.6,586.4c0-0.1,0.1-0.3,0.2-0.4c0.1-0.2,0.2-0.3,0.4-0.4c0.2-0.1,0.4-0.2,0.7-0.2
			s0.7,0.1,1,0.3c0.4,0.2,0.8,0.4,1.2,0.6c0.4,0.2,0.9,0.3,1.4,0.3s0.9-0.1,1.3-0.3c0.4-0.2,0.7-0.4,0.9-0.7s0.4-0.6,0.6-0.9
			c0.2-0.3,0.3-0.6,0.3-0.8c0.1-0.2,0.1-0.4,0.1-0.5h-1.8c0,0,0,0.1,0,0.2c0,0.1-0.1,0.2-0.1,0.3c-0.1,0.1-0.1,0.3-0.3,0.4
			c-0.1,0.1-0.3,0.2-0.4,0.3c-0.2,0.1-0.4,0.1-0.7,0.1c-0.4,0-0.7-0.1-1.1-0.3c-0.4-0.2-0.8-0.4-1.2-0.6c-0.4-0.2-0.9-0.3-1.3-0.3
			s-0.8,0.1-1.2,0.3c-0.4,0.2-0.6,0.4-0.9,0.7s-0.4,0.6-0.5,0.9c-0.2,0.3-0.3,0.6-0.3,0.8c-0.1,0.2-0.1,0.4-0.1,0.6h1.7
			C-1211.6,586.7-1211.6,586.5-1211.6,586.4z M-1176.9,592c-0.8-0.9-1.8-1.7-3-2.3c-1.2-0.6-2.5-0.9-3.8-0.9s-2.6,0.3-3.8,0.8
			c-1.2,0.6-2.2,1.3-3,2.2c-0.8,0.9-1.5,2-2,3.2c-0.5,1.2-0.7,2.5-0.7,3.8c0,1,0.1,2,0.4,3s0.7,1.9,1.3,2.7c0.6,0.8,1.2,1.6,2,2.2
			c0.8,0.6,1.6,1.1,2.6,1.5c1,0.4,2,0.6,3.2,0.6c1.3,0,2.6-0.3,3.8-0.8c1.2-0.5,2.2-1.3,3-2.2c0.8-0.9,1.5-2,2-3.2s0.7-2.5,0.7-3.8
			c0-1.2-0.2-2.5-0.7-3.7C-1175.5,594.2-1176.1,593-1176.9,592z M-1178,601.5c-0.3,0.9-0.7,1.6-1.2,2.3c-0.5,0.7-1.2,1.2-2,1.6
			c-0.8,0.4-1.7,0.6-2.6,0.6c-1.2,0-2.4-0.3-3.3-1c-1-0.7-1.7-1.6-2.2-2.7s-0.8-2.3-0.8-3.5c0-0.9,0.1-1.8,0.4-2.6
			c0.3-0.9,0.7-1.6,1.2-2.3c0.5-0.7,1.2-1.2,2-1.6s1.7-0.6,2.7-0.6c0.9,0,1.8,0.2,2.6,0.6c0.8,0.4,1.5,0.9,2,1.6
			c0.5,0.7,0.9,1.4,1.2,2.3c0.3,0.9,0.5,1.8,0.5,2.7S-1177.7,600.8-1178,601.5z M-1150,600h8.8v-2.6h-8.8v-5.6h10.1V589h-13.3v19.7
			h13.5V606h-10.4L-1150,600L-1150,600L-1150,600z M-1104.8,599.2c0.7-1.1,1.1-2.3,1.1-3.6c0-0.8-0.2-1.6-0.5-2.3
			c-0.3-0.8-0.7-1.5-1.2-2.1c-0.5-0.6-1.2-1.1-1.9-1.5c-0.8-0.4-1.6-0.6-2.5-0.6h-8.6v19.7h3.1v-6.9h4.6l4.3,6.9h3.5l-4.6-7.5
			C-1106.4,600.9-1105.5,600.2-1104.8,599.2z M-1109.9,599.2h-5.5v-7.4h5.3c0.8,0,1.6,0.4,2.2,1.1c0.6,0.7,1,1.6,1,2.6
			s-0.3,1.9-0.8,2.6C-1108.3,598.8-1109,599.2-1109.9,599.2z M-1091.4,600h8.8v-2.6h-8.8v-5.6h10.2V589h-13.3v19.7h13.5V606h-10.4
			V600z M-1060.5,604.8c-0.6,0.5-1.2,0.9-1.9,1.1c-0.6,0.2-1.3,0.3-2,0.3c-1.2,0-2.3-0.3-3.3-1c-1-0.7-1.7-1.6-2.3-2.7
			c-0.5-1.1-0.8-2.3-0.8-3.6c0-0.7,0.1-1.4,0.3-2.1c0.2-0.7,0.4-1.3,0.8-1.9s0.8-1.2,1.3-1.6c0.5-0.5,1.1-0.8,1.8-1.1
			s1.4-0.4,2.2-0.4c0.5,0,1,0.1,1.5,0.2c0.5,0.1,0.9,0.3,1.4,0.5c0.5,0.2,0.9,0.6,1.3,1c0.4,0.4,0.7,0.9,1,1.5l2.4-1.6
			c-0.7-1.3-1.6-2.3-3-3.1c-1.3-0.8-2.8-1.2-4.6-1.2c-1.2,0-2.3,0.2-3.3,0.6s-1.9,0.9-2.7,1.5s-1.4,1.4-1.9,2.2
			c-0.5,0.8-1,1.7-1.2,2.7c-0.3,0.9-0.4,1.9-0.4,2.9c0,1.2,0.2,2.5,0.7,3.7c0.5,1.2,1.1,2.3,1.9,3.3s1.8,1.7,3,2.3s2.5,0.9,3.8,0.9
			c1.1,0,2.1-0.2,3.2-0.5c1-0.3,2-0.9,2.9-1.6c0.9-0.7,1.5-1.5,1.9-2.5l-2.6-1.5C-1059.4,603.7-1059.9,604.2-1060.5,604.8z
			 M-1033.2,592c-0.8-0.9-1.8-1.7-3-2.3s-2.5-0.9-3.8-0.9s-2.6,0.3-3.8,0.8c-1.2,0.6-2.2,1.3-3,2.2s-1.5,2-2,3.2
			c-0.5,1.2-0.7,2.5-0.7,3.8c0,1,0.1,2,0.4,3s0.7,1.9,1.3,2.7c0.6,0.8,1.2,1.6,2,2.2c0.8,0.6,1.6,1.1,2.6,1.5c1,0.4,2,0.6,3.2,0.6
			c1.3,0,2.6-0.3,3.8-0.8s2.2-1.3,3-2.2c0.8-0.9,1.5-2,2-3.2s0.7-2.5,0.7-3.8c0-1.2-0.2-2.5-0.7-3.7
			C-1031.8,594.2-1032.4,593-1033.2,592z M-1034.2,601.5c-0.3,0.9-0.7,1.6-1.2,2.3c-0.5,0.7-1.2,1.2-2,1.6c-0.8,0.4-1.7,0.6-2.6,0.6
			c-1.2,0-2.4-0.3-3.3-1c-1-0.7-1.7-1.6-2.2-2.7s-0.8-2.3-0.8-3.5c0-0.9,0.1-1.8,0.4-2.6c0.3-0.9,0.7-1.6,1.2-2.3
			c0.5-0.7,1.2-1.2,2-1.6s1.7-0.6,2.7-0.6c0.9,0,1.8,0.2,2.6,0.6s1.5,0.9,2,1.6c0.5,0.7,0.9,1.4,1.2,2.3c0.3,0.9,0.5,1.8,0.5,2.7
			C-1033.8,599.8-1033.9,600.8-1034.2,601.5z M-1008.1,603.3l-11.2-14.3h-2.6v19.7h3.1v-14l11,14h2.7V589h-3.1L-1008.1,603.3
			L-1008.1,603.3z M-982.2,600c-0.3-0.4-0.8-0.7-1.4-1s-1.2-0.6-1.8-0.8c-0.6-0.2-1.4-0.4-2.2-0.6c-0.5-0.1-1-0.2-1.3-0.3
			s-0.7-0.2-1.1-0.3c-0.4-0.1-0.7-0.2-0.9-0.3c-0.2-0.1-0.4-0.2-0.7-0.4c-0.2-0.2-0.4-0.3-0.5-0.5s-0.2-0.4-0.3-0.6
			c-0.1-0.2-0.1-0.5-0.1-0.7c0-0.9,0.3-1.5,1-2c0.6-0.5,1.6-0.7,2.9-0.7c1.1,0,2.1,0.2,3.2,0.7c1,0.4,1.7,0.9,2.2,1.4l1.4-2.6
			c-2-1.5-4.2-2.2-6.7-2.2c-1,0-2,0.1-2.8,0.4c-0.9,0.3-1.6,0.6-2.3,1.1c-0.6,0.5-1.1,1.1-1.5,1.9s-0.6,1.6-0.6,2.6
			c0,0.8,0.1,1.4,0.4,2c0.3,0.6,0.6,1,1.1,1.4s1.1,0.8,1.8,1c0.7,0.3,1.5,0.6,2.6,0.8c0.7,0.2,1.2,0.3,1.6,0.4
			c0.4,0.1,0.8,0.2,1.3,0.4s0.8,0.3,1.1,0.5s0.5,0.3,0.8,0.6c0.2,0.2,0.4,0.5,0.5,0.7c0.1,0.3,0.1,0.6,0.1,0.9c0,0.8-0.3,1.4-1,1.9
			c-0.7,0.4-1.6,0.7-2.8,0.7c-1.4,0-2.7-0.3-4-0.8s-2.2-1.1-2.8-1.7l-1.4,2.7c1.1,0.9,2.4,1.5,3.8,2s2.9,0.7,4.4,0.7
			c0.8,0,1.6-0.1,2.3-0.2c0.7-0.1,1.4-0.3,2-0.6s1.1-0.7,1.6-1.1c0.4-0.4,0.8-1,1-1.6s0.4-1.3,0.4-2.1c0-0.7-0.1-1.3-0.3-1.9
			C-981.6,600.9-981.8,600.4-982.2,600z M-974.2,591.8h6.6v17h3.2v-17h6.6V589h-16.3L-974.2,591.8L-974.2,591.8z M-936.1,599.2
			c0.7-1.1,1.1-2.3,1.1-3.6c0-0.8-0.2-1.6-0.5-2.3c-0.3-0.8-0.7-1.5-1.2-2.1c-0.5-0.6-1.2-1.1-1.9-1.5c-0.8-0.4-1.6-0.6-2.5-0.6
			h-8.6v19.7h3.1v-6.9h4.6l4.3,6.9h3.5l-4.6-7.5C-937.7,600.9-936.8,600.2-936.1,599.2z M-941.1,599.2h-5.5v-7.4h5.3
			c0.8,0,1.6,0.4,2.2,1.1c0.6,0.7,0.9,1.6,0.9,2.6s-0.3,1.9-0.8,2.6C-939.6,598.8-940.3,599.2-941.1,599.2z M-912.2,599
			c0,0.7-0.1,1.4-0.2,2.1c-0.1,0.7-0.3,1.3-0.6,1.9s-0.6,1.1-1,1.6c-0.4,0.4-0.9,0.8-1.5,1.1c-0.6,0.3-1.3,0.4-2.2,0.4
			c-0.8,0-1.5-0.1-2.1-0.4s-1.1-0.6-1.5-1s-0.7-1-1-1.6c-0.3-0.6-0.5-1.3-0.6-1.9c-0.1-0.7-0.2-1.4-0.2-2.1v-10h-3.1v10
			c0,1.1,0.1,2.1,0.3,3c0.2,0.9,0.5,1.8,0.9,2.7s1,1.6,1.6,2.2c0.6,0.6,1.4,1.1,2.4,1.5c1,0.4,2.1,0.5,3.3,0.5
			c1.5,0,2.8-0.3,3.9-0.8s2-1.2,2.7-2.2s1.2-2,1.5-3.1c0.3-1.2,0.5-2.4,0.5-3.8v-10h-3.1L-912.2,599L-912.2,599z M-887.2,604.8
			c-0.6,0.5-1.2,0.9-1.9,1.1c-0.6,0.2-1.3,0.3-2,0.3c-1.2,0-2.3-0.3-3.3-1c-1-0.7-1.7-1.6-2.3-2.7c-0.5-1.1-0.8-2.3-0.8-3.6
			c0-0.7,0.1-1.4,0.3-2.1c0.2-0.7,0.4-1.3,0.8-1.9s0.8-1.2,1.3-1.6c0.5-0.5,1.1-0.8,1.8-1.1c0.7-0.3,1.4-0.4,2.2-0.4
			c0.5,0,1,0.1,1.5,0.2c0.5,0.1,0.9,0.3,1.4,0.5c0.5,0.2,0.9,0.6,1.3,1c0.4,0.4,0.7,0.9,1,1.5l2.4-1.6c-0.7-1.3-1.6-2.3-3-3.1
			c-1.3-0.8-2.8-1.2-4.6-1.2c-1.2,0-2.3,0.2-3.3,0.6s-1.9,0.9-2.7,1.5s-1.4,1.4-1.9,2.2c-0.5,0.8-1,1.7-1.2,2.7
			c-0.3,0.9-0.4,1.9-0.4,2.9c0,1.2,0.2,2.4,0.6,3.5c0.4,1.2,1,2.2,1.8,3.2c0.8,0.9,1.7,1.7,2.8,2.3c1.1,0.6,2.3,1,3.5,1.1
			c1,0.7,1.5,1.3,1.5,2.1c0,0.4-0.1,0.7-0.4,1c-0.3,0.2-0.7,0.3-1.2,0.3c-0.6,0-1.3-0.2-2-0.6l-0.8,1.6c1,0.5,2.1,0.8,3.3,0.8
			c1,0,1.7-0.2,2.2-0.7s0.8-1.1,0.8-1.9c0-1-0.5-1.9-1.4-2.7c1.5-0.2,2.8-0.7,4.1-1.5c1.2-0.8,2.1-1.8,2.6-3l-2.6-1.5
			C-886.1,603.7-886.6,604.2-887.2,604.8z M-869.4,589l-7.7,19.7h3.3l2.1-5.4h7.6l2.1,5.4h3.3l-7.7-19.7H-869.4z M-871.2,601.2
			l3.3-8.6l3.2,8.6H-871.2z M-871,586.4c0-0.1,0.1-0.3,0.2-0.4c0.1-0.2,0.2-0.3,0.4-0.4c0.2-0.1,0.4-0.2,0.7-0.2s0.7,0.1,1,0.3
			c0.4,0.2,0.8,0.4,1.2,0.6s0.9,0.3,1.4,0.3s0.9-0.1,1.3-0.3c0.4-0.2,0.7-0.4,0.9-0.7c0.2-0.3,0.4-0.6,0.6-0.9
			c0.2-0.3,0.3-0.6,0.3-0.8c0.1-0.2,0.1-0.4,0.1-0.5h-1.8c0,0,0,0.1,0,0.2c0,0.1-0.1,0.2-0.1,0.3c-0.1,0.1-0.1,0.3-0.3,0.4
			c-0.1,0.1-0.3,0.2-0.4,0.3c-0.2,0.1-0.4,0.1-0.7,0.1c-0.4,0-0.7-0.1-1.1-0.3c-0.4-0.2-0.8-0.4-1.2-0.6s-0.9-0.3-1.3-0.3
			s-0.8,0.1-1.2,0.3s-0.6,0.4-0.9,0.7c-0.2,0.3-0.4,0.6-0.5,0.9c-0.2,0.3-0.3,0.6-0.3,0.8c-0.1,0.2-0.1,0.4-0.1,0.6h1.7
			C-871.1,586.7-871.1,586.5-871,586.4z M-834.5,595.3c-0.5-1.2-1.1-2.3-1.9-3.2c-0.8-0.9-1.8-1.7-3-2.3s-2.5-0.9-3.8-0.9
			s-2.6,0.3-3.8,0.8c-1.2,0.6-2.2,1.3-3,2.2s-1.5,2-2,3.2c-0.5,1.2-0.7,2.5-0.7,3.8c0,1,0.1,2,0.4,3s0.7,1.9,1.3,2.7
			c0.6,0.8,1.2,1.6,2,2.2c0.8,0.6,1.6,1.1,2.6,1.5c1,0.4,2,0.6,3.2,0.6c1.3,0,2.6-0.3,3.8-0.8s2.2-1.3,3-2.2c0.8-0.9,1.5-2,2-3.2
			s0.7-2.5,0.7-3.8C-833.8,597.8-834,596.5-834.5,595.3z M-837.4,601.5c-0.3,0.9-0.7,1.6-1.2,2.3s-1.2,1.2-2,1.6
			c-0.8,0.4-1.7,0.6-2.6,0.6c-1.2,0-2.4-0.3-3.3-1c-1-0.7-1.7-1.6-2.2-2.7s-0.8-2.3-0.8-3.5c0-0.9,0.1-1.8,0.4-2.6
			c0.3-0.9,0.7-1.6,1.2-2.3c0.5-0.7,1.2-1.2,2-1.6s1.7-0.6,2.7-0.6c0.9,0,1.8,0.2,2.6,0.6s1.5,0.9,2,1.6c0.5,0.7,0.9,1.4,1.2,2.3
			c0.3,0.9,0.5,1.8,0.5,2.7C-837,599.8-837.1,600.8-837.4,601.5z"/>
		<path d="M-1271.3,389.9h6.8c-0.6,1.6-2.3,3-5,3c-3.8,0-6.4-2.7-6.4-6.5c0-3.8,2.6-6.7,6.3-6.7c2.4,0,4.4,1.1,5.5,3.1l5.8-3.4
			c-2.3-3.9-6.6-6.2-11.2-6.2c-7.3,0-13.2,5.8-13.2,13.2s5.8,13.1,13.2,13.1c6.9,0,12.2-5.1,12.2-12.9v-2h-14V389.9 M-1234.8,373.1
			c-7.4,0-13.2,5.8-13.2,13.2c0,7.3,5.8,13.2,13.2,13.2c7.3,0,13.1-5.8,13.1-13.2C-1221.7,378.9-1227.5,373.1-1234.8,373.1z
			 M-1234.8,392.5c-3.4,0-6-2.7-6-6.2s2.6-6.2,6-6.2c3.3,0,5.8,2.7,5.8,6.2S-1231.5,392.5-1234.8,392.5z M-1202.2,389.2l-5.8-15.5
			h-7.3l9.7,25.1h6.8l9.8-25.1h-7.3L-1202.2,389.2z M-1180.2,398.8h18v-6.1h-11.2V389h7.4v-5.4h-7.4v-3.7h11.2v-6.1h-18V398.8z
			 M-1130.8,381.9c0-4.7-3.8-8.2-8.7-8.2h-12.2v25.1h6.7v-8.7h2.8l5,8.7h7.5l-5.6-9.7C-1132.6,387.8-1130.8,385.1-1130.8,381.9z
			 M-1140.3,384.4h-4.7v-4.7h4.7c1.6,0,2.6,1.1,2.6,2.4C-1137.7,383.3-1138.7,384.4-1140.3,384.4z M-1104.5,387l-10.2-13.3h-5.7
			v25.1h6.7v-13.2l10.1,13.2h5.7v-25.1h-6.7L-1104.5,387L-1104.5,387z M-1074.8,373.1c-7.4,0-13.2,5.8-13.2,13.2
			c0,7.3,5.8,13.2,13.2,13.2c7.3,0,13.1-5.8,13.1-13.2C-1061.7,378.9-1067.6,373.1-1074.8,373.1z M-1074.8,392.5c-3.4,0-6-2.7-6-6.2
			s2.6-6.2,6-6.2c3.3,0,5.8,2.7,5.8,6.2S-1071.6,392.5-1074.8,392.5z M-1035.3,398.8h6.8v-9.2h7.4v-5.7h-7.4v-4.3h11.2v-6h-18V398.8
			z M-1007.2,398.8h18v-6.1h-11.2V389h7.4v-5.4h-7.4v-3.7h11.2v-6.1h-18V398.8L-1007.2,398.8z M-968.5,373.8h-10.2v25.1h10.2
			c7.7,0,13.4-5.4,13.4-12.6C-955,379-960.8,373.8-968.5,373.8z M-968.8,392.3h-3.1v-12.1h3.1c4,0,6.7,2.4,6.7,6
			C-962.1,389.9-964.8,392.3-968.8,392.3z M-945.3,398.8h18v-6.1h-11.2V389h7.4v-5.4h-7.4v-3.7h11.2v-6.1h-18V398.8z M-896,381.9
			c0-4.7-3.8-8.2-8.7-8.2h-12.2v25.1h6.7v-8.7h2.8l5,8.7h7.5l-5.6-9.7C-897.7,387.8-896,385.1-896,381.9z M-905.4,384.4h-4.7v-4.7
			h4.7c1.6,0,2.6,1.1,2.6,2.4C-902.8,383.3-903.8,384.4-905.4,384.4z M-876.9,373.8l-10.5,25.1h7.1l1.7-4.3h9.9l1.8,4.3h7
			l-10.6-25.1C-870.5,373.8-876.9,373.8-876.9,373.8z M-876.1,388.5l2.5-6.2l2.5,6.2H-876.1z M-843.9,392.4v-18.7h-7.1v25.1h17.7
			v-6.5L-843.9,392.4L-843.9,392.4z"/>
		<rect x="-879.1" y="426.1" class="st1" width="45.8" height="87.9"/>
		<rect x="-879.1" y="514" class="st2" width="45.8" height="44.5"/>
		<rect x="-932.6" y="426.1" class="st3" width="45.8" height="132.4"/>
		<rect x="-1033.1" y="484.9" class="st4" width="43.3" height="73.6"/>
		<rect x="-989.8" y="426.1" class="st5" width="49.5" height="48.1"/>
		<path class="st1" d="M-974.7,474.2h-15.1v84.2h15.1c23.3,0,42.1-18.9,42.1-42.1S-951.4,474.2-974.7,474.2"/>
		<path class="st3" d="M-1003.7,426.1c-16.2,0-29.4,13.2-29.4,29.4s13.2,29.4,29.4,29.4h13.9v-58.8H-1003.7"/>
		<path class="st5" d="M-1283.3,479.2h10.6c14.7,0,26.6-11.9,26.6-26.6c0-14.7-11.9-26.6-26.6-26.6h-10.6V479.2"/>
		<rect x="-1329.1" y="426.1" class="st3" width="45.8" height="53.1"/>
		<rect x="-1329.1" y="479.2" class="st1" width="45.8" height="79.3"/>
		<path class="st4" d="M-1268.3,479.2h-15.1v79.3h15.1c21.9,0,39.6-17.7,39.6-39.6C-1228.6,496.9-1246.4,479.2-1268.3,479.2"/>
		<polyline class="st3" points="-1176.7,506 -1228.6,506 -1228.6,558.5 -1142.6,558.5 -1176.7,506 		"/>
		<polyline class="st1" points="-1176.7,506 -1228.6,426.1 -1228.6,506 -1176.7,506 		"/>
		<path class="st5" d="M-1176.7,426.1h-52l52,80c22.1,0,40-17.9,40-40S-1154.6,426.1-1176.7,426.1"/>
		<polyline class="st1" points="-1088.9,426.1 -1167.7,558.5 -1010.2,558.5 -1088.9,426.1 		"/>
		<polyline class="st2" points="-1033.1,519.9 -1033.1,558.5 -1010.2,558.5 -1033.1,519.9 		"/>
		<polyline class="st2" points="-1167.7,558.5 -1142.6,558.5 -1155.7,538.3 -1167.7,558.5 		"/>
		<path class="st5" d="M-1040.6,558.5c0-26.7-21.6-48.3-48.3-48.3c-26.7,0-48.3,21.6-48.3,48.3H-1040.6"/>
		<rect x="-833.3" y="514" class="st5" width="45.8" height="44.5"/>
	</g>
	<rect x="-1397.7" y="-0.2" class="st5" width="678.8" height="327.3"/>
	<g>
		<g>
			<path class="st0" d="M-1208.9,125.9v-18.1l-7.5,13.7h-2.4l-7.5-13.7v18.1h-4v-25.4h4.3l8.5,15.5l8.4-15.5h4.3v25.4H-1208.9z"/>
			<path class="st0" d="M-1192,125.9v-25.4h4v25.4H-1192z"/>
			<path class="st0" d="M-1171.2,108v18h-4v-25.5h3.3l14.4,18.4v-18.3h4.1V126h-3.6L-1171.2,108z"/>
			<path class="st0" d="M-1140.6,125.9v-25.4h4v25.4H-1140.6z"/>
			<path class="st0" d="M-1108.7,106.5c-0.6-0.6-1.5-1.2-2.8-1.7c-1.3-0.6-2.7-0.9-4.1-0.9c-1.6,0-2.9,0.3-3.7,0.9
				c-0.9,0.6-1.2,1.5-1.2,2.6c0,0.4,0,0.7,0.1,0.9c0.1,0.3,0.2,0.6,0.4,0.8c0.2,0.2,0.4,0.4,0.7,0.7c0.3,0.2,0.6,0.4,0.9,0.5
				c0.3,0.1,0.7,0.3,1.1,0.5s0.9,0.3,1.4,0.4s1,0.3,1.7,0.5c1.1,0.3,2.1,0.6,2.8,0.8c0.8,0.3,1.5,0.6,2.3,1c0.8,0.4,1.3,0.9,1.8,1.3
				c0.5,0.5,0.8,1.1,1,1.8c0.3,0.8,0.4,1.5,0.4,2.5s-0.2,1.9-0.5,2.7c-0.3,0.9-0.8,1.5-1.3,2.1c-0.6,0.6-1.2,1-2,1.4
				c-0.8,0.4-1.6,0.7-2.6,0.9c-0.9,0.2-1.9,0.3-2.9,0.3c-1.9,0-3.8-0.3-5.6-0.9c-1.8-0.6-3.4-1.4-4.8-2.6l1.8-3.4
				c0.8,0.8,1.9,1.5,3.6,2.2c1.7,0.7,3.4,1,5.1,1c1.6,0,2.8-0.3,3.7-0.9c0.9-0.6,1.3-1.3,1.3-2.4c0-0.4-0.1-0.8-0.2-1.1
				c-0.1-0.4-0.4-0.7-0.7-0.9c-0.3-0.3-0.7-0.5-0.9-0.7c-0.4-0.2-0.8-0.4-1.4-0.6c-0.7-0.2-1.1-0.4-1.7-0.6
				c-0.5-0.1-1.2-0.3-2.1-0.6c-1.3-0.4-2.5-0.7-3.3-1c-0.9-0.4-1.6-0.8-2.3-1.3c-0.7-0.6-1.1-1.1-1.4-1.9c-0.3-0.8-0.5-1.6-0.5-2.6
				c0-1.2,0.2-2.4,0.7-3.3s1.1-1.8,2-2.5c0.9-0.7,1.8-1.1,2.9-1.4c1.1-0.4,2.4-0.5,3.7-0.5c3.1,0,6,0.9,8.6,2.8L-1108.7,106.5z"/>
			<path class="st0" d="M-1076,104.1h-8.5V126h-4v-21.9h-8.4v-3.5h20.9V104.1L-1076,104.1z"/>
			<path class="st0" d="M-1048.1,122.4v3.5h-17.4v-25.4h17.1v3.5h-13.1v7.2h11.4v3.3h-11.4v7.8L-1048.1,122.4L-1048.1,122.4z
				 M-1055.2,98l-2.6-0.8l2.1-3.9h3.8L-1055.2,98z"/>
			<path class="st0" d="M-1036.9,125.9v-25.4h11.1c1.1,0,2.2,0.3,3.1,0.8c1,0.5,1.8,1.1,2.5,1.9s1.2,1.7,1.6,2.7
				c0.4,0.9,0.6,2,0.6,3c0,1.7-0.5,3.3-1.3,4.6c-0.9,1.4-2.1,2.4-3.6,2.8l6,9.7h-4.6l-5.5-8.8h-5.9v8.8L-1036.9,125.9L-1036.9,125.9
				z M-1032.9,113.6h7c1.1,0,2-0.5,2.7-1.4s1-2.1,1-3.4s-0.4-2.4-1.2-3.3c-0.9-0.9-1.8-1.4-2.8-1.4h-6.8L-1032.9,113.6
				L-1032.9,113.6z"/>
			<path class="st0" d="M-1006.1,125.9v-25.4h4v25.4H-1006.1z"/>
			<path class="st0" d="M-990.8,113.2c0-1.7,0.3-3.3,0.9-4.8c0.7-1.6,1.5-2.9,2.6-4.1c1-1.1,2.4-2.1,3.9-2.8c1.5-0.8,3.1-1,4.8-1
				c1.8,0,3.4,0.4,4.9,1.1c1.5,0.8,2.8,1.7,3.9,2.9c1.1,1.2,1.8,2.6,2.5,4.2c0.6,1.5,0.9,3.1,0.9,4.7c0,1.7-0.3,3.3-0.9,4.8
				c-0.7,1.5-1.4,2.9-2.6,4.1c-1,1.1-2.4,2.1-3.9,2.8c-1.5,0.7-3.1,1-4.8,1c-1.4,0-2.7-0.2-4.1-0.7c-1.3-0.5-2.4-1.1-3.4-2
				s-1.8-1.8-2.6-2.8c-0.8-1-1.2-2.3-1.6-3.5C-990.6,115.8-990.8,114.5-990.8,113.2z M-978.7,122.5c1.2,0,2.4-0.3,3.4-0.8
				c1-0.6,1.9-1.2,2.6-2.1s1.1-1.9,1.5-2.9c0.4-1.1,0.6-2.2,0.6-3.4c0-1.2-0.2-2.4-0.6-3.5c-0.4-1.1-0.9-2.1-1.6-2.9
				c-0.7-0.9-1.5-1.5-2.6-2.1c-1-0.5-2.1-0.8-3.3-0.8s-2.4,0.3-3.4,0.8s-1.9,1.2-2.6,2.1s-1.2,1.9-1.6,2.9c-0.4,1.1-0.6,2.2-0.6,3.4
				c0,1.6,0.3,3.1,0.9,4.5c0.7,1.4,1.6,2.6,2.8,3.4C-981.7,122-980.3,122.5-978.7,122.5z"/>
			<path class="st0" d="M-939.2,125.9v-25.4h9c2,0,3.8,0.3,5.4,0.9c1.6,0.7,2.9,1.6,3.9,2.7c0.9,1.1,1.8,2.5,2.3,4
				c0.6,1.5,0.8,3.1,0.8,4.9c0,3.9-1.1,6.9-3.4,9.3s-5.2,3.5-9,3.5L-939.2,125.9L-939.2,125.9z M-930.2,104.1h-5v18.3h5
				c1.7,0,3.2-0.4,4.5-1.2c1.2-0.9,2.2-1.9,2.8-3.3c0.7-1.4,0.9-2.9,0.9-4.7c0-2.7-0.8-4.9-2.2-6.6
				C-925.6,105-927.6,104.1-930.2,104.1z"/>
			<path class="st0" d="M-900,100.5h3.8l9.8,25.4h-4.3l-2.7-6.9h-9.7l-2.7,6.9h-4.3L-900,100.5z M-894,116l-4.1-11.2l-4.2,11.2H-894
				z"/>
		</g>
		<g>
			<path class="st0" d="M-1305.5,150.3c2.4,0,4.4,0.5,6.3,1.5c1.8,1,3.2,2.4,4.1,4.1l-5.3,3.8c-0.2-0.6-0.6-1.1-0.9-1.5
				c-0.4-0.4-0.9-0.8-1.3-0.9c-0.4-0.1-0.9-0.4-1.4-0.5s-0.9-0.2-1.5-0.2c-0.9,0-1.8,0.2-2.6,0.6c-0.8,0.4-1.3,0.9-1.8,1.5
				c-0.5,0.7-0.8,1.3-1,2.1c-0.2,0.8-0.4,1.6-0.4,2.4c0,1.9,0.6,3.4,1.6,4.7s2.5,2,4.3,2c0.7,0,1.3-0.1,2-0.3c0.7-0.2,1.2-0.6,1.8-1
				c0.6-0.5,1-1,1.2-1.8l5.7,3.4c-0.5,1.2-1.3,2.3-2.5,3.2c-1.2,0.9-2.6,1.6-4,2.1s-2.9,0.7-4.4,0.7c-1.8,0-3.5-0.4-5.1-1.1
				c-1.6-0.8-2.9-1.7-4.1-2.9c-1.1-1.2-2-2.7-2.6-4.2c-0.7-1.6-0.9-3.2-0.9-4.8c0-1.5,0.3-3.1,0.9-4.5c0.6-1.5,1.4-2.8,2.6-4.1
				c1-1.2,2.5-2.2,4.1-2.9C-1309.2,150.7-1307.4,150.3-1305.5,150.3z"/>
			<path class="st0" d="M-1285.1,175.8v-25.4h7v25.4H-1285.1z"/>
			<path class="st0" d="M-1248.6,169.7v6.1h-18.1v-25.4h17.8v6.1h-10.8v3.6h9.3v5.7h-9.3v4L-1248.6,169.7L-1248.6,169.7z
				 M-1264,147.3l4.1-4.2h4.8l4.1,4.2l-3.4,1.5l-3-2.3l-3,2.3L-1264,147.3z"/>
			<path class="st0" d="M-1231.3,163.3v12.5h-7v-25.4h5.4l10.2,12.9v-12.9h7v25.4h-5.5L-1231.3,163.3z"/>
			<path class="st0" d="M-1192.5,150.3c2.4,0,4.4,0.5,6.3,1.5c1.8,1,3.2,2.4,4.1,4.1l-5.3,3.8c-0.2-0.6-0.6-1.1-0.9-1.5
				c-0.4-0.4-0.9-0.8-1.3-0.9c-0.5-0.2-0.9-0.4-1.4-0.5s-0.9-0.2-1.5-0.2c-0.9,0-1.8,0.2-2.6,0.6c-0.8,0.4-1.3,0.9-1.8,1.5
				c-0.5,0.7-0.8,1.3-1,2.1s-0.4,1.6-0.4,2.4c0,1.9,0.6,3.4,1.6,4.7s2.5,2,4.3,2c0.7,0,1.3-0.1,2-0.3s1.2-0.6,1.8-1
				c0.6-0.5,1-1,1.2-1.8l5.7,3.4c-0.5,1.2-1.3,2.3-2.5,3.2c-1.2,0.9-2.6,1.6-4,2.1c-1.4,0.5-2.9,0.7-4.4,0.7c-1.8,0-3.5-0.4-5.1-1.1
				c-1.6-0.8-2.9-1.7-4.1-2.9c-1.1-1.2-2-2.7-2.6-4.2c-0.7-1.6-0.9-3.2-0.9-4.8c0-1.5,0.3-3.1,0.9-4.5c0.6-1.5,1.4-2.8,2.6-4.1
				c1-1.2,2.5-2.2,4.1-2.9C-1196.3,150.7-1194.4,150.3-1192.5,150.3z"/>
			<path class="st0" d="M-1172.2,175.8v-25.4h7v25.4H-1172.2z"/>
			<path class="st0" d="M-1147.9,150.4h7.8l8,25.4h-7.1l-1.5-5h-6.8l-1.5,5h-7.1L-1147.9,150.4z M-1141.7,166.2l-2.3-8.9l-2.4,8.9
				H-1141.7z"/>
			<path class="st0" d="M-1122.4,181.4l1.3-5.6h-2.1v-6.6h5.6v6.6l-1.9,5.6H-1122.4z"/>
			<path class="st0" d="M-1072.4,156.4h-7.3v19.3h-7v-19.3h-7.3v-6.1h21.6V156.4L-1072.4,156.4z"/>
			<path class="st0" d="M-1044.7,169.7v6.1h-18.1v-25.4h17.8v6.1h-10.8v3.6h9.3v5.7h-9.3v4L-1044.7,169.7L-1044.7,169.7z"/>
			<path class="st0" d="M-1023.1,150.3c2.4,0,4.4,0.5,6.3,1.5c1.8,1,3.2,2.4,4.1,4.1l-5.3,3.8c-0.2-0.6-0.6-1.1-0.9-1.5
				c-0.4-0.4-0.9-0.8-1.3-0.9c-0.5-0.2-0.9-0.4-1.4-0.5s-0.9-0.2-1.5-0.2c-0.9,0-1.8,0.2-2.6,0.6c-0.8,0.4-1.3,0.9-1.8,1.5
				c-0.5,0.7-0.8,1.3-1,2.1c-0.2,0.8-0.4,1.6-0.4,2.4c0,1.9,0.6,3.4,1.6,4.7s2.5,2,4.3,2c0.7,0,1.3-0.1,2-0.3s1.2-0.6,1.8-1
				s1-1,1.2-1.8l5.7,3.4c-0.5,1.2-1.3,2.3-2.5,3.2s-2.6,1.6-4,2.1c-1.4,0.5-2.9,0.7-4.4,0.7c-1.8,0-3.5-0.4-5.1-1.1
				c-1.6-0.8-2.9-1.7-4.1-2.9c-1.1-1.2-2-2.7-2.6-4.2c-0.7-1.6-0.9-3.2-0.9-4.8c0-1.5,0.3-3.1,0.9-4.5c0.6-1.5,1.4-2.8,2.6-4.1
				c1-1.2,2.5-2.2,4.1-2.9C-1026.9,150.7-1025.1,150.3-1023.1,150.3z"/>
			<path class="st0" d="M-995.9,163.3v12.5h-7v-25.4h5.4l10.2,12.9v-12.9h7v25.4h-5.6L-995.9,163.3z"/>
			<path class="st0" d="M-970.1,163.1c0-1.7,0.3-3.3,0.9-4.8c0.7-1.5,1.5-2.9,2.7-4.1c1.1-1.1,2.5-2.1,4.2-2.8s3.3-1,5.2-1
				s3.6,0.4,5.2,1.1c1.6,0.8,3,1.7,4.1,2.9c1.1,1.2,2,2.6,2.6,4.2c0.7,1.5,0.9,3.1,0.9,4.7c0,1.6-0.3,3.2-0.9,4.8
				c-0.7,1.5-1.5,2.9-2.7,4.1c-1.1,1.1-2.5,2.1-4.2,2.8c-1.6,0.8-3.4,1-5.2,1c-1.9,0-3.6-0.4-5.2-1.1c-1.6-0.8-3-1.7-4.1-2.9
				c-1.1-1.2-2-2.6-2.6-4.2C-969.8,166.3-970.1,164.7-970.1,163.1z M-957.3,169.8c0.9,0,1.8-0.2,2.6-0.6c0.8-0.4,1.3-0.9,1.8-1.6
				c0.5-0.7,0.8-1.3,1-2.2c0.2-0.8,0.4-1.6,0.4-2.5c0-1.2-0.2-2.3-0.7-3.2c-0.4-0.9-1-1.8-2-2.5s-2-0.9-3.2-0.9
				c-0.9,0-1.8,0.2-2.6,0.6c-0.8,0.4-1.3,0.9-1.8,1.5c-0.5,0.7-0.8,1.3-1,2.2c-0.2,0.8-0.4,1.6-0.4,2.5s0.1,1.7,0.4,2.5
				s0.6,1.5,1,2.1c0.5,0.7,1,1.1,1.8,1.5C-959.2,169.5-958.2,169.8-957.3,169.8z"/>
			<path class="st0" d="M-934.3,175.8v-25.4h7v19.3h11.5v6.1L-934.3,175.8L-934.3,175.8z"/>
			<path class="st0" d="M-908,163.1c0-1.7,0.3-3.3,0.9-4.8c0.7-1.5,1.5-2.9,2.7-4.1c1.1-1.1,2.5-2.1,4.2-2.8c1.7-0.8,3.3-1,5.2-1
				s3.6,0.4,5.2,1.1c1.6,0.7,3,1.7,4.1,2.9s2,2.6,2.6,4.2c0.7,1.5,0.9,3.1,0.9,4.7c0,1.6-0.3,3.2-0.9,4.8c-0.7,1.5-1.5,2.9-2.7,4.1
				c-1.1,1.1-2.5,2.1-4.2,2.8c-1.6,0.8-3.4,1-5.2,1c-1.9,0-3.6-0.4-5.2-1.1c-1.6-0.8-3-1.7-4.1-2.9c-1.1-1.2-2-2.6-2.6-4.2
				C-907.6,166.3-908,164.7-908,163.1z M-895,169.8c0.9,0,1.8-0.2,2.6-0.6c0.8-0.4,1.3-0.9,1.8-1.6c0.5-0.7,0.8-1.3,1-2.2
				c0.2-0.8,0.4-1.6,0.4-2.5c0-1.2-0.2-2.3-0.7-3.2c-0.4-0.9-1-1.8-2-2.5c-0.9-0.7-2-0.9-3.2-0.9c-0.9,0-1.8,0.2-2.6,0.6
				c-0.8,0.4-1.3,0.9-1.8,1.5c-0.5,0.7-0.8,1.3-1,2.2c-0.2,0.8-0.4,1.6-0.4,2.5s0.1,1.7,0.4,2.5s0.6,1.5,1,2.1
				c0.5,0.7,1,1.1,1.8,1.5S-895.9,169.8-895,169.8z"/>
			<path class="st0" d="M-859.5,162.3h10.4v13.5h-5.8v-2.1c-1.8,1.5-3.9,2.3-6.2,2.3c-1.7,0-3.2-0.3-4.7-0.9c-1.5-0.6-2.8-1.4-4-2.6
				c-1.1-1-2-2.5-2.7-4.2s-1-3.5-1-5.5c0-1.8,0.4-3.4,1-5c0.7-1.5,1.6-2.9,2.7-4.1c1.1-1.1,2.6-2,4.2-2.7c1.6-0.7,3.3-0.9,5.1-0.9
				c2.3,0,4.4,0.5,6.2,1.5c1.9,0.9,3.2,2.4,4.2,4.1l-5.2,4c-0.5-1-1.2-1.8-2.3-2.4c-1-0.6-2.1-0.9-3.2-0.9c-1.6,0-3,0.7-4.1,1.9
				c-1,1.2-1.6,2.8-1.6,4.8s0.6,3.6,1.6,4.8s2.5,1.8,4.3,1.8c2,0,3.8-0.9,5.4-2.5h-4.3V162.3L-859.5,162.3z"/>
			<path class="st0" d="M-838.5,175.8v-25.4h7v25.4H-838.5z"/>
			<path class="st0" d="M-814.2,150.4h7.8l8,25.4h-7.1l-1.5-5h-6.6l-1.5,5h-7.1L-814.2,150.4z M-808,166.2l-2.3-8.9l-2.4,8.9H-808z"
				/>
		</g>
		<g>
			<path class="st0" d="M-1177.5,219.6v6.1h-18.1v-25.4h17.8v6.1h-10.8v3.6h9.3v5.7h-9.3v4L-1177.5,219.6L-1177.5,219.6z"/>
			<path class="st0" d="M-1151.9,225.6v-25.4h7v25.4H-1151.9z"/>
			<path class="st0" d="M-1126.5,213.1v12.5h-7v-25.4h5.4l10.2,12.9v-12.9h7v25.4h-5.5L-1126.5,213.1z"/>
			<path class="st0" d="M-1100.7,212.9c0-1.7,0.3-3.3,0.9-4.8c0.7-1.5,1.5-2.9,2.7-4.1c1.1-1.1,2.5-2.1,4.2-2.8c1.6-0.7,3.3-1,5.2-1
				s3.6,0.4,5.2,1.1c1.6,0.8,3,1.7,4.1,2.9c1,1.2,2,2.6,2.6,4.2c0.7,1.5,0.9,3.1,0.9,4.7c0,1.6-0.3,3.2-0.9,4.8
				c-0.7,1.5-1.5,2.9-2.7,4.1c-1.1,1.1-2.5,2.1-4.2,2.8c-1.6,0.8-3.4,1-5.2,1c-1.9,0-3.6-0.4-5.2-1.1c-1.6-0.8-3-1.7-4.1-2.9
				s-2-2.6-2.6-4.2C-1100.5,216.2-1100.7,214.6-1100.7,212.9z M-1087.9,219.7c0.9,0,1.8-0.2,2.6-0.6c0.8-0.4,1.3-0.9,1.8-1.6
				c0.5-0.7,0.8-1.3,1-2.2c0.2-0.8,0.4-1.6,0.4-2.5c0-1.2-0.2-2.3-0.7-3.2c-0.4-0.9-1-1.8-2-2.5c-0.9-0.7-2-0.9-3.2-0.9
				c-0.9,0-1.8,0.2-2.6,0.6c-0.8,0.4-1.3,0.9-1.8,1.5c-0.5,0.7-0.8,1.3-1,2.2c-0.2,0.8-0.4,1.6-0.4,2.5s0.1,1.7,0.4,2.5
				c0.3,0.8,0.6,1.5,1,2.1c0.5,0.7,1,1.1,1.8,1.5C-1089.8,219.5-1088.8,219.7-1087.9,219.7z"/>
			<path class="st0" d="M-1061,200.3l4.9,17.3l4.9-17.3h7.3l-8.8,25.4h-6.9l-8.9-25.4H-1061z"/>
			<path class="st0" d="M-1030.9,200.3h7.8l8,25.4h-7.1l-1.5-5h-6.8l-1.5,5h-7.1L-1030.9,200.3z M-1024.7,216.1l-2.3-8.9l-2.4,8.9
				H-1024.7z"/>
			<path class="st0" d="M-984.6,220c-0.7,1.5-1.7,2.7-3.4,3.8c-1.6,1-3.5,1.7-5.5,2c1.1,1.1,1.7,2.5,1.7,3.8c0,1.1-0.4,2.1-1.1,2.8
				c-0.8,0.8-1.8,1.1-3.2,1.1s-2.9-0.4-4.4-1.2l1.6-3.5c0.6,0.5,1.1,0.7,1.7,0.7c0.5,0,0.8-0.1,1-0.4c0.3-0.3,0.4-0.6,0.4-1
				c0-0.8-0.5-1.5-1.3-2.4c-1.6-0.2-3.1-0.7-4.5-1.5c-1.4-0.9-2.6-1.8-3.6-3s-1.7-2.6-2.3-4c-0.6-1.4-0.9-2.9-0.9-4.4
				s0.3-3.1,0.9-4.5c0.6-1.4,1.4-2.8,2.6-4.1c1-1.2,2.5-2.2,4.1-2.9c1.7-0.8,3.5-1.1,5.5-1.1c2.4,0,4.4,0.5,6.3,1.5
				c1.8,1,3.2,2.4,4.1,4.1l-5.3,3.8c-0.2-0.6-0.6-1.1-0.9-1.5c-0.4-0.4-0.9-0.8-1.3-0.9c-0.5-0.2-0.9-0.4-1.4-0.5s-0.9-0.2-1.5-0.2
				c-0.9,0-1.8,0.2-2.6,0.6c-0.8,0.4-1.3,0.9-1.8,1.5c-0.5,0.7-0.8,1.3-1,2.1s-0.4,1.6-0.4,2.4c0,1.9,0.6,3.4,1.6,4.7s2.5,2,4.3,2
				c0.7,0,1.3-0.1,2-0.3s1.2-0.6,1.8-1c0.6-0.5,1-1,1.2-1.8L-984.6,220z"/>
			<path class="st0" d="M-969.5,200.3h7.8l8,25.4h-7.1l-1.5-5h-6.8l-1.5,5h-7.1L-969.5,200.3z M-968,196.9c-0.3,0-0.6,0.1-0.8,0.2
				c-0.2,0.1-0.4,0.3-0.5,0.4c-0.1,0.2-0.2,0.3-0.3,0.5s-0.1,0.4-0.1,0.4c0,0.1,0,0.2,0,0.2h-3.6c0-0.3,0.1-0.7,0.2-1
				c0.1-0.5,0.3-0.9,0.6-1.4c0.3-0.6,0.6-1,0.9-1.5s0.9-0.9,1.4-1.1c0.6-0.3,1.2-0.5,1.9-0.5c0.6,0,1,0.1,1.5,0.3s0.9,0.4,1.1,0.7
				c0.3,0.2,0.7,0.5,1,0.7s0.8,0.3,1.1,0.3s0.6-0.1,0.8-0.2c0.2-0.1,0.4-0.3,0.6-0.5c0.1-0.2,0.2-0.4,0.3-0.6
				c0.1-0.2,0.1-0.4,0.2-0.5c0-0.1,0-0.2,0-0.2h3.6c0,0.2-0.1,0.5-0.2,0.9c-0.1,0.4-0.3,0.9-0.6,1.4c-0.3,0.6-0.6,1-0.9,1.5
				s-0.9,0.9-1.4,1.2c-0.6,0.4-1.2,0.5-1.9,0.5c-0.5,0-0.9-0.1-1.4-0.3s-0.9-0.4-1.1-0.6c-0.3-0.2-0.7-0.4-1-0.6
				C-967.2,197-967.6,196.9-968,196.9z M-963.3,216.1l-2.3-8.9l-2.4,8.9H-963.3z"/>
			<path class="st0" d="M-946.8,212.9c0-1.7,0.3-3.3,0.9-4.8c0.7-1.5,1.5-2.9,2.7-4.1c1.1-1.1,2.5-2.1,4.2-2.8c1.6-0.7,3.3-1,5.2-1
				s3.6,0.4,5.2,1.1c1.6,0.8,3,1.7,4.1,2.9c1,1.2,2,2.6,2.6,4.2c0.7,1.5,0.9,3.1,0.9,4.7c0,1.6-0.3,3.2-0.9,4.8
				c-0.7,1.5-1.5,2.9-2.7,4.1s-2.5,2.1-4.2,2.8c-1.6,0.8-3.4,1-5.2,1c-1.9,0-3.6-0.4-5.2-1.1c-1.6-0.8-3-1.7-4.1-2.9
				c-1.1-1.2-2-2.6-2.6-4.2C-946.5,216.2-946.8,214.6-946.8,212.9z M-933.9,219.7c0.9,0,1.8-0.2,2.6-0.6c0.8-0.4,1.3-0.9,1.8-1.6
				c0.5-0.7,0.8-1.3,1-2.2c0.2-0.8,0.4-1.6,0.4-2.5c0-1.2-0.2-2.3-0.7-3.2c-0.4-0.9-1-1.8-2-2.5c-0.9-0.7-2-0.9-3.2-0.9
				c-0.9,0-1.8,0.2-2.6,0.6c-0.8,0.4-1.3,0.9-1.8,1.5c-0.5,0.7-0.8,1.3-1,2.2c-0.2,0.8-0.4,1.6-0.4,2.5s0.1,1.7,0.4,2.5
				s0.6,1.5,1,2.1c0.5,0.7,1,1.1,1.8,1.5S-934.8,219.7-933.9,219.7z"/>
		</g>
	</g>
</g>
</svg>
