<?xml version="1.0" encoding="utf-8"?>
<!-- Generator: Adobe Illustrator 27.1.1, SVG Export Plug-In . SVG Version: 6.00 Build 0)  -->
<svg version="1.1"
	 id="svg150" xmlns:inkscape="http://www.inkscape.org/namespaces/inkscape" xmlns:sodipodi="http://sodipodi.sourceforge.net/DTD/sodipodi-0.dtd" xmlns:dc="http://purl.org/dc/elements/1.1/" xmlns:cc="http://creativecommons.org/ns#" xmlns:svg="http://www.w3.org/2000/svg" xmlns:rdf="http://www.w3.org/1999/02/22-rdf-syntax-ns#"
	 xmlns="http://www.w3.org/2000/svg" xmlns:xlink="http://www.w3.org/1999/xlink" x="0px" y="0px" viewBox="0 0 1308.6 327.3"
	 style="enable-background:new 0 0 1308.6 327.3;" xml:space="preserve">
<style type="text/css">
	.st0{stroke:#FFFFFF;stroke-width:2;stroke-miterlimit:10;}
</style>
<sodipodi:namedview  bordercolor="#666666" borderopacity="1" gridtolerance="10" guidetolerance="10" id="namedview152" inkscape:current-layer="svg150" inkscape:cx="226.46719" inkscape:cy="449.92703" inkscape:pageopacity="0" inkscape:pageshadow="2" inkscape:window-height="1017" inkscape:window-maximized="1" inkscape:window-width="1920" inkscape:window-x="-8" inkscape:window-y="-8" inkscape:zoom="0.89359596" objecttolerance="10" pagecolor="#ffffff" showgrid="false" units="px">
	</sodipodi:namedview>
<g>
	<path d="M759.1,271.4c0,0.7-0.1,1.4-0.2,2.1c-0.1,0.7-0.3,1.3-0.5,1.9c-0.3,0.6-0.6,1.1-1,1.6c-0.4,0.4-0.9,0.8-1.5,1.1
		c-0.6,0.3-1.3,0.4-2.2,0.4c-0.8,0-1.5-0.1-2.1-0.4s-1.1-0.6-1.5-1s-0.7-1-1-1.6s-0.5-1.3-0.6-1.9c-0.1-0.7-0.2-1.4-0.2-2.1v-10
		h-3.1v10c0,1.1,0.1,2.1,0.3,3s0.5,1.8,0.9,2.7c0.4,0.9,1,1.6,1.6,2.2s1.4,1.1,2.4,1.5s2.1,0.5,3.3,0.5c1.5,0,2.8-0.3,3.9-0.8
		c1.1-0.5,2-1.2,2.7-2.2c0.7-0.9,1.2-2,1.5-3.1c0.3-1.2,0.5-2.4,0.5-3.8v-10h-3.1v9.9 M785.7,275.7l-11.2-14.3h-2.6v19.7h3.1v-14
		l11,14h2.7v-19.7h-3.1L785.7,275.7L785.7,275.7z M798.8,281.2h3.1v-19.7h-3.1V281.2z M817.6,261.4l-7.7,19.7h3.3l2.1-5.4h7.6
		l2.1,5.4h3.3l-7.7-19.7H817.6z M815.8,273.5l3.3-8.6l3.2,8.6H815.8z M815.9,258.8c0-0.1,0.1-0.3,0.2-0.4c0.1-0.2,0.2-0.3,0.4-0.4
		s0.4-0.2,0.7-0.2s0.7,0.1,1,0.3c0.4,0.2,0.8,0.4,1.2,0.6s0.9,0.3,1.4,0.3s0.9-0.1,1.3-0.3c0.4-0.2,0.7-0.4,0.9-0.7s0.4-0.6,0.6-0.9
		c0.2-0.3,0.3-0.6,0.3-0.8c0.1-0.2,0.1-0.4,0.1-0.5h-1.8c0,0,0,0.1,0,0.2s-0.1,0.2-0.1,0.3c-0.1,0.1-0.1,0.3-0.3,0.4
		c-0.1,0.1-0.3,0.2-0.4,0.3c-0.2,0.1-0.4,0.1-0.7,0.1c-0.4,0-0.7-0.1-1.1-0.3c-0.4-0.2-0.8-0.4-1.2-0.6c-0.4-0.2-0.9-0.3-1.3-0.3
		c-0.4,0-0.8,0.1-1.2,0.3c-0.4,0.2-0.6,0.4-0.9,0.7s-0.4,0.6-0.5,0.9c-0.2,0.3-0.3,0.6-0.3,0.8c-0.1,0.2-0.1,0.4-0.1,0.6h1.7
		C815.9,259,815.9,258.9,815.9,258.8z M850.6,264.4c-0.8-0.9-1.8-1.7-3-2.3c-1.2-0.6-2.5-0.9-3.8-0.9s-2.6,0.3-3.8,0.8
		c-1.2,0.6-2.2,1.3-3,2.2c-0.8,0.9-1.5,2-2,3.2s-0.7,2.5-0.7,3.8c0,1,0.1,2,0.4,3c0.3,1,0.7,1.9,1.3,2.7c0.6,0.8,1.2,1.6,2,2.2
		s1.6,1.1,2.6,1.5s2,0.6,3.2,0.6c1.3,0,2.6-0.3,3.8-0.8s2.2-1.3,3-2.2c0.8-0.9,1.5-2,2-3.2s0.7-2.5,0.7-3.8c0-1.2-0.2-2.5-0.7-3.7
		C852,266.5,851.4,265.4,850.6,264.4z M849.5,273.9c-0.3,0.9-0.7,1.6-1.2,2.3c-0.5,0.7-1.2,1.2-2,1.6s-1.7,0.6-2.6,0.6
		c-1.2,0-2.4-0.3-3.3-1c-1-0.7-1.7-1.6-2.2-2.7s-0.8-2.3-0.8-3.5c0-0.9,0.1-1.8,0.4-2.6c0.3-0.9,0.7-1.6,1.2-2.3
		c0.5-0.7,1.2-1.2,2-1.6s1.7-0.6,2.7-0.6c0.9,0,1.8,0.2,2.6,0.6s1.5,0.9,2,1.6s0.9,1.4,1.2,2.3s0.5,1.8,0.5,2.7
		C850,272.2,849.8,273.1,849.5,273.9z M877.5,272.4h8.8v-2.6h-8.8v-5.6h10.1v-2.8h-13.3v19.7h13.5v-2.8h-10.4v-5.9L877.5,272.4
		L877.5,272.4z M922.7,271.5c0.7-1.1,1.1-2.3,1.1-3.6c0-0.8-0.2-1.6-0.5-2.3c-0.3-0.8-0.7-1.5-1.2-2.1s-1.2-1.1-1.9-1.5
		c-0.8-0.4-1.6-0.6-2.5-0.6h-8.6v19.7h3.1v-6.9h4.6l4.3,6.9h3.5l-4.6-7.5C921.1,273.3,922,272.6,922.7,271.5z M917.6,271.5h-5.5
		v-7.4h5.3c0.8,0,1.6,0.4,2.2,1.1c0.6,0.7,1,1.6,1,2.6s-0.3,1.9-0.8,2.6C919.2,271.2,918.5,271.5,917.6,271.5z M936.1,272.4h8.8
		v-2.6h-8.8v-5.6h10.2v-2.8H933v19.7h13.5v-2.8h-10.4V272.4z M967,277.1c-0.6,0.5-1.2,0.9-1.9,1.1c-0.6,0.2-1.3,0.3-2,0.3
		c-1.2,0-2.3-0.3-3.3-1s-1.7-1.6-2.3-2.7c-0.5-1.1-0.8-2.3-0.8-3.6c0-0.7,0.1-1.4,0.3-2.1s0.4-1.3,0.8-1.9c0.4-0.6,0.8-1.2,1.3-1.6
		c0.5-0.5,1.1-0.8,1.8-1.1c0.7-0.3,1.4-0.4,2.2-0.4c0.5,0,1,0.1,1.5,0.2s0.9,0.3,1.4,0.5s0.9,0.6,1.3,1c0.4,0.4,0.7,0.9,1,1.5
		l2.4-1.6c-0.7-1.3-1.6-2.3-3-3.1c-1.3-0.8-2.8-1.2-4.6-1.2c-1.2,0-2.3,0.2-3.3,0.6s-1.9,0.9-2.7,1.5s-1.4,1.4-1.9,2.2
		c-0.5,0.8-1,1.7-1.2,2.7c-0.3,0.9-0.4,1.9-0.4,2.9c0,1.2,0.2,2.5,0.7,3.7s1.1,2.3,1.9,3.3c0.8,1,1.8,1.7,3,2.3
		c1.2,0.6,2.5,0.9,3.8,0.9c1.1,0,2.1-0.2,3.2-0.5c1-0.3,2-0.9,2.9-1.6s1.5-1.5,1.9-2.5l-2.6-1.5C968.1,276,967.6,276.6,967,277.1z
		 M994.3,264.4c-0.8-0.9-1.8-1.7-3-2.3c-1.2-0.6-2.5-0.9-3.8-0.9s-2.6,0.3-3.8,0.8c-1.2,0.6-2.2,1.3-3,2.2c-0.8,0.9-1.5,2-2,3.2
		s-0.7,2.5-0.7,3.8c0,1,0.1,2,0.4,3c0.3,1,0.7,1.9,1.3,2.7c0.6,0.8,1.2,1.6,2,2.2s1.6,1.1,2.6,1.5s2,0.6,3.2,0.6
		c1.3,0,2.6-0.3,3.8-0.8s2.2-1.3,3-2.2c0.8-0.9,1.5-2,2-3.2s0.7-2.5,0.7-3.8c0-1.2-0.2-2.5-0.7-3.7
		C995.7,266.5,995.1,265.4,994.3,264.4z M993.3,273.9c-0.3,0.9-0.7,1.6-1.2,2.3c-0.5,0.7-1.2,1.2-2,1.6s-1.7,0.6-2.6,0.6
		c-1.2,0-2.4-0.3-3.3-1c-1-0.7-1.7-1.6-2.2-2.7s-0.8-2.3-0.8-3.5c0-0.9,0.1-1.8,0.4-2.6c0.3-0.9,0.7-1.6,1.2-2.3
		c0.5-0.7,1.2-1.2,2-1.6s1.7-0.6,2.7-0.6c0.9,0,1.8,0.2,2.6,0.6s1.5,0.9,2,1.6s0.9,1.4,1.2,2.3s0.5,1.8,0.5,2.7
		C993.7,272.2,993.6,273.1,993.3,273.9z M1019.4,275.7l-11.2-14.3h-2.6v19.7h3.1v-14l11,14h2.7v-19.7h-3.1L1019.4,275.7
		L1019.4,275.7z M1045.3,272.4c-0.3-0.4-0.8-0.7-1.4-1s-1.2-0.6-1.8-0.8c-0.6-0.2-1.4-0.4-2.2-0.6c-0.5-0.1-1-0.2-1.3-0.3
		c-0.3-0.1-0.7-0.2-1.1-0.3c-0.4-0.1-0.7-0.2-0.9-0.3c-0.2-0.1-0.4-0.2-0.7-0.4c-0.2-0.2-0.4-0.3-0.5-0.5s-0.2-0.4-0.3-0.6
		s-0.1-0.5-0.1-0.7c0-0.9,0.3-1.5,1-2c0.6-0.5,1.6-0.7,2.9-0.7c1.1,0,2.1,0.2,3.2,0.7c1,0.4,1.7,0.9,2.2,1.4l1.4-2.6
		c-2-1.5-4.2-2.2-6.7-2.2c-1,0-2,0.1-2.8,0.4c-0.9,0.3-1.6,0.6-2.3,1.1c-0.6,0.5-1.1,1.1-1.5,1.9s-0.6,1.6-0.6,2.6
		c0,0.8,0.1,1.4,0.4,2s0.6,1,1.1,1.4s1.1,0.8,1.8,1c0.7,0.3,1.5,0.6,2.6,0.8c0.7,0.2,1.2,0.3,1.6,0.4s0.8,0.2,1.3,0.4
		c0.5,0.2,0.8,0.3,1.1,0.5c0.3,0.2,0.5,0.3,0.8,0.6c0.2,0.2,0.4,0.5,0.5,0.7c0.1,0.3,0.1,0.6,0.1,0.9c0,0.8-0.3,1.4-1,1.9
		c-0.7,0.4-1.6,0.7-2.8,0.7c-1.4,0-2.7-0.3-4-0.8s-2.2-1.1-2.8-1.7l-1.4,2.7c1.1,0.9,2.4,1.5,3.8,2s2.9,0.7,4.4,0.7
		c0.8,0,1.6-0.1,2.3-0.2c0.7-0.1,1.4-0.3,2-0.6c0.6-0.3,1.1-0.7,1.6-1.1c0.4-0.4,0.8-1,1-1.6s0.4-1.3,0.4-2.1c0-0.7-0.1-1.3-0.3-1.9
		C1045.9,273.3,1045.7,272.8,1045.3,272.4z M1053.3,264.2h6.6v17h3.2v-17h6.6v-2.8h-16.3L1053.3,264.2L1053.3,264.2z M1091.4,271.5
		c0.7-1.1,1.1-2.3,1.1-3.6c0-0.8-0.2-1.6-0.5-2.3c-0.3-0.8-0.7-1.5-1.2-2.1s-1.2-1.1-1.9-1.5c-0.8-0.4-1.6-0.6-2.5-0.6h-8.6v19.7
		h3.1v-6.9h4.6l4.3,6.9h3.5l-4.6-7.5C1089.8,273.3,1090.7,272.6,1091.4,271.5z M1086.4,271.5h-5.5v-7.4h5.3c0.8,0,1.6,0.4,2.2,1.1
		s0.9,1.6,0.9,2.6s-0.3,1.9-0.8,2.6C1087.9,271.2,1087.2,271.5,1086.4,271.5z M1115.3,271.4c0,0.7-0.1,1.4-0.2,2.1s-0.3,1.3-0.6,1.9
		c-0.3,0.6-0.6,1.1-1,1.6c-0.4,0.4-0.9,0.8-1.5,1.1c-0.6,0.3-1.3,0.4-2.2,0.4c-0.8,0-1.5-0.1-2.1-0.4s-1.1-0.6-1.5-1s-0.7-1-1-1.6
		s-0.5-1.3-0.6-1.9c-0.1-0.7-0.2-1.4-0.2-2.1v-10h-3.1v10c0,1.1,0.1,2.1,0.3,3c0.2,0.9,0.5,1.8,0.9,2.7c0.4,0.9,1,1.6,1.6,2.2
		s1.4,1.1,2.4,1.5s2.1,0.5,3.3,0.5c1.5,0,2.8-0.3,3.9-0.8s2-1.2,2.7-2.2s1.2-2,1.5-3.1c0.3-1.2,0.5-2.4,0.5-3.8v-10h-3.1
		L1115.3,271.4L1115.3,271.4z M1140.3,277.1c-0.6,0.5-1.2,0.9-1.9,1.1c-0.6,0.2-1.3,0.3-2,0.3c-1.2,0-2.3-0.3-3.3-1
		s-1.7-1.6-2.3-2.7c-0.5-1.1-0.8-2.3-0.8-3.6c0-0.7,0.1-1.4,0.3-2.1c0.2-0.7,0.4-1.3,0.8-1.9s0.8-1.2,1.3-1.6
		c0.5-0.5,1.1-0.8,1.8-1.1c0.7-0.3,1.4-0.4,2.2-0.4c0.5,0,1,0.1,1.5,0.2s0.9,0.3,1.4,0.5s0.9,0.6,1.3,1s0.7,0.9,1,1.5l2.4-1.6
		c-0.7-1.3-1.6-2.3-3-3.1c-1.3-0.8-2.8-1.2-4.6-1.2c-1.2,0-2.3,0.2-3.3,0.6s-1.9,0.9-2.7,1.5c-0.8,0.6-1.4,1.4-1.9,2.2
		c-0.5,0.8-1,1.7-1.2,2.7c-0.3,0.9-0.4,1.9-0.4,2.9c0,1.2,0.2,2.4,0.6,3.5c0.4,1.2,1,2.2,1.8,3.2c0.8,0.9,1.7,1.7,2.8,2.3
		c1.1,0.6,2.3,1,3.5,1.1c1,0.7,1.5,1.3,1.5,2.1c0,0.4-0.1,0.7-0.4,1c-0.3,0.2-0.7,0.3-1.2,0.3c-0.6,0-1.3-0.2-2-0.6l-0.8,1.6
		c1,0.5,2.1,0.8,3.3,0.8c1,0,1.7-0.2,2.2-0.7s0.8-1.1,0.8-1.9c0-1-0.5-1.9-1.4-2.7c1.5-0.2,2.8-0.7,4.1-1.5c1.2-0.8,2.1-1.8,2.6-3
		l-2.6-1.5C1141.4,276,1140.9,276.6,1140.3,277.1z M1158.1,261.4l-7.7,19.7h3.3l2.1-5.4h7.6l2.1,5.4h3.3l-7.7-19.7H1158.1z
		 M1156.3,273.5l3.3-8.6l3.2,8.6H1156.3z M1156.5,258.8c0-0.1,0.1-0.3,0.2-0.4c0.1-0.2,0.2-0.3,0.4-0.4c0.2-0.1,0.4-0.2,0.7-0.2
		c0.3,0,0.7,0.1,1,0.3c0.4,0.2,0.8,0.4,1.2,0.6c0.4,0.2,0.9,0.3,1.4,0.3s0.9-0.1,1.3-0.3c0.4-0.2,0.7-0.4,0.9-0.7
		c0.2-0.3,0.4-0.6,0.6-0.9s0.3-0.6,0.3-0.8c0.1-0.2,0.1-0.4,0.1-0.5h-1.8c0,0,0,0.1,0,0.2s-0.1,0.2-0.1,0.3
		c-0.1,0.1-0.1,0.3-0.3,0.4c-0.1,0.1-0.3,0.2-0.4,0.3c-0.2,0.1-0.4,0.1-0.7,0.1c-0.4,0-0.7-0.1-1.1-0.3c-0.4-0.2-0.8-0.4-1.2-0.6
		c-0.4-0.2-0.9-0.3-1.3-0.3s-0.8,0.1-1.2,0.3c-0.4,0.2-0.6,0.4-0.9,0.7c-0.2,0.3-0.4,0.6-0.5,0.9c-0.2,0.3-0.3,0.6-0.3,0.8
		c-0.1,0.2-0.1,0.4-0.1,0.6h1.7C1156.4,259,1156.4,258.9,1156.5,258.8z M1193,267.7c-0.5-1.2-1.1-2.3-1.9-3.2
		c-0.8-0.9-1.8-1.7-3-2.3c-1.2-0.6-2.5-0.9-3.8-0.9s-2.6,0.3-3.8,0.8c-1.2,0.6-2.2,1.3-3,2.2c-0.8,0.9-1.5,2-2,3.2s-0.7,2.5-0.7,3.8
		c0,1,0.1,2,0.4,3s0.7,1.9,1.3,2.7c0.6,0.8,1.2,1.6,2,2.2s1.6,1.1,2.6,1.5s2,0.6,3.2,0.6c1.3,0,2.6-0.3,3.8-0.8
		c1.2-0.5,2.2-1.3,3-2.2c0.8-0.9,1.5-2,2-3.2s0.7-2.5,0.7-3.8C1193.7,270.1,1193.5,268.9,1193,267.7z M1190.1,273.9
		c-0.3,0.9-0.7,1.6-1.2,2.3s-1.2,1.2-2,1.6s-1.7,0.6-2.6,0.6c-1.2,0-2.4-0.3-3.3-1c-1-0.7-1.7-1.6-2.2-2.7s-0.8-2.3-0.8-3.5
		c0-0.9,0.1-1.8,0.4-2.6c0.3-0.9,0.7-1.6,1.2-2.3c0.5-0.7,1.2-1.2,2-1.6s1.7-0.6,2.7-0.6c0.9,0,1.8,0.2,2.6,0.6
		c0.8,0.4,1.5,0.9,2,1.6s0.9,1.4,1.2,2.3c0.3,0.9,0.5,1.8,0.5,2.7C1190.5,272.2,1190.4,273.1,1190.1,273.9z"/>
</g>
<g>
	<path d="M756.2,62.3h6.8c-0.6,1.6-2.3,3-5,3c-3.8,0-6.4-2.7-6.4-6.5s2.6-6.7,6.3-6.7c2.4,0,4.4,1.1,5.5,3.1l5.8-3.4
		c-2.3-3.9-6.6-6.2-11.2-6.2c-7.3,0-13.2,5.8-13.2,13.2s5.8,13.1,13.2,13.1c6.9,0,12.2-5.1,12.2-12.9v-2h-14L756.2,62.3 M792.7,45.5
		c-7.4,0-13.2,5.8-13.2,13.2c0,7.3,5.8,13.2,13.2,13.2c7.3,0,13.1-5.8,13.1-13.2S800,45.5,792.7,45.5z M792.7,64.9
		c-3.4,0-6-2.7-6-6.2s2.6-6.2,6-6.2c3.3,0,5.8,2.7,5.8,6.2S796,64.9,792.7,64.9z M825.3,61.6l-5.8-15.5h-7.3l9.7,25.1h6.8l9.8-25.1
		h-7.3L825.3,61.6z M847.3,71.2h18v-6.1h-11.2v-3.7h7.4V56h-7.4v-3.7h11.2v-6.1h-18V71.2z M896.7,54.3c0-4.7-3.8-8.2-8.7-8.2h-12.2
		v25.1h6.7v-8.7h2.8l5,8.7h7.5l-5.6-9.7C894.9,60.1,896.7,57.5,896.7,54.3z M887.2,56.8h-4.7v-4.7h4.7c1.6,0,2.6,1.1,2.6,2.4
		C889.8,55.7,888.8,56.8,887.2,56.8z M923,59.4l-10.2-13.3h-5.7v25.1h6.7V58l10.1,13.2h5.7V46.1h-6.7v13.3
		C922.9,59.4,923,59.4,923,59.4z M952.7,45.5c-7.4,0-13.2,5.8-13.2,13.2c0,7.3,5.8,13.2,13.2,13.2c7.3,0,13.1-5.8,13.1-13.2
		S959.9,45.5,952.7,45.5z M952.7,64.9c-3.4,0-6-2.7-6-6.2s2.6-6.2,6-6.2c3.3,0,5.8,2.7,5.8,6.2S955.9,64.9,952.7,64.9z M992.2,71.2
		h6.8V62h7.4v-5.7H999V52h11.2v-6h-18V71.2z M1020.3,71.2h18v-6.1h-11.2v-3.7h7.4V56h-7.4v-3.7h11.2v-6.1h-18L1020.3,71.2
		L1020.3,71.2z M1059,46.1h-10.2v25.1h10.2c7.7,0,13.4-5.4,13.4-12.6C1072.5,51.4,1066.7,46.1,1059,46.1z M1058.7,64.7h-3.1V52.6
		h3.1c4,0,6.7,2.4,6.7,6C1065.4,62.3,1062.7,64.7,1058.7,64.7z M1082.2,71.2h18v-6.1H1089v-3.7h7.4V56h-7.4v-3.7h11.2v-6.1h-18V71.2
		z M1131.5,54.3c0-4.7-3.8-8.2-8.7-8.2h-12.2v25.1h6.7v-8.7h2.8l5,8.7h7.5l-5.6-9.7C1129.8,60.1,1131.5,57.5,1131.5,54.3z
		 M1122.1,56.8h-4.7v-4.7h4.7c1.6,0,2.6,1.1,2.6,2.4C1124.7,55.7,1123.7,56.8,1122.1,56.8z M1150.6,46.1l-10.5,25.1h7.1l1.7-4.3h9.9
		l1.8,4.3h7L1157,46.1H1150.6z M1151.4,60.9l2.5-6.2l2.5,6.2H1151.4z M1183.6,64.8V46.1h-7.1v25.1h17.7v-6.5h-10.6V64.8z"/>
</g>
<g>
	<rect x="1148.4" y="98.5" class="st0" width="45.8" height="87.9"/>
</g>
<g>
	<rect x="1194.2" y="186.4" class="st0" width="45.8" height="44.5"/>
</g>
<g>
	<rect x="1148.4" y="186.4" class="st0" width="45.8" height="44.5"/>
</g>
<g>
	<rect x="1094.9" y="98.5" class="st0" width="45.8" height="132.4"/>
</g>
<g>
	<rect x="994.4" y="157.3" class="st0" width="43.3" height="73.6"/>
</g>
<g>
	<rect x="1037.7" y="98.5" class="st0" width="49.5" height="48.1"/>
</g>
<g>
	<path class="st0" d="M1052.8,146.6h-15.1v84.2h15.1c23.3,0,42.1-18.9,42.1-42.1S1076.1,146.6,1052.8,146.6"/>
</g>
<g>
	<path class="st0" d="M1023.8,98.5c-16.2,0-29.4,13.2-29.4,29.4s13.2,29.4,29.4,29.4h13.9V98.5H1023.8"/>
</g>
<g>
	<path class="st0" d="M744.2,151.6h10.6c14.7,0,26.6-11.9,26.6-26.6s-11.9-26.6-26.6-26.6h-10.6V151.6"/>
</g>
<g>
	<rect x="698.4" y="98.5" class="st0" width="45.8" height="53.1"/>
</g>
<g>
	<rect x="698.4" y="151.6" class="st0" width="45.8" height="79.3"/>
</g>
<g>
	<path class="st0" d="M759.2,151.6h-15.1v79.3h15.1c21.9,0,39.6-17.7,39.6-39.6C798.9,169.3,781.1,151.6,759.2,151.6"/>
</g>
<g>
	<polyline class="st0" points="850.8,178.4 798.9,178.4 798.9,230.9 884.9,230.9 850.8,178.4 	"/>
</g>
<g>
	<polyline class="st0" points="850.8,178.4 798.9,98.5 798.9,178.4 850.8,178.4 	"/>
</g>
<g>
	<path class="st0" d="M850.8,98.5h-52l52,80c22.1,0,40-17.9,40-40S872.9,98.5,850.8,98.5"/>
</g>
<g>
	<polyline class="st0" points="938.6,98.5 859.8,230.9 1017.3,230.9 938.6,98.5 	"/>
</g>
<g>
	<polyline class="st0" points="994.4,192.3 994.4,230.9 1017.3,230.9 994.4,192.3 	"/>
</g>
<g>
	<polyline class="st0" points="859.8,230.9 884.9,230.9 871.8,210.7 859.8,230.9 	"/>
</g>
<g>
	<path class="st0" d="M986.9,230.9c0-26.7-21.6-48.3-48.3-48.3s-48.3,21.6-48.3,48.3H986.9"/>
</g>
<g>
	<path d="M272.1,125.2v-19.1l-7.9,14.5h-2.5l-7.9-14.5v19.1h-4.2V98.4h4.5l8.9,16.4l8.9-16.4h4.5v26.8H272.1z"/>
	<path d="M290,125.2V98.4h4.2v26.8H290z"/>
	<path d="M312,106.3v19h-4.2V98.4h3.5l15.2,19.4V98.5h4.3v26.8H327L312,106.3z"/>
	<path d="M344.3,125.2V98.4h4.2v26.8H344.3z"/>
	<path d="M378,104.7c-0.6-0.6-1.6-1.3-3-1.8c-1.4-0.6-2.8-0.9-4.3-0.9c-1.7,0-3.1,0.3-3.9,1c-0.9,0.6-1.3,1.6-1.3,2.7
		c0,0.4,0,0.7,0.1,1s0.2,0.6,0.4,0.8c0.2,0.2,0.4,0.4,0.7,0.7c0.3,0.2,0.6,0.4,0.9,0.5s0.7,0.3,1.2,0.5s1,0.3,1.5,0.4
		s1.1,0.3,1.8,0.5c1.2,0.3,2.2,0.6,3,0.8c0.8,0.3,1.6,0.6,2.4,1.1c0.8,0.4,1.4,0.9,1.9,1.4s0.8,1.2,1.1,1.9c0.3,0.8,0.4,1.6,0.4,2.6
		c0,1.1-0.2,2-0.5,2.9s-0.8,1.6-1.4,2.2s-1.3,1.1-2.1,1.5c-0.8,0.4-1.7,0.7-2.7,0.9c-1,0.2-2,0.3-3.1,0.3c-2,0-4-0.3-5.9-0.9
		s-3.6-1.5-5.1-2.7l1.9-3.6c0.8,0.8,2,1.6,3.8,2.3c1.8,0.7,3.6,1.1,5.4,1.1c1.7,0,3-0.3,3.9-0.9s1.4-1.4,1.4-2.5
		c0-0.4-0.1-0.8-0.2-1.2c-0.1-0.4-0.4-0.7-0.7-1c-0.3-0.3-0.7-0.5-1-0.7c-0.4-0.2-0.8-0.4-1.5-0.6s-1.2-0.4-1.8-0.6
		c-0.5-0.1-1.3-0.3-2.2-0.6c-1.4-0.4-2.6-0.7-3.5-1.1s-1.7-0.8-2.4-1.4c-0.7-0.6-1.2-1.2-1.5-2s-0.5-1.7-0.5-2.7
		c0-1.3,0.2-2.5,0.7-3.5s1.2-1.9,2.1-2.6s1.9-1.2,3.1-1.5c1.2-0.4,2.5-0.5,3.9-0.5c3.3,0,6.3,1,9.1,3L378,104.7z"/>
	<path d="M412.5,102.2h-8.9v23.1h-4.3v-23.1h-8.9v-3.7h22.1L412.5,102.2L412.5,102.2z"/>
	<path d="M442,121.5v3.7h-18.4V98.4h18.1v3.7h-13.8v7.6h12v3.5h-12v8.2H442V121.5z M434.5,95.7l-2.7-0.8l2.2-4.1h4L434.5,95.7z"/>
	<path d="M453.9,125.2V98.4h11.7c1.2,0,2.3,0.3,3.3,0.8c1.1,0.5,1.9,1.2,2.6,2s1.3,1.8,1.7,2.8c0.4,1,0.6,2.1,0.6,3.2
		c0,1.8-0.5,3.5-1.4,4.9c-1,1.5-2.2,2.5-3.8,3l6.3,10.2h-4.8l-5.8-9.3h-6.2v9.3h-4.2V125.2z M458.1,112.2h7.4c1.2,0,2.1-0.5,2.9-1.5
		s1.1-2.2,1.1-3.6s-0.4-2.5-1.3-3.5s-1.9-1.5-3-1.5H458v10.1H458.1z"/>
	<path d="M486.4,125.2V98.4h4.2v26.8H486.4z"/>
	<path d="M502.6,111.8c0-1.8,0.3-3.5,1-5.1c0.7-1.7,1.6-3.1,2.7-4.3s2.5-2.2,4.1-3c1.6-0.8,3.3-1.1,5.1-1.1c1.9,0,3.6,0.4,5.2,1.2
		c1.6,0.8,3,1.8,4.1,3.1c1.1,1.3,1.9,2.7,2.6,4.4c0.6,1.6,0.9,3.3,0.9,5c0,1.8-0.3,3.5-1,5.1s-1.5,3.1-2.7,4.3
		c-1.1,1.2-2.5,2.2-4.1,3c-1.6,0.7-3.3,1.1-5.1,1.1c-1.5,0-2.9-0.2-4.3-0.7c-1.4-0.5-2.5-1.2-3.6-2.1s-1.9-1.9-2.7-3
		c-0.8-1.1-1.3-2.4-1.7-3.7C502.8,114.6,502.6,113.2,502.6,111.8z M515.4,121.6c1.3,0,2.5-0.3,3.6-0.8c1.1-0.6,2-1.3,2.7-2.2
		c0.7-0.9,1.2-2,1.6-3.1c0.4-1.2,0.6-2.3,0.6-3.6c0-1.3-0.2-2.5-0.6-3.7c-0.4-1.2-1-2.2-1.7-3.1s-1.6-1.6-2.7-2.2
		c-1.1-0.5-2.2-0.8-3.5-0.8s-2.5,0.3-3.6,0.8s-2,1.3-2.7,2.2c-0.7,0.9-1.3,2-1.7,3.1c-0.4,1.2-0.6,2.3-0.6,3.6c0,1.7,0.3,3.3,1,4.8
		s1.7,2.7,3,3.6C512.2,121.1,513.7,121.6,515.4,121.6z"/>
	<path d="M557.1,125.2V98.4h9.5c2.1,0,4,0.3,5.7,1s3.1,1.7,4.1,2.9s1.9,2.6,2.4,4.2c0.6,1.6,0.8,3.3,0.8,5.2c0,4.1-1.2,7.3-3.6,9.8
		c-2.4,2.5-5.5,3.7-9.5,3.7H557.1z M566.6,102.2h-5.3v19.3h5.3c1.8,0,3.4-0.4,4.8-1.3c1.3-0.9,2.3-2,3-3.5s1-3.1,1-5
		c0-2.9-0.8-5.2-2.3-7C571.5,103.1,569.3,102.2,566.6,102.2z"/>
	<path d="M598.5,98.4h4l10.4,26.8h-4.5l-2.8-7.3h-10.3l-2.8,7.3H588L598.5,98.4z M604.8,114.8l-4.3-11.8l-4.4,11.8H604.8z"/>
	<path d="M82.2,151c2.4,0,4.5,0.5,6.4,1.6s3.2,2.5,4.1,4.3l-4,2.8c-0.4-1-1-1.7-1.8-2.4c-0.8-0.6-1.5-1-2.3-1.3
		c-0.8-0.2-1.6-0.4-2.5-0.4c-1.3,0-2.4,0.3-3.4,0.8s-1.8,1.2-2.5,2.1s-1.1,1.8-1.4,2.8s-0.5,2.1-0.5,3.2c0,1.6,0.3,3.1,1,4.4
		c0.7,1.4,1.6,2.5,2.8,3.3c1.2,0.8,2.6,1.3,4.1,1.3c0.9,0,1.7-0.1,2.5-0.4c0.8-0.3,1.6-0.7,2.4-1.3s1.3-1.4,1.7-2.3l4.3,2.5
		c-0.5,1.3-1.4,2.4-2.6,3.4s-2.5,1.7-4,2.2s-2.9,0.7-4.4,0.7s-2.9-0.3-4.3-0.8s-2.6-1.2-3.6-2.1c-1-0.9-1.9-1.9-2.7-3.1
		c-0.8-1.2-1.4-2.4-1.8-3.8c-0.4-1.3-0.6-2.7-0.6-4c0-1.6,0.3-3.3,0.9-4.9c0.6-1.6,1.5-3,2.6-4.3s2.5-2.3,4.2-3.1
		C78.3,151.4,80.2,151,82.2,151z"/>
	<path d="M104.1,177.9v-26.8h5.2v26.8H104.1z"/>
	<path d="M141,173.4v4.6h-18.6v-26.8h18.3v4.6h-13.1v6.5h11.3v4.2h-11.3v7H141V173.4z M126.1,147.2l4-3.8h3.7l4,3.8l-2.6,1.2
		L132,146l-3.2,2.4L126.1,147.2z"/>
	<path d="M157.9,160.7v17.2h-5.2v-26.8h4.2l13.9,17.7v-17.6h5.2V178h-4.3L157.9,160.7z"/>
	<path d="M200.6,151c2.4,0,4.5,0.5,6.4,1.6s3.2,2.5,4.1,4.3l-4,2.8c-0.4-1-1-1.7-1.8-2.4c-0.8-0.6-1.5-1-2.3-1.3
		c-0.8-0.2-1.6-0.4-2.5-0.4c-1.3,0-2.4,0.3-3.4,0.8s-1.8,1.2-2.5,2.1s-1.1,1.8-1.4,2.8c-0.3,1-0.5,2.1-0.5,3.2c0,1.6,0.3,3.1,1,4.4
		c0.7,1.4,1.6,2.5,2.8,3.3s2.6,1.3,4.1,1.3c0.9,0,1.7-0.1,2.5-0.4c0.8-0.3,1.6-0.7,2.4-1.3c0.8-0.6,1.3-1.4,1.7-2.3l4.3,2.5
		c-0.5,1.3-1.4,2.4-2.6,3.4c-1.2,1-2.5,1.7-4,2.2s-2.9,0.7-4.4,0.7s-2.9-0.3-4.3-0.8s-2.6-1.2-3.6-2.1c-1-0.9-1.9-1.9-2.7-3.1
		c-0.8-1.2-1.4-2.4-1.8-3.8c-0.4-1.3-0.6-2.7-0.6-4c0-1.6,0.3-3.3,0.9-4.9c0.6-1.6,1.5-3,2.6-4.3s2.5-2.3,4.2-3.1
		C196.7,151.4,198.6,151,200.6,151z"/>
	<path d="M222.5,177.9v-26.8h5.2v26.8H222.5z"/>
	<path d="M248.1,151.1h5.3l9.9,26.8h-5.4l-2.5-6.7H246l-2.5,6.7h-5.4L248.1,151.1z M254.5,167.6l-3.7-11.1l-3.9,11.1H254.5z"/>
	<path d="M273.7,182.3l1-4.5h-1.6v-5.3h4.4v5.3l-1.5,4.5H273.7z"/>
	<path d="M325.7,155.7h-8.6v22.2h-5.2v-22.2h-8.6v-4.6h22.3v4.6H325.7z"/>
	<path d="M355.2,173.4v4.6h-18.6v-26.8h18.3v4.6h-13.1v6.5H353v4.2h-11.3v7h13.5V173.4z"/>
	<path d="M377.9,151c2.4,0,4.5,0.5,6.4,1.6s3.2,2.5,4.1,4.3l-4,2.8c-0.4-1-1-1.7-1.8-2.4c-0.8-0.6-1.5-1-2.3-1.3
		c-0.8-0.2-1.6-0.4-2.5-0.4c-1.3,0-2.4,0.3-3.4,0.8s-1.8,1.2-2.5,2.1s-1.1,1.8-1.4,2.8s-0.5,2.1-0.5,3.2c0,1.6,0.3,3.1,1,4.4
		c0.7,1.4,1.6,2.5,2.8,3.3c1.2,0.8,2.6,1.3,4.1,1.3c0.9,0,1.7-0.1,2.5-0.4c0.8-0.3,1.6-0.7,2.4-1.3s1.3-1.4,1.7-2.3l4.3,2.5
		c-0.5,1.3-1.4,2.4-2.6,3.4s-2.5,1.7-4,2.2s-2.9,0.7-4.4,0.7s-2.9-0.3-4.3-0.8s-2.6-1.2-3.6-2.1c-1-0.9-1.9-1.9-2.7-3.1
		c-0.8-1.2-1.4-2.4-1.8-3.8c-0.4-1.3-0.6-2.7-0.6-4c0-1.6,0.3-3.3,0.9-4.9c0.6-1.6,1.5-3,2.6-4.3s2.5-2.3,4.2-3.1
		C374,151.4,375.9,151,377.9,151z"/>
	<path d="M404.9,160.7v17.2h-5.2v-26.8h4.2l13.9,17.7v-17.6h5.2V178h-4.3L404.9,160.7z"/>
	<path d="M434.5,164.5c0-1.8,0.3-3.5,1-5.1c0.7-1.7,1.6-3.1,2.7-4.3s2.5-2.2,4.2-3c1.6-0.8,3.4-1.1,5.3-1.1c1.5,0,3,0.3,4.3,0.8
		c1.4,0.5,2.6,1.2,3.6,2.1c1,0.9,1.9,1.9,2.7,3.1c0.8,1.1,1.4,2.4,1.8,3.7s0.6,2.7,0.6,4c0,1.8-0.3,3.5-1,5.1s-1.6,3.1-2.7,4.3
		s-2.5,2.2-4.2,3c-1.6,0.7-3.4,1.1-5.2,1.1c-1.5,0-3-0.2-4.4-0.7s-2.6-1.2-3.6-2.1c-1-0.9-2-1.9-2.7-3c-0.8-1.1-1.4-2.4-1.8-3.7
		C434.7,167.2,434.5,165.9,434.5,164.5z M447.6,173.5c1.2,0,2.3-0.3,3.3-0.8s1.8-1.2,2.5-2.1c0.6-0.9,1.1-1.8,1.5-2.9
		s0.5-2.2,0.5-3.3c0-1.6-0.3-3-0.9-4.4c-0.6-1.3-1.5-2.4-2.7-3.3c-1.2-0.8-2.6-1.3-4.1-1.3c-1.2,0-2.3,0.3-3.3,0.8s-1.8,1.2-2.5,2
		c-0.6,0.8-1.1,1.8-1.5,2.9c-0.4,1.1-0.5,2.1-0.5,3.3c0,1.6,0.3,3,0.9,4.4c0.6,1.3,1.5,2.5,2.7,3.3
		C444.6,173.1,446,173.5,447.6,173.5z"/>
	<path d="M472.2,177.9v-26.8h5.2v22.2h13.7v4.6H472.2z"/>
	<path d="M499.6,164.5c0-1.8,0.3-3.5,1-5.1c0.7-1.7,1.6-3.1,2.7-4.3s2.5-2.2,4.2-3c1.6-0.8,3.4-1.1,5.3-1.1c1.5,0,3,0.3,4.3,0.8
		c1.4,0.5,2.6,1.2,3.6,2.1c1,0.9,1.9,1.9,2.7,3.1c0.8,1.1,1.4,2.4,1.8,3.7s0.6,2.7,0.6,4c0,1.8-0.3,3.5-1,5.1s-1.6,3.1-2.7,4.3
		c-1.1,1.2-2.5,2.2-4.2,3c-1.6,0.7-3.4,1.1-5.2,1.1c-1.5,0-3-0.2-4.4-0.7s-2.6-1.2-3.6-2.1c-1-0.9-2-1.9-2.7-3
		c-0.8-1.1-1.4-2.4-1.8-3.7C499.8,167.2,499.6,165.9,499.6,164.5z M512.7,173.5c1.2,0,2.3-0.3,3.3-0.8s1.8-1.2,2.5-2.1
		c0.6-0.9,1.1-1.8,1.5-2.9s0.5-2.2,0.5-3.3c0-1.6-0.3-3-0.9-4.4c-0.6-1.3-1.5-2.4-2.7-3.3c-1.2-0.8-2.6-1.3-4.1-1.3
		c-1.2,0-2.3,0.3-3.3,0.8s-1.8,1.2-2.5,2c-0.6,0.8-1.1,1.8-1.5,2.9c-0.4,1.1-0.5,2.1-0.5,3.3c0,1.6,0.3,3,0.9,4.4
		c0.6,1.3,1.5,2.5,2.7,3.3C509.7,173.1,511.1,173.5,512.7,173.5z"/>
	<path d="M550.5,164.1h9.7v13.8h-4.3v-3.1c-2.2,2.2-4.7,3.2-7.5,3.2c-2.3,0-4.5-0.6-6.4-1.8s-3.5-2.9-4.6-5s-1.7-4.4-1.7-7
		c0-1.8,0.3-3.5,1-5.2c0.7-1.6,1.6-3.1,2.7-4.3c1.1-1.2,2.5-2.2,4.2-2.9c1.6-0.7,3.3-1.1,5.2-1.1c2.5,0,4.6,0.5,6.4,1.6
		s3.2,2.5,4.1,4.3l-3.9,2.9c-0.7-1.3-1.6-2.3-2.8-3s-2.6-1.1-4-1.1c-1.5,0-2.8,0.4-4,1.2s-2.1,1.9-2.7,3.3c-0.6,1.4-0.9,2.9-0.9,4.5
		c0,2.5,0.8,4.7,2.3,6.4s3.4,2.6,5.7,2.6c2.6,0,4.9-1.2,7-3.7V168h-5.4L550.5,164.1L550.5,164.1z"/>
	<path d="M572.3,177.9v-26.8h5.2v26.8H572.3z"/>
	<path d="M597.9,151.1h5.3l9.9,26.8h-5.4l-2.5-6.7h-9.4l-2.5,6.7H588L597.9,151.1z M604.2,167.6l-3.7-11.1l-3.9,11.1H604.2z"/>
	<path d="M340.4,226v4.6h-18.6v-26.8h18.3v4.6H327v6.5h11.3v4.2H327v7h13.4V226z"/>
	<path d="M368.6,230.6v-26.8h5.2v26.8H368.6z"/>
	<path d="M392.2,213.4v17.2H387v-26.8h4.2l13.9,17.7v-17.6h5.2v26.8H406L392.2,213.4z"/>
	<path d="M421.7,217.2c0-1.8,0.3-3.5,1-5.1c0.7-1.7,1.6-3.1,2.7-4.3s2.5-2.2,4.2-3c1.6-0.8,3.4-1.1,5.3-1.1c1.5,0,3,0.3,4.3,0.8
		c1.4,0.5,2.6,1.2,3.6,2.1c1,0.9,1.9,1.9,2.7,3.1c0.8,1.2,1.4,2.4,1.8,3.7s0.6,2.7,0.6,4c0,1.8-0.3,3.5-1,5.1s-1.6,3.1-2.7,4.3
		s-2.5,2.2-4.2,3c-1.6,0.7-3.4,1.1-5.2,1.1c-1.5,0-3-0.2-4.4-0.7s-2.6-1.2-3.6-2.1c-1-0.9-2-1.9-2.7-3c-0.8-1.1-1.4-2.4-1.8-3.7
		C421.9,219.9,421.7,218.6,421.7,217.2z M434.8,226.2c1.2,0,2.3-0.3,3.3-0.8s1.8-1.2,2.5-2.1c0.6-0.9,1.1-1.8,1.5-2.9
		s0.5-2.2,0.5-3.3c0-1.6-0.3-3-0.9-4.4c-0.6-1.3-1.5-2.4-2.7-3.3c-1.2-0.8-2.6-1.3-4.1-1.3c-1.2,0-2.3,0.3-3.3,0.8s-1.8,1.2-2.5,2
		c-0.6,0.8-1.1,1.8-1.5,2.9c-0.4,1.1-0.5,2.1-0.5,3.3c0,1.6,0.3,3,0.9,4.4c0.6,1.3,1.5,2.5,2.7,3.3
		C431.8,225.8,433.2,226.2,434.8,226.2z"/>
	<path d="M461.2,203.8l7.2,20.6l7.2-20.6h5.5l-10.2,26.8h-5l-10.2-26.8H461.2z"/>
	<path d="M496.6,203.8h5.3l9.9,26.8h-5.4l-2.5-6.7h-9.4l-2.5,6.7h-5.4L496.6,203.8z M503,220.3l-3.7-11.1l-3.9,11.1H503z"/>
	<path d="M543.7,224.6c-0.7,1.6-1.9,3-3.6,4.1c-1.7,1.1-3.6,1.7-5.6,2c1.3,1.1,1.9,2.4,1.9,3.8c0,1.1-0.4,2-1.1,2.7
		c-0.8,0.7-1.8,1-3.2,1c-1.5,0-3-0.4-4.5-1.1l1.3-2.7c0.8,0.5,1.6,0.8,2.4,0.8c0.7,0,1.2-0.1,1.5-0.4c0.4-0.3,0.6-0.7,0.6-1.3
		c0-1-0.6-1.9-1.8-2.7c-1.7-0.2-3.3-0.7-4.8-1.5c-1.5-0.9-2.8-1.9-3.8-3.2s-1.8-2.7-2.4-4.3s-0.9-3.2-0.9-4.8s0.3-3.3,0.9-4.9
		c0.6-1.6,1.5-3,2.6-4.3s2.5-2.3,4.2-3.1s3.6-1.2,5.6-1.2c2.4,0,4.5,0.5,6.4,1.6s3.2,2.5,4.1,4.3l-4,2.8c-0.4-1-1-1.7-1.8-2.4
		c-0.8-0.6-1.5-1-2.3-1.3s-1.6-0.4-2.5-0.4c-1.3,0-2.4,0.3-3.4,0.8s-1.8,1.2-2.5,2.1c-0.6,0.9-1.1,1.8-1.4,2.9s-0.5,2.1-0.5,3.2
		c0,1.6,0.3,3.1,1,4.4c0.7,1.4,1.6,2.5,2.8,3.3s2.6,1.3,4.1,1.3c0.9,0,1.7-0.1,2.5-0.4c0.8-0.3,1.6-0.7,2.4-1.3
		c0.8-0.6,1.3-1.4,1.7-2.3L543.7,224.6z"/>
	<path d="M561.6,203.8h5.3l9.9,26.8h-5.4l-2.5-6.7h-9.4l-2.5,6.7h-5.4L561.6,203.8z M561.8,199.2c-0.3,0-0.6,0.1-0.8,0.2
		s-0.4,0.3-0.5,0.4c-0.1,0.2-0.2,0.3-0.3,0.5s-0.1,0.3-0.1,0.5s0,0.2,0,0.2h-2.8c0-0.2,0-0.5,0.1-0.9s0.2-0.8,0.5-1.2
		c0.2-0.5,0.5-0.9,0.8-1.3s0.7-0.7,1.3-1s1.1-0.4,1.7-0.4c0.5,0,1,0.1,1.5,0.3s0.9,0.4,1.2,0.6c0.3,0.2,0.7,0.4,1.1,0.6
		s0.8,0.3,1.2,0.3c0.3,0,0.6-0.1,0.9-0.2c0.3-0.1,0.5-0.3,0.6-0.4s0.2-0.3,0.3-0.5s0.1-0.3,0.2-0.5c0-0.1,0-0.2,0-0.3h2.8
		c0,0.2,0,0.4-0.1,0.8c-0.1,0.3-0.3,0.8-0.5,1.2c-0.2,0.5-0.5,0.9-0.9,1.3s-0.8,0.8-1.3,1.1c-0.6,0.3-1.2,0.4-1.8,0.4
		s-1.3-0.1-1.8-0.4c-0.6-0.3-1.1-0.6-1.7-0.8C562.7,199.3,562.2,199.2,561.8,199.2z M568,220.3l-3.7-11.1l-3.9,11.1H568z"/>
	<path d="M584.6,217.2c0-1.8,0.3-3.5,1-5.1c0.7-1.7,1.6-3.1,2.7-4.3c1.1-1.2,2.5-2.2,4.2-3c1.6-0.8,3.4-1.1,5.3-1.1
		c1.5,0,3,0.3,4.3,0.8c1.4,0.5,2.6,1.2,3.6,2.1c1,0.9,1.9,1.9,2.7,3.1c0.8,1.2,1.4,2.4,1.8,3.7s0.6,2.7,0.6,4c0,1.8-0.3,3.5-1,5.1
		s-1.6,3.1-2.7,4.3c-1.1,1.2-2.5,2.2-4.2,3c-1.6,0.7-3.4,1.1-5.2,1.1c-1.5,0-3-0.2-4.4-0.7s-2.6-1.2-3.6-2.1c-1-0.9-2-1.9-2.7-3
		c-0.8-1.1-1.4-2.4-1.8-3.7C584.8,219.9,584.6,218.6,584.6,217.2z M597.7,226.2c1.2,0,2.3-0.3,3.3-0.8s1.8-1.2,2.5-2.1
		c0.6-0.9,1.1-1.8,1.5-2.9s0.5-2.2,0.5-3.3c0-1.6-0.3-3-0.9-4.4c-0.6-1.3-1.5-2.4-2.7-3.3c-1.2-0.8-2.6-1.3-4.1-1.3
		c-1.2,0-2.3,0.3-3.3,0.8s-1.8,1.2-2.5,2c-0.6,0.8-1.1,1.8-1.5,2.9c-0.4,1.1-0.5,2.1-0.5,3.3c0,1.6,0.3,3,0.9,4.4
		c0.6,1.3,1.5,2.5,2.7,3.3C594.8,225.8,596.2,226.2,597.7,226.2z"/>
</g>
</svg>
